%TF.GenerationSoftware,KiCad,Pcbnew,(5.1.8)-1*%
%TF.CreationDate,2021-02-11T10:15:57+01:00*%
%TF.ProjectId,hallV1,68616c6c-5631-42e6-9b69-6361645f7063,rev?*%
%TF.SameCoordinates,Original*%
%TF.FileFunction,Copper,L1,Top*%
%TF.FilePolarity,Positive*%
%FSLAX46Y46*%
G04 Gerber Fmt 4.6, Leading zero omitted, Abs format (unit mm)*
G04 Created by KiCad (PCBNEW (5.1.8)-1) date 2021-02-11 10:15:57*
%MOMM*%
%LPD*%
G01*
G04 APERTURE LIST*
%TA.AperFunction,ComponentPad*%
%ADD10O,1.700000X1.700000*%
%TD*%
%TA.AperFunction,ComponentPad*%
%ADD11R,1.700000X1.700000*%
%TD*%
%TA.AperFunction,SMDPad,CuDef*%
%ADD12R,0.300000X0.450000*%
%TD*%
%TA.AperFunction,Conductor*%
%ADD13C,0.250000*%
%TD*%
%TA.AperFunction,Conductor*%
%ADD14C,0.254000*%
%TD*%
%TA.AperFunction,Conductor*%
%ADD15C,0.100000*%
%TD*%
G04 APERTURE END LIST*
%TO.P,C1,2*%
%TO.N,GND*%
%TA.AperFunction,SMDPad,CuDef*%
G36*
G01*
X105575000Y-99650000D02*
X105575000Y-99150000D01*
G75*
G02*
X105800000Y-98925000I225000J0D01*
G01*
X106250000Y-98925000D01*
G75*
G02*
X106475000Y-99150000I0J-225000D01*
G01*
X106475000Y-99650000D01*
G75*
G02*
X106250000Y-99875000I-225000J0D01*
G01*
X105800000Y-99875000D01*
G75*
G02*
X105575000Y-99650000I0J225000D01*
G01*
G37*
%TD.AperFunction*%
%TO.P,C1,1*%
%TO.N,+3V3*%
%TA.AperFunction,SMDPad,CuDef*%
G36*
G01*
X104025000Y-99650000D02*
X104025000Y-99150000D01*
G75*
G02*
X104250000Y-98925000I225000J0D01*
G01*
X104700000Y-98925000D01*
G75*
G02*
X104925000Y-99150000I0J-225000D01*
G01*
X104925000Y-99650000D01*
G75*
G02*
X104700000Y-99875000I-225000J0D01*
G01*
X104250000Y-99875000D01*
G75*
G02*
X104025000Y-99650000I0J225000D01*
G01*
G37*
%TD.AperFunction*%
%TD*%
D10*
%TO.P,J1,3*%
%TO.N,GND*%
X101420000Y-97250000D03*
%TO.P,J1,2*%
%TO.N,Net-(J1-Pad2)*%
X103960000Y-97250000D03*
D11*
%TO.P,J1,1*%
%TO.N,+3V3*%
X106500000Y-97250000D03*
%TD*%
D12*
%TO.P,U1,4*%
%TO.N,+3V3*%
X104750000Y-100900000D03*
%TO.P,U1,2*%
%TO.N,GND*%
X104250000Y-102300000D03*
%TO.P,U1,5*%
%TO.N,Net-(J1-Pad2)*%
X103750000Y-100900000D03*
%TO.P,U1,3*%
%TO.N,N/C*%
X104750000Y-102300000D03*
%TO.P,U1,1*%
X103750000Y-102300000D03*
%TD*%
D13*
%TO.N,GND*%
X104250000Y-102300000D02*
X104250000Y-103200000D01*
%TO.N,+3V3*%
X106500000Y-97475000D02*
X104475000Y-99500000D01*
X106500000Y-97250000D02*
X106500000Y-97475000D01*
X104750000Y-99775000D02*
X104750000Y-101000000D01*
X104475000Y-99500000D02*
X104750000Y-99775000D01*
%TO.N,Net-(J1-Pad2)*%
X103750000Y-97460000D02*
X103960000Y-97250000D01*
X103750000Y-100900000D02*
X103750000Y-101000000D01*
X103350000Y-100500000D02*
X103750000Y-100900000D01*
X103350000Y-97860000D02*
X103350000Y-100500000D01*
X103960000Y-97250000D02*
X103350000Y-97860000D01*
%TD*%
D14*
%TO.N,GND*%
X102532068Y-96816842D02*
X102475000Y-97103740D01*
X102475000Y-97396260D01*
X102532068Y-97683158D01*
X102589973Y-97822953D01*
X102586324Y-97860000D01*
X102590000Y-97897323D01*
X102590001Y-100462668D01*
X102586324Y-100500000D01*
X102590001Y-100537333D01*
X102597262Y-100611049D01*
X102600998Y-100648985D01*
X102644454Y-100792246D01*
X102715026Y-100924276D01*
X102786201Y-101011002D01*
X102810000Y-101040001D01*
X102838998Y-101063799D01*
X102968672Y-101193473D01*
X102974188Y-101249482D01*
X103010498Y-101369180D01*
X103069463Y-101479494D01*
X103148815Y-101576185D01*
X103177834Y-101600000D01*
X103148815Y-101623815D01*
X103069463Y-101720506D01*
X103010498Y-101830820D01*
X102974188Y-101950518D01*
X102961928Y-102075000D01*
X102961928Y-102525000D01*
X102974188Y-102649482D01*
X103010498Y-102769180D01*
X103069463Y-102879494D01*
X103148815Y-102976185D01*
X103245506Y-103055537D01*
X103355820Y-103114502D01*
X103475518Y-103150812D01*
X103600000Y-103163072D01*
X103900000Y-103163072D01*
X104024482Y-103150812D01*
X104144180Y-103114502D01*
X104250000Y-103057939D01*
X104355820Y-103114502D01*
X104475518Y-103150812D01*
X104600000Y-103163072D01*
X104900000Y-103163072D01*
X105024482Y-103150812D01*
X105144180Y-103114502D01*
X105254494Y-103055537D01*
X105351185Y-102976185D01*
X105430537Y-102879494D01*
X105489502Y-102769180D01*
X105525812Y-102649482D01*
X105538072Y-102525000D01*
X105538072Y-102075000D01*
X105525812Y-101950518D01*
X105489502Y-101830820D01*
X105430537Y-101720506D01*
X105351185Y-101623815D01*
X105322166Y-101600000D01*
X105351185Y-101576185D01*
X105430537Y-101479494D01*
X105489502Y-101369180D01*
X105525812Y-101249482D01*
X105538072Y-101125000D01*
X105538072Y-100675000D01*
X105525812Y-100550518D01*
X105510000Y-100498393D01*
X105510000Y-99938663D01*
X105546488Y-99818377D01*
X105563072Y-99650000D01*
X105563072Y-99486730D01*
X106311730Y-98738072D01*
X106823722Y-98738072D01*
X106643556Y-99007710D01*
X106485641Y-99388951D01*
X106405136Y-99793674D01*
X106405136Y-100206326D01*
X106485641Y-100611049D01*
X106643556Y-100992290D01*
X106872813Y-101335398D01*
X107164602Y-101627187D01*
X107507710Y-101856444D01*
X107888951Y-102014359D01*
X108293674Y-102094864D01*
X108706326Y-102094864D01*
X109111049Y-102014359D01*
X109492290Y-101856444D01*
X109835398Y-101627187D01*
X110015000Y-101447585D01*
X110015000Y-102464044D01*
X109996973Y-102647902D01*
X109954017Y-102790178D01*
X109884249Y-102921392D01*
X109790320Y-103036561D01*
X109675809Y-103131292D01*
X109545084Y-103201975D01*
X109403115Y-103245922D01*
X109221598Y-103265000D01*
X99285946Y-103265000D01*
X99102099Y-103246974D01*
X98959824Y-103204018D01*
X98828606Y-103134249D01*
X98713439Y-103040321D01*
X98618708Y-102925810D01*
X98548024Y-102795084D01*
X98504078Y-102653116D01*
X98485000Y-102471598D01*
X98485000Y-101447585D01*
X98664602Y-101627187D01*
X99007710Y-101856444D01*
X99388951Y-102014359D01*
X99793674Y-102094864D01*
X100206326Y-102094864D01*
X100611049Y-102014359D01*
X100992290Y-101856444D01*
X101335398Y-101627187D01*
X101627187Y-101335398D01*
X101856444Y-100992290D01*
X102014359Y-100611049D01*
X102094864Y-100206326D01*
X102094864Y-99793674D01*
X102014359Y-99388951D01*
X101856444Y-99007710D01*
X101627187Y-98664602D01*
X101335398Y-98372813D01*
X100992290Y-98143556D01*
X100611049Y-97985641D01*
X100206326Y-97905136D01*
X99793674Y-97905136D01*
X99388951Y-97985641D01*
X99007710Y-98143556D01*
X98664602Y-98372813D01*
X98485000Y-98552415D01*
X98485000Y-97535945D01*
X98503027Y-97352094D01*
X98545979Y-97209829D01*
X98615752Y-97078607D01*
X98709681Y-96963438D01*
X98824188Y-96868710D01*
X98954917Y-96798025D01*
X99096884Y-96754079D01*
X99278402Y-96735001D01*
X102565968Y-96735001D01*
X102532068Y-96816842D01*
%TA.AperFunction,Conductor*%
D15*
G36*
X102532068Y-96816842D02*
G01*
X102475000Y-97103740D01*
X102475000Y-97396260D01*
X102532068Y-97683158D01*
X102589973Y-97822953D01*
X102586324Y-97860000D01*
X102590000Y-97897323D01*
X102590001Y-100462668D01*
X102586324Y-100500000D01*
X102590001Y-100537333D01*
X102597262Y-100611049D01*
X102600998Y-100648985D01*
X102644454Y-100792246D01*
X102715026Y-100924276D01*
X102786201Y-101011002D01*
X102810000Y-101040001D01*
X102838998Y-101063799D01*
X102968672Y-101193473D01*
X102974188Y-101249482D01*
X103010498Y-101369180D01*
X103069463Y-101479494D01*
X103148815Y-101576185D01*
X103177834Y-101600000D01*
X103148815Y-101623815D01*
X103069463Y-101720506D01*
X103010498Y-101830820D01*
X102974188Y-101950518D01*
X102961928Y-102075000D01*
X102961928Y-102525000D01*
X102974188Y-102649482D01*
X103010498Y-102769180D01*
X103069463Y-102879494D01*
X103148815Y-102976185D01*
X103245506Y-103055537D01*
X103355820Y-103114502D01*
X103475518Y-103150812D01*
X103600000Y-103163072D01*
X103900000Y-103163072D01*
X104024482Y-103150812D01*
X104144180Y-103114502D01*
X104250000Y-103057939D01*
X104355820Y-103114502D01*
X104475518Y-103150812D01*
X104600000Y-103163072D01*
X104900000Y-103163072D01*
X105024482Y-103150812D01*
X105144180Y-103114502D01*
X105254494Y-103055537D01*
X105351185Y-102976185D01*
X105430537Y-102879494D01*
X105489502Y-102769180D01*
X105525812Y-102649482D01*
X105538072Y-102525000D01*
X105538072Y-102075000D01*
X105525812Y-101950518D01*
X105489502Y-101830820D01*
X105430537Y-101720506D01*
X105351185Y-101623815D01*
X105322166Y-101600000D01*
X105351185Y-101576185D01*
X105430537Y-101479494D01*
X105489502Y-101369180D01*
X105525812Y-101249482D01*
X105538072Y-101125000D01*
X105538072Y-100675000D01*
X105525812Y-100550518D01*
X105510000Y-100498393D01*
X105510000Y-99938663D01*
X105546488Y-99818377D01*
X105563072Y-99650000D01*
X105563072Y-99486730D01*
X106311730Y-98738072D01*
X106823722Y-98738072D01*
X106643556Y-99007710D01*
X106485641Y-99388951D01*
X106405136Y-99793674D01*
X106405136Y-100206326D01*
X106485641Y-100611049D01*
X106643556Y-100992290D01*
X106872813Y-101335398D01*
X107164602Y-101627187D01*
X107507710Y-101856444D01*
X107888951Y-102014359D01*
X108293674Y-102094864D01*
X108706326Y-102094864D01*
X109111049Y-102014359D01*
X109492290Y-101856444D01*
X109835398Y-101627187D01*
X110015000Y-101447585D01*
X110015000Y-102464044D01*
X109996973Y-102647902D01*
X109954017Y-102790178D01*
X109884249Y-102921392D01*
X109790320Y-103036561D01*
X109675809Y-103131292D01*
X109545084Y-103201975D01*
X109403115Y-103245922D01*
X109221598Y-103265000D01*
X99285946Y-103265000D01*
X99102099Y-103246974D01*
X98959824Y-103204018D01*
X98828606Y-103134249D01*
X98713439Y-103040321D01*
X98618708Y-102925810D01*
X98548024Y-102795084D01*
X98504078Y-102653116D01*
X98485000Y-102471598D01*
X98485000Y-101447585D01*
X98664602Y-101627187D01*
X99007710Y-101856444D01*
X99388951Y-102014359D01*
X99793674Y-102094864D01*
X100206326Y-102094864D01*
X100611049Y-102014359D01*
X100992290Y-101856444D01*
X101335398Y-101627187D01*
X101627187Y-101335398D01*
X101856444Y-100992290D01*
X102014359Y-100611049D01*
X102094864Y-100206326D01*
X102094864Y-99793674D01*
X102014359Y-99388951D01*
X101856444Y-99007710D01*
X101627187Y-98664602D01*
X101335398Y-98372813D01*
X100992290Y-98143556D01*
X100611049Y-97985641D01*
X100206326Y-97905136D01*
X99793674Y-97905136D01*
X99388951Y-97985641D01*
X99007710Y-98143556D01*
X98664602Y-98372813D01*
X98485000Y-98552415D01*
X98485000Y-97535945D01*
X98503027Y-97352094D01*
X98545979Y-97209829D01*
X98615752Y-97078607D01*
X98709681Y-96963438D01*
X98824188Y-96868710D01*
X98954917Y-96798025D01*
X99096884Y-96754079D01*
X99278402Y-96735001D01*
X102565968Y-96735001D01*
X102532068Y-96816842D01*
G37*
%TD.AperFunction*%
%TD*%
M02*
