%TF.GenerationSoftware,KiCad,Pcbnew,(5.1.8)-1*%
%TF.CreationDate,2021-02-11T10:15:57+01:00*%
%TF.ProjectId,hallV1,68616c6c-5631-42e6-9b69-6361645f7063,rev?*%
%TF.SameCoordinates,Original*%
%TF.FileFunction,Legend,Bot*%
%TF.FilePolarity,Positive*%
%FSLAX46Y46*%
G04 Gerber Fmt 4.6, Leading zero omitted, Abs format (unit mm)*
G04 Created by KiCad (PCBNEW (5.1.8)-1) date 2021-02-11 10:15:57*
%MOMM*%
%LPD*%
G01*
G04 APERTURE LIST*
%ADD10C,0.150000*%
%ADD11C,0.120000*%
G04 APERTURE END LIST*
D10*
X110125000Y-103111904D02*
X110125000Y-102311904D01*
X110125000Y-102692857D02*
X109696428Y-102692857D01*
X109696428Y-103111904D02*
X109696428Y-102311904D01*
X109017857Y-103111904D02*
X109017857Y-102692857D01*
X109053571Y-102616666D01*
X109125000Y-102578571D01*
X109267857Y-102578571D01*
X109339285Y-102616666D01*
X109017857Y-103073809D02*
X109089285Y-103111904D01*
X109267857Y-103111904D01*
X109339285Y-103073809D01*
X109375000Y-102997619D01*
X109375000Y-102921428D01*
X109339285Y-102845238D01*
X109267857Y-102807142D01*
X109089285Y-102807142D01*
X109017857Y-102769047D01*
X108553571Y-103111904D02*
X108625000Y-103073809D01*
X108660714Y-102997619D01*
X108660714Y-102311904D01*
X108160714Y-103111904D02*
X108232142Y-103073809D01*
X108267857Y-102997619D01*
X108267857Y-102311904D01*
X107982142Y-102311904D02*
X107732142Y-103111904D01*
X107482142Y-102311904D01*
X106839285Y-103111904D02*
X107267857Y-103111904D01*
X107053571Y-103111904D02*
X107053571Y-102311904D01*
X107125000Y-102426190D01*
X107196428Y-102502380D01*
X107267857Y-102540476D01*
X105946428Y-102807142D02*
X105375000Y-102807142D01*
X104053571Y-103111904D02*
X104482142Y-103111904D01*
X104267857Y-103111904D02*
X104267857Y-102311904D01*
X104339285Y-102426190D01*
X104410714Y-102502380D01*
X104482142Y-102540476D01*
X103339285Y-103111904D02*
X103767857Y-103111904D01*
X103553571Y-103111904D02*
X103553571Y-102311904D01*
X103625000Y-102426190D01*
X103696428Y-102502380D01*
X103767857Y-102540476D01*
X103017857Y-103035714D02*
X102982142Y-103073809D01*
X103017857Y-103111904D01*
X103053571Y-103073809D01*
X103017857Y-103035714D01*
X103017857Y-103111904D01*
X102517857Y-102311904D02*
X102446428Y-102311904D01*
X102374999Y-102350000D01*
X102339285Y-102388095D01*
X102303571Y-102464285D01*
X102267857Y-102616666D01*
X102267857Y-102807142D01*
X102303571Y-102959523D01*
X102339285Y-103035714D01*
X102374999Y-103073809D01*
X102446428Y-103111904D01*
X102517857Y-103111904D01*
X102589285Y-103073809D01*
X102624999Y-103035714D01*
X102660714Y-102959523D01*
X102696428Y-102807142D01*
X102696428Y-102616666D01*
X102660714Y-102464285D01*
X102624999Y-102388095D01*
X102589285Y-102350000D01*
X102517857Y-102311904D01*
X101982142Y-102388095D02*
X101946428Y-102350000D01*
X101874999Y-102311904D01*
X101696428Y-102311904D01*
X101624999Y-102350000D01*
X101589285Y-102388095D01*
X101553571Y-102464285D01*
X101553571Y-102540476D01*
X101589285Y-102654761D01*
X102017857Y-103111904D01*
X101553571Y-103111904D01*
X101232142Y-103035714D02*
X101196428Y-103073809D01*
X101232142Y-103111904D01*
X101267857Y-103073809D01*
X101232142Y-103035714D01*
X101232142Y-103111904D01*
X100910714Y-102388095D02*
X100874999Y-102350000D01*
X100803571Y-102311904D01*
X100624999Y-102311904D01*
X100553571Y-102350000D01*
X100517857Y-102388095D01*
X100482142Y-102464285D01*
X100482142Y-102540476D01*
X100517857Y-102654761D01*
X100946428Y-103111904D01*
X100482142Y-103111904D01*
X100017857Y-102311904D02*
X99946428Y-102311904D01*
X99874999Y-102350000D01*
X99839285Y-102388095D01*
X99803571Y-102464285D01*
X99767857Y-102616666D01*
X99767857Y-102807142D01*
X99803571Y-102959523D01*
X99839285Y-103035714D01*
X99874999Y-103073809D01*
X99946428Y-103111904D01*
X100017857Y-103111904D01*
X100089285Y-103073809D01*
X100124999Y-103035714D01*
X100160714Y-102959523D01*
X100196428Y-102807142D01*
X100196428Y-102616666D01*
X100160714Y-102464285D01*
X100124999Y-102388095D01*
X100089285Y-102350000D01*
X100017857Y-102311904D01*
X99482142Y-102388095D02*
X99446428Y-102350000D01*
X99375000Y-102311904D01*
X99196428Y-102311904D01*
X99125000Y-102350000D01*
X99089285Y-102388095D01*
X99053571Y-102464285D01*
X99053571Y-102540476D01*
X99089285Y-102654761D01*
X99517857Y-103111904D01*
X99053571Y-103111904D01*
X98339285Y-103111904D02*
X98767857Y-103111904D01*
X98553571Y-103111904D02*
X98553571Y-102311904D01*
X98625000Y-102426190D01*
X98696428Y-102502380D01*
X98767857Y-102540476D01*
D11*
%TO.C,J1*%
X107770000Y-98520000D02*
X107770000Y-97250000D01*
X106500000Y-98520000D02*
X107770000Y-98520000D01*
%TD*%
M02*
