%TF.GenerationSoftware,KiCad,Pcbnew,(5.1.8)-1*%
%TF.CreationDate,2021-02-11T10:15:57+01:00*%
%TF.ProjectId,hallV1,68616c6c-5631-42e6-9b69-6361645f7063,rev?*%
%TF.SameCoordinates,Original*%
%TF.FileFunction,Legend,Top*%
%TF.FilePolarity,Positive*%
%FSLAX46Y46*%
G04 Gerber Fmt 4.6, Leading zero omitted, Abs format (unit mm)*
G04 Created by KiCad (PCBNEW (5.1.8)-1) date 2021-02-11 10:15:57*
%MOMM*%
%LPD*%
G01*
G04 APERTURE LIST*
%ADD10C,0.150000*%
%ADD11C,0.120000*%
G04 APERTURE END LIST*
D10*
X108009523Y-96811904D02*
X108504761Y-96811904D01*
X108238095Y-97116666D01*
X108352380Y-97116666D01*
X108428571Y-97154761D01*
X108466666Y-97192857D01*
X108504761Y-97269047D01*
X108504761Y-97459523D01*
X108466666Y-97535714D01*
X108428571Y-97573809D01*
X108352380Y-97611904D01*
X108123809Y-97611904D01*
X108047619Y-97573809D01*
X108009523Y-97535714D01*
X108733333Y-96811904D02*
X109000000Y-97611904D01*
X109266666Y-96811904D01*
X109457142Y-96811904D02*
X109952380Y-96811904D01*
X109685714Y-97116666D01*
X109800000Y-97116666D01*
X109876190Y-97154761D01*
X109914285Y-97192857D01*
X109952380Y-97269047D01*
X109952380Y-97459523D01*
X109914285Y-97535714D01*
X109876190Y-97573809D01*
X109800000Y-97611904D01*
X109571428Y-97611904D01*
X109495238Y-97573809D01*
X109457142Y-97535714D01*
X98640476Y-96850000D02*
X98564285Y-96811904D01*
X98450000Y-96811904D01*
X98335714Y-96850000D01*
X98259523Y-96926190D01*
X98221428Y-97002380D01*
X98183333Y-97154761D01*
X98183333Y-97269047D01*
X98221428Y-97421428D01*
X98259523Y-97497619D01*
X98335714Y-97573809D01*
X98450000Y-97611904D01*
X98526190Y-97611904D01*
X98640476Y-97573809D01*
X98678571Y-97535714D01*
X98678571Y-97269047D01*
X98526190Y-97269047D01*
X99021428Y-97611904D02*
X99021428Y-96811904D01*
X99478571Y-97611904D01*
X99478571Y-96811904D01*
X99859523Y-97611904D02*
X99859523Y-96811904D01*
X100050000Y-96811904D01*
X100164285Y-96850000D01*
X100240476Y-96926190D01*
X100278571Y-97002380D01*
X100316666Y-97154761D01*
X100316666Y-97269047D01*
X100278571Y-97421428D01*
X100240476Y-97497619D01*
X100164285Y-97573809D01*
X100050000Y-97611904D01*
X99859523Y-97611904D01*
D11*
%TO.C,C1*%
X105109420Y-99910000D02*
X105390580Y-99910000D01*
X105109420Y-98890000D02*
X105390580Y-98890000D01*
%TO.C,U1*%
X103350000Y-102500000D02*
X103350000Y-100950000D01*
X105150000Y-100950000D02*
X105150000Y-102250000D01*
%TO.C,C1*%
D10*
X102383333Y-99657142D02*
X102335714Y-99704761D01*
X102192857Y-99752380D01*
X102097619Y-99752380D01*
X101954761Y-99704761D01*
X101859523Y-99609523D01*
X101811904Y-99514285D01*
X101764285Y-99323809D01*
X101764285Y-99180952D01*
X101811904Y-98990476D01*
X101859523Y-98895238D01*
X101954761Y-98800000D01*
X102097619Y-98752380D01*
X102192857Y-98752380D01*
X102335714Y-98800000D01*
X102383333Y-98847619D01*
X103335714Y-99752380D02*
X102764285Y-99752380D01*
X103050000Y-99752380D02*
X103050000Y-98752380D01*
X102954761Y-98895238D01*
X102859523Y-98990476D01*
X102764285Y-99038095D01*
%TO.C,U1*%
X102002380Y-102361904D02*
X102811904Y-102361904D01*
X102907142Y-102314285D01*
X102954761Y-102266666D01*
X103002380Y-102171428D01*
X103002380Y-101980952D01*
X102954761Y-101885714D01*
X102907142Y-101838095D01*
X102811904Y-101790476D01*
X102002380Y-101790476D01*
X103002380Y-100790476D02*
X103002380Y-101361904D01*
X103002380Y-101076190D02*
X102002380Y-101076190D01*
X102145238Y-101171428D01*
X102240476Y-101266666D01*
X102288095Y-101361904D01*
%TD*%
M02*
