%TF.GenerationSoftware,KiCad,Pcbnew,(5.1.8)-1*%
%TF.CreationDate,2021-02-11T10:10:36+01:00*%
%TF.ProjectId,shieldV1,73686965-6c64-4563-912e-6b696361645f,rev?*%
%TF.SameCoordinates,Original*%
%TF.FileFunction,Legend,Top*%
%TF.FilePolarity,Positive*%
%FSLAX46Y46*%
G04 Gerber Fmt 4.6, Leading zero omitted, Abs format (unit mm)*
G04 Created by KiCad (PCBNEW (5.1.8)-1) date 2021-02-11 10:10:36*
%MOMM*%
%LPD*%
G01*
G04 APERTURE LIST*
%ADD10C,0.150000*%
%ADD11C,0.120000*%
G04 APERTURE END LIST*
D10*
X40011904Y-127702380D02*
X40630952Y-127702380D01*
X40297619Y-128083333D01*
X40440476Y-128083333D01*
X40535714Y-128130952D01*
X40583333Y-128178571D01*
X40630952Y-128273809D01*
X40630952Y-128511904D01*
X40583333Y-128607142D01*
X40535714Y-128654761D01*
X40440476Y-128702380D01*
X40154761Y-128702380D01*
X40059523Y-128654761D01*
X40011904Y-128607142D01*
X40916666Y-127702380D02*
X41250000Y-128702380D01*
X41583333Y-127702380D01*
X41821428Y-127702380D02*
X42440476Y-127702380D01*
X42107142Y-128083333D01*
X42250000Y-128083333D01*
X42345238Y-128130952D01*
X42392857Y-128178571D01*
X42440476Y-128273809D01*
X42440476Y-128511904D01*
X42392857Y-128607142D01*
X42345238Y-128654761D01*
X42250000Y-128702380D01*
X41964285Y-128702380D01*
X41869047Y-128654761D01*
X41821428Y-128607142D01*
X40809523Y-124952380D02*
X40333333Y-124952380D01*
X40285714Y-125428571D01*
X40333333Y-125380952D01*
X40428571Y-125333333D01*
X40666666Y-125333333D01*
X40761904Y-125380952D01*
X40809523Y-125428571D01*
X40857142Y-125523809D01*
X40857142Y-125761904D01*
X40809523Y-125857142D01*
X40761904Y-125904761D01*
X40666666Y-125952380D01*
X40428571Y-125952380D01*
X40333333Y-125904761D01*
X40285714Y-125857142D01*
X41142857Y-124952380D02*
X41476190Y-125952380D01*
X41809523Y-124952380D01*
X41142857Y-123952380D02*
X40666666Y-123952380D01*
X40666666Y-122952380D01*
X42047619Y-123857142D02*
X42000000Y-123904761D01*
X41857142Y-123952380D01*
X41761904Y-123952380D01*
X41619047Y-123904761D01*
X41523809Y-123809523D01*
X41476190Y-123714285D01*
X41428571Y-123523809D01*
X41428571Y-123380952D01*
X41476190Y-123190476D01*
X41523809Y-123095238D01*
X41619047Y-123000000D01*
X41761904Y-122952380D01*
X41857142Y-122952380D01*
X42000000Y-123000000D01*
X42047619Y-123047619D01*
X42476190Y-123952380D02*
X42476190Y-122952380D01*
X42714285Y-122952380D01*
X42857142Y-123000000D01*
X42952380Y-123095238D01*
X43000000Y-123190476D01*
X43047619Y-123380952D01*
X43047619Y-123523809D01*
X43000000Y-123714285D01*
X42952380Y-123809523D01*
X42857142Y-123904761D01*
X42714285Y-123952380D01*
X42476190Y-123952380D01*
X44238095Y-123285714D02*
X44238095Y-124285714D01*
X44238095Y-123333333D02*
X44333333Y-123285714D01*
X44523809Y-123285714D01*
X44619047Y-123333333D01*
X44666666Y-123380952D01*
X44714285Y-123476190D01*
X44714285Y-123761904D01*
X44666666Y-123857142D01*
X44619047Y-123904761D01*
X44523809Y-123952380D01*
X44333333Y-123952380D01*
X44238095Y-123904761D01*
X45047619Y-123285714D02*
X45238095Y-123952380D01*
X45428571Y-123476190D01*
X45619047Y-123952380D01*
X45809523Y-123285714D01*
X46190476Y-123952380D02*
X46190476Y-123285714D01*
X46190476Y-123476190D02*
X46238095Y-123380952D01*
X46285714Y-123333333D01*
X46380952Y-123285714D01*
X46476190Y-123285714D01*
X89130952Y-108702380D02*
X88654761Y-108702380D01*
X88654761Y-107702380D01*
X90035714Y-108607142D02*
X89988095Y-108654761D01*
X89845238Y-108702380D01*
X89750000Y-108702380D01*
X89607142Y-108654761D01*
X89511904Y-108559523D01*
X89464285Y-108464285D01*
X89416666Y-108273809D01*
X89416666Y-108130952D01*
X89464285Y-107940476D01*
X89511904Y-107845238D01*
X89607142Y-107750000D01*
X89750000Y-107702380D01*
X89845238Y-107702380D01*
X89988095Y-107750000D01*
X90035714Y-107797619D01*
X90464285Y-108702380D02*
X90464285Y-107702380D01*
X90702380Y-107702380D01*
X90845238Y-107750000D01*
X90940476Y-107845238D01*
X90988095Y-107940476D01*
X91035714Y-108130952D01*
X91035714Y-108273809D01*
X90988095Y-108464285D01*
X90940476Y-108559523D01*
X90845238Y-108654761D01*
X90702380Y-108702380D01*
X90464285Y-108702380D01*
X92654761Y-108654761D02*
X92559523Y-108702380D01*
X92369047Y-108702380D01*
X92273809Y-108654761D01*
X92226190Y-108607142D01*
X92178571Y-108511904D01*
X92178571Y-108226190D01*
X92226190Y-108130952D01*
X92273809Y-108083333D01*
X92369047Y-108035714D01*
X92559523Y-108035714D01*
X92654761Y-108083333D01*
X93226190Y-108702380D02*
X93130952Y-108654761D01*
X93083333Y-108607142D01*
X93035714Y-108511904D01*
X93035714Y-108226190D01*
X93083333Y-108130952D01*
X93130952Y-108083333D01*
X93226190Y-108035714D01*
X93369047Y-108035714D01*
X93464285Y-108083333D01*
X93511904Y-108130952D01*
X93559523Y-108226190D01*
X93559523Y-108511904D01*
X93511904Y-108607142D01*
X93464285Y-108654761D01*
X93369047Y-108702380D01*
X93226190Y-108702380D01*
X93988095Y-108702380D02*
X93988095Y-108035714D01*
X93988095Y-108130952D02*
X94035714Y-108083333D01*
X94130952Y-108035714D01*
X94273809Y-108035714D01*
X94369047Y-108083333D01*
X94416666Y-108178571D01*
X94416666Y-108702380D01*
X94416666Y-108178571D02*
X94464285Y-108083333D01*
X94559523Y-108035714D01*
X94702380Y-108035714D01*
X94797619Y-108083333D01*
X94845238Y-108178571D01*
X94845238Y-108702380D01*
X88595238Y-112904761D02*
X88690476Y-112952380D01*
X88880952Y-112952380D01*
X88976190Y-112904761D01*
X89023809Y-112809523D01*
X89023809Y-112761904D01*
X88976190Y-112666666D01*
X88880952Y-112619047D01*
X88738095Y-112619047D01*
X88642857Y-112571428D01*
X88595238Y-112476190D01*
X88595238Y-112428571D01*
X88642857Y-112333333D01*
X88738095Y-112285714D01*
X88880952Y-112285714D01*
X88976190Y-112333333D01*
X89452380Y-112285714D02*
X89452380Y-113285714D01*
X89452380Y-112333333D02*
X89547619Y-112285714D01*
X89738095Y-112285714D01*
X89833333Y-112333333D01*
X89880952Y-112380952D01*
X89928571Y-112476190D01*
X89928571Y-112761904D01*
X89880952Y-112857142D01*
X89833333Y-112904761D01*
X89738095Y-112952380D01*
X89547619Y-112952380D01*
X89452380Y-112904761D01*
X90357142Y-112952380D02*
X90357142Y-112285714D01*
X90357142Y-111952380D02*
X90309523Y-112000000D01*
X90357142Y-112047619D01*
X90404761Y-112000000D01*
X90357142Y-111952380D01*
X90357142Y-112047619D01*
X88595238Y-106904761D02*
X88690476Y-106952380D01*
X88880952Y-106952380D01*
X88976190Y-106904761D01*
X89023809Y-106809523D01*
X89023809Y-106761904D01*
X88976190Y-106666666D01*
X88880952Y-106619047D01*
X88738095Y-106619047D01*
X88642857Y-106571428D01*
X88595238Y-106476190D01*
X88595238Y-106428571D01*
X88642857Y-106333333D01*
X88738095Y-106285714D01*
X88880952Y-106285714D01*
X88976190Y-106333333D01*
X89452380Y-106285714D02*
X89452380Y-107285714D01*
X89452380Y-106333333D02*
X89547619Y-106285714D01*
X89738095Y-106285714D01*
X89833333Y-106333333D01*
X89880952Y-106380952D01*
X89928571Y-106476190D01*
X89928571Y-106761904D01*
X89880952Y-106857142D01*
X89833333Y-106904761D01*
X89738095Y-106952380D01*
X89547619Y-106952380D01*
X89452380Y-106904761D01*
X90357142Y-106952380D02*
X90357142Y-106285714D01*
X90357142Y-105952380D02*
X90309523Y-106000000D01*
X90357142Y-106047619D01*
X90404761Y-106000000D01*
X90357142Y-105952380D01*
X90357142Y-106047619D01*
X88595238Y-110452380D02*
X88595238Y-109785714D01*
X88595238Y-109452380D02*
X88547619Y-109500000D01*
X88595238Y-109547619D01*
X88642857Y-109500000D01*
X88595238Y-109452380D01*
X88595238Y-109547619D01*
X89023809Y-109547619D02*
X89071428Y-109500000D01*
X89166666Y-109452380D01*
X89404761Y-109452380D01*
X89500000Y-109500000D01*
X89547619Y-109547619D01*
X89595238Y-109642857D01*
X89595238Y-109738095D01*
X89547619Y-109880952D01*
X88976190Y-110452380D01*
X89595238Y-110452380D01*
X90452380Y-110404761D02*
X90357142Y-110452380D01*
X90166666Y-110452380D01*
X90071428Y-110404761D01*
X90023809Y-110357142D01*
X89976190Y-110261904D01*
X89976190Y-109976190D01*
X90023809Y-109880952D01*
X90071428Y-109833333D01*
X90166666Y-109785714D01*
X90357142Y-109785714D01*
X90452380Y-109833333D01*
X88595238Y-104452380D02*
X88595238Y-103785714D01*
X88595238Y-103452380D02*
X88547619Y-103500000D01*
X88595238Y-103547619D01*
X88642857Y-103500000D01*
X88595238Y-103452380D01*
X88595238Y-103547619D01*
X89023809Y-103547619D02*
X89071428Y-103500000D01*
X89166666Y-103452380D01*
X89404761Y-103452380D01*
X89500000Y-103500000D01*
X89547619Y-103547619D01*
X89595238Y-103642857D01*
X89595238Y-103738095D01*
X89547619Y-103880952D01*
X88976190Y-104452380D01*
X89595238Y-104452380D01*
X90452380Y-104404761D02*
X90357142Y-104452380D01*
X90166666Y-104452380D01*
X90071428Y-104404761D01*
X90023809Y-104357142D01*
X89976190Y-104261904D01*
X89976190Y-103976190D01*
X90023809Y-103880952D01*
X90071428Y-103833333D01*
X90166666Y-103785714D01*
X90357142Y-103785714D01*
X90452380Y-103833333D01*
X41302380Y-108523809D02*
X42302380Y-108190476D01*
X41302380Y-107857142D01*
X42302380Y-107000000D02*
X42302380Y-107571428D01*
X42302380Y-107285714D02*
X41302380Y-107285714D01*
X41445238Y-107380952D01*
X41540476Y-107476190D01*
X41588095Y-107571428D01*
X42207142Y-106571428D02*
X42254761Y-106523809D01*
X42302380Y-106571428D01*
X42254761Y-106619047D01*
X42207142Y-106571428D01*
X42302380Y-106571428D01*
X42302380Y-105571428D02*
X42302380Y-106142857D01*
X42302380Y-105857142D02*
X41302380Y-105857142D01*
X41445238Y-105952380D01*
X41540476Y-106047619D01*
X41588095Y-106142857D01*
X43857142Y-110047619D02*
X43904761Y-110095238D01*
X43952380Y-110238095D01*
X43952380Y-110333333D01*
X43904761Y-110476190D01*
X43809523Y-110571428D01*
X43714285Y-110619047D01*
X43523809Y-110666666D01*
X43380952Y-110666666D01*
X43190476Y-110619047D01*
X43095238Y-110571428D01*
X43000000Y-110476190D01*
X42952380Y-110333333D01*
X42952380Y-110238095D01*
X43000000Y-110095238D01*
X43047619Y-110047619D01*
X43952380Y-109476190D02*
X43904761Y-109571428D01*
X43857142Y-109619047D01*
X43761904Y-109666666D01*
X43476190Y-109666666D01*
X43380952Y-109619047D01*
X43333333Y-109571428D01*
X43285714Y-109476190D01*
X43285714Y-109333333D01*
X43333333Y-109238095D01*
X43380952Y-109190476D01*
X43476190Y-109142857D01*
X43761904Y-109142857D01*
X43857142Y-109190476D01*
X43904761Y-109238095D01*
X43952380Y-109333333D01*
X43952380Y-109476190D01*
X43952380Y-108714285D02*
X43285714Y-108714285D01*
X42952380Y-108714285D02*
X43000000Y-108761904D01*
X43047619Y-108714285D01*
X43000000Y-108666666D01*
X42952380Y-108714285D01*
X43047619Y-108714285D01*
X43952380Y-108095238D02*
X43904761Y-108190476D01*
X43809523Y-108238095D01*
X42952380Y-108238095D01*
X43904761Y-107285714D02*
X43952380Y-107380952D01*
X43952380Y-107571428D01*
X43904761Y-107666666D01*
X43857142Y-107714285D01*
X43761904Y-107761904D01*
X43476190Y-107761904D01*
X43380952Y-107714285D01*
X43333333Y-107666666D01*
X43285714Y-107571428D01*
X43285714Y-107380952D01*
X43333333Y-107285714D01*
X43952380Y-106857142D02*
X42952380Y-106857142D01*
X43952380Y-106428571D02*
X43428571Y-106428571D01*
X43333333Y-106476190D01*
X43285714Y-106571428D01*
X43285714Y-106714285D01*
X43333333Y-106809523D01*
X43380952Y-106857142D01*
X43952380Y-105523809D02*
X43428571Y-105523809D01*
X43333333Y-105571428D01*
X43285714Y-105666666D01*
X43285714Y-105857142D01*
X43333333Y-105952380D01*
X43904761Y-105523809D02*
X43952380Y-105619047D01*
X43952380Y-105857142D01*
X43904761Y-105952380D01*
X43809523Y-106000000D01*
X43714285Y-106000000D01*
X43619047Y-105952380D01*
X43571428Y-105857142D01*
X43571428Y-105619047D01*
X43523809Y-105523809D01*
X43952380Y-105047619D02*
X43285714Y-105047619D01*
X42952380Y-105047619D02*
X43000000Y-105095238D01*
X43047619Y-105047619D01*
X43000000Y-105000000D01*
X42952380Y-105047619D01*
X43047619Y-105047619D01*
X43285714Y-104571428D02*
X43952380Y-104571428D01*
X43380952Y-104571428D02*
X43333333Y-104523809D01*
X43285714Y-104428571D01*
X43285714Y-104285714D01*
X43333333Y-104190476D01*
X43428571Y-104142857D01*
X43952380Y-104142857D01*
X45602380Y-110523809D02*
X45602380Y-111095238D01*
X45602380Y-110809523D02*
X44602380Y-110809523D01*
X44745238Y-110904761D01*
X44840476Y-111000000D01*
X44888095Y-111095238D01*
X45602380Y-109571428D02*
X45602380Y-110142857D01*
X45602380Y-109857142D02*
X44602380Y-109857142D01*
X44745238Y-109952380D01*
X44840476Y-110047619D01*
X44888095Y-110142857D01*
X45507142Y-109142857D02*
X45554761Y-109095238D01*
X45602380Y-109142857D01*
X45554761Y-109190476D01*
X45507142Y-109142857D01*
X45602380Y-109142857D01*
X44602380Y-108476190D02*
X44602380Y-108380952D01*
X44650000Y-108285714D01*
X44697619Y-108238095D01*
X44792857Y-108190476D01*
X44983333Y-108142857D01*
X45221428Y-108142857D01*
X45411904Y-108190476D01*
X45507142Y-108238095D01*
X45554761Y-108285714D01*
X45602380Y-108380952D01*
X45602380Y-108476190D01*
X45554761Y-108571428D01*
X45507142Y-108619047D01*
X45411904Y-108666666D01*
X45221428Y-108714285D01*
X44983333Y-108714285D01*
X44792857Y-108666666D01*
X44697619Y-108619047D01*
X44650000Y-108571428D01*
X44602380Y-108476190D01*
X44697619Y-107761904D02*
X44650000Y-107714285D01*
X44602380Y-107619047D01*
X44602380Y-107380952D01*
X44650000Y-107285714D01*
X44697619Y-107238095D01*
X44792857Y-107190476D01*
X44888095Y-107190476D01*
X45030952Y-107238095D01*
X45602380Y-107809523D01*
X45602380Y-107190476D01*
X45507142Y-106761904D02*
X45554761Y-106714285D01*
X45602380Y-106761904D01*
X45554761Y-106809523D01*
X45507142Y-106761904D01*
X45602380Y-106761904D01*
X44697619Y-106333333D02*
X44650000Y-106285714D01*
X44602380Y-106190476D01*
X44602380Y-105952380D01*
X44650000Y-105857142D01*
X44697619Y-105809523D01*
X44792857Y-105761904D01*
X44888095Y-105761904D01*
X45030952Y-105809523D01*
X45602380Y-106380952D01*
X45602380Y-105761904D01*
X44602380Y-105142857D02*
X44602380Y-105047619D01*
X44650000Y-104952380D01*
X44697619Y-104904761D01*
X44792857Y-104857142D01*
X44983333Y-104809523D01*
X45221428Y-104809523D01*
X45411904Y-104857142D01*
X45507142Y-104904761D01*
X45554761Y-104952380D01*
X45602380Y-105047619D01*
X45602380Y-105142857D01*
X45554761Y-105238095D01*
X45507142Y-105285714D01*
X45411904Y-105333333D01*
X45221428Y-105380952D01*
X44983333Y-105380952D01*
X44792857Y-105333333D01*
X44697619Y-105285714D01*
X44650000Y-105238095D01*
X44602380Y-105142857D01*
X44697619Y-104428571D02*
X44650000Y-104380952D01*
X44602380Y-104285714D01*
X44602380Y-104047619D01*
X44650000Y-103952380D01*
X44697619Y-103904761D01*
X44792857Y-103857142D01*
X44888095Y-103857142D01*
X45030952Y-103904761D01*
X45602380Y-104476190D01*
X45602380Y-103857142D01*
X45602380Y-102904761D02*
X45602380Y-103476190D01*
X45602380Y-103190476D02*
X44602380Y-103190476D01*
X44745238Y-103285714D01*
X44840476Y-103380952D01*
X44888095Y-103476190D01*
X54559523Y-124702380D02*
X54083333Y-124702380D01*
X54083333Y-123702380D01*
X55464285Y-124607142D02*
X55416666Y-124654761D01*
X55273809Y-124702380D01*
X55178571Y-124702380D01*
X55035714Y-124654761D01*
X54940476Y-124559523D01*
X54892857Y-124464285D01*
X54845238Y-124273809D01*
X54845238Y-124130952D01*
X54892857Y-123940476D01*
X54940476Y-123845238D01*
X55035714Y-123750000D01*
X55178571Y-123702380D01*
X55273809Y-123702380D01*
X55416666Y-123750000D01*
X55464285Y-123797619D01*
X55892857Y-124702380D02*
X55892857Y-123702380D01*
X56130952Y-123702380D01*
X56273809Y-123750000D01*
X56369047Y-123845238D01*
X56416666Y-123940476D01*
X56464285Y-124130952D01*
X56464285Y-124273809D01*
X56416666Y-124464285D01*
X56369047Y-124559523D01*
X56273809Y-124654761D01*
X56130952Y-124702380D01*
X55892857Y-124702380D01*
X46666666Y-119904761D02*
X46809523Y-119952380D01*
X47047619Y-119952380D01*
X47142857Y-119904761D01*
X47190476Y-119857142D01*
X47238095Y-119761904D01*
X47238095Y-119666666D01*
X47190476Y-119571428D01*
X47142857Y-119523809D01*
X47047619Y-119476190D01*
X46857142Y-119428571D01*
X46761904Y-119380952D01*
X46714285Y-119333333D01*
X46666666Y-119238095D01*
X46666666Y-119142857D01*
X46714285Y-119047619D01*
X46761904Y-119000000D01*
X46857142Y-118952380D01*
X47095238Y-118952380D01*
X47238095Y-119000000D01*
X47571428Y-118952380D02*
X47809523Y-119952380D01*
X48000000Y-119238095D01*
X48190476Y-119952380D01*
X48428571Y-118952380D01*
X49000000Y-118952380D02*
X49095238Y-118952380D01*
X49190476Y-119000000D01*
X49238095Y-119047619D01*
X49285714Y-119142857D01*
X49333333Y-119333333D01*
X49333333Y-119571428D01*
X49285714Y-119761904D01*
X49238095Y-119857142D01*
X49190476Y-119904761D01*
X49095238Y-119952380D01*
X49000000Y-119952380D01*
X48904761Y-119904761D01*
X48857142Y-119857142D01*
X48809523Y-119761904D01*
X48761904Y-119571428D01*
X48761904Y-119333333D01*
X48809523Y-119142857D01*
X48857142Y-119047619D01*
X48904761Y-119000000D01*
X49000000Y-118952380D01*
X56666666Y-119904761D02*
X56809523Y-119952380D01*
X57047619Y-119952380D01*
X57142857Y-119904761D01*
X57190476Y-119857142D01*
X57238095Y-119761904D01*
X57238095Y-119666666D01*
X57190476Y-119571428D01*
X57142857Y-119523809D01*
X57047619Y-119476190D01*
X56857142Y-119428571D01*
X56761904Y-119380952D01*
X56714285Y-119333333D01*
X56666666Y-119238095D01*
X56666666Y-119142857D01*
X56714285Y-119047619D01*
X56761904Y-119000000D01*
X56857142Y-118952380D01*
X57095238Y-118952380D01*
X57238095Y-119000000D01*
X57571428Y-118952380D02*
X57809523Y-119952380D01*
X58000000Y-119238095D01*
X58190476Y-119952380D01*
X58428571Y-118952380D01*
X59333333Y-119952380D02*
X58761904Y-119952380D01*
X59047619Y-119952380D02*
X59047619Y-118952380D01*
X58952380Y-119095238D01*
X58857142Y-119190476D01*
X58761904Y-119238095D01*
X65357142Y-124702380D02*
X65357142Y-123702380D01*
X65738095Y-123702380D01*
X65833333Y-123750000D01*
X65880952Y-123797619D01*
X65928571Y-123892857D01*
X65928571Y-124035714D01*
X65880952Y-124130952D01*
X65833333Y-124178571D01*
X65738095Y-124226190D01*
X65357142Y-124226190D01*
X66547619Y-123702380D02*
X66738095Y-123702380D01*
X66833333Y-123750000D01*
X66928571Y-123845238D01*
X66976190Y-124035714D01*
X66976190Y-124369047D01*
X66928571Y-124559523D01*
X66833333Y-124654761D01*
X66738095Y-124702380D01*
X66547619Y-124702380D01*
X66452380Y-124654761D01*
X66357142Y-124559523D01*
X66309523Y-124369047D01*
X66309523Y-124035714D01*
X66357142Y-123845238D01*
X66452380Y-123750000D01*
X66547619Y-123702380D01*
X67261904Y-123702380D02*
X67833333Y-123702380D01*
X67547619Y-124702380D02*
X67547619Y-123702380D01*
X68357142Y-123702380D02*
X68452380Y-123702380D01*
X68547619Y-123750000D01*
X68595238Y-123797619D01*
X68642857Y-123892857D01*
X68690476Y-124083333D01*
X68690476Y-124321428D01*
X68642857Y-124511904D01*
X68595238Y-124607142D01*
X68547619Y-124654761D01*
X68452380Y-124702380D01*
X68357142Y-124702380D01*
X68261904Y-124654761D01*
X68214285Y-124607142D01*
X68166666Y-124511904D01*
X68119047Y-124321428D01*
X68119047Y-124083333D01*
X68166666Y-123892857D01*
X68214285Y-123797619D01*
X68261904Y-123750000D01*
X68357142Y-123702380D01*
X75107142Y-124702380D02*
X75107142Y-123702380D01*
X75488095Y-123702380D01*
X75583333Y-123750000D01*
X75630952Y-123797619D01*
X75678571Y-123892857D01*
X75678571Y-124035714D01*
X75630952Y-124130952D01*
X75583333Y-124178571D01*
X75488095Y-124226190D01*
X75107142Y-124226190D01*
X76297619Y-123702380D02*
X76488095Y-123702380D01*
X76583333Y-123750000D01*
X76678571Y-123845238D01*
X76726190Y-124035714D01*
X76726190Y-124369047D01*
X76678571Y-124559523D01*
X76583333Y-124654761D01*
X76488095Y-124702380D01*
X76297619Y-124702380D01*
X76202380Y-124654761D01*
X76107142Y-124559523D01*
X76059523Y-124369047D01*
X76059523Y-124035714D01*
X76107142Y-123845238D01*
X76202380Y-123750000D01*
X76297619Y-123702380D01*
X77011904Y-123702380D02*
X77583333Y-123702380D01*
X77297619Y-124702380D02*
X77297619Y-123702380D01*
X78440476Y-124702380D02*
X77869047Y-124702380D01*
X78154761Y-124702380D02*
X78154761Y-123702380D01*
X78059523Y-123845238D01*
X77964285Y-123940476D01*
X77869047Y-123988095D01*
X86857142Y-124607142D02*
X86809523Y-124654761D01*
X86666666Y-124702380D01*
X86571428Y-124702380D01*
X86428571Y-124654761D01*
X86333333Y-124559523D01*
X86285714Y-124464285D01*
X86238095Y-124273809D01*
X86238095Y-124130952D01*
X86285714Y-123940476D01*
X86333333Y-123845238D01*
X86428571Y-123750000D01*
X86571428Y-123702380D01*
X86666666Y-123702380D01*
X86809523Y-123750000D01*
X86857142Y-123797619D01*
X87857142Y-124702380D02*
X87523809Y-124226190D01*
X87285714Y-124702380D02*
X87285714Y-123702380D01*
X87666666Y-123702380D01*
X87761904Y-123750000D01*
X87809523Y-123797619D01*
X87857142Y-123892857D01*
X87857142Y-124035714D01*
X87809523Y-124130952D01*
X87761904Y-124178571D01*
X87666666Y-124226190D01*
X87285714Y-124226190D01*
X88238095Y-124416666D02*
X88714285Y-124416666D01*
X88142857Y-124702380D02*
X88476190Y-123702380D01*
X88809523Y-124702380D01*
X89142857Y-124702380D02*
X89142857Y-123702380D01*
X89714285Y-124702380D01*
X89714285Y-123702380D01*
X90190476Y-124702380D02*
X90190476Y-123702380D01*
X90761904Y-124702380D02*
X90333333Y-124130952D01*
X90761904Y-123702380D02*
X90190476Y-124273809D01*
X67761904Y-118952380D02*
X68095238Y-119952380D01*
X68428571Y-118952380D01*
X68761904Y-119428571D02*
X69095238Y-119428571D01*
X69238095Y-119952380D02*
X68761904Y-119952380D01*
X68761904Y-118952380D01*
X69238095Y-118952380D01*
X69619047Y-119904761D02*
X69761904Y-119952380D01*
X70000000Y-119952380D01*
X70095238Y-119904761D01*
X70142857Y-119857142D01*
X70190476Y-119761904D01*
X70190476Y-119666666D01*
X70142857Y-119571428D01*
X70095238Y-119523809D01*
X70000000Y-119476190D01*
X69809523Y-119428571D01*
X69714285Y-119380952D01*
X69666666Y-119333333D01*
X69619047Y-119238095D01*
X69619047Y-119142857D01*
X69666666Y-119047619D01*
X69714285Y-119000000D01*
X69809523Y-118952380D01*
X70047619Y-118952380D01*
X70190476Y-119000000D01*
X71190476Y-119857142D02*
X71142857Y-119904761D01*
X71000000Y-119952380D01*
X70904761Y-119952380D01*
X70761904Y-119904761D01*
X70666666Y-119809523D01*
X70619047Y-119714285D01*
X70571428Y-119523809D01*
X70571428Y-119380952D01*
X70619047Y-119190476D01*
X70666666Y-119095238D01*
X70761904Y-119000000D01*
X70904761Y-118952380D01*
X71000000Y-118952380D01*
X71142857Y-119000000D01*
X71190476Y-119047619D01*
X72142857Y-119952380D02*
X71571428Y-119952380D01*
X71857142Y-119952380D02*
X71857142Y-118952380D01*
X71761904Y-119095238D01*
X71666666Y-119190476D01*
X71571428Y-119238095D01*
X80261904Y-118952380D02*
X80595238Y-119952380D01*
X80928571Y-118952380D01*
X81261904Y-119428571D02*
X81595238Y-119428571D01*
X81738095Y-119952380D02*
X81261904Y-119952380D01*
X81261904Y-118952380D01*
X81738095Y-118952380D01*
X82119047Y-119904761D02*
X82261904Y-119952380D01*
X82500000Y-119952380D01*
X82595238Y-119904761D01*
X82642857Y-119857142D01*
X82690476Y-119761904D01*
X82690476Y-119666666D01*
X82642857Y-119571428D01*
X82595238Y-119523809D01*
X82500000Y-119476190D01*
X82309523Y-119428571D01*
X82214285Y-119380952D01*
X82166666Y-119333333D01*
X82119047Y-119238095D01*
X82119047Y-119142857D01*
X82166666Y-119047619D01*
X82214285Y-119000000D01*
X82309523Y-118952380D01*
X82547619Y-118952380D01*
X82690476Y-119000000D01*
X83690476Y-119857142D02*
X83642857Y-119904761D01*
X83500000Y-119952380D01*
X83404761Y-119952380D01*
X83261904Y-119904761D01*
X83166666Y-119809523D01*
X83119047Y-119714285D01*
X83071428Y-119523809D01*
X83071428Y-119380952D01*
X83119047Y-119190476D01*
X83166666Y-119095238D01*
X83261904Y-119000000D01*
X83404761Y-118952380D01*
X83500000Y-118952380D01*
X83642857Y-119000000D01*
X83690476Y-119047619D01*
X84309523Y-118952380D02*
X84404761Y-118952380D01*
X84500000Y-119000000D01*
X84547619Y-119047619D01*
X84595238Y-119142857D01*
X84642857Y-119333333D01*
X84642857Y-119571428D01*
X84595238Y-119761904D01*
X84547619Y-119857142D01*
X84500000Y-119904761D01*
X84404761Y-119952380D01*
X84309523Y-119952380D01*
X84214285Y-119904761D01*
X84166666Y-119857142D01*
X84119047Y-119761904D01*
X84071428Y-119571428D01*
X84071428Y-119333333D01*
X84119047Y-119142857D01*
X84166666Y-119047619D01*
X84214285Y-119000000D01*
X84309523Y-118952380D01*
D11*
%TO.C,C2*%
X60419103Y-121771525D02*
X60419103Y-122052685D01*
X61439103Y-121771525D02*
X61439103Y-122052685D01*
%TO.C,C1*%
X51569103Y-121621525D02*
X51569103Y-121902685D01*
X52589103Y-121621525D02*
X52589103Y-121902685D01*
%TO.C,R5*%
X58756603Y-121674847D02*
X58756603Y-122149363D01*
X59801603Y-121674847D02*
X59801603Y-122149363D01*
%TO.C,R4*%
X49756603Y-121524847D02*
X49756603Y-121999363D01*
X50801603Y-121524847D02*
X50801603Y-121999363D01*
%TO.C,R3*%
X63301603Y-120549363D02*
X63301603Y-120074847D01*
X62256603Y-120549363D02*
X62256603Y-120074847D01*
%TO.C,R2*%
X54301603Y-120537258D02*
X54301603Y-120062742D01*
X53256603Y-120537258D02*
X53256603Y-120062742D01*
%TO.C,JP4*%
X90929103Y-106662105D02*
X90929103Y-103862105D01*
X91629103Y-103212105D02*
X92229103Y-103212105D01*
X92929103Y-103862105D02*
X92929103Y-106662105D01*
X92229103Y-107312105D02*
X91629103Y-107312105D01*
X93129103Y-106462105D02*
X93429103Y-106762105D01*
X93429103Y-106762105D02*
X93429103Y-106162105D01*
X93129103Y-106462105D02*
X93429103Y-106162105D01*
X91629103Y-107312105D02*
G75*
G02*
X90929103Y-106612105I0J700000D01*
G01*
X92929103Y-106612105D02*
G75*
G02*
X92229103Y-107312105I-700000J0D01*
G01*
X92229103Y-103212105D02*
G75*
G02*
X92929103Y-103912105I0J-700000D01*
G01*
X90929103Y-103912105D02*
G75*
G02*
X91629103Y-103212105I700000J0D01*
G01*
%TO.C,JP3*%
X91029103Y-112712105D02*
X91029103Y-109912105D01*
X91729103Y-109262105D02*
X92329103Y-109262105D01*
X93029103Y-109912105D02*
X93029103Y-112712105D01*
X92329103Y-113362105D02*
X91729103Y-113362105D01*
X93229103Y-112512105D02*
X93529103Y-112812105D01*
X93529103Y-112812105D02*
X93529103Y-112212105D01*
X93229103Y-112512105D02*
X93529103Y-112212105D01*
X91729103Y-113362105D02*
G75*
G02*
X91029103Y-112662105I0J700000D01*
G01*
X93029103Y-112662105D02*
G75*
G02*
X92329103Y-113362105I-700000J0D01*
G01*
X92329103Y-109262105D02*
G75*
G02*
X93029103Y-109962105I0J-700000D01*
G01*
X91029103Y-109962105D02*
G75*
G02*
X91729103Y-109262105I700000J0D01*
G01*
%TO.C,JP2*%
X44750000Y-125350000D02*
X44750000Y-128150000D01*
X44050000Y-128800000D02*
X43450000Y-128800000D01*
X42750000Y-128150000D02*
X42750000Y-125350000D01*
X43450000Y-124700000D02*
X44050000Y-124700000D01*
X42550000Y-125550000D02*
X42250000Y-125250000D01*
X42250000Y-125250000D02*
X42250000Y-125850000D01*
X42550000Y-125550000D02*
X42250000Y-125850000D01*
X44050000Y-124700000D02*
G75*
G02*
X44750000Y-125400000I0J-700000D01*
G01*
X42750000Y-125400000D02*
G75*
G02*
X43450000Y-124700000I700000J0D01*
G01*
X43450000Y-128800000D02*
G75*
G02*
X42750000Y-128100000I0J700000D01*
G01*
X44750000Y-128100000D02*
G75*
G02*
X44050000Y-128800000I-700000J0D01*
G01*
%TO.C,J10*%
X46219103Y-127842105D02*
X46219103Y-126392105D01*
X46219103Y-126392105D02*
X48019103Y-126392105D01*
X48019103Y-126392105D02*
X48019103Y-125402105D01*
X58439103Y-127842105D02*
X58439103Y-126392105D01*
X58439103Y-126392105D02*
X56639103Y-126392105D01*
X47489103Y-130662105D02*
X57169103Y-130662105D01*
%TO.C,J9*%
X63314103Y-115872105D02*
X63314103Y-117322105D01*
X63314103Y-117322105D02*
X61514103Y-117322105D01*
X61514103Y-117322105D02*
X61514103Y-118312105D01*
X57344103Y-115872105D02*
X57344103Y-117322105D01*
X57344103Y-117322105D02*
X59144103Y-117322105D01*
X62044103Y-113052105D02*
X58614103Y-113052105D01*
%TO.C,J8*%
X54374103Y-115872105D02*
X54374103Y-117322105D01*
X54374103Y-117322105D02*
X52574103Y-117322105D01*
X52574103Y-117322105D02*
X52574103Y-118312105D01*
X48404103Y-115872105D02*
X48404103Y-117322105D01*
X48404103Y-117322105D02*
X50204103Y-117322105D01*
X53104103Y-113052105D02*
X49674103Y-113052105D01*
%TO.C,J7*%
X61219103Y-127842105D02*
X61219103Y-126392105D01*
X61219103Y-126392105D02*
X63019103Y-126392105D01*
X63019103Y-126392105D02*
X63019103Y-125402105D01*
X68439103Y-127842105D02*
X68439103Y-126392105D01*
X68439103Y-126392105D02*
X66639103Y-126392105D01*
X62489103Y-130662105D02*
X67169103Y-130662105D01*
%TO.C,J6*%
X71219103Y-127842105D02*
X71219103Y-126392105D01*
X71219103Y-126392105D02*
X73019103Y-126392105D01*
X73019103Y-126392105D02*
X73019103Y-125402105D01*
X78439103Y-127842105D02*
X78439103Y-126392105D01*
X78439103Y-126392105D02*
X76639103Y-126392105D01*
X72489103Y-130662105D02*
X77169103Y-130662105D01*
%TO.C,R1*%
X83591845Y-123289605D02*
X84066361Y-123289605D01*
X83591845Y-124334605D02*
X84066361Y-124334605D01*
%TO.C,J5*%
X81219103Y-127842105D02*
X81219103Y-126392105D01*
X81219103Y-126392105D02*
X83019103Y-126392105D01*
X83019103Y-126392105D02*
X83019103Y-125402105D01*
X88439103Y-127842105D02*
X88439103Y-126392105D01*
X88439103Y-126392105D02*
X86639103Y-126392105D01*
X82489103Y-130662105D02*
X87169103Y-130662105D01*
%TO.C,J4*%
X74924103Y-115872105D02*
X74924103Y-117322105D01*
X74924103Y-117322105D02*
X73124103Y-117322105D01*
X73124103Y-117322105D02*
X73124103Y-118312105D01*
X66454103Y-115872105D02*
X66454103Y-117322105D01*
X66454103Y-117322105D02*
X68254103Y-117322105D01*
X73654103Y-113052105D02*
X67724103Y-113052105D01*
%TO.C,J3*%
X86564103Y-115872105D02*
X86564103Y-117322105D01*
X86564103Y-117322105D02*
X84764103Y-117322105D01*
X84764103Y-117322105D02*
X84764103Y-118312105D01*
X78094103Y-115872105D02*
X78094103Y-117322105D01*
X78094103Y-117322105D02*
X79894103Y-117322105D01*
X85294103Y-113052105D02*
X79364103Y-113052105D01*
%TO.C,JP1*%
X73629103Y-120400000D02*
X73629103Y-119800000D01*
X75729103Y-121100000D02*
X74329103Y-121100000D01*
X76429103Y-119800000D02*
X76429103Y-120400000D01*
X74329103Y-119100000D02*
X75729103Y-119100000D01*
X73629103Y-119800000D02*
G75*
G02*
X74329103Y-119100000I700000J0D01*
G01*
X74329103Y-121100000D02*
G75*
G02*
X73629103Y-120400000I0J700000D01*
G01*
X76429103Y-120400000D02*
G75*
G02*
X75729103Y-121100000I-700000J0D01*
G01*
X75729103Y-119100000D02*
G75*
G02*
X76429103Y-119800000I0J-700000D01*
G01*
%TO.C,C2*%
D10*
X61357142Y-124766666D02*
X61404761Y-124814285D01*
X61452380Y-124957142D01*
X61452380Y-125052380D01*
X61404761Y-125195238D01*
X61309523Y-125290476D01*
X61214285Y-125338095D01*
X61023809Y-125385714D01*
X60880952Y-125385714D01*
X60690476Y-125338095D01*
X60595238Y-125290476D01*
X60500000Y-125195238D01*
X60452380Y-125052380D01*
X60452380Y-124957142D01*
X60500000Y-124814285D01*
X60547619Y-124766666D01*
X60547619Y-124385714D02*
X60500000Y-124338095D01*
X60452380Y-124242857D01*
X60452380Y-124004761D01*
X60500000Y-123909523D01*
X60547619Y-123861904D01*
X60642857Y-123814285D01*
X60738095Y-123814285D01*
X60880952Y-123861904D01*
X61452380Y-124433333D01*
X61452380Y-123814285D01*
%TO.C,C1*%
X52357142Y-124516666D02*
X52404761Y-124564285D01*
X52452380Y-124707142D01*
X52452380Y-124802380D01*
X52404761Y-124945238D01*
X52309523Y-125040476D01*
X52214285Y-125088095D01*
X52023809Y-125135714D01*
X51880952Y-125135714D01*
X51690476Y-125088095D01*
X51595238Y-125040476D01*
X51500000Y-124945238D01*
X51452380Y-124802380D01*
X51452380Y-124707142D01*
X51500000Y-124564285D01*
X51547619Y-124516666D01*
X52452380Y-123564285D02*
X52452380Y-124135714D01*
X52452380Y-123850000D02*
X51452380Y-123850000D01*
X51595238Y-123945238D01*
X51690476Y-124040476D01*
X51738095Y-124135714D01*
%TO.C,R5*%
X59702380Y-124766666D02*
X59226190Y-125100000D01*
X59702380Y-125338095D02*
X58702380Y-125338095D01*
X58702380Y-124957142D01*
X58750000Y-124861904D01*
X58797619Y-124814285D01*
X58892857Y-124766666D01*
X59035714Y-124766666D01*
X59130952Y-124814285D01*
X59178571Y-124861904D01*
X59226190Y-124957142D01*
X59226190Y-125338095D01*
X58702380Y-123861904D02*
X58702380Y-124338095D01*
X59178571Y-124385714D01*
X59130952Y-124338095D01*
X59083333Y-124242857D01*
X59083333Y-124004761D01*
X59130952Y-123909523D01*
X59178571Y-123861904D01*
X59273809Y-123814285D01*
X59511904Y-123814285D01*
X59607142Y-123861904D01*
X59654761Y-123909523D01*
X59702380Y-124004761D01*
X59702380Y-124242857D01*
X59654761Y-124338095D01*
X59607142Y-124385714D01*
%TO.C,R4*%
X50702380Y-124366666D02*
X50226190Y-124700000D01*
X50702380Y-124938095D02*
X49702380Y-124938095D01*
X49702380Y-124557142D01*
X49750000Y-124461904D01*
X49797619Y-124414285D01*
X49892857Y-124366666D01*
X50035714Y-124366666D01*
X50130952Y-124414285D01*
X50178571Y-124461904D01*
X50226190Y-124557142D01*
X50226190Y-124938095D01*
X50035714Y-123509523D02*
X50702380Y-123509523D01*
X49654761Y-123747619D02*
X50369047Y-123985714D01*
X50369047Y-123366666D01*
%TO.C,R3*%
X64952380Y-120478771D02*
X64476190Y-120812105D01*
X64952380Y-121050200D02*
X63952380Y-121050200D01*
X63952380Y-120669247D01*
X64000000Y-120574009D01*
X64047619Y-120526390D01*
X64142857Y-120478771D01*
X64285714Y-120478771D01*
X64380952Y-120526390D01*
X64428571Y-120574009D01*
X64476190Y-120669247D01*
X64476190Y-121050200D01*
X63952380Y-120145438D02*
X63952380Y-119526390D01*
X64333333Y-119859724D01*
X64333333Y-119716866D01*
X64380952Y-119621628D01*
X64428571Y-119574009D01*
X64523809Y-119526390D01*
X64761904Y-119526390D01*
X64857142Y-119574009D01*
X64904761Y-119621628D01*
X64952380Y-119716866D01*
X64952380Y-120002581D01*
X64904761Y-120097819D01*
X64857142Y-120145438D01*
%TO.C,R2*%
X55702380Y-120404561D02*
X55226190Y-120737895D01*
X55702380Y-120975990D02*
X54702380Y-120975990D01*
X54702380Y-120595037D01*
X54750000Y-120499799D01*
X54797619Y-120452180D01*
X54892857Y-120404561D01*
X55035714Y-120404561D01*
X55130952Y-120452180D01*
X55178571Y-120499799D01*
X55226190Y-120595037D01*
X55226190Y-120975990D01*
X54797619Y-120023609D02*
X54750000Y-119975990D01*
X54702380Y-119880752D01*
X54702380Y-119642656D01*
X54750000Y-119547418D01*
X54797619Y-119499799D01*
X54892857Y-119452180D01*
X54988095Y-119452180D01*
X55130952Y-119499799D01*
X55702380Y-120071228D01*
X55702380Y-119452180D01*
%TO.C,JP4*%
X93702380Y-106083333D02*
X94416666Y-106083333D01*
X94559523Y-106130952D01*
X94654761Y-106226190D01*
X94702380Y-106369047D01*
X94702380Y-106464285D01*
X94702380Y-105607142D02*
X93702380Y-105607142D01*
X93702380Y-105226190D01*
X93750000Y-105130952D01*
X93797619Y-105083333D01*
X93892857Y-105035714D01*
X94035714Y-105035714D01*
X94130952Y-105083333D01*
X94178571Y-105130952D01*
X94226190Y-105226190D01*
X94226190Y-105607142D01*
X94035714Y-104178571D02*
X94702380Y-104178571D01*
X93654761Y-104416666D02*
X94369047Y-104654761D01*
X94369047Y-104035714D01*
%TO.C,JP3*%
X93702380Y-112083333D02*
X94416666Y-112083333D01*
X94559523Y-112130952D01*
X94654761Y-112226190D01*
X94702380Y-112369047D01*
X94702380Y-112464285D01*
X94702380Y-111607142D02*
X93702380Y-111607142D01*
X93702380Y-111226190D01*
X93750000Y-111130952D01*
X93797619Y-111083333D01*
X93892857Y-111035714D01*
X94035714Y-111035714D01*
X94130952Y-111083333D01*
X94178571Y-111130952D01*
X94226190Y-111226190D01*
X94226190Y-111607142D01*
X93702380Y-110702380D02*
X93702380Y-110083333D01*
X94083333Y-110416666D01*
X94083333Y-110273809D01*
X94130952Y-110178571D01*
X94178571Y-110130952D01*
X94273809Y-110083333D01*
X94511904Y-110083333D01*
X94607142Y-110130952D01*
X94654761Y-110178571D01*
X94702380Y-110273809D01*
X94702380Y-110559523D01*
X94654761Y-110654761D01*
X94607142Y-110702380D01*
%TO.C,JP2*%
X45002380Y-127583333D02*
X45716666Y-127583333D01*
X45859523Y-127630952D01*
X45954761Y-127726190D01*
X46002380Y-127869047D01*
X46002380Y-127964285D01*
X46002380Y-127107142D02*
X45002380Y-127107142D01*
X45002380Y-126726190D01*
X45050000Y-126630952D01*
X45097619Y-126583333D01*
X45192857Y-126535714D01*
X45335714Y-126535714D01*
X45430952Y-126583333D01*
X45478571Y-126630952D01*
X45526190Y-126726190D01*
X45526190Y-127107142D01*
X45097619Y-126154761D02*
X45050000Y-126107142D01*
X45002380Y-126011904D01*
X45002380Y-125773809D01*
X45050000Y-125678571D01*
X45097619Y-125630952D01*
X45192857Y-125583333D01*
X45288095Y-125583333D01*
X45430952Y-125630952D01*
X46002380Y-126202380D01*
X46002380Y-125583333D01*
%TO.C,J10*%
X50440476Y-128202380D02*
X50440476Y-128916666D01*
X50392857Y-129059523D01*
X50297619Y-129154761D01*
X50154761Y-129202380D01*
X50059523Y-129202380D01*
X51440476Y-129202380D02*
X50869047Y-129202380D01*
X51154761Y-129202380D02*
X51154761Y-128202380D01*
X51059523Y-128345238D01*
X50964285Y-128440476D01*
X50869047Y-128488095D01*
X52059523Y-128202380D02*
X52154761Y-128202380D01*
X52250000Y-128250000D01*
X52297619Y-128297619D01*
X52345238Y-128392857D01*
X52392857Y-128583333D01*
X52392857Y-128821428D01*
X52345238Y-129011904D01*
X52297619Y-129107142D01*
X52250000Y-129154761D01*
X52154761Y-129202380D01*
X52059523Y-129202380D01*
X51964285Y-129154761D01*
X51916666Y-129107142D01*
X51869047Y-129011904D01*
X51821428Y-128821428D01*
X51821428Y-128583333D01*
X51869047Y-128392857D01*
X51916666Y-128297619D01*
X51964285Y-128250000D01*
X52059523Y-128202380D01*
%TO.C,J9*%
X59995769Y-114202380D02*
X59995769Y-114916666D01*
X59948150Y-115059523D01*
X59852912Y-115154761D01*
X59710055Y-115202380D01*
X59614817Y-115202380D01*
X60519579Y-115202380D02*
X60710055Y-115202380D01*
X60805293Y-115154761D01*
X60852912Y-115107142D01*
X60948150Y-114964285D01*
X60995769Y-114773809D01*
X60995769Y-114392857D01*
X60948150Y-114297619D01*
X60900531Y-114250000D01*
X60805293Y-114202380D01*
X60614817Y-114202380D01*
X60519579Y-114250000D01*
X60471960Y-114297619D01*
X60424341Y-114392857D01*
X60424341Y-114630952D01*
X60471960Y-114726190D01*
X60519579Y-114773809D01*
X60614817Y-114821428D01*
X60805293Y-114821428D01*
X60900531Y-114773809D01*
X60948150Y-114726190D01*
X60995769Y-114630952D01*
%TO.C,J8*%
X51055769Y-114452380D02*
X51055769Y-115166666D01*
X51008150Y-115309523D01*
X50912912Y-115404761D01*
X50770055Y-115452380D01*
X50674817Y-115452380D01*
X51674817Y-114880952D02*
X51579579Y-114833333D01*
X51531960Y-114785714D01*
X51484341Y-114690476D01*
X51484341Y-114642857D01*
X51531960Y-114547619D01*
X51579579Y-114500000D01*
X51674817Y-114452380D01*
X51865293Y-114452380D01*
X51960531Y-114500000D01*
X52008150Y-114547619D01*
X52055769Y-114642857D01*
X52055769Y-114690476D01*
X52008150Y-114785714D01*
X51960531Y-114833333D01*
X51865293Y-114880952D01*
X51674817Y-114880952D01*
X51579579Y-114928571D01*
X51531960Y-114976190D01*
X51484341Y-115071428D01*
X51484341Y-115261904D01*
X51531960Y-115357142D01*
X51579579Y-115404761D01*
X51674817Y-115452380D01*
X51865293Y-115452380D01*
X51960531Y-115404761D01*
X52008150Y-115357142D01*
X52055769Y-115261904D01*
X52055769Y-115071428D01*
X52008150Y-114976190D01*
X51960531Y-114928571D01*
X51865293Y-114880952D01*
%TO.C,J7*%
X64495769Y-128452380D02*
X64495769Y-129166666D01*
X64448150Y-129309523D01*
X64352912Y-129404761D01*
X64210055Y-129452380D01*
X64114817Y-129452380D01*
X64876722Y-128452380D02*
X65543388Y-128452380D01*
X65114817Y-129452380D01*
%TO.C,J6*%
X74495769Y-128452380D02*
X74495769Y-129166666D01*
X74448150Y-129309523D01*
X74352912Y-129404761D01*
X74210055Y-129452380D01*
X74114817Y-129452380D01*
X75400531Y-128452380D02*
X75210055Y-128452380D01*
X75114817Y-128500000D01*
X75067198Y-128547619D01*
X74971960Y-128690476D01*
X74924341Y-128880952D01*
X74924341Y-129261904D01*
X74971960Y-129357142D01*
X75019579Y-129404761D01*
X75114817Y-129452380D01*
X75305293Y-129452380D01*
X75400531Y-129404761D01*
X75448150Y-129357142D01*
X75495769Y-129261904D01*
X75495769Y-129023809D01*
X75448150Y-128928571D01*
X75400531Y-128880952D01*
X75305293Y-128833333D01*
X75114817Y-128833333D01*
X75019579Y-128880952D01*
X74971960Y-128928571D01*
X74924341Y-129023809D01*
%TO.C,R1*%
X83662436Y-122834485D02*
X83329103Y-122358295D01*
X83091007Y-122834485D02*
X83091007Y-121834485D01*
X83471960Y-121834485D01*
X83567198Y-121882105D01*
X83614817Y-121929724D01*
X83662436Y-122024962D01*
X83662436Y-122167819D01*
X83614817Y-122263057D01*
X83567198Y-122310676D01*
X83471960Y-122358295D01*
X83091007Y-122358295D01*
X84614817Y-122834485D02*
X84043388Y-122834485D01*
X84329103Y-122834485D02*
X84329103Y-121834485D01*
X84233864Y-121977343D01*
X84138626Y-122072581D01*
X84043388Y-122120200D01*
%TO.C,J5*%
X84416666Y-128702380D02*
X84416666Y-129416666D01*
X84369047Y-129559523D01*
X84273809Y-129654761D01*
X84130952Y-129702380D01*
X84035714Y-129702380D01*
X85369047Y-128702380D02*
X84892857Y-128702380D01*
X84845238Y-129178571D01*
X84892857Y-129130952D01*
X84988095Y-129083333D01*
X85226190Y-129083333D01*
X85321428Y-129130952D01*
X85369047Y-129178571D01*
X85416666Y-129273809D01*
X85416666Y-129511904D01*
X85369047Y-129607142D01*
X85321428Y-129654761D01*
X85226190Y-129702380D01*
X84988095Y-129702380D01*
X84892857Y-129654761D01*
X84845238Y-129607142D01*
%TO.C,J4*%
X70416666Y-114202380D02*
X70416666Y-114916666D01*
X70369047Y-115059523D01*
X70273809Y-115154761D01*
X70130952Y-115202380D01*
X70035714Y-115202380D01*
X71321428Y-114535714D02*
X71321428Y-115202380D01*
X71083333Y-114154761D02*
X70845238Y-114869047D01*
X71464285Y-114869047D01*
%TO.C,J3*%
X81995769Y-114452380D02*
X81995769Y-115166666D01*
X81948150Y-115309523D01*
X81852912Y-115404761D01*
X81710055Y-115452380D01*
X81614817Y-115452380D01*
X82376722Y-114452380D02*
X82995769Y-114452380D01*
X82662436Y-114833333D01*
X82805293Y-114833333D01*
X82900531Y-114880952D01*
X82948150Y-114928571D01*
X82995769Y-115023809D01*
X82995769Y-115261904D01*
X82948150Y-115357142D01*
X82900531Y-115404761D01*
X82805293Y-115452380D01*
X82519579Y-115452380D01*
X82424341Y-115404761D01*
X82376722Y-115357142D01*
%TO.C,JP1*%
X74166666Y-121490275D02*
X74166666Y-122204561D01*
X74119047Y-122347418D01*
X74023809Y-122442656D01*
X73880952Y-122490275D01*
X73785714Y-122490275D01*
X74642857Y-122490275D02*
X74642857Y-121490275D01*
X75023809Y-121490275D01*
X75119047Y-121537895D01*
X75166666Y-121585514D01*
X75214285Y-121680752D01*
X75214285Y-121823609D01*
X75166666Y-121918847D01*
X75119047Y-121966466D01*
X75023809Y-122014085D01*
X74642857Y-122014085D01*
X76166666Y-122490275D02*
X75595238Y-122490275D01*
X75880952Y-122490275D02*
X75880952Y-121490275D01*
X75785714Y-121633133D01*
X75690476Y-121728371D01*
X75595238Y-121775990D01*
%TD*%
M02*
