%TF.GenerationSoftware,KiCad,Pcbnew,(5.1.8)-1*%
%TF.CreationDate,2021-02-11T10:10:36+01:00*%
%TF.ProjectId,shieldV1,73686965-6c64-4563-912e-6b696361645f,rev?*%
%TF.SameCoordinates,Original*%
%TF.FileFunction,Profile,NP*%
%FSLAX46Y46*%
G04 Gerber Fmt 4.6, Leading zero omitted, Abs format (unit mm)*
G04 Created by KiCad (PCBNEW (5.1.8)-1) date 2021-02-11 10:10:36*
%MOMM*%
%LPD*%
G01*
G04 APERTURE LIST*
%TA.AperFunction,Profile*%
%ADD10C,0.150000*%
%TD*%
G04 APERTURE END LIST*
D10*
X100529103Y-150312105D02*
X91029103Y-150312105D01*
X45029103Y-149312105D02*
X45029103Y-133312105D01*
X90029103Y-149312105D02*
G75*
G03*
X91029103Y-150312105I1000000J0D01*
G01*
X46029103Y-132312105D02*
G75*
G03*
X45029103Y-133312105I0J-1000000D01*
G01*
X90029103Y-133312105D02*
G75*
G03*
X89029103Y-132312105I-1000000J0D01*
G01*
X44029103Y-150312105D02*
G75*
G03*
X45029103Y-149312105I0J1000000D01*
G01*
X90029103Y-149312105D02*
X90029103Y-133312105D01*
X46029103Y-132312105D02*
X89029103Y-132312105D01*
X47529103Y-94312105D02*
G75*
G03*
X46529103Y-93312105I-1000000J0D01*
G01*
X33529103Y-93312105D02*
G75*
G03*
X32529103Y-94312105I0J-1000000D01*
G01*
X101529103Y-93312105D02*
X88529103Y-93312105D01*
X33529103Y-93312105D02*
X46529103Y-93312105D01*
X87529103Y-94312105D02*
X87529103Y-110312105D01*
X86529103Y-111312105D02*
X48529103Y-111312105D01*
X47529103Y-110312105D02*
G75*
G03*
X48529103Y-111312105I1000000J0D01*
G01*
X88529103Y-93312105D02*
G75*
G03*
X87529103Y-94312105I0J-1000000D01*
G01*
X86529103Y-111312105D02*
G75*
G03*
X87529103Y-110312105I0J1000000D01*
G01*
X47529103Y-94312105D02*
X47529103Y-110312105D01*
X34529103Y-150312105D02*
X44029103Y-150312105D01*
X102529103Y-148312105D02*
X102529103Y-94312105D01*
X32529103Y-148312105D02*
X32529103Y-94312105D01*
X100529103Y-150312105D02*
G75*
G03*
X102529103Y-148312105I0J2000000D01*
G01*
X32529103Y-148312105D02*
G75*
G03*
X34529103Y-150312105I2000000J0D01*
G01*
X93279103Y-99012105D02*
G75*
G03*
X93279103Y-99012105I-1620000J0D01*
G01*
X45019103Y-97732105D02*
G75*
G03*
X45019103Y-97732105I-1620000J0D01*
G01*
X102529103Y-94312105D02*
G75*
G03*
X101529103Y-93312105I-1000000J0D01*
G01*
M02*
