%TF.GenerationSoftware,KiCad,Pcbnew,(5.1.8)-1*%
%TF.CreationDate,2021-02-11T10:10:36+01:00*%
%TF.ProjectId,shieldV1,73686965-6c64-4563-912e-6b696361645f,rev?*%
%TF.SameCoordinates,Original*%
%TF.FileFunction,Soldermask,Top*%
%TF.FilePolarity,Negative*%
%FSLAX46Y46*%
G04 Gerber Fmt 4.6, Leading zero omitted, Abs format (unit mm)*
G04 Created by KiCad (PCBNEW (5.1.8)-1) date 2021-02-11 10:10:36*
%MOMM*%
%LPD*%
G01*
G04 APERTURE LIST*
%ADD10R,1.500000X1.000000*%
%ADD11C,0.100000*%
%ADD12O,1.700000X1.700000*%
%ADD13R,1.700000X1.700000*%
G04 APERTURE END LIST*
%TO.C,C2*%
G36*
G01*
X60679103Y-122237105D02*
X61179103Y-122237105D01*
G75*
G02*
X61404103Y-122462105I0J-225000D01*
G01*
X61404103Y-122912105D01*
G75*
G02*
X61179103Y-123137105I-225000J0D01*
G01*
X60679103Y-123137105D01*
G75*
G02*
X60454103Y-122912105I0J225000D01*
G01*
X60454103Y-122462105D01*
G75*
G02*
X60679103Y-122237105I225000J0D01*
G01*
G37*
G36*
G01*
X60679103Y-120687105D02*
X61179103Y-120687105D01*
G75*
G02*
X61404103Y-120912105I0J-225000D01*
G01*
X61404103Y-121362105D01*
G75*
G02*
X61179103Y-121587105I-225000J0D01*
G01*
X60679103Y-121587105D01*
G75*
G02*
X60454103Y-121362105I0J225000D01*
G01*
X60454103Y-120912105D01*
G75*
G02*
X60679103Y-120687105I225000J0D01*
G01*
G37*
%TD*%
%TO.C,C1*%
G36*
G01*
X51829103Y-122087105D02*
X52329103Y-122087105D01*
G75*
G02*
X52554103Y-122312105I0J-225000D01*
G01*
X52554103Y-122762105D01*
G75*
G02*
X52329103Y-122987105I-225000J0D01*
G01*
X51829103Y-122987105D01*
G75*
G02*
X51604103Y-122762105I0J225000D01*
G01*
X51604103Y-122312105D01*
G75*
G02*
X51829103Y-122087105I225000J0D01*
G01*
G37*
G36*
G01*
X51829103Y-120537105D02*
X52329103Y-120537105D01*
G75*
G02*
X52554103Y-120762105I0J-225000D01*
G01*
X52554103Y-121212105D01*
G75*
G02*
X52329103Y-121437105I-225000J0D01*
G01*
X51829103Y-121437105D01*
G75*
G02*
X51604103Y-121212105I0J225000D01*
G01*
X51604103Y-120762105D01*
G75*
G02*
X51829103Y-120537105I225000J0D01*
G01*
G37*
%TD*%
%TO.C,R5*%
G36*
G01*
X59004103Y-122337105D02*
X59554103Y-122337105D01*
G75*
G02*
X59754103Y-122537105I0J-200000D01*
G01*
X59754103Y-122937105D01*
G75*
G02*
X59554103Y-123137105I-200000J0D01*
G01*
X59004103Y-123137105D01*
G75*
G02*
X58804103Y-122937105I0J200000D01*
G01*
X58804103Y-122537105D01*
G75*
G02*
X59004103Y-122337105I200000J0D01*
G01*
G37*
G36*
G01*
X59004103Y-120687105D02*
X59554103Y-120687105D01*
G75*
G02*
X59754103Y-120887105I0J-200000D01*
G01*
X59754103Y-121287105D01*
G75*
G02*
X59554103Y-121487105I-200000J0D01*
G01*
X59004103Y-121487105D01*
G75*
G02*
X58804103Y-121287105I0J200000D01*
G01*
X58804103Y-120887105D01*
G75*
G02*
X59004103Y-120687105I200000J0D01*
G01*
G37*
%TD*%
%TO.C,R4*%
G36*
G01*
X50004103Y-122187105D02*
X50554103Y-122187105D01*
G75*
G02*
X50754103Y-122387105I0J-200000D01*
G01*
X50754103Y-122787105D01*
G75*
G02*
X50554103Y-122987105I-200000J0D01*
G01*
X50004103Y-122987105D01*
G75*
G02*
X49804103Y-122787105I0J200000D01*
G01*
X49804103Y-122387105D01*
G75*
G02*
X50004103Y-122187105I200000J0D01*
G01*
G37*
G36*
G01*
X50004103Y-120537105D02*
X50554103Y-120537105D01*
G75*
G02*
X50754103Y-120737105I0J-200000D01*
G01*
X50754103Y-121137105D01*
G75*
G02*
X50554103Y-121337105I-200000J0D01*
G01*
X50004103Y-121337105D01*
G75*
G02*
X49804103Y-121137105I0J200000D01*
G01*
X49804103Y-120737105D01*
G75*
G02*
X50004103Y-120537105I200000J0D01*
G01*
G37*
%TD*%
%TO.C,R3*%
G36*
G01*
X63054103Y-119887105D02*
X62504103Y-119887105D01*
G75*
G02*
X62304103Y-119687105I0J200000D01*
G01*
X62304103Y-119287105D01*
G75*
G02*
X62504103Y-119087105I200000J0D01*
G01*
X63054103Y-119087105D01*
G75*
G02*
X63254103Y-119287105I0J-200000D01*
G01*
X63254103Y-119687105D01*
G75*
G02*
X63054103Y-119887105I-200000J0D01*
G01*
G37*
G36*
G01*
X63054103Y-121537105D02*
X62504103Y-121537105D01*
G75*
G02*
X62304103Y-121337105I0J200000D01*
G01*
X62304103Y-120937105D01*
G75*
G02*
X62504103Y-120737105I200000J0D01*
G01*
X63054103Y-120737105D01*
G75*
G02*
X63254103Y-120937105I0J-200000D01*
G01*
X63254103Y-121337105D01*
G75*
G02*
X63054103Y-121537105I-200000J0D01*
G01*
G37*
%TD*%
%TO.C,R2*%
G36*
G01*
X54054103Y-119875000D02*
X53504103Y-119875000D01*
G75*
G02*
X53304103Y-119675000I0J200000D01*
G01*
X53304103Y-119275000D01*
G75*
G02*
X53504103Y-119075000I200000J0D01*
G01*
X54054103Y-119075000D01*
G75*
G02*
X54254103Y-119275000I0J-200000D01*
G01*
X54254103Y-119675000D01*
G75*
G02*
X54054103Y-119875000I-200000J0D01*
G01*
G37*
G36*
G01*
X54054103Y-121525000D02*
X53504103Y-121525000D01*
G75*
G02*
X53304103Y-121325000I0J200000D01*
G01*
X53304103Y-120925000D01*
G75*
G02*
X53504103Y-120725000I200000J0D01*
G01*
X54054103Y-120725000D01*
G75*
G02*
X54254103Y-120925000I0J-200000D01*
G01*
X54254103Y-121325000D01*
G75*
G02*
X54054103Y-121525000I-200000J0D01*
G01*
G37*
%TD*%
D10*
%TO.C,JP4*%
X91929103Y-105262105D03*
D11*
G36*
X91179705Y-103962105D02*
G01*
X91179705Y-103937571D01*
X91184515Y-103888740D01*
X91194087Y-103840615D01*
X91208331Y-103793660D01*
X91227108Y-103748327D01*
X91250239Y-103705054D01*
X91277499Y-103664255D01*
X91308627Y-103626326D01*
X91343324Y-103591629D01*
X91381253Y-103560501D01*
X91422052Y-103533241D01*
X91465325Y-103510110D01*
X91510658Y-103491333D01*
X91557613Y-103477089D01*
X91605738Y-103467517D01*
X91654569Y-103462707D01*
X91679103Y-103462707D01*
X91679103Y-103462105D01*
X92179103Y-103462105D01*
X92179103Y-103462707D01*
X92203637Y-103462707D01*
X92252468Y-103467517D01*
X92300593Y-103477089D01*
X92347548Y-103491333D01*
X92392881Y-103510110D01*
X92436154Y-103533241D01*
X92476953Y-103560501D01*
X92514882Y-103591629D01*
X92549579Y-103626326D01*
X92580707Y-103664255D01*
X92607967Y-103705054D01*
X92631098Y-103748327D01*
X92649875Y-103793660D01*
X92664119Y-103840615D01*
X92673691Y-103888740D01*
X92678501Y-103937571D01*
X92678501Y-103962105D01*
X92679103Y-103962105D01*
X92679103Y-104512105D01*
X91179103Y-104512105D01*
X91179103Y-103962105D01*
X91179705Y-103962105D01*
G37*
G36*
X92679103Y-106012105D02*
G01*
X92679103Y-106562105D01*
X92678501Y-106562105D01*
X92678501Y-106586639D01*
X92673691Y-106635470D01*
X92664119Y-106683595D01*
X92649875Y-106730550D01*
X92631098Y-106775883D01*
X92607967Y-106819156D01*
X92580707Y-106859955D01*
X92549579Y-106897884D01*
X92514882Y-106932581D01*
X92476953Y-106963709D01*
X92436154Y-106990969D01*
X92392881Y-107014100D01*
X92347548Y-107032877D01*
X92300593Y-107047121D01*
X92252468Y-107056693D01*
X92203637Y-107061503D01*
X92179103Y-107061503D01*
X92179103Y-107062105D01*
X91679103Y-107062105D01*
X91679103Y-107061503D01*
X91654569Y-107061503D01*
X91605738Y-107056693D01*
X91557613Y-107047121D01*
X91510658Y-107032877D01*
X91465325Y-107014100D01*
X91422052Y-106990969D01*
X91381253Y-106963709D01*
X91343324Y-106932581D01*
X91308627Y-106897884D01*
X91277499Y-106859955D01*
X91250239Y-106819156D01*
X91227108Y-106775883D01*
X91208331Y-106730550D01*
X91194087Y-106683595D01*
X91184515Y-106635470D01*
X91179705Y-106586639D01*
X91179705Y-106562105D01*
X91179103Y-106562105D01*
X91179103Y-106012105D01*
X92679103Y-106012105D01*
G37*
%TD*%
D10*
%TO.C,JP3*%
X92029103Y-111312105D03*
D11*
G36*
X91279705Y-110012105D02*
G01*
X91279705Y-109987571D01*
X91284515Y-109938740D01*
X91294087Y-109890615D01*
X91308331Y-109843660D01*
X91327108Y-109798327D01*
X91350239Y-109755054D01*
X91377499Y-109714255D01*
X91408627Y-109676326D01*
X91443324Y-109641629D01*
X91481253Y-109610501D01*
X91522052Y-109583241D01*
X91565325Y-109560110D01*
X91610658Y-109541333D01*
X91657613Y-109527089D01*
X91705738Y-109517517D01*
X91754569Y-109512707D01*
X91779103Y-109512707D01*
X91779103Y-109512105D01*
X92279103Y-109512105D01*
X92279103Y-109512707D01*
X92303637Y-109512707D01*
X92352468Y-109517517D01*
X92400593Y-109527089D01*
X92447548Y-109541333D01*
X92492881Y-109560110D01*
X92536154Y-109583241D01*
X92576953Y-109610501D01*
X92614882Y-109641629D01*
X92649579Y-109676326D01*
X92680707Y-109714255D01*
X92707967Y-109755054D01*
X92731098Y-109798327D01*
X92749875Y-109843660D01*
X92764119Y-109890615D01*
X92773691Y-109938740D01*
X92778501Y-109987571D01*
X92778501Y-110012105D01*
X92779103Y-110012105D01*
X92779103Y-110562105D01*
X91279103Y-110562105D01*
X91279103Y-110012105D01*
X91279705Y-110012105D01*
G37*
G36*
X92779103Y-112062105D02*
G01*
X92779103Y-112612105D01*
X92778501Y-112612105D01*
X92778501Y-112636639D01*
X92773691Y-112685470D01*
X92764119Y-112733595D01*
X92749875Y-112780550D01*
X92731098Y-112825883D01*
X92707967Y-112869156D01*
X92680707Y-112909955D01*
X92649579Y-112947884D01*
X92614882Y-112982581D01*
X92576953Y-113013709D01*
X92536154Y-113040969D01*
X92492881Y-113064100D01*
X92447548Y-113082877D01*
X92400593Y-113097121D01*
X92352468Y-113106693D01*
X92303637Y-113111503D01*
X92279103Y-113111503D01*
X92279103Y-113112105D01*
X91779103Y-113112105D01*
X91779103Y-113111503D01*
X91754569Y-113111503D01*
X91705738Y-113106693D01*
X91657613Y-113097121D01*
X91610658Y-113082877D01*
X91565325Y-113064100D01*
X91522052Y-113040969D01*
X91481253Y-113013709D01*
X91443324Y-112982581D01*
X91408627Y-112947884D01*
X91377499Y-112909955D01*
X91350239Y-112869156D01*
X91327108Y-112825883D01*
X91308331Y-112780550D01*
X91294087Y-112733595D01*
X91284515Y-112685470D01*
X91279705Y-112636639D01*
X91279705Y-112612105D01*
X91279103Y-112612105D01*
X91279103Y-112062105D01*
X92779103Y-112062105D01*
G37*
%TD*%
D10*
%TO.C,JP2*%
X43750000Y-126750000D03*
D11*
G36*
X44499398Y-128050000D02*
G01*
X44499398Y-128074534D01*
X44494588Y-128123365D01*
X44485016Y-128171490D01*
X44470772Y-128218445D01*
X44451995Y-128263778D01*
X44428864Y-128307051D01*
X44401604Y-128347850D01*
X44370476Y-128385779D01*
X44335779Y-128420476D01*
X44297850Y-128451604D01*
X44257051Y-128478864D01*
X44213778Y-128501995D01*
X44168445Y-128520772D01*
X44121490Y-128535016D01*
X44073365Y-128544588D01*
X44024534Y-128549398D01*
X44000000Y-128549398D01*
X44000000Y-128550000D01*
X43500000Y-128550000D01*
X43500000Y-128549398D01*
X43475466Y-128549398D01*
X43426635Y-128544588D01*
X43378510Y-128535016D01*
X43331555Y-128520772D01*
X43286222Y-128501995D01*
X43242949Y-128478864D01*
X43202150Y-128451604D01*
X43164221Y-128420476D01*
X43129524Y-128385779D01*
X43098396Y-128347850D01*
X43071136Y-128307051D01*
X43048005Y-128263778D01*
X43029228Y-128218445D01*
X43014984Y-128171490D01*
X43005412Y-128123365D01*
X43000602Y-128074534D01*
X43000602Y-128050000D01*
X43000000Y-128050000D01*
X43000000Y-127500000D01*
X44500000Y-127500000D01*
X44500000Y-128050000D01*
X44499398Y-128050000D01*
G37*
G36*
X43000000Y-126000000D02*
G01*
X43000000Y-125450000D01*
X43000602Y-125450000D01*
X43000602Y-125425466D01*
X43005412Y-125376635D01*
X43014984Y-125328510D01*
X43029228Y-125281555D01*
X43048005Y-125236222D01*
X43071136Y-125192949D01*
X43098396Y-125152150D01*
X43129524Y-125114221D01*
X43164221Y-125079524D01*
X43202150Y-125048396D01*
X43242949Y-125021136D01*
X43286222Y-124998005D01*
X43331555Y-124979228D01*
X43378510Y-124964984D01*
X43426635Y-124955412D01*
X43475466Y-124950602D01*
X43500000Y-124950602D01*
X43500000Y-124950000D01*
X44000000Y-124950000D01*
X44000000Y-124950602D01*
X44024534Y-124950602D01*
X44073365Y-124955412D01*
X44121490Y-124964984D01*
X44168445Y-124979228D01*
X44213778Y-124998005D01*
X44257051Y-125021136D01*
X44297850Y-125048396D01*
X44335779Y-125079524D01*
X44370476Y-125114221D01*
X44401604Y-125152150D01*
X44428864Y-125192949D01*
X44451995Y-125236222D01*
X44470772Y-125281555D01*
X44485016Y-125328510D01*
X44494588Y-125376635D01*
X44499398Y-125425466D01*
X44499398Y-125450000D01*
X44500000Y-125450000D01*
X44500000Y-126000000D01*
X43000000Y-126000000D01*
G37*
%TD*%
%TO.C,J10*%
G36*
G01*
X57429103Y-130552105D02*
X57429103Y-128352105D01*
G75*
G02*
X57679103Y-128102105I250000J0D01*
G01*
X58179103Y-128102105D01*
G75*
G02*
X58429103Y-128352105I0J-250000D01*
G01*
X58429103Y-130552105D01*
G75*
G02*
X58179103Y-130802105I-250000J0D01*
G01*
X57679103Y-130802105D01*
G75*
G02*
X57429103Y-130552105I0J250000D01*
G01*
G37*
G36*
G01*
X46229103Y-130552105D02*
X46229103Y-128352105D01*
G75*
G02*
X46479103Y-128102105I250000J0D01*
G01*
X46979103Y-128102105D01*
G75*
G02*
X47229103Y-128352105I0J-250000D01*
G01*
X47229103Y-130552105D01*
G75*
G02*
X46979103Y-130802105I-250000J0D01*
G01*
X46479103Y-130802105D01*
G75*
G02*
X46229103Y-130552105I0J250000D01*
G01*
G37*
G36*
G01*
X55779103Y-126952105D02*
X55779103Y-125552105D01*
G75*
G02*
X55929103Y-125402105I150000J0D01*
G01*
X56229103Y-125402105D01*
G75*
G02*
X56379103Y-125552105I0J-150000D01*
G01*
X56379103Y-126952105D01*
G75*
G02*
X56229103Y-127102105I-150000J0D01*
G01*
X55929103Y-127102105D01*
G75*
G02*
X55779103Y-126952105I0J150000D01*
G01*
G37*
G36*
G01*
X54529103Y-126952105D02*
X54529103Y-125552105D01*
G75*
G02*
X54679103Y-125402105I150000J0D01*
G01*
X54979103Y-125402105D01*
G75*
G02*
X55129103Y-125552105I0J-150000D01*
G01*
X55129103Y-126952105D01*
G75*
G02*
X54979103Y-127102105I-150000J0D01*
G01*
X54679103Y-127102105D01*
G75*
G02*
X54529103Y-126952105I0J150000D01*
G01*
G37*
G36*
G01*
X53279103Y-126952105D02*
X53279103Y-125552105D01*
G75*
G02*
X53429103Y-125402105I150000J0D01*
G01*
X53729103Y-125402105D01*
G75*
G02*
X53879103Y-125552105I0J-150000D01*
G01*
X53879103Y-126952105D01*
G75*
G02*
X53729103Y-127102105I-150000J0D01*
G01*
X53429103Y-127102105D01*
G75*
G02*
X53279103Y-126952105I0J150000D01*
G01*
G37*
G36*
G01*
X52029103Y-126952105D02*
X52029103Y-125552105D01*
G75*
G02*
X52179103Y-125402105I150000J0D01*
G01*
X52479103Y-125402105D01*
G75*
G02*
X52629103Y-125552105I0J-150000D01*
G01*
X52629103Y-126952105D01*
G75*
G02*
X52479103Y-127102105I-150000J0D01*
G01*
X52179103Y-127102105D01*
G75*
G02*
X52029103Y-126952105I0J150000D01*
G01*
G37*
G36*
G01*
X50779103Y-126952105D02*
X50779103Y-125552105D01*
G75*
G02*
X50929103Y-125402105I150000J0D01*
G01*
X51229103Y-125402105D01*
G75*
G02*
X51379103Y-125552105I0J-150000D01*
G01*
X51379103Y-126952105D01*
G75*
G02*
X51229103Y-127102105I-150000J0D01*
G01*
X50929103Y-127102105D01*
G75*
G02*
X50779103Y-126952105I0J150000D01*
G01*
G37*
G36*
G01*
X49529103Y-126952105D02*
X49529103Y-125552105D01*
G75*
G02*
X49679103Y-125402105I150000J0D01*
G01*
X49979103Y-125402105D01*
G75*
G02*
X50129103Y-125552105I0J-150000D01*
G01*
X50129103Y-126952105D01*
G75*
G02*
X49979103Y-127102105I-150000J0D01*
G01*
X49679103Y-127102105D01*
G75*
G02*
X49529103Y-126952105I0J150000D01*
G01*
G37*
G36*
G01*
X48279103Y-126952105D02*
X48279103Y-125552105D01*
G75*
G02*
X48429103Y-125402105I150000J0D01*
G01*
X48729103Y-125402105D01*
G75*
G02*
X48879103Y-125552105I0J-150000D01*
G01*
X48879103Y-126952105D01*
G75*
G02*
X48729103Y-127102105I-150000J0D01*
G01*
X48429103Y-127102105D01*
G75*
G02*
X48279103Y-126952105I0J150000D01*
G01*
G37*
%TD*%
%TO.C,J9*%
G36*
G01*
X58354103Y-113162105D02*
X58354103Y-115362105D01*
G75*
G02*
X58104103Y-115612105I-250000J0D01*
G01*
X57604103Y-115612105D01*
G75*
G02*
X57354103Y-115362105I0J250000D01*
G01*
X57354103Y-113162105D01*
G75*
G02*
X57604103Y-112912105I250000J0D01*
G01*
X58104103Y-112912105D01*
G75*
G02*
X58354103Y-113162105I0J-250000D01*
G01*
G37*
G36*
G01*
X63304103Y-113162105D02*
X63304103Y-115362105D01*
G75*
G02*
X63054103Y-115612105I-250000J0D01*
G01*
X62554103Y-115612105D01*
G75*
G02*
X62304103Y-115362105I0J250000D01*
G01*
X62304103Y-113162105D01*
G75*
G02*
X62554103Y-112912105I250000J0D01*
G01*
X63054103Y-112912105D01*
G75*
G02*
X63304103Y-113162105I0J-250000D01*
G01*
G37*
G36*
G01*
X60004103Y-116762105D02*
X60004103Y-118162105D01*
G75*
G02*
X59854103Y-118312105I-150000J0D01*
G01*
X59554103Y-118312105D01*
G75*
G02*
X59404103Y-118162105I0J150000D01*
G01*
X59404103Y-116762105D01*
G75*
G02*
X59554103Y-116612105I150000J0D01*
G01*
X59854103Y-116612105D01*
G75*
G02*
X60004103Y-116762105I0J-150000D01*
G01*
G37*
G36*
G01*
X61254103Y-116762105D02*
X61254103Y-118162105D01*
G75*
G02*
X61104103Y-118312105I-150000J0D01*
G01*
X60804103Y-118312105D01*
G75*
G02*
X60654103Y-118162105I0J150000D01*
G01*
X60654103Y-116762105D01*
G75*
G02*
X60804103Y-116612105I150000J0D01*
G01*
X61104103Y-116612105D01*
G75*
G02*
X61254103Y-116762105I0J-150000D01*
G01*
G37*
%TD*%
%TO.C,J8*%
G36*
G01*
X49414103Y-113162105D02*
X49414103Y-115362105D01*
G75*
G02*
X49164103Y-115612105I-250000J0D01*
G01*
X48664103Y-115612105D01*
G75*
G02*
X48414103Y-115362105I0J250000D01*
G01*
X48414103Y-113162105D01*
G75*
G02*
X48664103Y-112912105I250000J0D01*
G01*
X49164103Y-112912105D01*
G75*
G02*
X49414103Y-113162105I0J-250000D01*
G01*
G37*
G36*
G01*
X54364103Y-113162105D02*
X54364103Y-115362105D01*
G75*
G02*
X54114103Y-115612105I-250000J0D01*
G01*
X53614103Y-115612105D01*
G75*
G02*
X53364103Y-115362105I0J250000D01*
G01*
X53364103Y-113162105D01*
G75*
G02*
X53614103Y-112912105I250000J0D01*
G01*
X54114103Y-112912105D01*
G75*
G02*
X54364103Y-113162105I0J-250000D01*
G01*
G37*
G36*
G01*
X51064103Y-116762105D02*
X51064103Y-118162105D01*
G75*
G02*
X50914103Y-118312105I-150000J0D01*
G01*
X50614103Y-118312105D01*
G75*
G02*
X50464103Y-118162105I0J150000D01*
G01*
X50464103Y-116762105D01*
G75*
G02*
X50614103Y-116612105I150000J0D01*
G01*
X50914103Y-116612105D01*
G75*
G02*
X51064103Y-116762105I0J-150000D01*
G01*
G37*
G36*
G01*
X52314103Y-116762105D02*
X52314103Y-118162105D01*
G75*
G02*
X52164103Y-118312105I-150000J0D01*
G01*
X51864103Y-118312105D01*
G75*
G02*
X51714103Y-118162105I0J150000D01*
G01*
X51714103Y-116762105D01*
G75*
G02*
X51864103Y-116612105I150000J0D01*
G01*
X52164103Y-116612105D01*
G75*
G02*
X52314103Y-116762105I0J-150000D01*
G01*
G37*
%TD*%
%TO.C,J7*%
G36*
G01*
X67429103Y-130552105D02*
X67429103Y-128352105D01*
G75*
G02*
X67679103Y-128102105I250000J0D01*
G01*
X68179103Y-128102105D01*
G75*
G02*
X68429103Y-128352105I0J-250000D01*
G01*
X68429103Y-130552105D01*
G75*
G02*
X68179103Y-130802105I-250000J0D01*
G01*
X67679103Y-130802105D01*
G75*
G02*
X67429103Y-130552105I0J250000D01*
G01*
G37*
G36*
G01*
X61229103Y-130552105D02*
X61229103Y-128352105D01*
G75*
G02*
X61479103Y-128102105I250000J0D01*
G01*
X61979103Y-128102105D01*
G75*
G02*
X62229103Y-128352105I0J-250000D01*
G01*
X62229103Y-130552105D01*
G75*
G02*
X61979103Y-130802105I-250000J0D01*
G01*
X61479103Y-130802105D01*
G75*
G02*
X61229103Y-130552105I0J250000D01*
G01*
G37*
G36*
G01*
X65779103Y-126952105D02*
X65779103Y-125552105D01*
G75*
G02*
X65929103Y-125402105I150000J0D01*
G01*
X66229103Y-125402105D01*
G75*
G02*
X66379103Y-125552105I0J-150000D01*
G01*
X66379103Y-126952105D01*
G75*
G02*
X66229103Y-127102105I-150000J0D01*
G01*
X65929103Y-127102105D01*
G75*
G02*
X65779103Y-126952105I0J150000D01*
G01*
G37*
G36*
G01*
X64529103Y-126952105D02*
X64529103Y-125552105D01*
G75*
G02*
X64679103Y-125402105I150000J0D01*
G01*
X64979103Y-125402105D01*
G75*
G02*
X65129103Y-125552105I0J-150000D01*
G01*
X65129103Y-126952105D01*
G75*
G02*
X64979103Y-127102105I-150000J0D01*
G01*
X64679103Y-127102105D01*
G75*
G02*
X64529103Y-126952105I0J150000D01*
G01*
G37*
G36*
G01*
X63279103Y-126952105D02*
X63279103Y-125552105D01*
G75*
G02*
X63429103Y-125402105I150000J0D01*
G01*
X63729103Y-125402105D01*
G75*
G02*
X63879103Y-125552105I0J-150000D01*
G01*
X63879103Y-126952105D01*
G75*
G02*
X63729103Y-127102105I-150000J0D01*
G01*
X63429103Y-127102105D01*
G75*
G02*
X63279103Y-126952105I0J150000D01*
G01*
G37*
%TD*%
%TO.C,J6*%
G36*
G01*
X77429103Y-130552105D02*
X77429103Y-128352105D01*
G75*
G02*
X77679103Y-128102105I250000J0D01*
G01*
X78179103Y-128102105D01*
G75*
G02*
X78429103Y-128352105I0J-250000D01*
G01*
X78429103Y-130552105D01*
G75*
G02*
X78179103Y-130802105I-250000J0D01*
G01*
X77679103Y-130802105D01*
G75*
G02*
X77429103Y-130552105I0J250000D01*
G01*
G37*
G36*
G01*
X71229103Y-130552105D02*
X71229103Y-128352105D01*
G75*
G02*
X71479103Y-128102105I250000J0D01*
G01*
X71979103Y-128102105D01*
G75*
G02*
X72229103Y-128352105I0J-250000D01*
G01*
X72229103Y-130552105D01*
G75*
G02*
X71979103Y-130802105I-250000J0D01*
G01*
X71479103Y-130802105D01*
G75*
G02*
X71229103Y-130552105I0J250000D01*
G01*
G37*
G36*
G01*
X75779103Y-126952105D02*
X75779103Y-125552105D01*
G75*
G02*
X75929103Y-125402105I150000J0D01*
G01*
X76229103Y-125402105D01*
G75*
G02*
X76379103Y-125552105I0J-150000D01*
G01*
X76379103Y-126952105D01*
G75*
G02*
X76229103Y-127102105I-150000J0D01*
G01*
X75929103Y-127102105D01*
G75*
G02*
X75779103Y-126952105I0J150000D01*
G01*
G37*
G36*
G01*
X74529103Y-126952105D02*
X74529103Y-125552105D01*
G75*
G02*
X74679103Y-125402105I150000J0D01*
G01*
X74979103Y-125402105D01*
G75*
G02*
X75129103Y-125552105I0J-150000D01*
G01*
X75129103Y-126952105D01*
G75*
G02*
X74979103Y-127102105I-150000J0D01*
G01*
X74679103Y-127102105D01*
G75*
G02*
X74529103Y-126952105I0J150000D01*
G01*
G37*
G36*
G01*
X73279103Y-126952105D02*
X73279103Y-125552105D01*
G75*
G02*
X73429103Y-125402105I150000J0D01*
G01*
X73729103Y-125402105D01*
G75*
G02*
X73879103Y-125552105I0J-150000D01*
G01*
X73879103Y-126952105D01*
G75*
G02*
X73729103Y-127102105I-150000J0D01*
G01*
X73429103Y-127102105D01*
G75*
G02*
X73279103Y-126952105I0J150000D01*
G01*
G37*
%TD*%
%TO.C,R1*%
G36*
G01*
X84254103Y-124087105D02*
X84254103Y-123537105D01*
G75*
G02*
X84454103Y-123337105I200000J0D01*
G01*
X84854103Y-123337105D01*
G75*
G02*
X85054103Y-123537105I0J-200000D01*
G01*
X85054103Y-124087105D01*
G75*
G02*
X84854103Y-124287105I-200000J0D01*
G01*
X84454103Y-124287105D01*
G75*
G02*
X84254103Y-124087105I0J200000D01*
G01*
G37*
G36*
G01*
X82604103Y-124087105D02*
X82604103Y-123537105D01*
G75*
G02*
X82804103Y-123337105I200000J0D01*
G01*
X83204103Y-123337105D01*
G75*
G02*
X83404103Y-123537105I0J-200000D01*
G01*
X83404103Y-124087105D01*
G75*
G02*
X83204103Y-124287105I-200000J0D01*
G01*
X82804103Y-124287105D01*
G75*
G02*
X82604103Y-124087105I0J200000D01*
G01*
G37*
%TD*%
%TO.C,J5*%
G36*
G01*
X87429103Y-130552105D02*
X87429103Y-128352105D01*
G75*
G02*
X87679103Y-128102105I250000J0D01*
G01*
X88179103Y-128102105D01*
G75*
G02*
X88429103Y-128352105I0J-250000D01*
G01*
X88429103Y-130552105D01*
G75*
G02*
X88179103Y-130802105I-250000J0D01*
G01*
X87679103Y-130802105D01*
G75*
G02*
X87429103Y-130552105I0J250000D01*
G01*
G37*
G36*
G01*
X81229103Y-130552105D02*
X81229103Y-128352105D01*
G75*
G02*
X81479103Y-128102105I250000J0D01*
G01*
X81979103Y-128102105D01*
G75*
G02*
X82229103Y-128352105I0J-250000D01*
G01*
X82229103Y-130552105D01*
G75*
G02*
X81979103Y-130802105I-250000J0D01*
G01*
X81479103Y-130802105D01*
G75*
G02*
X81229103Y-130552105I0J250000D01*
G01*
G37*
G36*
G01*
X85779103Y-126952105D02*
X85779103Y-125552105D01*
G75*
G02*
X85929103Y-125402105I150000J0D01*
G01*
X86229103Y-125402105D01*
G75*
G02*
X86379103Y-125552105I0J-150000D01*
G01*
X86379103Y-126952105D01*
G75*
G02*
X86229103Y-127102105I-150000J0D01*
G01*
X85929103Y-127102105D01*
G75*
G02*
X85779103Y-126952105I0J150000D01*
G01*
G37*
G36*
G01*
X84529103Y-126952105D02*
X84529103Y-125552105D01*
G75*
G02*
X84679103Y-125402105I150000J0D01*
G01*
X84979103Y-125402105D01*
G75*
G02*
X85129103Y-125552105I0J-150000D01*
G01*
X85129103Y-126952105D01*
G75*
G02*
X84979103Y-127102105I-150000J0D01*
G01*
X84679103Y-127102105D01*
G75*
G02*
X84529103Y-126952105I0J150000D01*
G01*
G37*
G36*
G01*
X83279103Y-126952105D02*
X83279103Y-125552105D01*
G75*
G02*
X83429103Y-125402105I150000J0D01*
G01*
X83729103Y-125402105D01*
G75*
G02*
X83879103Y-125552105I0J-150000D01*
G01*
X83879103Y-126952105D01*
G75*
G02*
X83729103Y-127102105I-150000J0D01*
G01*
X83429103Y-127102105D01*
G75*
G02*
X83279103Y-126952105I0J150000D01*
G01*
G37*
%TD*%
%TO.C,J4*%
G36*
G01*
X67464103Y-113162105D02*
X67464103Y-115362105D01*
G75*
G02*
X67214103Y-115612105I-250000J0D01*
G01*
X66714103Y-115612105D01*
G75*
G02*
X66464103Y-115362105I0J250000D01*
G01*
X66464103Y-113162105D01*
G75*
G02*
X66714103Y-112912105I250000J0D01*
G01*
X67214103Y-112912105D01*
G75*
G02*
X67464103Y-113162105I0J-250000D01*
G01*
G37*
G36*
G01*
X74914103Y-113162105D02*
X74914103Y-115362105D01*
G75*
G02*
X74664103Y-115612105I-250000J0D01*
G01*
X74164103Y-115612105D01*
G75*
G02*
X73914103Y-115362105I0J250000D01*
G01*
X73914103Y-113162105D01*
G75*
G02*
X74164103Y-112912105I250000J0D01*
G01*
X74664103Y-112912105D01*
G75*
G02*
X74914103Y-113162105I0J-250000D01*
G01*
G37*
G36*
G01*
X69114103Y-116762105D02*
X69114103Y-118162105D01*
G75*
G02*
X68964103Y-118312105I-150000J0D01*
G01*
X68664103Y-118312105D01*
G75*
G02*
X68514103Y-118162105I0J150000D01*
G01*
X68514103Y-116762105D01*
G75*
G02*
X68664103Y-116612105I150000J0D01*
G01*
X68964103Y-116612105D01*
G75*
G02*
X69114103Y-116762105I0J-150000D01*
G01*
G37*
G36*
G01*
X70364103Y-116762105D02*
X70364103Y-118162105D01*
G75*
G02*
X70214103Y-118312105I-150000J0D01*
G01*
X69914103Y-118312105D01*
G75*
G02*
X69764103Y-118162105I0J150000D01*
G01*
X69764103Y-116762105D01*
G75*
G02*
X69914103Y-116612105I150000J0D01*
G01*
X70214103Y-116612105D01*
G75*
G02*
X70364103Y-116762105I0J-150000D01*
G01*
G37*
G36*
G01*
X71614103Y-116762105D02*
X71614103Y-118162105D01*
G75*
G02*
X71464103Y-118312105I-150000J0D01*
G01*
X71164103Y-118312105D01*
G75*
G02*
X71014103Y-118162105I0J150000D01*
G01*
X71014103Y-116762105D01*
G75*
G02*
X71164103Y-116612105I150000J0D01*
G01*
X71464103Y-116612105D01*
G75*
G02*
X71614103Y-116762105I0J-150000D01*
G01*
G37*
G36*
G01*
X72864103Y-116762105D02*
X72864103Y-118162105D01*
G75*
G02*
X72714103Y-118312105I-150000J0D01*
G01*
X72414103Y-118312105D01*
G75*
G02*
X72264103Y-118162105I0J150000D01*
G01*
X72264103Y-116762105D01*
G75*
G02*
X72414103Y-116612105I150000J0D01*
G01*
X72714103Y-116612105D01*
G75*
G02*
X72864103Y-116762105I0J-150000D01*
G01*
G37*
%TD*%
%TO.C,J3*%
G36*
G01*
X79104103Y-113162105D02*
X79104103Y-115362105D01*
G75*
G02*
X78854103Y-115612105I-250000J0D01*
G01*
X78354103Y-115612105D01*
G75*
G02*
X78104103Y-115362105I0J250000D01*
G01*
X78104103Y-113162105D01*
G75*
G02*
X78354103Y-112912105I250000J0D01*
G01*
X78854103Y-112912105D01*
G75*
G02*
X79104103Y-113162105I0J-250000D01*
G01*
G37*
G36*
G01*
X86554103Y-113162105D02*
X86554103Y-115362105D01*
G75*
G02*
X86304103Y-115612105I-250000J0D01*
G01*
X85804103Y-115612105D01*
G75*
G02*
X85554103Y-115362105I0J250000D01*
G01*
X85554103Y-113162105D01*
G75*
G02*
X85804103Y-112912105I250000J0D01*
G01*
X86304103Y-112912105D01*
G75*
G02*
X86554103Y-113162105I0J-250000D01*
G01*
G37*
G36*
G01*
X80754103Y-116762105D02*
X80754103Y-118162105D01*
G75*
G02*
X80604103Y-118312105I-150000J0D01*
G01*
X80304103Y-118312105D01*
G75*
G02*
X80154103Y-118162105I0J150000D01*
G01*
X80154103Y-116762105D01*
G75*
G02*
X80304103Y-116612105I150000J0D01*
G01*
X80604103Y-116612105D01*
G75*
G02*
X80754103Y-116762105I0J-150000D01*
G01*
G37*
G36*
G01*
X82004103Y-116762105D02*
X82004103Y-118162105D01*
G75*
G02*
X81854103Y-118312105I-150000J0D01*
G01*
X81554103Y-118312105D01*
G75*
G02*
X81404103Y-118162105I0J150000D01*
G01*
X81404103Y-116762105D01*
G75*
G02*
X81554103Y-116612105I150000J0D01*
G01*
X81854103Y-116612105D01*
G75*
G02*
X82004103Y-116762105I0J-150000D01*
G01*
G37*
G36*
G01*
X83254103Y-116762105D02*
X83254103Y-118162105D01*
G75*
G02*
X83104103Y-118312105I-150000J0D01*
G01*
X82804103Y-118312105D01*
G75*
G02*
X82654103Y-118162105I0J150000D01*
G01*
X82654103Y-116762105D01*
G75*
G02*
X82804103Y-116612105I150000J0D01*
G01*
X83104103Y-116612105D01*
G75*
G02*
X83254103Y-116762105I0J-150000D01*
G01*
G37*
G36*
G01*
X84504103Y-116762105D02*
X84504103Y-118162105D01*
G75*
G02*
X84354103Y-118312105I-150000J0D01*
G01*
X84054103Y-118312105D01*
G75*
G02*
X83904103Y-118162105I0J150000D01*
G01*
X83904103Y-116762105D01*
G75*
G02*
X84054103Y-116612105I150000J0D01*
G01*
X84354103Y-116612105D01*
G75*
G02*
X84504103Y-116762105I0J-150000D01*
G01*
G37*
%TD*%
%TO.C,JP1*%
G36*
X75679103Y-119350602D02*
G01*
X75703637Y-119350602D01*
X75752468Y-119355412D01*
X75800593Y-119364984D01*
X75847548Y-119379228D01*
X75892881Y-119398005D01*
X75936154Y-119421136D01*
X75976953Y-119448396D01*
X76014882Y-119479524D01*
X76049579Y-119514221D01*
X76080707Y-119552150D01*
X76107967Y-119592949D01*
X76131098Y-119636222D01*
X76149875Y-119681555D01*
X76164119Y-119728510D01*
X76173691Y-119776635D01*
X76178501Y-119825466D01*
X76178501Y-119850000D01*
X76179103Y-119850000D01*
X76179103Y-120350000D01*
X76178501Y-120350000D01*
X76178501Y-120374534D01*
X76173691Y-120423365D01*
X76164119Y-120471490D01*
X76149875Y-120518445D01*
X76131098Y-120563778D01*
X76107967Y-120607051D01*
X76080707Y-120647850D01*
X76049579Y-120685779D01*
X76014882Y-120720476D01*
X75976953Y-120751604D01*
X75936154Y-120778864D01*
X75892881Y-120801995D01*
X75847548Y-120820772D01*
X75800593Y-120835016D01*
X75752468Y-120844588D01*
X75703637Y-120849398D01*
X75679103Y-120849398D01*
X75679103Y-120850000D01*
X75179103Y-120850000D01*
X75179103Y-119350000D01*
X75679103Y-119350000D01*
X75679103Y-119350602D01*
G37*
G36*
X74879103Y-120850000D02*
G01*
X74379103Y-120850000D01*
X74379103Y-120849398D01*
X74354569Y-120849398D01*
X74305738Y-120844588D01*
X74257613Y-120835016D01*
X74210658Y-120820772D01*
X74165325Y-120801995D01*
X74122052Y-120778864D01*
X74081253Y-120751604D01*
X74043324Y-120720476D01*
X74008627Y-120685779D01*
X73977499Y-120647850D01*
X73950239Y-120607051D01*
X73927108Y-120563778D01*
X73908331Y-120518445D01*
X73894087Y-120471490D01*
X73884515Y-120423365D01*
X73879705Y-120374534D01*
X73879705Y-120350000D01*
X73879103Y-120350000D01*
X73879103Y-119850000D01*
X73879705Y-119850000D01*
X73879705Y-119825466D01*
X73884515Y-119776635D01*
X73894087Y-119728510D01*
X73908331Y-119681555D01*
X73927108Y-119636222D01*
X73950239Y-119592949D01*
X73977499Y-119552150D01*
X74008627Y-119514221D01*
X74043324Y-119479524D01*
X74081253Y-119448396D01*
X74122052Y-119421136D01*
X74165325Y-119398005D01*
X74210658Y-119379228D01*
X74257613Y-119364984D01*
X74305738Y-119355412D01*
X74354569Y-119350602D01*
X74379103Y-119350602D01*
X74379103Y-119350000D01*
X74879103Y-119350000D01*
X74879103Y-120850000D01*
G37*
%TD*%
D12*
%TO.C,J2*%
X99279103Y-147272105D03*
X96739103Y-147272105D03*
X99279103Y-144732105D03*
X96739103Y-144732105D03*
X99279103Y-142192105D03*
X96739103Y-142192105D03*
X99279103Y-139652105D03*
X96739103Y-139652105D03*
X99279103Y-137112105D03*
X96739103Y-137112105D03*
X99279103Y-134572105D03*
X96739103Y-134572105D03*
X99279103Y-132032105D03*
X96739103Y-132032105D03*
X99279103Y-129492105D03*
X96739103Y-129492105D03*
X99279103Y-126952105D03*
X96739103Y-126952105D03*
X99279103Y-124412105D03*
X96739103Y-124412105D03*
X99279103Y-121872105D03*
X96739103Y-121872105D03*
X99279103Y-119332105D03*
X96739103Y-119332105D03*
X99279103Y-116792105D03*
X96739103Y-116792105D03*
X99279103Y-114252105D03*
X96739103Y-114252105D03*
X99279103Y-111712105D03*
X96739103Y-111712105D03*
X99279103Y-109172105D03*
X96739103Y-109172105D03*
X99279103Y-106632105D03*
X96739103Y-106632105D03*
X99279103Y-104092105D03*
X96739103Y-104092105D03*
X99279103Y-101552105D03*
D13*
X96739103Y-101552105D03*
%TD*%
D12*
%TO.C,J1*%
X38319103Y-147272105D03*
X35779103Y-147272105D03*
X38319103Y-144732105D03*
X35779103Y-144732105D03*
X38319103Y-142192105D03*
X35779103Y-142192105D03*
X38319103Y-139652105D03*
X35779103Y-139652105D03*
X38319103Y-137112105D03*
X35779103Y-137112105D03*
X38319103Y-134572105D03*
X35779103Y-134572105D03*
X38319103Y-132032105D03*
X35779103Y-132032105D03*
X38319103Y-129492105D03*
X35779103Y-129492105D03*
X38319103Y-126952105D03*
X35779103Y-126952105D03*
X38319103Y-124412105D03*
X35779103Y-124412105D03*
X38319103Y-121872105D03*
X35779103Y-121872105D03*
X38319103Y-119332105D03*
X35779103Y-119332105D03*
X38319103Y-116792105D03*
X35779103Y-116792105D03*
X38319103Y-114252105D03*
X35779103Y-114252105D03*
X38319103Y-111712105D03*
X35779103Y-111712105D03*
X38319103Y-109172105D03*
X35779103Y-109172105D03*
X38319103Y-106632105D03*
X35779103Y-106632105D03*
X38319103Y-104092105D03*
X35779103Y-104092105D03*
X38319103Y-101552105D03*
D13*
X35779103Y-101552105D03*
%TD*%
M02*
