%TF.GenerationSoftware,KiCad,Pcbnew,(5.1.8)-1*%
%TF.CreationDate,2021-02-11T10:10:36+01:00*%
%TF.ProjectId,shieldV1,73686965-6c64-4563-912e-6b696361645f,rev?*%
%TF.SameCoordinates,Original*%
%TF.FileFunction,Copper,L2,Bot*%
%TF.FilePolarity,Positive*%
%FSLAX46Y46*%
G04 Gerber Fmt 4.6, Leading zero omitted, Abs format (unit mm)*
G04 Created by KiCad (PCBNEW (5.1.8)-1) date 2021-02-11 10:10:36*
%MOMM*%
%LPD*%
G01*
G04 APERTURE LIST*
%TA.AperFunction,ComponentPad*%
%ADD10O,1.700000X1.700000*%
%TD*%
%TA.AperFunction,ComponentPad*%
%ADD11R,1.700000X1.700000*%
%TD*%
%TA.AperFunction,ViaPad*%
%ADD12C,0.800000*%
%TD*%
%TA.AperFunction,Conductor*%
%ADD13C,0.500000*%
%TD*%
%TA.AperFunction,Conductor*%
%ADD14C,0.250000*%
%TD*%
%TA.AperFunction,Conductor*%
%ADD15C,0.254000*%
%TD*%
%TA.AperFunction,Conductor*%
%ADD16C,0.100000*%
%TD*%
G04 APERTURE END LIST*
D10*
%TO.P,J2,38*%
%TO.N,N/C*%
X99279103Y-147272105D03*
%TO.P,J2,37*%
%TO.N,/PA_3_UART2_RX*%
X96739103Y-147272105D03*
%TO.P,J2,36*%
%TO.N,N/C*%
X99279103Y-144732105D03*
%TO.P,J2,35*%
%TO.N,/PA_2_UART2_TX*%
X96739103Y-144732105D03*
%TO.P,J2,34*%
%TO.N,N/C*%
X99279103Y-142192105D03*
%TO.P,J2,33*%
X96739103Y-142192105D03*
%TO.P,J2,32*%
%TO.N,GND*%
X99279103Y-139652105D03*
%TO.P,J2,31*%
%TO.N,/PB3_SPI1_SCLK*%
X96739103Y-139652105D03*
%TO.P,J2,30*%
%TO.N,N/C*%
X99279103Y-137112105D03*
%TO.P,J2,29*%
%TO.N,/PB5_SPI1_MOSI*%
X96739103Y-137112105D03*
%TO.P,J2,28*%
%TO.N,N/C*%
X99279103Y-134572105D03*
%TO.P,J2,27*%
%TO.N,/PB4_SPI1_MISO*%
X96739103Y-134572105D03*
%TO.P,J2,26*%
%TO.N,N/C*%
X99279103Y-132032105D03*
%TO.P,J2,25*%
X96739103Y-132032105D03*
%TO.P,J2,24*%
%TO.N,/PB1*%
X99279103Y-129492105D03*
%TO.P,J2,23*%
%TO.N,N/C*%
X96739103Y-129492105D03*
%TO.P,J2,22*%
%TO.N,/PB2*%
X99279103Y-126952105D03*
%TO.P,J2,21*%
%TO.N,N/C*%
X96739103Y-126952105D03*
%TO.P,J2,20*%
%TO.N,GND*%
X99279103Y-124412105D03*
%TO.P,J2,19*%
%TO.N,N/C*%
X96739103Y-124412105D03*
%TO.P,J2,18*%
X99279103Y-121872105D03*
%TO.P,J2,17*%
X96739103Y-121872105D03*
%TO.P,J2,16*%
X99279103Y-119332105D03*
%TO.P,J2,15*%
X96739103Y-119332105D03*
%TO.P,J2,14*%
%TO.N,/PA_11_UART6_TX*%
X99279103Y-116792105D03*
%TO.P,J2,13*%
%TO.N,N/C*%
X96739103Y-116792105D03*
%TO.P,J2,12*%
%TO.N,/PA_12_UART6_RX*%
X99279103Y-114252105D03*
%TO.P,J2,11*%
%TO.N,N/C*%
X96739103Y-114252105D03*
%TO.P,J2,10*%
X99279103Y-111712105D03*
%TO.P,J2,9*%
%TO.N,GND*%
X96739103Y-111712105D03*
%TO.P,J2,8*%
%TO.N,N/C*%
X99279103Y-109172105D03*
%TO.P,J2,7*%
X96739103Y-109172105D03*
%TO.P,J2,6*%
X99279103Y-106632105D03*
%TO.P,J2,5*%
%TO.N,/PB9_I2C1_SDA*%
X96739103Y-106632105D03*
%TO.P,J2,4*%
%TO.N,/PC6_CRANK_SIG*%
X99279103Y-104092105D03*
%TO.P,J2,3*%
%TO.N,/PB8_I2C1_SCL*%
X96739103Y-104092105D03*
%TO.P,J2,2*%
%TO.N,N/C*%
X99279103Y-101552105D03*
D11*
%TO.P,J2,1*%
X96739103Y-101552105D03*
%TD*%
D10*
%TO.P,J1,38*%
%TO.N,N/C*%
X38319103Y-147272105D03*
%TO.P,J1,37*%
X35779103Y-147272105D03*
%TO.P,J1,36*%
X38319103Y-144732105D03*
%TO.P,J1,35*%
X35779103Y-144732105D03*
%TO.P,J1,34*%
X38319103Y-142192105D03*
%TO.P,J1,33*%
X35779103Y-142192105D03*
%TO.P,J1,32*%
X38319103Y-139652105D03*
%TO.P,J1,31*%
X35779103Y-139652105D03*
%TO.P,J1,30*%
%TO.N,/PA1_ADC1_1*%
X38319103Y-137112105D03*
%TO.P,J1,29*%
%TO.N,N/C*%
X35779103Y-137112105D03*
%TO.P,J1,28*%
%TO.N,/PA_0_ADC1_0*%
X38319103Y-134572105D03*
%TO.P,J1,27*%
%TO.N,/PC15*%
X35779103Y-134572105D03*
%TO.P,J1,26*%
%TO.N,N/C*%
X38319103Y-132032105D03*
%TO.P,J1,25*%
%TO.N,/PC14*%
X35779103Y-132032105D03*
%TO.P,J1,24*%
%TO.N,N/C*%
X38319103Y-129492105D03*
%TO.P,J1,23*%
X35779103Y-129492105D03*
%TO.P,J1,22*%
%TO.N,GND*%
X38319103Y-126952105D03*
%TO.P,J1,21*%
%TO.N,N/C*%
X35779103Y-126952105D03*
%TO.P,J1,20*%
%TO.N,GND*%
X38319103Y-124412105D03*
%TO.P,J1,19*%
X35779103Y-124412105D03*
%TO.P,J1,18*%
%TO.N,N/C*%
X38319103Y-121872105D03*
%TO.P,J1,17*%
X35779103Y-121872105D03*
%TO.P,J1,16*%
%TO.N,+3V3*%
X38319103Y-119332105D03*
%TO.P,J1,15*%
%TO.N,N/C*%
X35779103Y-119332105D03*
%TO.P,J1,14*%
X38319103Y-116792105D03*
%TO.P,J1,13*%
X35779103Y-116792105D03*
%TO.P,J1,12*%
X38319103Y-114252105D03*
%TO.P,J1,11*%
X35779103Y-114252105D03*
%TO.P,J1,10*%
X38319103Y-111712105D03*
%TO.P,J1,9*%
X35779103Y-111712105D03*
%TO.P,J1,8*%
%TO.N,GND*%
X38319103Y-109172105D03*
%TO.P,J1,7*%
%TO.N,N/C*%
X35779103Y-109172105D03*
%TO.P,J1,6*%
%TO.N,+5V*%
X38319103Y-106632105D03*
%TO.P,J1,5*%
%TO.N,N/C*%
X35779103Y-106632105D03*
%TO.P,J1,4*%
X38319103Y-104092105D03*
%TO.P,J1,3*%
X35779103Y-104092105D03*
%TO.P,J1,2*%
X38319103Y-101552105D03*
D11*
%TO.P,J1,1*%
X35779103Y-101552105D03*
%TD*%
D12*
%TO.N,+3V3*%
X43779103Y-129470897D03*
X48750000Y-122500000D03*
X57750000Y-123500000D03*
X62250000Y-127000000D03*
X72002105Y-127000000D03*
X81750000Y-127000000D03*
%TO.N,GND*%
X62750000Y-122750000D03*
X67250000Y-123750000D03*
X55250000Y-122250000D03*
X57500000Y-125500000D03*
X101000000Y-122750000D03*
X88250000Y-123500000D03*
X90500000Y-124750000D03*
X78000000Y-120250000D03*
X88750000Y-114500000D03*
X70000000Y-114250000D03*
X47750000Y-117250000D03*
X42250000Y-139750000D03*
X43500000Y-108000000D03*
%TO.N,+5V*%
X76500000Y-116500000D03*
X83750000Y-115000000D03*
X45250000Y-124537115D03*
%TO.N,/PB3_SPI1_SCLK*%
X93529103Y-107312105D03*
%TO.N,/PB5_SPI1_MOSI*%
X94279103Y-112812105D03*
%TO.N,/PB4_SPI1_MISO*%
X53029103Y-128812105D03*
X91779103Y-131562105D03*
%TO.N,/PB1*%
X92029103Y-129812105D03*
X54779103Y-128537115D03*
%TO.N,/PB2*%
X92279103Y-128312105D03*
X53579103Y-127762105D03*
%TD*%
D13*
%TO.N,+3V3*%
X43279103Y-129470897D02*
X41970897Y-129470897D01*
X41970897Y-129470897D02*
X40750000Y-128250000D01*
X40750000Y-121763002D02*
X38319103Y-119332105D01*
X40750000Y-128250000D02*
X40750000Y-121763002D01*
X62250000Y-127000000D02*
X72002105Y-127000000D01*
X72002105Y-127000000D02*
X81750000Y-127000000D01*
X57500000Y-123500000D02*
X54750000Y-126250000D01*
X57750000Y-123500000D02*
X57500000Y-123500000D01*
X61684315Y-127000000D02*
X62250000Y-127000000D01*
X55500000Y-127000000D02*
X61684315Y-127000000D01*
X54750000Y-126250000D02*
X55500000Y-127000000D01*
X54500000Y-126250000D02*
X48750000Y-126250000D01*
X54750000Y-126250000D02*
X54500000Y-126250000D01*
X45529103Y-129470897D02*
X48750000Y-126250000D01*
X48750000Y-126250000D02*
X48750000Y-122500000D01*
X43279103Y-129470897D02*
X45529103Y-129470897D01*
%TO.N,+5V*%
X76500000Y-114500000D02*
X76500000Y-116500000D01*
X83250000Y-114500000D02*
X76500000Y-114500000D01*
X83750000Y-115000000D02*
X83250000Y-114500000D01*
X74000000Y-112000000D02*
X76500000Y-114500000D01*
X45500000Y-112000000D02*
X74000000Y-112000000D01*
X45250000Y-111750000D02*
X45500000Y-112000000D01*
X40132105Y-106632105D02*
X45250000Y-111750000D01*
X38319103Y-106632105D02*
X40132105Y-106632105D01*
X45250000Y-111750000D02*
X45250000Y-124537115D01*
D14*
%TO.N,/PB3_SPI1_SCLK*%
X93529103Y-136442105D02*
X96739103Y-139652105D01*
X93529103Y-107312105D02*
X93529103Y-136442105D01*
%TO.N,/PB5_SPI1_MOSI*%
X94279103Y-134652105D02*
X94279103Y-112812105D01*
X96739103Y-137112105D02*
X94279103Y-134652105D01*
%TO.N,/PB4_SPI1_MISO*%
X53479114Y-129262116D02*
X89479114Y-129262116D01*
X53029103Y-128812105D02*
X53479114Y-129262116D01*
X89479114Y-129262116D02*
X91779103Y-131562105D01*
%TO.N,/PB1*%
X54804093Y-128562105D02*
X54779103Y-128537115D01*
X90779103Y-128562105D02*
X54804093Y-128562105D01*
X92029103Y-129812105D02*
X90779103Y-128562105D01*
%TO.N,/PB2*%
X91779103Y-127812105D02*
X53629103Y-127812105D01*
X92279103Y-128312105D02*
X91779103Y-127812105D01*
X53629103Y-127812105D02*
X53579103Y-127762105D01*
%TD*%
D15*
%TO.N,GND*%
X46584768Y-94030968D02*
X46638317Y-94047135D01*
X46687700Y-94073393D01*
X46731048Y-94108746D01*
X46766703Y-94151845D01*
X46793304Y-94201042D01*
X46809845Y-94254480D01*
X46819103Y-94342560D01*
X46819104Y-110346982D01*
X46822092Y-110377318D01*
X46822049Y-110383437D01*
X46823017Y-110393303D01*
X46843418Y-110587400D01*
X46856353Y-110650415D01*
X46868415Y-110713645D01*
X46871280Y-110723135D01*
X46928992Y-110909573D01*
X46953932Y-110968902D01*
X46978035Y-111028560D01*
X46982689Y-111037313D01*
X47024694Y-111115000D01*
X45871283Y-111115000D01*
X45845051Y-111093472D01*
X40788639Y-106037061D01*
X40760922Y-106003288D01*
X40626164Y-105892694D01*
X40472418Y-105810516D01*
X40305595Y-105759910D01*
X40175582Y-105747105D01*
X40175574Y-105747105D01*
X40132105Y-105742824D01*
X40088636Y-105747105D01*
X39513759Y-105747105D01*
X39472578Y-105685473D01*
X39265735Y-105478630D01*
X39091343Y-105362105D01*
X39265735Y-105245580D01*
X39472578Y-105038737D01*
X39635093Y-104795516D01*
X39747035Y-104525263D01*
X39804103Y-104238365D01*
X39804103Y-103945845D01*
X39747035Y-103658947D01*
X39635093Y-103388694D01*
X39472578Y-103145473D01*
X39265735Y-102938630D01*
X39091343Y-102822105D01*
X39265735Y-102705580D01*
X39472578Y-102498737D01*
X39635093Y-102255516D01*
X39747035Y-101985263D01*
X39804103Y-101698365D01*
X39804103Y-101405845D01*
X39747035Y-101118947D01*
X39635093Y-100848694D01*
X39472578Y-100605473D01*
X39265735Y-100398630D01*
X39022514Y-100236115D01*
X38752261Y-100124173D01*
X38465363Y-100067105D01*
X38172843Y-100067105D01*
X37885945Y-100124173D01*
X37615692Y-100236115D01*
X37372471Y-100398630D01*
X37240616Y-100530485D01*
X37218605Y-100457925D01*
X37159640Y-100347611D01*
X37080288Y-100250920D01*
X36983597Y-100171568D01*
X36873283Y-100112603D01*
X36753585Y-100076293D01*
X36629103Y-100064033D01*
X34929103Y-100064033D01*
X34804621Y-100076293D01*
X34684923Y-100112603D01*
X34574609Y-100171568D01*
X34477918Y-100250920D01*
X34398566Y-100347611D01*
X34339601Y-100457925D01*
X34303291Y-100577623D01*
X34291031Y-100702105D01*
X34291031Y-102402105D01*
X34303291Y-102526587D01*
X34339601Y-102646285D01*
X34398566Y-102756599D01*
X34477918Y-102853290D01*
X34574609Y-102932642D01*
X34684923Y-102991607D01*
X34757483Y-103013618D01*
X34625628Y-103145473D01*
X34463113Y-103388694D01*
X34351171Y-103658947D01*
X34294103Y-103945845D01*
X34294103Y-104238365D01*
X34351171Y-104525263D01*
X34463113Y-104795516D01*
X34625628Y-105038737D01*
X34832471Y-105245580D01*
X35006863Y-105362105D01*
X34832471Y-105478630D01*
X34625628Y-105685473D01*
X34463113Y-105928694D01*
X34351171Y-106198947D01*
X34294103Y-106485845D01*
X34294103Y-106778365D01*
X34351171Y-107065263D01*
X34463113Y-107335516D01*
X34625628Y-107578737D01*
X34832471Y-107785580D01*
X35006863Y-107902105D01*
X34832471Y-108018630D01*
X34625628Y-108225473D01*
X34463113Y-108468694D01*
X34351171Y-108738947D01*
X34294103Y-109025845D01*
X34294103Y-109318365D01*
X34351171Y-109605263D01*
X34463113Y-109875516D01*
X34625628Y-110118737D01*
X34832471Y-110325580D01*
X35006863Y-110442105D01*
X34832471Y-110558630D01*
X34625628Y-110765473D01*
X34463113Y-111008694D01*
X34351171Y-111278947D01*
X34294103Y-111565845D01*
X34294103Y-111858365D01*
X34351171Y-112145263D01*
X34463113Y-112415516D01*
X34625628Y-112658737D01*
X34832471Y-112865580D01*
X35006863Y-112982105D01*
X34832471Y-113098630D01*
X34625628Y-113305473D01*
X34463113Y-113548694D01*
X34351171Y-113818947D01*
X34294103Y-114105845D01*
X34294103Y-114398365D01*
X34351171Y-114685263D01*
X34463113Y-114955516D01*
X34625628Y-115198737D01*
X34832471Y-115405580D01*
X35006863Y-115522105D01*
X34832471Y-115638630D01*
X34625628Y-115845473D01*
X34463113Y-116088694D01*
X34351171Y-116358947D01*
X34294103Y-116645845D01*
X34294103Y-116938365D01*
X34351171Y-117225263D01*
X34463113Y-117495516D01*
X34625628Y-117738737D01*
X34832471Y-117945580D01*
X35006863Y-118062105D01*
X34832471Y-118178630D01*
X34625628Y-118385473D01*
X34463113Y-118628694D01*
X34351171Y-118898947D01*
X34294103Y-119185845D01*
X34294103Y-119478365D01*
X34351171Y-119765263D01*
X34463113Y-120035516D01*
X34625628Y-120278737D01*
X34832471Y-120485580D01*
X35006863Y-120602105D01*
X34832471Y-120718630D01*
X34625628Y-120925473D01*
X34463113Y-121168694D01*
X34351171Y-121438947D01*
X34294103Y-121725845D01*
X34294103Y-122018365D01*
X34351171Y-122305263D01*
X34463113Y-122575516D01*
X34625628Y-122818737D01*
X34832471Y-123025580D01*
X35014637Y-123147300D01*
X34897748Y-123216927D01*
X34681515Y-123411836D01*
X34507462Y-123645185D01*
X34382278Y-123908006D01*
X34337627Y-124055215D01*
X34458948Y-124285105D01*
X35652103Y-124285105D01*
X35652103Y-124265105D01*
X35906103Y-124265105D01*
X35906103Y-124285105D01*
X38192103Y-124285105D01*
X38192103Y-124265105D01*
X38446103Y-124265105D01*
X38446103Y-124285105D01*
X39639258Y-124285105D01*
X39760579Y-124055215D01*
X39715928Y-123908006D01*
X39590744Y-123645185D01*
X39416691Y-123411836D01*
X39200458Y-123216927D01*
X39083569Y-123147300D01*
X39265735Y-123025580D01*
X39472578Y-122818737D01*
X39635093Y-122575516D01*
X39747035Y-122305263D01*
X39795755Y-122060335D01*
X39865001Y-122129582D01*
X39865000Y-128206531D01*
X39860719Y-128250000D01*
X39865000Y-128293469D01*
X39865000Y-128293476D01*
X39877805Y-128423489D01*
X39928411Y-128590312D01*
X40010589Y-128744058D01*
X40121183Y-128878817D01*
X40154956Y-128906534D01*
X41314367Y-130065946D01*
X41342080Y-130099714D01*
X41375848Y-130127427D01*
X41375850Y-130127429D01*
X41447349Y-130186107D01*
X41476838Y-130210308D01*
X41630584Y-130292486D01*
X41797407Y-130343092D01*
X41927420Y-130355897D01*
X41927430Y-130355897D01*
X41970896Y-130360178D01*
X42014362Y-130355897D01*
X43240649Y-130355897D01*
X43288847Y-130388102D01*
X43477205Y-130466123D01*
X43677164Y-130505897D01*
X43881042Y-130505897D01*
X44081001Y-130466123D01*
X44269359Y-130388102D01*
X44317557Y-130355897D01*
X45485634Y-130355897D01*
X45529103Y-130360178D01*
X45572572Y-130355897D01*
X45572580Y-130355897D01*
X45702593Y-130343092D01*
X45869416Y-130292486D01*
X46023162Y-130210308D01*
X46157920Y-130099714D01*
X46185637Y-130065941D01*
X49116579Y-127135000D01*
X52753337Y-127135000D01*
X52661898Y-127271849D01*
X52583877Y-127460207D01*
X52544103Y-127660166D01*
X52544103Y-127864044D01*
X52549373Y-127890540D01*
X52538847Y-127894900D01*
X52369329Y-128008168D01*
X52225166Y-128152331D01*
X52111898Y-128321849D01*
X52033877Y-128510207D01*
X51994103Y-128710166D01*
X51994103Y-128914044D01*
X52033877Y-129114003D01*
X52111898Y-129302361D01*
X52225166Y-129471879D01*
X52369329Y-129616042D01*
X52538847Y-129729310D01*
X52727205Y-129807331D01*
X52927164Y-129847105D01*
X52993931Y-129847105D01*
X53054838Y-129897090D01*
X53186867Y-129967662D01*
X53330128Y-130011119D01*
X53441781Y-130022116D01*
X53441789Y-130022116D01*
X53479114Y-130025792D01*
X53516439Y-130022116D01*
X89164313Y-130022116D01*
X90744103Y-131601907D01*
X90744103Y-131664044D01*
X90783877Y-131864003D01*
X90861898Y-132052361D01*
X90975166Y-132221879D01*
X91119329Y-132366042D01*
X91288847Y-132479310D01*
X91477205Y-132557331D01*
X91677164Y-132597105D01*
X91881042Y-132597105D01*
X92081001Y-132557331D01*
X92269359Y-132479310D01*
X92438877Y-132366042D01*
X92583040Y-132221879D01*
X92696308Y-132052361D01*
X92769104Y-131876618D01*
X92769104Y-136404772D01*
X92765427Y-136442105D01*
X92780101Y-136591090D01*
X92823557Y-136734351D01*
X92894129Y-136866381D01*
X92965304Y-136953107D01*
X92989103Y-136982106D01*
X93018101Y-137005904D01*
X95297893Y-139285697D01*
X95254103Y-139505845D01*
X95254103Y-139798365D01*
X95311171Y-140085263D01*
X95423113Y-140355516D01*
X95585628Y-140598737D01*
X95792471Y-140805580D01*
X95966863Y-140922105D01*
X95792471Y-141038630D01*
X95585628Y-141245473D01*
X95423113Y-141488694D01*
X95311171Y-141758947D01*
X95254103Y-142045845D01*
X95254103Y-142338365D01*
X95311171Y-142625263D01*
X95423113Y-142895516D01*
X95585628Y-143138737D01*
X95792471Y-143345580D01*
X95966863Y-143462105D01*
X95792471Y-143578630D01*
X95585628Y-143785473D01*
X95423113Y-144028694D01*
X95311171Y-144298947D01*
X95254103Y-144585845D01*
X95254103Y-144878365D01*
X95311171Y-145165263D01*
X95423113Y-145435516D01*
X95585628Y-145678737D01*
X95792471Y-145885580D01*
X95966863Y-146002105D01*
X95792471Y-146118630D01*
X95585628Y-146325473D01*
X95423113Y-146568694D01*
X95311171Y-146838947D01*
X95254103Y-147125845D01*
X95254103Y-147418365D01*
X95311171Y-147705263D01*
X95423113Y-147975516D01*
X95585628Y-148218737D01*
X95792471Y-148425580D01*
X96035692Y-148588095D01*
X96305945Y-148700037D01*
X96592843Y-148757105D01*
X96885363Y-148757105D01*
X97172261Y-148700037D01*
X97442514Y-148588095D01*
X97685735Y-148425580D01*
X97892578Y-148218737D01*
X98009103Y-148044345D01*
X98125628Y-148218737D01*
X98332471Y-148425580D01*
X98575692Y-148588095D01*
X98845945Y-148700037D01*
X99132843Y-148757105D01*
X99425363Y-148757105D01*
X99712261Y-148700037D01*
X99982514Y-148588095D01*
X100225735Y-148425580D01*
X100432578Y-148218737D01*
X100595093Y-147975516D01*
X100707035Y-147705263D01*
X100764103Y-147418365D01*
X100764103Y-147125845D01*
X100707035Y-146838947D01*
X100595093Y-146568694D01*
X100432578Y-146325473D01*
X100225735Y-146118630D01*
X100051343Y-146002105D01*
X100225735Y-145885580D01*
X100432578Y-145678737D01*
X100595093Y-145435516D01*
X100707035Y-145165263D01*
X100764103Y-144878365D01*
X100764103Y-144585845D01*
X100707035Y-144298947D01*
X100595093Y-144028694D01*
X100432578Y-143785473D01*
X100225735Y-143578630D01*
X100051343Y-143462105D01*
X100225735Y-143345580D01*
X100432578Y-143138737D01*
X100595093Y-142895516D01*
X100707035Y-142625263D01*
X100764103Y-142338365D01*
X100764103Y-142045845D01*
X100707035Y-141758947D01*
X100595093Y-141488694D01*
X100432578Y-141245473D01*
X100225735Y-141038630D01*
X100043569Y-140916910D01*
X100160458Y-140847283D01*
X100376691Y-140652374D01*
X100550744Y-140419025D01*
X100675928Y-140156204D01*
X100720579Y-140008995D01*
X100599258Y-139779105D01*
X99406103Y-139779105D01*
X99406103Y-139799105D01*
X99152103Y-139799105D01*
X99152103Y-139779105D01*
X99132103Y-139779105D01*
X99132103Y-139525105D01*
X99152103Y-139525105D01*
X99152103Y-139505105D01*
X99406103Y-139505105D01*
X99406103Y-139525105D01*
X100599258Y-139525105D01*
X100720579Y-139295215D01*
X100675928Y-139148006D01*
X100550744Y-138885185D01*
X100376691Y-138651836D01*
X100160458Y-138456927D01*
X100043569Y-138387300D01*
X100225735Y-138265580D01*
X100432578Y-138058737D01*
X100595093Y-137815516D01*
X100707035Y-137545263D01*
X100764103Y-137258365D01*
X100764103Y-136965845D01*
X100707035Y-136678947D01*
X100595093Y-136408694D01*
X100432578Y-136165473D01*
X100225735Y-135958630D01*
X100051343Y-135842105D01*
X100225735Y-135725580D01*
X100432578Y-135518737D01*
X100595093Y-135275516D01*
X100707035Y-135005263D01*
X100764103Y-134718365D01*
X100764103Y-134425845D01*
X100707035Y-134138947D01*
X100595093Y-133868694D01*
X100432578Y-133625473D01*
X100225735Y-133418630D01*
X100051343Y-133302105D01*
X100225735Y-133185580D01*
X100432578Y-132978737D01*
X100595093Y-132735516D01*
X100707035Y-132465263D01*
X100764103Y-132178365D01*
X100764103Y-131885845D01*
X100707035Y-131598947D01*
X100595093Y-131328694D01*
X100432578Y-131085473D01*
X100225735Y-130878630D01*
X100051343Y-130762105D01*
X100225735Y-130645580D01*
X100432578Y-130438737D01*
X100595093Y-130195516D01*
X100707035Y-129925263D01*
X100764103Y-129638365D01*
X100764103Y-129345845D01*
X100707035Y-129058947D01*
X100595093Y-128788694D01*
X100432578Y-128545473D01*
X100225735Y-128338630D01*
X100051343Y-128222105D01*
X100225735Y-128105580D01*
X100432578Y-127898737D01*
X100595093Y-127655516D01*
X100707035Y-127385263D01*
X100764103Y-127098365D01*
X100764103Y-126805845D01*
X100707035Y-126518947D01*
X100595093Y-126248694D01*
X100432578Y-126005473D01*
X100225735Y-125798630D01*
X100043569Y-125676910D01*
X100160458Y-125607283D01*
X100376691Y-125412374D01*
X100550744Y-125179025D01*
X100675928Y-124916204D01*
X100720579Y-124768995D01*
X100599258Y-124539105D01*
X99406103Y-124539105D01*
X99406103Y-124559105D01*
X99152103Y-124559105D01*
X99152103Y-124539105D01*
X99132103Y-124539105D01*
X99132103Y-124285105D01*
X99152103Y-124285105D01*
X99152103Y-124265105D01*
X99406103Y-124265105D01*
X99406103Y-124285105D01*
X100599258Y-124285105D01*
X100720579Y-124055215D01*
X100675928Y-123908006D01*
X100550744Y-123645185D01*
X100376691Y-123411836D01*
X100160458Y-123216927D01*
X100043569Y-123147300D01*
X100225735Y-123025580D01*
X100432578Y-122818737D01*
X100595093Y-122575516D01*
X100707035Y-122305263D01*
X100764103Y-122018365D01*
X100764103Y-121725845D01*
X100707035Y-121438947D01*
X100595093Y-121168694D01*
X100432578Y-120925473D01*
X100225735Y-120718630D01*
X100051343Y-120602105D01*
X100225735Y-120485580D01*
X100432578Y-120278737D01*
X100595093Y-120035516D01*
X100707035Y-119765263D01*
X100764103Y-119478365D01*
X100764103Y-119185845D01*
X100707035Y-118898947D01*
X100595093Y-118628694D01*
X100432578Y-118385473D01*
X100225735Y-118178630D01*
X100051343Y-118062105D01*
X100225735Y-117945580D01*
X100432578Y-117738737D01*
X100595093Y-117495516D01*
X100707035Y-117225263D01*
X100764103Y-116938365D01*
X100764103Y-116645845D01*
X100707035Y-116358947D01*
X100595093Y-116088694D01*
X100432578Y-115845473D01*
X100225735Y-115638630D01*
X100051343Y-115522105D01*
X100225735Y-115405580D01*
X100432578Y-115198737D01*
X100595093Y-114955516D01*
X100707035Y-114685263D01*
X100764103Y-114398365D01*
X100764103Y-114105845D01*
X100707035Y-113818947D01*
X100595093Y-113548694D01*
X100432578Y-113305473D01*
X100225735Y-113098630D01*
X100051343Y-112982105D01*
X100225735Y-112865580D01*
X100432578Y-112658737D01*
X100595093Y-112415516D01*
X100707035Y-112145263D01*
X100764103Y-111858365D01*
X100764103Y-111565845D01*
X100707035Y-111278947D01*
X100595093Y-111008694D01*
X100432578Y-110765473D01*
X100225735Y-110558630D01*
X100051343Y-110442105D01*
X100225735Y-110325580D01*
X100432578Y-110118737D01*
X100595093Y-109875516D01*
X100707035Y-109605263D01*
X100764103Y-109318365D01*
X100764103Y-109025845D01*
X100707035Y-108738947D01*
X100595093Y-108468694D01*
X100432578Y-108225473D01*
X100225735Y-108018630D01*
X100051343Y-107902105D01*
X100225735Y-107785580D01*
X100432578Y-107578737D01*
X100595093Y-107335516D01*
X100707035Y-107065263D01*
X100764103Y-106778365D01*
X100764103Y-106485845D01*
X100707035Y-106198947D01*
X100595093Y-105928694D01*
X100432578Y-105685473D01*
X100225735Y-105478630D01*
X100051343Y-105362105D01*
X100225735Y-105245580D01*
X100432578Y-105038737D01*
X100595093Y-104795516D01*
X100707035Y-104525263D01*
X100764103Y-104238365D01*
X100764103Y-103945845D01*
X100707035Y-103658947D01*
X100595093Y-103388694D01*
X100432578Y-103145473D01*
X100225735Y-102938630D01*
X100051343Y-102822105D01*
X100225735Y-102705580D01*
X100432578Y-102498737D01*
X100595093Y-102255516D01*
X100707035Y-101985263D01*
X100764103Y-101698365D01*
X100764103Y-101405845D01*
X100707035Y-101118947D01*
X100595093Y-100848694D01*
X100432578Y-100605473D01*
X100225735Y-100398630D01*
X99982514Y-100236115D01*
X99712261Y-100124173D01*
X99425363Y-100067105D01*
X99132843Y-100067105D01*
X98845945Y-100124173D01*
X98575692Y-100236115D01*
X98332471Y-100398630D01*
X98200616Y-100530485D01*
X98178605Y-100457925D01*
X98119640Y-100347611D01*
X98040288Y-100250920D01*
X97943597Y-100171568D01*
X97833283Y-100112603D01*
X97713585Y-100076293D01*
X97589103Y-100064033D01*
X95889103Y-100064033D01*
X95764621Y-100076293D01*
X95644923Y-100112603D01*
X95534609Y-100171568D01*
X95437918Y-100250920D01*
X95358566Y-100347611D01*
X95299601Y-100457925D01*
X95263291Y-100577623D01*
X95251031Y-100702105D01*
X95251031Y-102402105D01*
X95263291Y-102526587D01*
X95299601Y-102646285D01*
X95358566Y-102756599D01*
X95437918Y-102853290D01*
X95534609Y-102932642D01*
X95644923Y-102991607D01*
X95717483Y-103013618D01*
X95585628Y-103145473D01*
X95423113Y-103388694D01*
X95311171Y-103658947D01*
X95254103Y-103945845D01*
X95254103Y-104238365D01*
X95311171Y-104525263D01*
X95423113Y-104795516D01*
X95585628Y-105038737D01*
X95792471Y-105245580D01*
X95966863Y-105362105D01*
X95792471Y-105478630D01*
X95585628Y-105685473D01*
X95423113Y-105928694D01*
X95311171Y-106198947D01*
X95254103Y-106485845D01*
X95254103Y-106778365D01*
X95311171Y-107065263D01*
X95423113Y-107335516D01*
X95585628Y-107578737D01*
X95792471Y-107785580D01*
X95966863Y-107902105D01*
X95792471Y-108018630D01*
X95585628Y-108225473D01*
X95423113Y-108468694D01*
X95311171Y-108738947D01*
X95254103Y-109025845D01*
X95254103Y-109318365D01*
X95311171Y-109605263D01*
X95423113Y-109875516D01*
X95585628Y-110118737D01*
X95792471Y-110325580D01*
X95974637Y-110447300D01*
X95857748Y-110516927D01*
X95641515Y-110711836D01*
X95467462Y-110945185D01*
X95342278Y-111208006D01*
X95297627Y-111355215D01*
X95418948Y-111585105D01*
X96612103Y-111585105D01*
X96612103Y-111565105D01*
X96866103Y-111565105D01*
X96866103Y-111585105D01*
X96886103Y-111585105D01*
X96886103Y-111839105D01*
X96866103Y-111839105D01*
X96866103Y-111859105D01*
X96612103Y-111859105D01*
X96612103Y-111839105D01*
X95418948Y-111839105D01*
X95297627Y-112068995D01*
X95342278Y-112216204D01*
X95467462Y-112479025D01*
X95641515Y-112712374D01*
X95857748Y-112907283D01*
X95974637Y-112976910D01*
X95792471Y-113098630D01*
X95585628Y-113305473D01*
X95423113Y-113548694D01*
X95311171Y-113818947D01*
X95254103Y-114105845D01*
X95254103Y-114398365D01*
X95311171Y-114685263D01*
X95423113Y-114955516D01*
X95585628Y-115198737D01*
X95792471Y-115405580D01*
X95966863Y-115522105D01*
X95792471Y-115638630D01*
X95585628Y-115845473D01*
X95423113Y-116088694D01*
X95311171Y-116358947D01*
X95254103Y-116645845D01*
X95254103Y-116938365D01*
X95311171Y-117225263D01*
X95423113Y-117495516D01*
X95585628Y-117738737D01*
X95792471Y-117945580D01*
X95966863Y-118062105D01*
X95792471Y-118178630D01*
X95585628Y-118385473D01*
X95423113Y-118628694D01*
X95311171Y-118898947D01*
X95254103Y-119185845D01*
X95254103Y-119478365D01*
X95311171Y-119765263D01*
X95423113Y-120035516D01*
X95585628Y-120278737D01*
X95792471Y-120485580D01*
X95966863Y-120602105D01*
X95792471Y-120718630D01*
X95585628Y-120925473D01*
X95423113Y-121168694D01*
X95311171Y-121438947D01*
X95254103Y-121725845D01*
X95254103Y-122018365D01*
X95311171Y-122305263D01*
X95423113Y-122575516D01*
X95585628Y-122818737D01*
X95792471Y-123025580D01*
X95966863Y-123142105D01*
X95792471Y-123258630D01*
X95585628Y-123465473D01*
X95423113Y-123708694D01*
X95311171Y-123978947D01*
X95254103Y-124265845D01*
X95254103Y-124558365D01*
X95311171Y-124845263D01*
X95423113Y-125115516D01*
X95585628Y-125358737D01*
X95792471Y-125565580D01*
X95966863Y-125682105D01*
X95792471Y-125798630D01*
X95585628Y-126005473D01*
X95423113Y-126248694D01*
X95311171Y-126518947D01*
X95254103Y-126805845D01*
X95254103Y-127098365D01*
X95311171Y-127385263D01*
X95423113Y-127655516D01*
X95585628Y-127898737D01*
X95792471Y-128105580D01*
X95966863Y-128222105D01*
X95792471Y-128338630D01*
X95585628Y-128545473D01*
X95423113Y-128788694D01*
X95311171Y-129058947D01*
X95254103Y-129345845D01*
X95254103Y-129638365D01*
X95311171Y-129925263D01*
X95423113Y-130195516D01*
X95585628Y-130438737D01*
X95792471Y-130645580D01*
X95966863Y-130762105D01*
X95792471Y-130878630D01*
X95585628Y-131085473D01*
X95423113Y-131328694D01*
X95311171Y-131598947D01*
X95254103Y-131885845D01*
X95254103Y-132178365D01*
X95311171Y-132465263D01*
X95423113Y-132735516D01*
X95585628Y-132978737D01*
X95792471Y-133185580D01*
X95966863Y-133302105D01*
X95792471Y-133418630D01*
X95585628Y-133625473D01*
X95423113Y-133868694D01*
X95311171Y-134138947D01*
X95254103Y-134425845D01*
X95254103Y-134552304D01*
X95039103Y-134337304D01*
X95039103Y-113515816D01*
X95083040Y-113471879D01*
X95196308Y-113302361D01*
X95274329Y-113114003D01*
X95314103Y-112914044D01*
X95314103Y-112710166D01*
X95274329Y-112510207D01*
X95196308Y-112321849D01*
X95083040Y-112152331D01*
X94938877Y-112008168D01*
X94769359Y-111894900D01*
X94581001Y-111816879D01*
X94381042Y-111777105D01*
X94289103Y-111777105D01*
X94289103Y-108015816D01*
X94333040Y-107971879D01*
X94446308Y-107802361D01*
X94524329Y-107614003D01*
X94564103Y-107414044D01*
X94564103Y-107210166D01*
X94524329Y-107010207D01*
X94446308Y-106821849D01*
X94333040Y-106652331D01*
X94188877Y-106508168D01*
X94019359Y-106394900D01*
X93831001Y-106316879D01*
X93631042Y-106277105D01*
X93427164Y-106277105D01*
X93227205Y-106316879D01*
X93038847Y-106394900D01*
X92869329Y-106508168D01*
X92725166Y-106652331D01*
X92611898Y-106821849D01*
X92533877Y-107010207D01*
X92494103Y-107210166D01*
X92494103Y-107414044D01*
X92533877Y-107614003D01*
X92611898Y-107802361D01*
X92725166Y-107971879D01*
X92769103Y-108015816D01*
X92769104Y-127394794D01*
X92581001Y-127316879D01*
X92381042Y-127277105D01*
X92323208Y-127277105D01*
X92319104Y-127272104D01*
X92203379Y-127177131D01*
X92071350Y-127106559D01*
X91928089Y-127063102D01*
X91816436Y-127052105D01*
X91816425Y-127052105D01*
X91779103Y-127048429D01*
X91741781Y-127052105D01*
X82785000Y-127052105D01*
X82785000Y-126898061D01*
X82745226Y-126698102D01*
X82667205Y-126509744D01*
X82553937Y-126340226D01*
X82409774Y-126196063D01*
X82240256Y-126082795D01*
X82051898Y-126004774D01*
X81851939Y-125965000D01*
X81648061Y-125965000D01*
X81448102Y-126004774D01*
X81259744Y-126082795D01*
X81211546Y-126115000D01*
X72540559Y-126115000D01*
X72492361Y-126082795D01*
X72304003Y-126004774D01*
X72104044Y-125965000D01*
X71900166Y-125965000D01*
X71700207Y-126004774D01*
X71511849Y-126082795D01*
X71463651Y-126115000D01*
X62788454Y-126115000D01*
X62740256Y-126082795D01*
X62551898Y-126004774D01*
X62351939Y-125965000D01*
X62148061Y-125965000D01*
X61948102Y-126004774D01*
X61759744Y-126082795D01*
X61711546Y-126115000D01*
X56136578Y-126115000D01*
X57716579Y-124535000D01*
X57851939Y-124535000D01*
X58051898Y-124495226D01*
X58240256Y-124417205D01*
X58409774Y-124303937D01*
X58553937Y-124159774D01*
X58667205Y-123990256D01*
X58745226Y-123801898D01*
X58785000Y-123601939D01*
X58785000Y-123398061D01*
X58745226Y-123198102D01*
X58667205Y-123009744D01*
X58553937Y-122840226D01*
X58409774Y-122696063D01*
X58240256Y-122582795D01*
X58051898Y-122504774D01*
X57851939Y-122465000D01*
X57648061Y-122465000D01*
X57448102Y-122504774D01*
X57259744Y-122582795D01*
X57090226Y-122696063D01*
X57048388Y-122737901D01*
X57005941Y-122760589D01*
X57005939Y-122760590D01*
X57005940Y-122760590D01*
X56904953Y-122843468D01*
X56904951Y-122843470D01*
X56871183Y-122871183D01*
X56843470Y-122904951D01*
X54383422Y-125365000D01*
X49635000Y-125365000D01*
X49635000Y-123038454D01*
X49667205Y-122990256D01*
X49745226Y-122801898D01*
X49785000Y-122601939D01*
X49785000Y-122398061D01*
X49745226Y-122198102D01*
X49667205Y-122009744D01*
X49553937Y-121840226D01*
X49409774Y-121696063D01*
X49240256Y-121582795D01*
X49051898Y-121504774D01*
X48851939Y-121465000D01*
X48648061Y-121465000D01*
X48448102Y-121504774D01*
X48259744Y-121582795D01*
X48090226Y-121696063D01*
X47946063Y-121840226D01*
X47832795Y-122009744D01*
X47754774Y-122198102D01*
X47715000Y-122398061D01*
X47715000Y-122601939D01*
X47754774Y-122801898D01*
X47832795Y-122990256D01*
X47865001Y-123038456D01*
X47865000Y-125883421D01*
X45162525Y-128585897D01*
X44317557Y-128585897D01*
X44269359Y-128553692D01*
X44081001Y-128475671D01*
X43881042Y-128435897D01*
X43677164Y-128435897D01*
X43477205Y-128475671D01*
X43288847Y-128553692D01*
X43240649Y-128585897D01*
X42337476Y-128585897D01*
X41635000Y-127883422D01*
X41635000Y-121806471D01*
X41639281Y-121763002D01*
X41635000Y-121719533D01*
X41635000Y-121719525D01*
X41622195Y-121589512D01*
X41571589Y-121422689D01*
X41571589Y-121422688D01*
X41489411Y-121268943D01*
X41406532Y-121167955D01*
X41406530Y-121167953D01*
X41378817Y-121134185D01*
X41345049Y-121106472D01*
X39789642Y-119551066D01*
X39804103Y-119478365D01*
X39804103Y-119185845D01*
X39747035Y-118898947D01*
X39635093Y-118628694D01*
X39472578Y-118385473D01*
X39265735Y-118178630D01*
X39091343Y-118062105D01*
X39265735Y-117945580D01*
X39472578Y-117738737D01*
X39635093Y-117495516D01*
X39747035Y-117225263D01*
X39804103Y-116938365D01*
X39804103Y-116645845D01*
X39747035Y-116358947D01*
X39635093Y-116088694D01*
X39472578Y-115845473D01*
X39265735Y-115638630D01*
X39091343Y-115522105D01*
X39265735Y-115405580D01*
X39472578Y-115198737D01*
X39635093Y-114955516D01*
X39747035Y-114685263D01*
X39804103Y-114398365D01*
X39804103Y-114105845D01*
X39747035Y-113818947D01*
X39635093Y-113548694D01*
X39472578Y-113305473D01*
X39265735Y-113098630D01*
X39091343Y-112982105D01*
X39265735Y-112865580D01*
X39472578Y-112658737D01*
X39635093Y-112415516D01*
X39747035Y-112145263D01*
X39804103Y-111858365D01*
X39804103Y-111565845D01*
X39747035Y-111278947D01*
X39635093Y-111008694D01*
X39472578Y-110765473D01*
X39265735Y-110558630D01*
X39083569Y-110436910D01*
X39200458Y-110367283D01*
X39416691Y-110172374D01*
X39590744Y-109939025D01*
X39715928Y-109676204D01*
X39760579Y-109528995D01*
X39639258Y-109299105D01*
X38446103Y-109299105D01*
X38446103Y-109319105D01*
X38192103Y-109319105D01*
X38192103Y-109299105D01*
X38172103Y-109299105D01*
X38172103Y-109045105D01*
X38192103Y-109045105D01*
X38192103Y-109025105D01*
X38446103Y-109025105D01*
X38446103Y-109045105D01*
X39639258Y-109045105D01*
X39760579Y-108815215D01*
X39715928Y-108668006D01*
X39590744Y-108405185D01*
X39416691Y-108171836D01*
X39200458Y-107976927D01*
X39083569Y-107907300D01*
X39265735Y-107785580D01*
X39472578Y-107578737D01*
X39513759Y-107517105D01*
X39765527Y-107517105D01*
X44365000Y-112116579D01*
X44365001Y-123998659D01*
X44332795Y-124046859D01*
X44254774Y-124235217D01*
X44215000Y-124435176D01*
X44215000Y-124639054D01*
X44254774Y-124839013D01*
X44332795Y-125027371D01*
X44446063Y-125196889D01*
X44590226Y-125341052D01*
X44759744Y-125454320D01*
X44948102Y-125532341D01*
X45148061Y-125572115D01*
X45351939Y-125572115D01*
X45551898Y-125532341D01*
X45740256Y-125454320D01*
X45909774Y-125341052D01*
X46053937Y-125196889D01*
X46167205Y-125027371D01*
X46245226Y-124839013D01*
X46285000Y-124639054D01*
X46285000Y-124435176D01*
X46245226Y-124235217D01*
X46167205Y-124046859D01*
X46135000Y-123998661D01*
X46135000Y-112885000D01*
X73633422Y-112885000D01*
X75615000Y-114866579D01*
X75615001Y-115961545D01*
X75582795Y-116009744D01*
X75504774Y-116198102D01*
X75465000Y-116398061D01*
X75465000Y-116601939D01*
X75504774Y-116801898D01*
X75582795Y-116990256D01*
X75696063Y-117159774D01*
X75840226Y-117303937D01*
X76009744Y-117417205D01*
X76198102Y-117495226D01*
X76398061Y-117535000D01*
X76601939Y-117535000D01*
X76801898Y-117495226D01*
X76990256Y-117417205D01*
X77159774Y-117303937D01*
X77303937Y-117159774D01*
X77417205Y-116990256D01*
X77495226Y-116801898D01*
X77535000Y-116601939D01*
X77535000Y-116398061D01*
X77495226Y-116198102D01*
X77417205Y-116009744D01*
X77385000Y-115961546D01*
X77385000Y-115385000D01*
X82789196Y-115385000D01*
X82832795Y-115490256D01*
X82946063Y-115659774D01*
X83090226Y-115803937D01*
X83259744Y-115917205D01*
X83448102Y-115995226D01*
X83648061Y-116035000D01*
X83851939Y-116035000D01*
X84051898Y-115995226D01*
X84240256Y-115917205D01*
X84409774Y-115803937D01*
X84553937Y-115659774D01*
X84667205Y-115490256D01*
X84745226Y-115301898D01*
X84785000Y-115101939D01*
X84785000Y-114898061D01*
X84745226Y-114698102D01*
X84667205Y-114509744D01*
X84553937Y-114340226D01*
X84409774Y-114196063D01*
X84240256Y-114082795D01*
X84051898Y-114004774D01*
X83995043Y-113993465D01*
X83906534Y-113904956D01*
X83878817Y-113871183D01*
X83744059Y-113760589D01*
X83590313Y-113678411D01*
X83423490Y-113627805D01*
X83293477Y-113615000D01*
X83293469Y-113615000D01*
X83250000Y-113610719D01*
X83206531Y-113615000D01*
X76866579Y-113615000D01*
X75273683Y-112022105D01*
X86563980Y-112022105D01*
X86594325Y-112019116D01*
X86600435Y-112019159D01*
X86610301Y-112018191D01*
X86804398Y-111997790D01*
X86867413Y-111984855D01*
X86930643Y-111972793D01*
X86940133Y-111969928D01*
X87126571Y-111912216D01*
X87185900Y-111887276D01*
X87245558Y-111863173D01*
X87254311Y-111858519D01*
X87425988Y-111765694D01*
X87479301Y-111729734D01*
X87533186Y-111694472D01*
X87540868Y-111688207D01*
X87691246Y-111563803D01*
X87736583Y-111518148D01*
X87782566Y-111473118D01*
X87788885Y-111465480D01*
X87912235Y-111314238D01*
X87947860Y-111260618D01*
X87984202Y-111207541D01*
X87988917Y-111198821D01*
X88080542Y-111026499D01*
X88105054Y-110967029D01*
X88130415Y-110907857D01*
X88133346Y-110898387D01*
X88189755Y-110711551D01*
X88202255Y-110648421D01*
X88215633Y-110585482D01*
X88216669Y-110575624D01*
X88235714Y-110381390D01*
X88239103Y-110346982D01*
X88239103Y-98781765D01*
X89320419Y-98781765D01*
X89320419Y-99242445D01*
X89410293Y-99694274D01*
X89586588Y-100119887D01*
X89842528Y-100502929D01*
X90168279Y-100828680D01*
X90551321Y-101084620D01*
X90976934Y-101260915D01*
X91428763Y-101350789D01*
X91889443Y-101350789D01*
X92341272Y-101260915D01*
X92766885Y-101084620D01*
X93149927Y-100828680D01*
X93475678Y-100502929D01*
X93731618Y-100119887D01*
X93907913Y-99694274D01*
X93997787Y-99242445D01*
X93997787Y-98781765D01*
X93907913Y-98329936D01*
X93731618Y-97904323D01*
X93475678Y-97521281D01*
X93149927Y-97195530D01*
X92766885Y-96939590D01*
X92341272Y-96763295D01*
X91889443Y-96673421D01*
X91428763Y-96673421D01*
X90976934Y-96763295D01*
X90551321Y-96939590D01*
X90168279Y-97195530D01*
X89842528Y-97521281D01*
X89586588Y-97904323D01*
X89410293Y-98329936D01*
X89320419Y-98781765D01*
X88239103Y-98781765D01*
X88239103Y-94346827D01*
X88247966Y-94256440D01*
X88264133Y-94202891D01*
X88290391Y-94153508D01*
X88325744Y-94110160D01*
X88368843Y-94074505D01*
X88418040Y-94047904D01*
X88471478Y-94031363D01*
X88559558Y-94022105D01*
X101494381Y-94022105D01*
X101584768Y-94030968D01*
X101638317Y-94047135D01*
X101687700Y-94073393D01*
X101731048Y-94108746D01*
X101766703Y-94151845D01*
X101793304Y-94201042D01*
X101809845Y-94254480D01*
X101819104Y-94342569D01*
X101819103Y-148277384D01*
X101791196Y-148562004D01*
X101718620Y-148802387D01*
X101600736Y-149024094D01*
X101442032Y-149218685D01*
X101248558Y-149378740D01*
X101027679Y-149498169D01*
X100787804Y-149572422D01*
X100505394Y-149602105D01*
X91063824Y-149602105D01*
X90973439Y-149593243D01*
X90919889Y-149577075D01*
X90870506Y-149550817D01*
X90827156Y-149515462D01*
X90791504Y-149472366D01*
X90764902Y-149423168D01*
X90748361Y-149369730D01*
X90739103Y-149281650D01*
X90739103Y-133277228D01*
X90736114Y-133246883D01*
X90736157Y-133240772D01*
X90735189Y-133230906D01*
X90714788Y-133036810D01*
X90701853Y-132973795D01*
X90689791Y-132910565D01*
X90686926Y-132901075D01*
X90629214Y-132714637D01*
X90604274Y-132655308D01*
X90580171Y-132595650D01*
X90575517Y-132586897D01*
X90482692Y-132415220D01*
X90446722Y-132361892D01*
X90411470Y-132308022D01*
X90405204Y-132300340D01*
X90280801Y-132149962D01*
X90235146Y-132104625D01*
X90190116Y-132058642D01*
X90182478Y-132052323D01*
X90031236Y-131928973D01*
X89977649Y-131893371D01*
X89924540Y-131857006D01*
X89915819Y-131852291D01*
X89743497Y-131760666D01*
X89684027Y-131736154D01*
X89624855Y-131710793D01*
X89615385Y-131707862D01*
X89428549Y-131651453D01*
X89365419Y-131638953D01*
X89302480Y-131625575D01*
X89292621Y-131624539D01*
X89098895Y-131605544D01*
X89063980Y-131602105D01*
X45994226Y-131602105D01*
X45963881Y-131605094D01*
X45957770Y-131605051D01*
X45947904Y-131606019D01*
X45753808Y-131626420D01*
X45690793Y-131639355D01*
X45627563Y-131651417D01*
X45618073Y-131654282D01*
X45431635Y-131711994D01*
X45372306Y-131736934D01*
X45312648Y-131761037D01*
X45303895Y-131765691D01*
X45132218Y-131858516D01*
X45078890Y-131894486D01*
X45025020Y-131929738D01*
X45017338Y-131936004D01*
X44866960Y-132060407D01*
X44821623Y-132106062D01*
X44775640Y-132151092D01*
X44769321Y-132158730D01*
X44645971Y-132309972D01*
X44610369Y-132363559D01*
X44574004Y-132416668D01*
X44569289Y-132425389D01*
X44477664Y-132597711D01*
X44453152Y-132657181D01*
X44427791Y-132716353D01*
X44424860Y-132725823D01*
X44368451Y-132912659D01*
X44355951Y-132975789D01*
X44342573Y-133038728D01*
X44341537Y-133048587D01*
X44322492Y-133242820D01*
X44322492Y-133242828D01*
X44319104Y-133277228D01*
X44319103Y-149277384D01*
X44310241Y-149367769D01*
X44294073Y-149421319D01*
X44267815Y-149470702D01*
X44232460Y-149514052D01*
X44189364Y-149549704D01*
X44140166Y-149576306D01*
X44086728Y-149592847D01*
X43998648Y-149602105D01*
X34563824Y-149602105D01*
X34279204Y-149574198D01*
X34038821Y-149501622D01*
X33817114Y-149383738D01*
X33622523Y-149225034D01*
X33462468Y-149031560D01*
X33343039Y-148810681D01*
X33268786Y-148570806D01*
X33239103Y-148288396D01*
X33239103Y-126805845D01*
X34294103Y-126805845D01*
X34294103Y-127098365D01*
X34351171Y-127385263D01*
X34463113Y-127655516D01*
X34625628Y-127898737D01*
X34832471Y-128105580D01*
X35006863Y-128222105D01*
X34832471Y-128338630D01*
X34625628Y-128545473D01*
X34463113Y-128788694D01*
X34351171Y-129058947D01*
X34294103Y-129345845D01*
X34294103Y-129638365D01*
X34351171Y-129925263D01*
X34463113Y-130195516D01*
X34625628Y-130438737D01*
X34832471Y-130645580D01*
X35006863Y-130762105D01*
X34832471Y-130878630D01*
X34625628Y-131085473D01*
X34463113Y-131328694D01*
X34351171Y-131598947D01*
X34294103Y-131885845D01*
X34294103Y-132178365D01*
X34351171Y-132465263D01*
X34463113Y-132735516D01*
X34625628Y-132978737D01*
X34832471Y-133185580D01*
X35006863Y-133302105D01*
X34832471Y-133418630D01*
X34625628Y-133625473D01*
X34463113Y-133868694D01*
X34351171Y-134138947D01*
X34294103Y-134425845D01*
X34294103Y-134718365D01*
X34351171Y-135005263D01*
X34463113Y-135275516D01*
X34625628Y-135518737D01*
X34832471Y-135725580D01*
X35006863Y-135842105D01*
X34832471Y-135958630D01*
X34625628Y-136165473D01*
X34463113Y-136408694D01*
X34351171Y-136678947D01*
X34294103Y-136965845D01*
X34294103Y-137258365D01*
X34351171Y-137545263D01*
X34463113Y-137815516D01*
X34625628Y-138058737D01*
X34832471Y-138265580D01*
X35006863Y-138382105D01*
X34832471Y-138498630D01*
X34625628Y-138705473D01*
X34463113Y-138948694D01*
X34351171Y-139218947D01*
X34294103Y-139505845D01*
X34294103Y-139798365D01*
X34351171Y-140085263D01*
X34463113Y-140355516D01*
X34625628Y-140598737D01*
X34832471Y-140805580D01*
X35006863Y-140922105D01*
X34832471Y-141038630D01*
X34625628Y-141245473D01*
X34463113Y-141488694D01*
X34351171Y-141758947D01*
X34294103Y-142045845D01*
X34294103Y-142338365D01*
X34351171Y-142625263D01*
X34463113Y-142895516D01*
X34625628Y-143138737D01*
X34832471Y-143345580D01*
X35006863Y-143462105D01*
X34832471Y-143578630D01*
X34625628Y-143785473D01*
X34463113Y-144028694D01*
X34351171Y-144298947D01*
X34294103Y-144585845D01*
X34294103Y-144878365D01*
X34351171Y-145165263D01*
X34463113Y-145435516D01*
X34625628Y-145678737D01*
X34832471Y-145885580D01*
X35006863Y-146002105D01*
X34832471Y-146118630D01*
X34625628Y-146325473D01*
X34463113Y-146568694D01*
X34351171Y-146838947D01*
X34294103Y-147125845D01*
X34294103Y-147418365D01*
X34351171Y-147705263D01*
X34463113Y-147975516D01*
X34625628Y-148218737D01*
X34832471Y-148425580D01*
X35075692Y-148588095D01*
X35345945Y-148700037D01*
X35632843Y-148757105D01*
X35925363Y-148757105D01*
X36212261Y-148700037D01*
X36482514Y-148588095D01*
X36725735Y-148425580D01*
X36932578Y-148218737D01*
X37049103Y-148044345D01*
X37165628Y-148218737D01*
X37372471Y-148425580D01*
X37615692Y-148588095D01*
X37885945Y-148700037D01*
X38172843Y-148757105D01*
X38465363Y-148757105D01*
X38752261Y-148700037D01*
X39022514Y-148588095D01*
X39265735Y-148425580D01*
X39472578Y-148218737D01*
X39635093Y-147975516D01*
X39747035Y-147705263D01*
X39804103Y-147418365D01*
X39804103Y-147125845D01*
X39747035Y-146838947D01*
X39635093Y-146568694D01*
X39472578Y-146325473D01*
X39265735Y-146118630D01*
X39091343Y-146002105D01*
X39265735Y-145885580D01*
X39472578Y-145678737D01*
X39635093Y-145435516D01*
X39747035Y-145165263D01*
X39804103Y-144878365D01*
X39804103Y-144585845D01*
X39747035Y-144298947D01*
X39635093Y-144028694D01*
X39472578Y-143785473D01*
X39265735Y-143578630D01*
X39091343Y-143462105D01*
X39265735Y-143345580D01*
X39472578Y-143138737D01*
X39635093Y-142895516D01*
X39747035Y-142625263D01*
X39804103Y-142338365D01*
X39804103Y-142045845D01*
X39747035Y-141758947D01*
X39635093Y-141488694D01*
X39472578Y-141245473D01*
X39265735Y-141038630D01*
X39091343Y-140922105D01*
X39265735Y-140805580D01*
X39472578Y-140598737D01*
X39635093Y-140355516D01*
X39747035Y-140085263D01*
X39804103Y-139798365D01*
X39804103Y-139505845D01*
X39747035Y-139218947D01*
X39635093Y-138948694D01*
X39472578Y-138705473D01*
X39265735Y-138498630D01*
X39091343Y-138382105D01*
X39265735Y-138265580D01*
X39472578Y-138058737D01*
X39635093Y-137815516D01*
X39747035Y-137545263D01*
X39804103Y-137258365D01*
X39804103Y-136965845D01*
X39747035Y-136678947D01*
X39635093Y-136408694D01*
X39472578Y-136165473D01*
X39265735Y-135958630D01*
X39091343Y-135842105D01*
X39265735Y-135725580D01*
X39472578Y-135518737D01*
X39635093Y-135275516D01*
X39747035Y-135005263D01*
X39804103Y-134718365D01*
X39804103Y-134425845D01*
X39747035Y-134138947D01*
X39635093Y-133868694D01*
X39472578Y-133625473D01*
X39265735Y-133418630D01*
X39091343Y-133302105D01*
X39265735Y-133185580D01*
X39472578Y-132978737D01*
X39635093Y-132735516D01*
X39747035Y-132465263D01*
X39804103Y-132178365D01*
X39804103Y-131885845D01*
X39747035Y-131598947D01*
X39635093Y-131328694D01*
X39472578Y-131085473D01*
X39265735Y-130878630D01*
X39091343Y-130762105D01*
X39265735Y-130645580D01*
X39472578Y-130438737D01*
X39635093Y-130195516D01*
X39747035Y-129925263D01*
X39804103Y-129638365D01*
X39804103Y-129345845D01*
X39747035Y-129058947D01*
X39635093Y-128788694D01*
X39472578Y-128545473D01*
X39265735Y-128338630D01*
X39083569Y-128216910D01*
X39200458Y-128147283D01*
X39416691Y-127952374D01*
X39590744Y-127719025D01*
X39715928Y-127456204D01*
X39760579Y-127308995D01*
X39639258Y-127079105D01*
X38446103Y-127079105D01*
X38446103Y-127099105D01*
X38192103Y-127099105D01*
X38192103Y-127079105D01*
X38172103Y-127079105D01*
X38172103Y-126825105D01*
X38192103Y-126825105D01*
X38192103Y-124539105D01*
X38446103Y-124539105D01*
X38446103Y-126825105D01*
X39639258Y-126825105D01*
X39760579Y-126595215D01*
X39715928Y-126448006D01*
X39590744Y-126185185D01*
X39416691Y-125951836D01*
X39200458Y-125756927D01*
X39074848Y-125682105D01*
X39200458Y-125607283D01*
X39416691Y-125412374D01*
X39590744Y-125179025D01*
X39715928Y-124916204D01*
X39760579Y-124768995D01*
X39639258Y-124539105D01*
X38446103Y-124539105D01*
X38192103Y-124539105D01*
X35906103Y-124539105D01*
X35906103Y-124559105D01*
X35652103Y-124559105D01*
X35652103Y-124539105D01*
X34458948Y-124539105D01*
X34337627Y-124768995D01*
X34382278Y-124916204D01*
X34507462Y-125179025D01*
X34681515Y-125412374D01*
X34897748Y-125607283D01*
X35014637Y-125676910D01*
X34832471Y-125798630D01*
X34625628Y-126005473D01*
X34463113Y-126248694D01*
X34351171Y-126518947D01*
X34294103Y-126805845D01*
X33239103Y-126805845D01*
X33239103Y-97501765D01*
X41060419Y-97501765D01*
X41060419Y-97962445D01*
X41150293Y-98414274D01*
X41326588Y-98839887D01*
X41582528Y-99222929D01*
X41908279Y-99548680D01*
X42291321Y-99804620D01*
X42716934Y-99980915D01*
X43168763Y-100070789D01*
X43629443Y-100070789D01*
X44081272Y-99980915D01*
X44506885Y-99804620D01*
X44889927Y-99548680D01*
X45215678Y-99222929D01*
X45471618Y-98839887D01*
X45647913Y-98414274D01*
X45737787Y-97962445D01*
X45737787Y-97501765D01*
X45647913Y-97049936D01*
X45471618Y-96624323D01*
X45215678Y-96241281D01*
X44889927Y-95915530D01*
X44506885Y-95659590D01*
X44081272Y-95483295D01*
X43629443Y-95393421D01*
X43168763Y-95393421D01*
X42716934Y-95483295D01*
X42291321Y-95659590D01*
X41908279Y-95915530D01*
X41582528Y-96241281D01*
X41326588Y-96624323D01*
X41150293Y-97049936D01*
X41060419Y-97501765D01*
X33239103Y-97501765D01*
X33239103Y-94346827D01*
X33247966Y-94256440D01*
X33264133Y-94202891D01*
X33290391Y-94153508D01*
X33325744Y-94110160D01*
X33368843Y-94074505D01*
X33418040Y-94047904D01*
X33471478Y-94031363D01*
X33559558Y-94022105D01*
X46494381Y-94022105D01*
X46584768Y-94030968D01*
%TA.AperFunction,Conductor*%
D16*
G36*
X46584768Y-94030968D02*
G01*
X46638317Y-94047135D01*
X46687700Y-94073393D01*
X46731048Y-94108746D01*
X46766703Y-94151845D01*
X46793304Y-94201042D01*
X46809845Y-94254480D01*
X46819103Y-94342560D01*
X46819104Y-110346982D01*
X46822092Y-110377318D01*
X46822049Y-110383437D01*
X46823017Y-110393303D01*
X46843418Y-110587400D01*
X46856353Y-110650415D01*
X46868415Y-110713645D01*
X46871280Y-110723135D01*
X46928992Y-110909573D01*
X46953932Y-110968902D01*
X46978035Y-111028560D01*
X46982689Y-111037313D01*
X47024694Y-111115000D01*
X45871283Y-111115000D01*
X45845051Y-111093472D01*
X40788639Y-106037061D01*
X40760922Y-106003288D01*
X40626164Y-105892694D01*
X40472418Y-105810516D01*
X40305595Y-105759910D01*
X40175582Y-105747105D01*
X40175574Y-105747105D01*
X40132105Y-105742824D01*
X40088636Y-105747105D01*
X39513759Y-105747105D01*
X39472578Y-105685473D01*
X39265735Y-105478630D01*
X39091343Y-105362105D01*
X39265735Y-105245580D01*
X39472578Y-105038737D01*
X39635093Y-104795516D01*
X39747035Y-104525263D01*
X39804103Y-104238365D01*
X39804103Y-103945845D01*
X39747035Y-103658947D01*
X39635093Y-103388694D01*
X39472578Y-103145473D01*
X39265735Y-102938630D01*
X39091343Y-102822105D01*
X39265735Y-102705580D01*
X39472578Y-102498737D01*
X39635093Y-102255516D01*
X39747035Y-101985263D01*
X39804103Y-101698365D01*
X39804103Y-101405845D01*
X39747035Y-101118947D01*
X39635093Y-100848694D01*
X39472578Y-100605473D01*
X39265735Y-100398630D01*
X39022514Y-100236115D01*
X38752261Y-100124173D01*
X38465363Y-100067105D01*
X38172843Y-100067105D01*
X37885945Y-100124173D01*
X37615692Y-100236115D01*
X37372471Y-100398630D01*
X37240616Y-100530485D01*
X37218605Y-100457925D01*
X37159640Y-100347611D01*
X37080288Y-100250920D01*
X36983597Y-100171568D01*
X36873283Y-100112603D01*
X36753585Y-100076293D01*
X36629103Y-100064033D01*
X34929103Y-100064033D01*
X34804621Y-100076293D01*
X34684923Y-100112603D01*
X34574609Y-100171568D01*
X34477918Y-100250920D01*
X34398566Y-100347611D01*
X34339601Y-100457925D01*
X34303291Y-100577623D01*
X34291031Y-100702105D01*
X34291031Y-102402105D01*
X34303291Y-102526587D01*
X34339601Y-102646285D01*
X34398566Y-102756599D01*
X34477918Y-102853290D01*
X34574609Y-102932642D01*
X34684923Y-102991607D01*
X34757483Y-103013618D01*
X34625628Y-103145473D01*
X34463113Y-103388694D01*
X34351171Y-103658947D01*
X34294103Y-103945845D01*
X34294103Y-104238365D01*
X34351171Y-104525263D01*
X34463113Y-104795516D01*
X34625628Y-105038737D01*
X34832471Y-105245580D01*
X35006863Y-105362105D01*
X34832471Y-105478630D01*
X34625628Y-105685473D01*
X34463113Y-105928694D01*
X34351171Y-106198947D01*
X34294103Y-106485845D01*
X34294103Y-106778365D01*
X34351171Y-107065263D01*
X34463113Y-107335516D01*
X34625628Y-107578737D01*
X34832471Y-107785580D01*
X35006863Y-107902105D01*
X34832471Y-108018630D01*
X34625628Y-108225473D01*
X34463113Y-108468694D01*
X34351171Y-108738947D01*
X34294103Y-109025845D01*
X34294103Y-109318365D01*
X34351171Y-109605263D01*
X34463113Y-109875516D01*
X34625628Y-110118737D01*
X34832471Y-110325580D01*
X35006863Y-110442105D01*
X34832471Y-110558630D01*
X34625628Y-110765473D01*
X34463113Y-111008694D01*
X34351171Y-111278947D01*
X34294103Y-111565845D01*
X34294103Y-111858365D01*
X34351171Y-112145263D01*
X34463113Y-112415516D01*
X34625628Y-112658737D01*
X34832471Y-112865580D01*
X35006863Y-112982105D01*
X34832471Y-113098630D01*
X34625628Y-113305473D01*
X34463113Y-113548694D01*
X34351171Y-113818947D01*
X34294103Y-114105845D01*
X34294103Y-114398365D01*
X34351171Y-114685263D01*
X34463113Y-114955516D01*
X34625628Y-115198737D01*
X34832471Y-115405580D01*
X35006863Y-115522105D01*
X34832471Y-115638630D01*
X34625628Y-115845473D01*
X34463113Y-116088694D01*
X34351171Y-116358947D01*
X34294103Y-116645845D01*
X34294103Y-116938365D01*
X34351171Y-117225263D01*
X34463113Y-117495516D01*
X34625628Y-117738737D01*
X34832471Y-117945580D01*
X35006863Y-118062105D01*
X34832471Y-118178630D01*
X34625628Y-118385473D01*
X34463113Y-118628694D01*
X34351171Y-118898947D01*
X34294103Y-119185845D01*
X34294103Y-119478365D01*
X34351171Y-119765263D01*
X34463113Y-120035516D01*
X34625628Y-120278737D01*
X34832471Y-120485580D01*
X35006863Y-120602105D01*
X34832471Y-120718630D01*
X34625628Y-120925473D01*
X34463113Y-121168694D01*
X34351171Y-121438947D01*
X34294103Y-121725845D01*
X34294103Y-122018365D01*
X34351171Y-122305263D01*
X34463113Y-122575516D01*
X34625628Y-122818737D01*
X34832471Y-123025580D01*
X35014637Y-123147300D01*
X34897748Y-123216927D01*
X34681515Y-123411836D01*
X34507462Y-123645185D01*
X34382278Y-123908006D01*
X34337627Y-124055215D01*
X34458948Y-124285105D01*
X35652103Y-124285105D01*
X35652103Y-124265105D01*
X35906103Y-124265105D01*
X35906103Y-124285105D01*
X38192103Y-124285105D01*
X38192103Y-124265105D01*
X38446103Y-124265105D01*
X38446103Y-124285105D01*
X39639258Y-124285105D01*
X39760579Y-124055215D01*
X39715928Y-123908006D01*
X39590744Y-123645185D01*
X39416691Y-123411836D01*
X39200458Y-123216927D01*
X39083569Y-123147300D01*
X39265735Y-123025580D01*
X39472578Y-122818737D01*
X39635093Y-122575516D01*
X39747035Y-122305263D01*
X39795755Y-122060335D01*
X39865001Y-122129582D01*
X39865000Y-128206531D01*
X39860719Y-128250000D01*
X39865000Y-128293469D01*
X39865000Y-128293476D01*
X39877805Y-128423489D01*
X39928411Y-128590312D01*
X40010589Y-128744058D01*
X40121183Y-128878817D01*
X40154956Y-128906534D01*
X41314367Y-130065946D01*
X41342080Y-130099714D01*
X41375848Y-130127427D01*
X41375850Y-130127429D01*
X41447349Y-130186107D01*
X41476838Y-130210308D01*
X41630584Y-130292486D01*
X41797407Y-130343092D01*
X41927420Y-130355897D01*
X41927430Y-130355897D01*
X41970896Y-130360178D01*
X42014362Y-130355897D01*
X43240649Y-130355897D01*
X43288847Y-130388102D01*
X43477205Y-130466123D01*
X43677164Y-130505897D01*
X43881042Y-130505897D01*
X44081001Y-130466123D01*
X44269359Y-130388102D01*
X44317557Y-130355897D01*
X45485634Y-130355897D01*
X45529103Y-130360178D01*
X45572572Y-130355897D01*
X45572580Y-130355897D01*
X45702593Y-130343092D01*
X45869416Y-130292486D01*
X46023162Y-130210308D01*
X46157920Y-130099714D01*
X46185637Y-130065941D01*
X49116579Y-127135000D01*
X52753337Y-127135000D01*
X52661898Y-127271849D01*
X52583877Y-127460207D01*
X52544103Y-127660166D01*
X52544103Y-127864044D01*
X52549373Y-127890540D01*
X52538847Y-127894900D01*
X52369329Y-128008168D01*
X52225166Y-128152331D01*
X52111898Y-128321849D01*
X52033877Y-128510207D01*
X51994103Y-128710166D01*
X51994103Y-128914044D01*
X52033877Y-129114003D01*
X52111898Y-129302361D01*
X52225166Y-129471879D01*
X52369329Y-129616042D01*
X52538847Y-129729310D01*
X52727205Y-129807331D01*
X52927164Y-129847105D01*
X52993931Y-129847105D01*
X53054838Y-129897090D01*
X53186867Y-129967662D01*
X53330128Y-130011119D01*
X53441781Y-130022116D01*
X53441789Y-130022116D01*
X53479114Y-130025792D01*
X53516439Y-130022116D01*
X89164313Y-130022116D01*
X90744103Y-131601907D01*
X90744103Y-131664044D01*
X90783877Y-131864003D01*
X90861898Y-132052361D01*
X90975166Y-132221879D01*
X91119329Y-132366042D01*
X91288847Y-132479310D01*
X91477205Y-132557331D01*
X91677164Y-132597105D01*
X91881042Y-132597105D01*
X92081001Y-132557331D01*
X92269359Y-132479310D01*
X92438877Y-132366042D01*
X92583040Y-132221879D01*
X92696308Y-132052361D01*
X92769104Y-131876618D01*
X92769104Y-136404772D01*
X92765427Y-136442105D01*
X92780101Y-136591090D01*
X92823557Y-136734351D01*
X92894129Y-136866381D01*
X92965304Y-136953107D01*
X92989103Y-136982106D01*
X93018101Y-137005904D01*
X95297893Y-139285697D01*
X95254103Y-139505845D01*
X95254103Y-139798365D01*
X95311171Y-140085263D01*
X95423113Y-140355516D01*
X95585628Y-140598737D01*
X95792471Y-140805580D01*
X95966863Y-140922105D01*
X95792471Y-141038630D01*
X95585628Y-141245473D01*
X95423113Y-141488694D01*
X95311171Y-141758947D01*
X95254103Y-142045845D01*
X95254103Y-142338365D01*
X95311171Y-142625263D01*
X95423113Y-142895516D01*
X95585628Y-143138737D01*
X95792471Y-143345580D01*
X95966863Y-143462105D01*
X95792471Y-143578630D01*
X95585628Y-143785473D01*
X95423113Y-144028694D01*
X95311171Y-144298947D01*
X95254103Y-144585845D01*
X95254103Y-144878365D01*
X95311171Y-145165263D01*
X95423113Y-145435516D01*
X95585628Y-145678737D01*
X95792471Y-145885580D01*
X95966863Y-146002105D01*
X95792471Y-146118630D01*
X95585628Y-146325473D01*
X95423113Y-146568694D01*
X95311171Y-146838947D01*
X95254103Y-147125845D01*
X95254103Y-147418365D01*
X95311171Y-147705263D01*
X95423113Y-147975516D01*
X95585628Y-148218737D01*
X95792471Y-148425580D01*
X96035692Y-148588095D01*
X96305945Y-148700037D01*
X96592843Y-148757105D01*
X96885363Y-148757105D01*
X97172261Y-148700037D01*
X97442514Y-148588095D01*
X97685735Y-148425580D01*
X97892578Y-148218737D01*
X98009103Y-148044345D01*
X98125628Y-148218737D01*
X98332471Y-148425580D01*
X98575692Y-148588095D01*
X98845945Y-148700037D01*
X99132843Y-148757105D01*
X99425363Y-148757105D01*
X99712261Y-148700037D01*
X99982514Y-148588095D01*
X100225735Y-148425580D01*
X100432578Y-148218737D01*
X100595093Y-147975516D01*
X100707035Y-147705263D01*
X100764103Y-147418365D01*
X100764103Y-147125845D01*
X100707035Y-146838947D01*
X100595093Y-146568694D01*
X100432578Y-146325473D01*
X100225735Y-146118630D01*
X100051343Y-146002105D01*
X100225735Y-145885580D01*
X100432578Y-145678737D01*
X100595093Y-145435516D01*
X100707035Y-145165263D01*
X100764103Y-144878365D01*
X100764103Y-144585845D01*
X100707035Y-144298947D01*
X100595093Y-144028694D01*
X100432578Y-143785473D01*
X100225735Y-143578630D01*
X100051343Y-143462105D01*
X100225735Y-143345580D01*
X100432578Y-143138737D01*
X100595093Y-142895516D01*
X100707035Y-142625263D01*
X100764103Y-142338365D01*
X100764103Y-142045845D01*
X100707035Y-141758947D01*
X100595093Y-141488694D01*
X100432578Y-141245473D01*
X100225735Y-141038630D01*
X100043569Y-140916910D01*
X100160458Y-140847283D01*
X100376691Y-140652374D01*
X100550744Y-140419025D01*
X100675928Y-140156204D01*
X100720579Y-140008995D01*
X100599258Y-139779105D01*
X99406103Y-139779105D01*
X99406103Y-139799105D01*
X99152103Y-139799105D01*
X99152103Y-139779105D01*
X99132103Y-139779105D01*
X99132103Y-139525105D01*
X99152103Y-139525105D01*
X99152103Y-139505105D01*
X99406103Y-139505105D01*
X99406103Y-139525105D01*
X100599258Y-139525105D01*
X100720579Y-139295215D01*
X100675928Y-139148006D01*
X100550744Y-138885185D01*
X100376691Y-138651836D01*
X100160458Y-138456927D01*
X100043569Y-138387300D01*
X100225735Y-138265580D01*
X100432578Y-138058737D01*
X100595093Y-137815516D01*
X100707035Y-137545263D01*
X100764103Y-137258365D01*
X100764103Y-136965845D01*
X100707035Y-136678947D01*
X100595093Y-136408694D01*
X100432578Y-136165473D01*
X100225735Y-135958630D01*
X100051343Y-135842105D01*
X100225735Y-135725580D01*
X100432578Y-135518737D01*
X100595093Y-135275516D01*
X100707035Y-135005263D01*
X100764103Y-134718365D01*
X100764103Y-134425845D01*
X100707035Y-134138947D01*
X100595093Y-133868694D01*
X100432578Y-133625473D01*
X100225735Y-133418630D01*
X100051343Y-133302105D01*
X100225735Y-133185580D01*
X100432578Y-132978737D01*
X100595093Y-132735516D01*
X100707035Y-132465263D01*
X100764103Y-132178365D01*
X100764103Y-131885845D01*
X100707035Y-131598947D01*
X100595093Y-131328694D01*
X100432578Y-131085473D01*
X100225735Y-130878630D01*
X100051343Y-130762105D01*
X100225735Y-130645580D01*
X100432578Y-130438737D01*
X100595093Y-130195516D01*
X100707035Y-129925263D01*
X100764103Y-129638365D01*
X100764103Y-129345845D01*
X100707035Y-129058947D01*
X100595093Y-128788694D01*
X100432578Y-128545473D01*
X100225735Y-128338630D01*
X100051343Y-128222105D01*
X100225735Y-128105580D01*
X100432578Y-127898737D01*
X100595093Y-127655516D01*
X100707035Y-127385263D01*
X100764103Y-127098365D01*
X100764103Y-126805845D01*
X100707035Y-126518947D01*
X100595093Y-126248694D01*
X100432578Y-126005473D01*
X100225735Y-125798630D01*
X100043569Y-125676910D01*
X100160458Y-125607283D01*
X100376691Y-125412374D01*
X100550744Y-125179025D01*
X100675928Y-124916204D01*
X100720579Y-124768995D01*
X100599258Y-124539105D01*
X99406103Y-124539105D01*
X99406103Y-124559105D01*
X99152103Y-124559105D01*
X99152103Y-124539105D01*
X99132103Y-124539105D01*
X99132103Y-124285105D01*
X99152103Y-124285105D01*
X99152103Y-124265105D01*
X99406103Y-124265105D01*
X99406103Y-124285105D01*
X100599258Y-124285105D01*
X100720579Y-124055215D01*
X100675928Y-123908006D01*
X100550744Y-123645185D01*
X100376691Y-123411836D01*
X100160458Y-123216927D01*
X100043569Y-123147300D01*
X100225735Y-123025580D01*
X100432578Y-122818737D01*
X100595093Y-122575516D01*
X100707035Y-122305263D01*
X100764103Y-122018365D01*
X100764103Y-121725845D01*
X100707035Y-121438947D01*
X100595093Y-121168694D01*
X100432578Y-120925473D01*
X100225735Y-120718630D01*
X100051343Y-120602105D01*
X100225735Y-120485580D01*
X100432578Y-120278737D01*
X100595093Y-120035516D01*
X100707035Y-119765263D01*
X100764103Y-119478365D01*
X100764103Y-119185845D01*
X100707035Y-118898947D01*
X100595093Y-118628694D01*
X100432578Y-118385473D01*
X100225735Y-118178630D01*
X100051343Y-118062105D01*
X100225735Y-117945580D01*
X100432578Y-117738737D01*
X100595093Y-117495516D01*
X100707035Y-117225263D01*
X100764103Y-116938365D01*
X100764103Y-116645845D01*
X100707035Y-116358947D01*
X100595093Y-116088694D01*
X100432578Y-115845473D01*
X100225735Y-115638630D01*
X100051343Y-115522105D01*
X100225735Y-115405580D01*
X100432578Y-115198737D01*
X100595093Y-114955516D01*
X100707035Y-114685263D01*
X100764103Y-114398365D01*
X100764103Y-114105845D01*
X100707035Y-113818947D01*
X100595093Y-113548694D01*
X100432578Y-113305473D01*
X100225735Y-113098630D01*
X100051343Y-112982105D01*
X100225735Y-112865580D01*
X100432578Y-112658737D01*
X100595093Y-112415516D01*
X100707035Y-112145263D01*
X100764103Y-111858365D01*
X100764103Y-111565845D01*
X100707035Y-111278947D01*
X100595093Y-111008694D01*
X100432578Y-110765473D01*
X100225735Y-110558630D01*
X100051343Y-110442105D01*
X100225735Y-110325580D01*
X100432578Y-110118737D01*
X100595093Y-109875516D01*
X100707035Y-109605263D01*
X100764103Y-109318365D01*
X100764103Y-109025845D01*
X100707035Y-108738947D01*
X100595093Y-108468694D01*
X100432578Y-108225473D01*
X100225735Y-108018630D01*
X100051343Y-107902105D01*
X100225735Y-107785580D01*
X100432578Y-107578737D01*
X100595093Y-107335516D01*
X100707035Y-107065263D01*
X100764103Y-106778365D01*
X100764103Y-106485845D01*
X100707035Y-106198947D01*
X100595093Y-105928694D01*
X100432578Y-105685473D01*
X100225735Y-105478630D01*
X100051343Y-105362105D01*
X100225735Y-105245580D01*
X100432578Y-105038737D01*
X100595093Y-104795516D01*
X100707035Y-104525263D01*
X100764103Y-104238365D01*
X100764103Y-103945845D01*
X100707035Y-103658947D01*
X100595093Y-103388694D01*
X100432578Y-103145473D01*
X100225735Y-102938630D01*
X100051343Y-102822105D01*
X100225735Y-102705580D01*
X100432578Y-102498737D01*
X100595093Y-102255516D01*
X100707035Y-101985263D01*
X100764103Y-101698365D01*
X100764103Y-101405845D01*
X100707035Y-101118947D01*
X100595093Y-100848694D01*
X100432578Y-100605473D01*
X100225735Y-100398630D01*
X99982514Y-100236115D01*
X99712261Y-100124173D01*
X99425363Y-100067105D01*
X99132843Y-100067105D01*
X98845945Y-100124173D01*
X98575692Y-100236115D01*
X98332471Y-100398630D01*
X98200616Y-100530485D01*
X98178605Y-100457925D01*
X98119640Y-100347611D01*
X98040288Y-100250920D01*
X97943597Y-100171568D01*
X97833283Y-100112603D01*
X97713585Y-100076293D01*
X97589103Y-100064033D01*
X95889103Y-100064033D01*
X95764621Y-100076293D01*
X95644923Y-100112603D01*
X95534609Y-100171568D01*
X95437918Y-100250920D01*
X95358566Y-100347611D01*
X95299601Y-100457925D01*
X95263291Y-100577623D01*
X95251031Y-100702105D01*
X95251031Y-102402105D01*
X95263291Y-102526587D01*
X95299601Y-102646285D01*
X95358566Y-102756599D01*
X95437918Y-102853290D01*
X95534609Y-102932642D01*
X95644923Y-102991607D01*
X95717483Y-103013618D01*
X95585628Y-103145473D01*
X95423113Y-103388694D01*
X95311171Y-103658947D01*
X95254103Y-103945845D01*
X95254103Y-104238365D01*
X95311171Y-104525263D01*
X95423113Y-104795516D01*
X95585628Y-105038737D01*
X95792471Y-105245580D01*
X95966863Y-105362105D01*
X95792471Y-105478630D01*
X95585628Y-105685473D01*
X95423113Y-105928694D01*
X95311171Y-106198947D01*
X95254103Y-106485845D01*
X95254103Y-106778365D01*
X95311171Y-107065263D01*
X95423113Y-107335516D01*
X95585628Y-107578737D01*
X95792471Y-107785580D01*
X95966863Y-107902105D01*
X95792471Y-108018630D01*
X95585628Y-108225473D01*
X95423113Y-108468694D01*
X95311171Y-108738947D01*
X95254103Y-109025845D01*
X95254103Y-109318365D01*
X95311171Y-109605263D01*
X95423113Y-109875516D01*
X95585628Y-110118737D01*
X95792471Y-110325580D01*
X95974637Y-110447300D01*
X95857748Y-110516927D01*
X95641515Y-110711836D01*
X95467462Y-110945185D01*
X95342278Y-111208006D01*
X95297627Y-111355215D01*
X95418948Y-111585105D01*
X96612103Y-111585105D01*
X96612103Y-111565105D01*
X96866103Y-111565105D01*
X96866103Y-111585105D01*
X96886103Y-111585105D01*
X96886103Y-111839105D01*
X96866103Y-111839105D01*
X96866103Y-111859105D01*
X96612103Y-111859105D01*
X96612103Y-111839105D01*
X95418948Y-111839105D01*
X95297627Y-112068995D01*
X95342278Y-112216204D01*
X95467462Y-112479025D01*
X95641515Y-112712374D01*
X95857748Y-112907283D01*
X95974637Y-112976910D01*
X95792471Y-113098630D01*
X95585628Y-113305473D01*
X95423113Y-113548694D01*
X95311171Y-113818947D01*
X95254103Y-114105845D01*
X95254103Y-114398365D01*
X95311171Y-114685263D01*
X95423113Y-114955516D01*
X95585628Y-115198737D01*
X95792471Y-115405580D01*
X95966863Y-115522105D01*
X95792471Y-115638630D01*
X95585628Y-115845473D01*
X95423113Y-116088694D01*
X95311171Y-116358947D01*
X95254103Y-116645845D01*
X95254103Y-116938365D01*
X95311171Y-117225263D01*
X95423113Y-117495516D01*
X95585628Y-117738737D01*
X95792471Y-117945580D01*
X95966863Y-118062105D01*
X95792471Y-118178630D01*
X95585628Y-118385473D01*
X95423113Y-118628694D01*
X95311171Y-118898947D01*
X95254103Y-119185845D01*
X95254103Y-119478365D01*
X95311171Y-119765263D01*
X95423113Y-120035516D01*
X95585628Y-120278737D01*
X95792471Y-120485580D01*
X95966863Y-120602105D01*
X95792471Y-120718630D01*
X95585628Y-120925473D01*
X95423113Y-121168694D01*
X95311171Y-121438947D01*
X95254103Y-121725845D01*
X95254103Y-122018365D01*
X95311171Y-122305263D01*
X95423113Y-122575516D01*
X95585628Y-122818737D01*
X95792471Y-123025580D01*
X95966863Y-123142105D01*
X95792471Y-123258630D01*
X95585628Y-123465473D01*
X95423113Y-123708694D01*
X95311171Y-123978947D01*
X95254103Y-124265845D01*
X95254103Y-124558365D01*
X95311171Y-124845263D01*
X95423113Y-125115516D01*
X95585628Y-125358737D01*
X95792471Y-125565580D01*
X95966863Y-125682105D01*
X95792471Y-125798630D01*
X95585628Y-126005473D01*
X95423113Y-126248694D01*
X95311171Y-126518947D01*
X95254103Y-126805845D01*
X95254103Y-127098365D01*
X95311171Y-127385263D01*
X95423113Y-127655516D01*
X95585628Y-127898737D01*
X95792471Y-128105580D01*
X95966863Y-128222105D01*
X95792471Y-128338630D01*
X95585628Y-128545473D01*
X95423113Y-128788694D01*
X95311171Y-129058947D01*
X95254103Y-129345845D01*
X95254103Y-129638365D01*
X95311171Y-129925263D01*
X95423113Y-130195516D01*
X95585628Y-130438737D01*
X95792471Y-130645580D01*
X95966863Y-130762105D01*
X95792471Y-130878630D01*
X95585628Y-131085473D01*
X95423113Y-131328694D01*
X95311171Y-131598947D01*
X95254103Y-131885845D01*
X95254103Y-132178365D01*
X95311171Y-132465263D01*
X95423113Y-132735516D01*
X95585628Y-132978737D01*
X95792471Y-133185580D01*
X95966863Y-133302105D01*
X95792471Y-133418630D01*
X95585628Y-133625473D01*
X95423113Y-133868694D01*
X95311171Y-134138947D01*
X95254103Y-134425845D01*
X95254103Y-134552304D01*
X95039103Y-134337304D01*
X95039103Y-113515816D01*
X95083040Y-113471879D01*
X95196308Y-113302361D01*
X95274329Y-113114003D01*
X95314103Y-112914044D01*
X95314103Y-112710166D01*
X95274329Y-112510207D01*
X95196308Y-112321849D01*
X95083040Y-112152331D01*
X94938877Y-112008168D01*
X94769359Y-111894900D01*
X94581001Y-111816879D01*
X94381042Y-111777105D01*
X94289103Y-111777105D01*
X94289103Y-108015816D01*
X94333040Y-107971879D01*
X94446308Y-107802361D01*
X94524329Y-107614003D01*
X94564103Y-107414044D01*
X94564103Y-107210166D01*
X94524329Y-107010207D01*
X94446308Y-106821849D01*
X94333040Y-106652331D01*
X94188877Y-106508168D01*
X94019359Y-106394900D01*
X93831001Y-106316879D01*
X93631042Y-106277105D01*
X93427164Y-106277105D01*
X93227205Y-106316879D01*
X93038847Y-106394900D01*
X92869329Y-106508168D01*
X92725166Y-106652331D01*
X92611898Y-106821849D01*
X92533877Y-107010207D01*
X92494103Y-107210166D01*
X92494103Y-107414044D01*
X92533877Y-107614003D01*
X92611898Y-107802361D01*
X92725166Y-107971879D01*
X92769103Y-108015816D01*
X92769104Y-127394794D01*
X92581001Y-127316879D01*
X92381042Y-127277105D01*
X92323208Y-127277105D01*
X92319104Y-127272104D01*
X92203379Y-127177131D01*
X92071350Y-127106559D01*
X91928089Y-127063102D01*
X91816436Y-127052105D01*
X91816425Y-127052105D01*
X91779103Y-127048429D01*
X91741781Y-127052105D01*
X82785000Y-127052105D01*
X82785000Y-126898061D01*
X82745226Y-126698102D01*
X82667205Y-126509744D01*
X82553937Y-126340226D01*
X82409774Y-126196063D01*
X82240256Y-126082795D01*
X82051898Y-126004774D01*
X81851939Y-125965000D01*
X81648061Y-125965000D01*
X81448102Y-126004774D01*
X81259744Y-126082795D01*
X81211546Y-126115000D01*
X72540559Y-126115000D01*
X72492361Y-126082795D01*
X72304003Y-126004774D01*
X72104044Y-125965000D01*
X71900166Y-125965000D01*
X71700207Y-126004774D01*
X71511849Y-126082795D01*
X71463651Y-126115000D01*
X62788454Y-126115000D01*
X62740256Y-126082795D01*
X62551898Y-126004774D01*
X62351939Y-125965000D01*
X62148061Y-125965000D01*
X61948102Y-126004774D01*
X61759744Y-126082795D01*
X61711546Y-126115000D01*
X56136578Y-126115000D01*
X57716579Y-124535000D01*
X57851939Y-124535000D01*
X58051898Y-124495226D01*
X58240256Y-124417205D01*
X58409774Y-124303937D01*
X58553937Y-124159774D01*
X58667205Y-123990256D01*
X58745226Y-123801898D01*
X58785000Y-123601939D01*
X58785000Y-123398061D01*
X58745226Y-123198102D01*
X58667205Y-123009744D01*
X58553937Y-122840226D01*
X58409774Y-122696063D01*
X58240256Y-122582795D01*
X58051898Y-122504774D01*
X57851939Y-122465000D01*
X57648061Y-122465000D01*
X57448102Y-122504774D01*
X57259744Y-122582795D01*
X57090226Y-122696063D01*
X57048388Y-122737901D01*
X57005941Y-122760589D01*
X57005939Y-122760590D01*
X57005940Y-122760590D01*
X56904953Y-122843468D01*
X56904951Y-122843470D01*
X56871183Y-122871183D01*
X56843470Y-122904951D01*
X54383422Y-125365000D01*
X49635000Y-125365000D01*
X49635000Y-123038454D01*
X49667205Y-122990256D01*
X49745226Y-122801898D01*
X49785000Y-122601939D01*
X49785000Y-122398061D01*
X49745226Y-122198102D01*
X49667205Y-122009744D01*
X49553937Y-121840226D01*
X49409774Y-121696063D01*
X49240256Y-121582795D01*
X49051898Y-121504774D01*
X48851939Y-121465000D01*
X48648061Y-121465000D01*
X48448102Y-121504774D01*
X48259744Y-121582795D01*
X48090226Y-121696063D01*
X47946063Y-121840226D01*
X47832795Y-122009744D01*
X47754774Y-122198102D01*
X47715000Y-122398061D01*
X47715000Y-122601939D01*
X47754774Y-122801898D01*
X47832795Y-122990256D01*
X47865001Y-123038456D01*
X47865000Y-125883421D01*
X45162525Y-128585897D01*
X44317557Y-128585897D01*
X44269359Y-128553692D01*
X44081001Y-128475671D01*
X43881042Y-128435897D01*
X43677164Y-128435897D01*
X43477205Y-128475671D01*
X43288847Y-128553692D01*
X43240649Y-128585897D01*
X42337476Y-128585897D01*
X41635000Y-127883422D01*
X41635000Y-121806471D01*
X41639281Y-121763002D01*
X41635000Y-121719533D01*
X41635000Y-121719525D01*
X41622195Y-121589512D01*
X41571589Y-121422689D01*
X41571589Y-121422688D01*
X41489411Y-121268943D01*
X41406532Y-121167955D01*
X41406530Y-121167953D01*
X41378817Y-121134185D01*
X41345049Y-121106472D01*
X39789642Y-119551066D01*
X39804103Y-119478365D01*
X39804103Y-119185845D01*
X39747035Y-118898947D01*
X39635093Y-118628694D01*
X39472578Y-118385473D01*
X39265735Y-118178630D01*
X39091343Y-118062105D01*
X39265735Y-117945580D01*
X39472578Y-117738737D01*
X39635093Y-117495516D01*
X39747035Y-117225263D01*
X39804103Y-116938365D01*
X39804103Y-116645845D01*
X39747035Y-116358947D01*
X39635093Y-116088694D01*
X39472578Y-115845473D01*
X39265735Y-115638630D01*
X39091343Y-115522105D01*
X39265735Y-115405580D01*
X39472578Y-115198737D01*
X39635093Y-114955516D01*
X39747035Y-114685263D01*
X39804103Y-114398365D01*
X39804103Y-114105845D01*
X39747035Y-113818947D01*
X39635093Y-113548694D01*
X39472578Y-113305473D01*
X39265735Y-113098630D01*
X39091343Y-112982105D01*
X39265735Y-112865580D01*
X39472578Y-112658737D01*
X39635093Y-112415516D01*
X39747035Y-112145263D01*
X39804103Y-111858365D01*
X39804103Y-111565845D01*
X39747035Y-111278947D01*
X39635093Y-111008694D01*
X39472578Y-110765473D01*
X39265735Y-110558630D01*
X39083569Y-110436910D01*
X39200458Y-110367283D01*
X39416691Y-110172374D01*
X39590744Y-109939025D01*
X39715928Y-109676204D01*
X39760579Y-109528995D01*
X39639258Y-109299105D01*
X38446103Y-109299105D01*
X38446103Y-109319105D01*
X38192103Y-109319105D01*
X38192103Y-109299105D01*
X38172103Y-109299105D01*
X38172103Y-109045105D01*
X38192103Y-109045105D01*
X38192103Y-109025105D01*
X38446103Y-109025105D01*
X38446103Y-109045105D01*
X39639258Y-109045105D01*
X39760579Y-108815215D01*
X39715928Y-108668006D01*
X39590744Y-108405185D01*
X39416691Y-108171836D01*
X39200458Y-107976927D01*
X39083569Y-107907300D01*
X39265735Y-107785580D01*
X39472578Y-107578737D01*
X39513759Y-107517105D01*
X39765527Y-107517105D01*
X44365000Y-112116579D01*
X44365001Y-123998659D01*
X44332795Y-124046859D01*
X44254774Y-124235217D01*
X44215000Y-124435176D01*
X44215000Y-124639054D01*
X44254774Y-124839013D01*
X44332795Y-125027371D01*
X44446063Y-125196889D01*
X44590226Y-125341052D01*
X44759744Y-125454320D01*
X44948102Y-125532341D01*
X45148061Y-125572115D01*
X45351939Y-125572115D01*
X45551898Y-125532341D01*
X45740256Y-125454320D01*
X45909774Y-125341052D01*
X46053937Y-125196889D01*
X46167205Y-125027371D01*
X46245226Y-124839013D01*
X46285000Y-124639054D01*
X46285000Y-124435176D01*
X46245226Y-124235217D01*
X46167205Y-124046859D01*
X46135000Y-123998661D01*
X46135000Y-112885000D01*
X73633422Y-112885000D01*
X75615000Y-114866579D01*
X75615001Y-115961545D01*
X75582795Y-116009744D01*
X75504774Y-116198102D01*
X75465000Y-116398061D01*
X75465000Y-116601939D01*
X75504774Y-116801898D01*
X75582795Y-116990256D01*
X75696063Y-117159774D01*
X75840226Y-117303937D01*
X76009744Y-117417205D01*
X76198102Y-117495226D01*
X76398061Y-117535000D01*
X76601939Y-117535000D01*
X76801898Y-117495226D01*
X76990256Y-117417205D01*
X77159774Y-117303937D01*
X77303937Y-117159774D01*
X77417205Y-116990256D01*
X77495226Y-116801898D01*
X77535000Y-116601939D01*
X77535000Y-116398061D01*
X77495226Y-116198102D01*
X77417205Y-116009744D01*
X77385000Y-115961546D01*
X77385000Y-115385000D01*
X82789196Y-115385000D01*
X82832795Y-115490256D01*
X82946063Y-115659774D01*
X83090226Y-115803937D01*
X83259744Y-115917205D01*
X83448102Y-115995226D01*
X83648061Y-116035000D01*
X83851939Y-116035000D01*
X84051898Y-115995226D01*
X84240256Y-115917205D01*
X84409774Y-115803937D01*
X84553937Y-115659774D01*
X84667205Y-115490256D01*
X84745226Y-115301898D01*
X84785000Y-115101939D01*
X84785000Y-114898061D01*
X84745226Y-114698102D01*
X84667205Y-114509744D01*
X84553937Y-114340226D01*
X84409774Y-114196063D01*
X84240256Y-114082795D01*
X84051898Y-114004774D01*
X83995043Y-113993465D01*
X83906534Y-113904956D01*
X83878817Y-113871183D01*
X83744059Y-113760589D01*
X83590313Y-113678411D01*
X83423490Y-113627805D01*
X83293477Y-113615000D01*
X83293469Y-113615000D01*
X83250000Y-113610719D01*
X83206531Y-113615000D01*
X76866579Y-113615000D01*
X75273683Y-112022105D01*
X86563980Y-112022105D01*
X86594325Y-112019116D01*
X86600435Y-112019159D01*
X86610301Y-112018191D01*
X86804398Y-111997790D01*
X86867413Y-111984855D01*
X86930643Y-111972793D01*
X86940133Y-111969928D01*
X87126571Y-111912216D01*
X87185900Y-111887276D01*
X87245558Y-111863173D01*
X87254311Y-111858519D01*
X87425988Y-111765694D01*
X87479301Y-111729734D01*
X87533186Y-111694472D01*
X87540868Y-111688207D01*
X87691246Y-111563803D01*
X87736583Y-111518148D01*
X87782566Y-111473118D01*
X87788885Y-111465480D01*
X87912235Y-111314238D01*
X87947860Y-111260618D01*
X87984202Y-111207541D01*
X87988917Y-111198821D01*
X88080542Y-111026499D01*
X88105054Y-110967029D01*
X88130415Y-110907857D01*
X88133346Y-110898387D01*
X88189755Y-110711551D01*
X88202255Y-110648421D01*
X88215633Y-110585482D01*
X88216669Y-110575624D01*
X88235714Y-110381390D01*
X88239103Y-110346982D01*
X88239103Y-98781765D01*
X89320419Y-98781765D01*
X89320419Y-99242445D01*
X89410293Y-99694274D01*
X89586588Y-100119887D01*
X89842528Y-100502929D01*
X90168279Y-100828680D01*
X90551321Y-101084620D01*
X90976934Y-101260915D01*
X91428763Y-101350789D01*
X91889443Y-101350789D01*
X92341272Y-101260915D01*
X92766885Y-101084620D01*
X93149927Y-100828680D01*
X93475678Y-100502929D01*
X93731618Y-100119887D01*
X93907913Y-99694274D01*
X93997787Y-99242445D01*
X93997787Y-98781765D01*
X93907913Y-98329936D01*
X93731618Y-97904323D01*
X93475678Y-97521281D01*
X93149927Y-97195530D01*
X92766885Y-96939590D01*
X92341272Y-96763295D01*
X91889443Y-96673421D01*
X91428763Y-96673421D01*
X90976934Y-96763295D01*
X90551321Y-96939590D01*
X90168279Y-97195530D01*
X89842528Y-97521281D01*
X89586588Y-97904323D01*
X89410293Y-98329936D01*
X89320419Y-98781765D01*
X88239103Y-98781765D01*
X88239103Y-94346827D01*
X88247966Y-94256440D01*
X88264133Y-94202891D01*
X88290391Y-94153508D01*
X88325744Y-94110160D01*
X88368843Y-94074505D01*
X88418040Y-94047904D01*
X88471478Y-94031363D01*
X88559558Y-94022105D01*
X101494381Y-94022105D01*
X101584768Y-94030968D01*
X101638317Y-94047135D01*
X101687700Y-94073393D01*
X101731048Y-94108746D01*
X101766703Y-94151845D01*
X101793304Y-94201042D01*
X101809845Y-94254480D01*
X101819104Y-94342569D01*
X101819103Y-148277384D01*
X101791196Y-148562004D01*
X101718620Y-148802387D01*
X101600736Y-149024094D01*
X101442032Y-149218685D01*
X101248558Y-149378740D01*
X101027679Y-149498169D01*
X100787804Y-149572422D01*
X100505394Y-149602105D01*
X91063824Y-149602105D01*
X90973439Y-149593243D01*
X90919889Y-149577075D01*
X90870506Y-149550817D01*
X90827156Y-149515462D01*
X90791504Y-149472366D01*
X90764902Y-149423168D01*
X90748361Y-149369730D01*
X90739103Y-149281650D01*
X90739103Y-133277228D01*
X90736114Y-133246883D01*
X90736157Y-133240772D01*
X90735189Y-133230906D01*
X90714788Y-133036810D01*
X90701853Y-132973795D01*
X90689791Y-132910565D01*
X90686926Y-132901075D01*
X90629214Y-132714637D01*
X90604274Y-132655308D01*
X90580171Y-132595650D01*
X90575517Y-132586897D01*
X90482692Y-132415220D01*
X90446722Y-132361892D01*
X90411470Y-132308022D01*
X90405204Y-132300340D01*
X90280801Y-132149962D01*
X90235146Y-132104625D01*
X90190116Y-132058642D01*
X90182478Y-132052323D01*
X90031236Y-131928973D01*
X89977649Y-131893371D01*
X89924540Y-131857006D01*
X89915819Y-131852291D01*
X89743497Y-131760666D01*
X89684027Y-131736154D01*
X89624855Y-131710793D01*
X89615385Y-131707862D01*
X89428549Y-131651453D01*
X89365419Y-131638953D01*
X89302480Y-131625575D01*
X89292621Y-131624539D01*
X89098895Y-131605544D01*
X89063980Y-131602105D01*
X45994226Y-131602105D01*
X45963881Y-131605094D01*
X45957770Y-131605051D01*
X45947904Y-131606019D01*
X45753808Y-131626420D01*
X45690793Y-131639355D01*
X45627563Y-131651417D01*
X45618073Y-131654282D01*
X45431635Y-131711994D01*
X45372306Y-131736934D01*
X45312648Y-131761037D01*
X45303895Y-131765691D01*
X45132218Y-131858516D01*
X45078890Y-131894486D01*
X45025020Y-131929738D01*
X45017338Y-131936004D01*
X44866960Y-132060407D01*
X44821623Y-132106062D01*
X44775640Y-132151092D01*
X44769321Y-132158730D01*
X44645971Y-132309972D01*
X44610369Y-132363559D01*
X44574004Y-132416668D01*
X44569289Y-132425389D01*
X44477664Y-132597711D01*
X44453152Y-132657181D01*
X44427791Y-132716353D01*
X44424860Y-132725823D01*
X44368451Y-132912659D01*
X44355951Y-132975789D01*
X44342573Y-133038728D01*
X44341537Y-133048587D01*
X44322492Y-133242820D01*
X44322492Y-133242828D01*
X44319104Y-133277228D01*
X44319103Y-149277384D01*
X44310241Y-149367769D01*
X44294073Y-149421319D01*
X44267815Y-149470702D01*
X44232460Y-149514052D01*
X44189364Y-149549704D01*
X44140166Y-149576306D01*
X44086728Y-149592847D01*
X43998648Y-149602105D01*
X34563824Y-149602105D01*
X34279204Y-149574198D01*
X34038821Y-149501622D01*
X33817114Y-149383738D01*
X33622523Y-149225034D01*
X33462468Y-149031560D01*
X33343039Y-148810681D01*
X33268786Y-148570806D01*
X33239103Y-148288396D01*
X33239103Y-126805845D01*
X34294103Y-126805845D01*
X34294103Y-127098365D01*
X34351171Y-127385263D01*
X34463113Y-127655516D01*
X34625628Y-127898737D01*
X34832471Y-128105580D01*
X35006863Y-128222105D01*
X34832471Y-128338630D01*
X34625628Y-128545473D01*
X34463113Y-128788694D01*
X34351171Y-129058947D01*
X34294103Y-129345845D01*
X34294103Y-129638365D01*
X34351171Y-129925263D01*
X34463113Y-130195516D01*
X34625628Y-130438737D01*
X34832471Y-130645580D01*
X35006863Y-130762105D01*
X34832471Y-130878630D01*
X34625628Y-131085473D01*
X34463113Y-131328694D01*
X34351171Y-131598947D01*
X34294103Y-131885845D01*
X34294103Y-132178365D01*
X34351171Y-132465263D01*
X34463113Y-132735516D01*
X34625628Y-132978737D01*
X34832471Y-133185580D01*
X35006863Y-133302105D01*
X34832471Y-133418630D01*
X34625628Y-133625473D01*
X34463113Y-133868694D01*
X34351171Y-134138947D01*
X34294103Y-134425845D01*
X34294103Y-134718365D01*
X34351171Y-135005263D01*
X34463113Y-135275516D01*
X34625628Y-135518737D01*
X34832471Y-135725580D01*
X35006863Y-135842105D01*
X34832471Y-135958630D01*
X34625628Y-136165473D01*
X34463113Y-136408694D01*
X34351171Y-136678947D01*
X34294103Y-136965845D01*
X34294103Y-137258365D01*
X34351171Y-137545263D01*
X34463113Y-137815516D01*
X34625628Y-138058737D01*
X34832471Y-138265580D01*
X35006863Y-138382105D01*
X34832471Y-138498630D01*
X34625628Y-138705473D01*
X34463113Y-138948694D01*
X34351171Y-139218947D01*
X34294103Y-139505845D01*
X34294103Y-139798365D01*
X34351171Y-140085263D01*
X34463113Y-140355516D01*
X34625628Y-140598737D01*
X34832471Y-140805580D01*
X35006863Y-140922105D01*
X34832471Y-141038630D01*
X34625628Y-141245473D01*
X34463113Y-141488694D01*
X34351171Y-141758947D01*
X34294103Y-142045845D01*
X34294103Y-142338365D01*
X34351171Y-142625263D01*
X34463113Y-142895516D01*
X34625628Y-143138737D01*
X34832471Y-143345580D01*
X35006863Y-143462105D01*
X34832471Y-143578630D01*
X34625628Y-143785473D01*
X34463113Y-144028694D01*
X34351171Y-144298947D01*
X34294103Y-144585845D01*
X34294103Y-144878365D01*
X34351171Y-145165263D01*
X34463113Y-145435516D01*
X34625628Y-145678737D01*
X34832471Y-145885580D01*
X35006863Y-146002105D01*
X34832471Y-146118630D01*
X34625628Y-146325473D01*
X34463113Y-146568694D01*
X34351171Y-146838947D01*
X34294103Y-147125845D01*
X34294103Y-147418365D01*
X34351171Y-147705263D01*
X34463113Y-147975516D01*
X34625628Y-148218737D01*
X34832471Y-148425580D01*
X35075692Y-148588095D01*
X35345945Y-148700037D01*
X35632843Y-148757105D01*
X35925363Y-148757105D01*
X36212261Y-148700037D01*
X36482514Y-148588095D01*
X36725735Y-148425580D01*
X36932578Y-148218737D01*
X37049103Y-148044345D01*
X37165628Y-148218737D01*
X37372471Y-148425580D01*
X37615692Y-148588095D01*
X37885945Y-148700037D01*
X38172843Y-148757105D01*
X38465363Y-148757105D01*
X38752261Y-148700037D01*
X39022514Y-148588095D01*
X39265735Y-148425580D01*
X39472578Y-148218737D01*
X39635093Y-147975516D01*
X39747035Y-147705263D01*
X39804103Y-147418365D01*
X39804103Y-147125845D01*
X39747035Y-146838947D01*
X39635093Y-146568694D01*
X39472578Y-146325473D01*
X39265735Y-146118630D01*
X39091343Y-146002105D01*
X39265735Y-145885580D01*
X39472578Y-145678737D01*
X39635093Y-145435516D01*
X39747035Y-145165263D01*
X39804103Y-144878365D01*
X39804103Y-144585845D01*
X39747035Y-144298947D01*
X39635093Y-144028694D01*
X39472578Y-143785473D01*
X39265735Y-143578630D01*
X39091343Y-143462105D01*
X39265735Y-143345580D01*
X39472578Y-143138737D01*
X39635093Y-142895516D01*
X39747035Y-142625263D01*
X39804103Y-142338365D01*
X39804103Y-142045845D01*
X39747035Y-141758947D01*
X39635093Y-141488694D01*
X39472578Y-141245473D01*
X39265735Y-141038630D01*
X39091343Y-140922105D01*
X39265735Y-140805580D01*
X39472578Y-140598737D01*
X39635093Y-140355516D01*
X39747035Y-140085263D01*
X39804103Y-139798365D01*
X39804103Y-139505845D01*
X39747035Y-139218947D01*
X39635093Y-138948694D01*
X39472578Y-138705473D01*
X39265735Y-138498630D01*
X39091343Y-138382105D01*
X39265735Y-138265580D01*
X39472578Y-138058737D01*
X39635093Y-137815516D01*
X39747035Y-137545263D01*
X39804103Y-137258365D01*
X39804103Y-136965845D01*
X39747035Y-136678947D01*
X39635093Y-136408694D01*
X39472578Y-136165473D01*
X39265735Y-135958630D01*
X39091343Y-135842105D01*
X39265735Y-135725580D01*
X39472578Y-135518737D01*
X39635093Y-135275516D01*
X39747035Y-135005263D01*
X39804103Y-134718365D01*
X39804103Y-134425845D01*
X39747035Y-134138947D01*
X39635093Y-133868694D01*
X39472578Y-133625473D01*
X39265735Y-133418630D01*
X39091343Y-133302105D01*
X39265735Y-133185580D01*
X39472578Y-132978737D01*
X39635093Y-132735516D01*
X39747035Y-132465263D01*
X39804103Y-132178365D01*
X39804103Y-131885845D01*
X39747035Y-131598947D01*
X39635093Y-131328694D01*
X39472578Y-131085473D01*
X39265735Y-130878630D01*
X39091343Y-130762105D01*
X39265735Y-130645580D01*
X39472578Y-130438737D01*
X39635093Y-130195516D01*
X39747035Y-129925263D01*
X39804103Y-129638365D01*
X39804103Y-129345845D01*
X39747035Y-129058947D01*
X39635093Y-128788694D01*
X39472578Y-128545473D01*
X39265735Y-128338630D01*
X39083569Y-128216910D01*
X39200458Y-128147283D01*
X39416691Y-127952374D01*
X39590744Y-127719025D01*
X39715928Y-127456204D01*
X39760579Y-127308995D01*
X39639258Y-127079105D01*
X38446103Y-127079105D01*
X38446103Y-127099105D01*
X38192103Y-127099105D01*
X38192103Y-127079105D01*
X38172103Y-127079105D01*
X38172103Y-126825105D01*
X38192103Y-126825105D01*
X38192103Y-124539105D01*
X38446103Y-124539105D01*
X38446103Y-126825105D01*
X39639258Y-126825105D01*
X39760579Y-126595215D01*
X39715928Y-126448006D01*
X39590744Y-126185185D01*
X39416691Y-125951836D01*
X39200458Y-125756927D01*
X39074848Y-125682105D01*
X39200458Y-125607283D01*
X39416691Y-125412374D01*
X39590744Y-125179025D01*
X39715928Y-124916204D01*
X39760579Y-124768995D01*
X39639258Y-124539105D01*
X38446103Y-124539105D01*
X38192103Y-124539105D01*
X35906103Y-124539105D01*
X35906103Y-124559105D01*
X35652103Y-124559105D01*
X35652103Y-124539105D01*
X34458948Y-124539105D01*
X34337627Y-124768995D01*
X34382278Y-124916204D01*
X34507462Y-125179025D01*
X34681515Y-125412374D01*
X34897748Y-125607283D01*
X35014637Y-125676910D01*
X34832471Y-125798630D01*
X34625628Y-126005473D01*
X34463113Y-126248694D01*
X34351171Y-126518947D01*
X34294103Y-126805845D01*
X33239103Y-126805845D01*
X33239103Y-97501765D01*
X41060419Y-97501765D01*
X41060419Y-97962445D01*
X41150293Y-98414274D01*
X41326588Y-98839887D01*
X41582528Y-99222929D01*
X41908279Y-99548680D01*
X42291321Y-99804620D01*
X42716934Y-99980915D01*
X43168763Y-100070789D01*
X43629443Y-100070789D01*
X44081272Y-99980915D01*
X44506885Y-99804620D01*
X44889927Y-99548680D01*
X45215678Y-99222929D01*
X45471618Y-98839887D01*
X45647913Y-98414274D01*
X45737787Y-97962445D01*
X45737787Y-97501765D01*
X45647913Y-97049936D01*
X45471618Y-96624323D01*
X45215678Y-96241281D01*
X44889927Y-95915530D01*
X44506885Y-95659590D01*
X44081272Y-95483295D01*
X43629443Y-95393421D01*
X43168763Y-95393421D01*
X42716934Y-95483295D01*
X42291321Y-95659590D01*
X41908279Y-95915530D01*
X41582528Y-96241281D01*
X41326588Y-96624323D01*
X41150293Y-97049936D01*
X41060419Y-97501765D01*
X33239103Y-97501765D01*
X33239103Y-94346827D01*
X33247966Y-94256440D01*
X33264133Y-94202891D01*
X33290391Y-94153508D01*
X33325744Y-94110160D01*
X33368843Y-94074505D01*
X33418040Y-94047904D01*
X33471478Y-94031363D01*
X33559558Y-94022105D01*
X46494381Y-94022105D01*
X46584768Y-94030968D01*
G37*
%TD.AperFunction*%
%TD*%
M02*
