%TF.GenerationSoftware,KiCad,Pcbnew,(5.1.8)-1*%
%TF.CreationDate,2021-02-11T10:10:36+01:00*%
%TF.ProjectId,shieldV1,73686965-6c64-4563-912e-6b696361645f,rev?*%
%TF.SameCoordinates,Original*%
%TF.FileFunction,Paste,Top*%
%TF.FilePolarity,Positive*%
%FSLAX46Y46*%
G04 Gerber Fmt 4.6, Leading zero omitted, Abs format (unit mm)*
G04 Created by KiCad (PCBNEW (5.1.8)-1) date 2021-02-11 10:10:36*
%MOMM*%
%LPD*%
G01*
G04 APERTURE LIST*
G04 APERTURE END LIST*
%TO.C,C2*%
G36*
G01*
X60679103Y-122237105D02*
X61179103Y-122237105D01*
G75*
G02*
X61404103Y-122462105I0J-225000D01*
G01*
X61404103Y-122912105D01*
G75*
G02*
X61179103Y-123137105I-225000J0D01*
G01*
X60679103Y-123137105D01*
G75*
G02*
X60454103Y-122912105I0J225000D01*
G01*
X60454103Y-122462105D01*
G75*
G02*
X60679103Y-122237105I225000J0D01*
G01*
G37*
G36*
G01*
X60679103Y-120687105D02*
X61179103Y-120687105D01*
G75*
G02*
X61404103Y-120912105I0J-225000D01*
G01*
X61404103Y-121362105D01*
G75*
G02*
X61179103Y-121587105I-225000J0D01*
G01*
X60679103Y-121587105D01*
G75*
G02*
X60454103Y-121362105I0J225000D01*
G01*
X60454103Y-120912105D01*
G75*
G02*
X60679103Y-120687105I225000J0D01*
G01*
G37*
%TD*%
%TO.C,C1*%
G36*
G01*
X51829103Y-122087105D02*
X52329103Y-122087105D01*
G75*
G02*
X52554103Y-122312105I0J-225000D01*
G01*
X52554103Y-122762105D01*
G75*
G02*
X52329103Y-122987105I-225000J0D01*
G01*
X51829103Y-122987105D01*
G75*
G02*
X51604103Y-122762105I0J225000D01*
G01*
X51604103Y-122312105D01*
G75*
G02*
X51829103Y-122087105I225000J0D01*
G01*
G37*
G36*
G01*
X51829103Y-120537105D02*
X52329103Y-120537105D01*
G75*
G02*
X52554103Y-120762105I0J-225000D01*
G01*
X52554103Y-121212105D01*
G75*
G02*
X52329103Y-121437105I-225000J0D01*
G01*
X51829103Y-121437105D01*
G75*
G02*
X51604103Y-121212105I0J225000D01*
G01*
X51604103Y-120762105D01*
G75*
G02*
X51829103Y-120537105I225000J0D01*
G01*
G37*
%TD*%
%TO.C,R5*%
G36*
G01*
X59004103Y-122337105D02*
X59554103Y-122337105D01*
G75*
G02*
X59754103Y-122537105I0J-200000D01*
G01*
X59754103Y-122937105D01*
G75*
G02*
X59554103Y-123137105I-200000J0D01*
G01*
X59004103Y-123137105D01*
G75*
G02*
X58804103Y-122937105I0J200000D01*
G01*
X58804103Y-122537105D01*
G75*
G02*
X59004103Y-122337105I200000J0D01*
G01*
G37*
G36*
G01*
X59004103Y-120687105D02*
X59554103Y-120687105D01*
G75*
G02*
X59754103Y-120887105I0J-200000D01*
G01*
X59754103Y-121287105D01*
G75*
G02*
X59554103Y-121487105I-200000J0D01*
G01*
X59004103Y-121487105D01*
G75*
G02*
X58804103Y-121287105I0J200000D01*
G01*
X58804103Y-120887105D01*
G75*
G02*
X59004103Y-120687105I200000J0D01*
G01*
G37*
%TD*%
%TO.C,R4*%
G36*
G01*
X50004103Y-122187105D02*
X50554103Y-122187105D01*
G75*
G02*
X50754103Y-122387105I0J-200000D01*
G01*
X50754103Y-122787105D01*
G75*
G02*
X50554103Y-122987105I-200000J0D01*
G01*
X50004103Y-122987105D01*
G75*
G02*
X49804103Y-122787105I0J200000D01*
G01*
X49804103Y-122387105D01*
G75*
G02*
X50004103Y-122187105I200000J0D01*
G01*
G37*
G36*
G01*
X50004103Y-120537105D02*
X50554103Y-120537105D01*
G75*
G02*
X50754103Y-120737105I0J-200000D01*
G01*
X50754103Y-121137105D01*
G75*
G02*
X50554103Y-121337105I-200000J0D01*
G01*
X50004103Y-121337105D01*
G75*
G02*
X49804103Y-121137105I0J200000D01*
G01*
X49804103Y-120737105D01*
G75*
G02*
X50004103Y-120537105I200000J0D01*
G01*
G37*
%TD*%
%TO.C,R3*%
G36*
G01*
X63054103Y-119887105D02*
X62504103Y-119887105D01*
G75*
G02*
X62304103Y-119687105I0J200000D01*
G01*
X62304103Y-119287105D01*
G75*
G02*
X62504103Y-119087105I200000J0D01*
G01*
X63054103Y-119087105D01*
G75*
G02*
X63254103Y-119287105I0J-200000D01*
G01*
X63254103Y-119687105D01*
G75*
G02*
X63054103Y-119887105I-200000J0D01*
G01*
G37*
G36*
G01*
X63054103Y-121537105D02*
X62504103Y-121537105D01*
G75*
G02*
X62304103Y-121337105I0J200000D01*
G01*
X62304103Y-120937105D01*
G75*
G02*
X62504103Y-120737105I200000J0D01*
G01*
X63054103Y-120737105D01*
G75*
G02*
X63254103Y-120937105I0J-200000D01*
G01*
X63254103Y-121337105D01*
G75*
G02*
X63054103Y-121537105I-200000J0D01*
G01*
G37*
%TD*%
%TO.C,R2*%
G36*
G01*
X54054103Y-119875000D02*
X53504103Y-119875000D01*
G75*
G02*
X53304103Y-119675000I0J200000D01*
G01*
X53304103Y-119275000D01*
G75*
G02*
X53504103Y-119075000I200000J0D01*
G01*
X54054103Y-119075000D01*
G75*
G02*
X54254103Y-119275000I0J-200000D01*
G01*
X54254103Y-119675000D01*
G75*
G02*
X54054103Y-119875000I-200000J0D01*
G01*
G37*
G36*
G01*
X54054103Y-121525000D02*
X53504103Y-121525000D01*
G75*
G02*
X53304103Y-121325000I0J200000D01*
G01*
X53304103Y-120925000D01*
G75*
G02*
X53504103Y-120725000I200000J0D01*
G01*
X54054103Y-120725000D01*
G75*
G02*
X54254103Y-120925000I0J-200000D01*
G01*
X54254103Y-121325000D01*
G75*
G02*
X54054103Y-121525000I-200000J0D01*
G01*
G37*
%TD*%
%TO.C,J10*%
G36*
G01*
X57429103Y-130552105D02*
X57429103Y-128352105D01*
G75*
G02*
X57679103Y-128102105I250000J0D01*
G01*
X58179103Y-128102105D01*
G75*
G02*
X58429103Y-128352105I0J-250000D01*
G01*
X58429103Y-130552105D01*
G75*
G02*
X58179103Y-130802105I-250000J0D01*
G01*
X57679103Y-130802105D01*
G75*
G02*
X57429103Y-130552105I0J250000D01*
G01*
G37*
G36*
G01*
X46229103Y-130552105D02*
X46229103Y-128352105D01*
G75*
G02*
X46479103Y-128102105I250000J0D01*
G01*
X46979103Y-128102105D01*
G75*
G02*
X47229103Y-128352105I0J-250000D01*
G01*
X47229103Y-130552105D01*
G75*
G02*
X46979103Y-130802105I-250000J0D01*
G01*
X46479103Y-130802105D01*
G75*
G02*
X46229103Y-130552105I0J250000D01*
G01*
G37*
G36*
G01*
X55779103Y-126952105D02*
X55779103Y-125552105D01*
G75*
G02*
X55929103Y-125402105I150000J0D01*
G01*
X56229103Y-125402105D01*
G75*
G02*
X56379103Y-125552105I0J-150000D01*
G01*
X56379103Y-126952105D01*
G75*
G02*
X56229103Y-127102105I-150000J0D01*
G01*
X55929103Y-127102105D01*
G75*
G02*
X55779103Y-126952105I0J150000D01*
G01*
G37*
G36*
G01*
X54529103Y-126952105D02*
X54529103Y-125552105D01*
G75*
G02*
X54679103Y-125402105I150000J0D01*
G01*
X54979103Y-125402105D01*
G75*
G02*
X55129103Y-125552105I0J-150000D01*
G01*
X55129103Y-126952105D01*
G75*
G02*
X54979103Y-127102105I-150000J0D01*
G01*
X54679103Y-127102105D01*
G75*
G02*
X54529103Y-126952105I0J150000D01*
G01*
G37*
G36*
G01*
X53279103Y-126952105D02*
X53279103Y-125552105D01*
G75*
G02*
X53429103Y-125402105I150000J0D01*
G01*
X53729103Y-125402105D01*
G75*
G02*
X53879103Y-125552105I0J-150000D01*
G01*
X53879103Y-126952105D01*
G75*
G02*
X53729103Y-127102105I-150000J0D01*
G01*
X53429103Y-127102105D01*
G75*
G02*
X53279103Y-126952105I0J150000D01*
G01*
G37*
G36*
G01*
X52029103Y-126952105D02*
X52029103Y-125552105D01*
G75*
G02*
X52179103Y-125402105I150000J0D01*
G01*
X52479103Y-125402105D01*
G75*
G02*
X52629103Y-125552105I0J-150000D01*
G01*
X52629103Y-126952105D01*
G75*
G02*
X52479103Y-127102105I-150000J0D01*
G01*
X52179103Y-127102105D01*
G75*
G02*
X52029103Y-126952105I0J150000D01*
G01*
G37*
G36*
G01*
X50779103Y-126952105D02*
X50779103Y-125552105D01*
G75*
G02*
X50929103Y-125402105I150000J0D01*
G01*
X51229103Y-125402105D01*
G75*
G02*
X51379103Y-125552105I0J-150000D01*
G01*
X51379103Y-126952105D01*
G75*
G02*
X51229103Y-127102105I-150000J0D01*
G01*
X50929103Y-127102105D01*
G75*
G02*
X50779103Y-126952105I0J150000D01*
G01*
G37*
G36*
G01*
X49529103Y-126952105D02*
X49529103Y-125552105D01*
G75*
G02*
X49679103Y-125402105I150000J0D01*
G01*
X49979103Y-125402105D01*
G75*
G02*
X50129103Y-125552105I0J-150000D01*
G01*
X50129103Y-126952105D01*
G75*
G02*
X49979103Y-127102105I-150000J0D01*
G01*
X49679103Y-127102105D01*
G75*
G02*
X49529103Y-126952105I0J150000D01*
G01*
G37*
G36*
G01*
X48279103Y-126952105D02*
X48279103Y-125552105D01*
G75*
G02*
X48429103Y-125402105I150000J0D01*
G01*
X48729103Y-125402105D01*
G75*
G02*
X48879103Y-125552105I0J-150000D01*
G01*
X48879103Y-126952105D01*
G75*
G02*
X48729103Y-127102105I-150000J0D01*
G01*
X48429103Y-127102105D01*
G75*
G02*
X48279103Y-126952105I0J150000D01*
G01*
G37*
%TD*%
%TO.C,J9*%
G36*
G01*
X58354103Y-113162105D02*
X58354103Y-115362105D01*
G75*
G02*
X58104103Y-115612105I-250000J0D01*
G01*
X57604103Y-115612105D01*
G75*
G02*
X57354103Y-115362105I0J250000D01*
G01*
X57354103Y-113162105D01*
G75*
G02*
X57604103Y-112912105I250000J0D01*
G01*
X58104103Y-112912105D01*
G75*
G02*
X58354103Y-113162105I0J-250000D01*
G01*
G37*
G36*
G01*
X63304103Y-113162105D02*
X63304103Y-115362105D01*
G75*
G02*
X63054103Y-115612105I-250000J0D01*
G01*
X62554103Y-115612105D01*
G75*
G02*
X62304103Y-115362105I0J250000D01*
G01*
X62304103Y-113162105D01*
G75*
G02*
X62554103Y-112912105I250000J0D01*
G01*
X63054103Y-112912105D01*
G75*
G02*
X63304103Y-113162105I0J-250000D01*
G01*
G37*
G36*
G01*
X60004103Y-116762105D02*
X60004103Y-118162105D01*
G75*
G02*
X59854103Y-118312105I-150000J0D01*
G01*
X59554103Y-118312105D01*
G75*
G02*
X59404103Y-118162105I0J150000D01*
G01*
X59404103Y-116762105D01*
G75*
G02*
X59554103Y-116612105I150000J0D01*
G01*
X59854103Y-116612105D01*
G75*
G02*
X60004103Y-116762105I0J-150000D01*
G01*
G37*
G36*
G01*
X61254103Y-116762105D02*
X61254103Y-118162105D01*
G75*
G02*
X61104103Y-118312105I-150000J0D01*
G01*
X60804103Y-118312105D01*
G75*
G02*
X60654103Y-118162105I0J150000D01*
G01*
X60654103Y-116762105D01*
G75*
G02*
X60804103Y-116612105I150000J0D01*
G01*
X61104103Y-116612105D01*
G75*
G02*
X61254103Y-116762105I0J-150000D01*
G01*
G37*
%TD*%
%TO.C,J8*%
G36*
G01*
X49414103Y-113162105D02*
X49414103Y-115362105D01*
G75*
G02*
X49164103Y-115612105I-250000J0D01*
G01*
X48664103Y-115612105D01*
G75*
G02*
X48414103Y-115362105I0J250000D01*
G01*
X48414103Y-113162105D01*
G75*
G02*
X48664103Y-112912105I250000J0D01*
G01*
X49164103Y-112912105D01*
G75*
G02*
X49414103Y-113162105I0J-250000D01*
G01*
G37*
G36*
G01*
X54364103Y-113162105D02*
X54364103Y-115362105D01*
G75*
G02*
X54114103Y-115612105I-250000J0D01*
G01*
X53614103Y-115612105D01*
G75*
G02*
X53364103Y-115362105I0J250000D01*
G01*
X53364103Y-113162105D01*
G75*
G02*
X53614103Y-112912105I250000J0D01*
G01*
X54114103Y-112912105D01*
G75*
G02*
X54364103Y-113162105I0J-250000D01*
G01*
G37*
G36*
G01*
X51064103Y-116762105D02*
X51064103Y-118162105D01*
G75*
G02*
X50914103Y-118312105I-150000J0D01*
G01*
X50614103Y-118312105D01*
G75*
G02*
X50464103Y-118162105I0J150000D01*
G01*
X50464103Y-116762105D01*
G75*
G02*
X50614103Y-116612105I150000J0D01*
G01*
X50914103Y-116612105D01*
G75*
G02*
X51064103Y-116762105I0J-150000D01*
G01*
G37*
G36*
G01*
X52314103Y-116762105D02*
X52314103Y-118162105D01*
G75*
G02*
X52164103Y-118312105I-150000J0D01*
G01*
X51864103Y-118312105D01*
G75*
G02*
X51714103Y-118162105I0J150000D01*
G01*
X51714103Y-116762105D01*
G75*
G02*
X51864103Y-116612105I150000J0D01*
G01*
X52164103Y-116612105D01*
G75*
G02*
X52314103Y-116762105I0J-150000D01*
G01*
G37*
%TD*%
%TO.C,J7*%
G36*
G01*
X67429103Y-130552105D02*
X67429103Y-128352105D01*
G75*
G02*
X67679103Y-128102105I250000J0D01*
G01*
X68179103Y-128102105D01*
G75*
G02*
X68429103Y-128352105I0J-250000D01*
G01*
X68429103Y-130552105D01*
G75*
G02*
X68179103Y-130802105I-250000J0D01*
G01*
X67679103Y-130802105D01*
G75*
G02*
X67429103Y-130552105I0J250000D01*
G01*
G37*
G36*
G01*
X61229103Y-130552105D02*
X61229103Y-128352105D01*
G75*
G02*
X61479103Y-128102105I250000J0D01*
G01*
X61979103Y-128102105D01*
G75*
G02*
X62229103Y-128352105I0J-250000D01*
G01*
X62229103Y-130552105D01*
G75*
G02*
X61979103Y-130802105I-250000J0D01*
G01*
X61479103Y-130802105D01*
G75*
G02*
X61229103Y-130552105I0J250000D01*
G01*
G37*
G36*
G01*
X65779103Y-126952105D02*
X65779103Y-125552105D01*
G75*
G02*
X65929103Y-125402105I150000J0D01*
G01*
X66229103Y-125402105D01*
G75*
G02*
X66379103Y-125552105I0J-150000D01*
G01*
X66379103Y-126952105D01*
G75*
G02*
X66229103Y-127102105I-150000J0D01*
G01*
X65929103Y-127102105D01*
G75*
G02*
X65779103Y-126952105I0J150000D01*
G01*
G37*
G36*
G01*
X64529103Y-126952105D02*
X64529103Y-125552105D01*
G75*
G02*
X64679103Y-125402105I150000J0D01*
G01*
X64979103Y-125402105D01*
G75*
G02*
X65129103Y-125552105I0J-150000D01*
G01*
X65129103Y-126952105D01*
G75*
G02*
X64979103Y-127102105I-150000J0D01*
G01*
X64679103Y-127102105D01*
G75*
G02*
X64529103Y-126952105I0J150000D01*
G01*
G37*
G36*
G01*
X63279103Y-126952105D02*
X63279103Y-125552105D01*
G75*
G02*
X63429103Y-125402105I150000J0D01*
G01*
X63729103Y-125402105D01*
G75*
G02*
X63879103Y-125552105I0J-150000D01*
G01*
X63879103Y-126952105D01*
G75*
G02*
X63729103Y-127102105I-150000J0D01*
G01*
X63429103Y-127102105D01*
G75*
G02*
X63279103Y-126952105I0J150000D01*
G01*
G37*
%TD*%
%TO.C,J6*%
G36*
G01*
X77429103Y-130552105D02*
X77429103Y-128352105D01*
G75*
G02*
X77679103Y-128102105I250000J0D01*
G01*
X78179103Y-128102105D01*
G75*
G02*
X78429103Y-128352105I0J-250000D01*
G01*
X78429103Y-130552105D01*
G75*
G02*
X78179103Y-130802105I-250000J0D01*
G01*
X77679103Y-130802105D01*
G75*
G02*
X77429103Y-130552105I0J250000D01*
G01*
G37*
G36*
G01*
X71229103Y-130552105D02*
X71229103Y-128352105D01*
G75*
G02*
X71479103Y-128102105I250000J0D01*
G01*
X71979103Y-128102105D01*
G75*
G02*
X72229103Y-128352105I0J-250000D01*
G01*
X72229103Y-130552105D01*
G75*
G02*
X71979103Y-130802105I-250000J0D01*
G01*
X71479103Y-130802105D01*
G75*
G02*
X71229103Y-130552105I0J250000D01*
G01*
G37*
G36*
G01*
X75779103Y-126952105D02*
X75779103Y-125552105D01*
G75*
G02*
X75929103Y-125402105I150000J0D01*
G01*
X76229103Y-125402105D01*
G75*
G02*
X76379103Y-125552105I0J-150000D01*
G01*
X76379103Y-126952105D01*
G75*
G02*
X76229103Y-127102105I-150000J0D01*
G01*
X75929103Y-127102105D01*
G75*
G02*
X75779103Y-126952105I0J150000D01*
G01*
G37*
G36*
G01*
X74529103Y-126952105D02*
X74529103Y-125552105D01*
G75*
G02*
X74679103Y-125402105I150000J0D01*
G01*
X74979103Y-125402105D01*
G75*
G02*
X75129103Y-125552105I0J-150000D01*
G01*
X75129103Y-126952105D01*
G75*
G02*
X74979103Y-127102105I-150000J0D01*
G01*
X74679103Y-127102105D01*
G75*
G02*
X74529103Y-126952105I0J150000D01*
G01*
G37*
G36*
G01*
X73279103Y-126952105D02*
X73279103Y-125552105D01*
G75*
G02*
X73429103Y-125402105I150000J0D01*
G01*
X73729103Y-125402105D01*
G75*
G02*
X73879103Y-125552105I0J-150000D01*
G01*
X73879103Y-126952105D01*
G75*
G02*
X73729103Y-127102105I-150000J0D01*
G01*
X73429103Y-127102105D01*
G75*
G02*
X73279103Y-126952105I0J150000D01*
G01*
G37*
%TD*%
%TO.C,R1*%
G36*
G01*
X84254103Y-124087105D02*
X84254103Y-123537105D01*
G75*
G02*
X84454103Y-123337105I200000J0D01*
G01*
X84854103Y-123337105D01*
G75*
G02*
X85054103Y-123537105I0J-200000D01*
G01*
X85054103Y-124087105D01*
G75*
G02*
X84854103Y-124287105I-200000J0D01*
G01*
X84454103Y-124287105D01*
G75*
G02*
X84254103Y-124087105I0J200000D01*
G01*
G37*
G36*
G01*
X82604103Y-124087105D02*
X82604103Y-123537105D01*
G75*
G02*
X82804103Y-123337105I200000J0D01*
G01*
X83204103Y-123337105D01*
G75*
G02*
X83404103Y-123537105I0J-200000D01*
G01*
X83404103Y-124087105D01*
G75*
G02*
X83204103Y-124287105I-200000J0D01*
G01*
X82804103Y-124287105D01*
G75*
G02*
X82604103Y-124087105I0J200000D01*
G01*
G37*
%TD*%
%TO.C,J5*%
G36*
G01*
X87429103Y-130552105D02*
X87429103Y-128352105D01*
G75*
G02*
X87679103Y-128102105I250000J0D01*
G01*
X88179103Y-128102105D01*
G75*
G02*
X88429103Y-128352105I0J-250000D01*
G01*
X88429103Y-130552105D01*
G75*
G02*
X88179103Y-130802105I-250000J0D01*
G01*
X87679103Y-130802105D01*
G75*
G02*
X87429103Y-130552105I0J250000D01*
G01*
G37*
G36*
G01*
X81229103Y-130552105D02*
X81229103Y-128352105D01*
G75*
G02*
X81479103Y-128102105I250000J0D01*
G01*
X81979103Y-128102105D01*
G75*
G02*
X82229103Y-128352105I0J-250000D01*
G01*
X82229103Y-130552105D01*
G75*
G02*
X81979103Y-130802105I-250000J0D01*
G01*
X81479103Y-130802105D01*
G75*
G02*
X81229103Y-130552105I0J250000D01*
G01*
G37*
G36*
G01*
X85779103Y-126952105D02*
X85779103Y-125552105D01*
G75*
G02*
X85929103Y-125402105I150000J0D01*
G01*
X86229103Y-125402105D01*
G75*
G02*
X86379103Y-125552105I0J-150000D01*
G01*
X86379103Y-126952105D01*
G75*
G02*
X86229103Y-127102105I-150000J0D01*
G01*
X85929103Y-127102105D01*
G75*
G02*
X85779103Y-126952105I0J150000D01*
G01*
G37*
G36*
G01*
X84529103Y-126952105D02*
X84529103Y-125552105D01*
G75*
G02*
X84679103Y-125402105I150000J0D01*
G01*
X84979103Y-125402105D01*
G75*
G02*
X85129103Y-125552105I0J-150000D01*
G01*
X85129103Y-126952105D01*
G75*
G02*
X84979103Y-127102105I-150000J0D01*
G01*
X84679103Y-127102105D01*
G75*
G02*
X84529103Y-126952105I0J150000D01*
G01*
G37*
G36*
G01*
X83279103Y-126952105D02*
X83279103Y-125552105D01*
G75*
G02*
X83429103Y-125402105I150000J0D01*
G01*
X83729103Y-125402105D01*
G75*
G02*
X83879103Y-125552105I0J-150000D01*
G01*
X83879103Y-126952105D01*
G75*
G02*
X83729103Y-127102105I-150000J0D01*
G01*
X83429103Y-127102105D01*
G75*
G02*
X83279103Y-126952105I0J150000D01*
G01*
G37*
%TD*%
%TO.C,J4*%
G36*
G01*
X67464103Y-113162105D02*
X67464103Y-115362105D01*
G75*
G02*
X67214103Y-115612105I-250000J0D01*
G01*
X66714103Y-115612105D01*
G75*
G02*
X66464103Y-115362105I0J250000D01*
G01*
X66464103Y-113162105D01*
G75*
G02*
X66714103Y-112912105I250000J0D01*
G01*
X67214103Y-112912105D01*
G75*
G02*
X67464103Y-113162105I0J-250000D01*
G01*
G37*
G36*
G01*
X74914103Y-113162105D02*
X74914103Y-115362105D01*
G75*
G02*
X74664103Y-115612105I-250000J0D01*
G01*
X74164103Y-115612105D01*
G75*
G02*
X73914103Y-115362105I0J250000D01*
G01*
X73914103Y-113162105D01*
G75*
G02*
X74164103Y-112912105I250000J0D01*
G01*
X74664103Y-112912105D01*
G75*
G02*
X74914103Y-113162105I0J-250000D01*
G01*
G37*
G36*
G01*
X69114103Y-116762105D02*
X69114103Y-118162105D01*
G75*
G02*
X68964103Y-118312105I-150000J0D01*
G01*
X68664103Y-118312105D01*
G75*
G02*
X68514103Y-118162105I0J150000D01*
G01*
X68514103Y-116762105D01*
G75*
G02*
X68664103Y-116612105I150000J0D01*
G01*
X68964103Y-116612105D01*
G75*
G02*
X69114103Y-116762105I0J-150000D01*
G01*
G37*
G36*
G01*
X70364103Y-116762105D02*
X70364103Y-118162105D01*
G75*
G02*
X70214103Y-118312105I-150000J0D01*
G01*
X69914103Y-118312105D01*
G75*
G02*
X69764103Y-118162105I0J150000D01*
G01*
X69764103Y-116762105D01*
G75*
G02*
X69914103Y-116612105I150000J0D01*
G01*
X70214103Y-116612105D01*
G75*
G02*
X70364103Y-116762105I0J-150000D01*
G01*
G37*
G36*
G01*
X71614103Y-116762105D02*
X71614103Y-118162105D01*
G75*
G02*
X71464103Y-118312105I-150000J0D01*
G01*
X71164103Y-118312105D01*
G75*
G02*
X71014103Y-118162105I0J150000D01*
G01*
X71014103Y-116762105D01*
G75*
G02*
X71164103Y-116612105I150000J0D01*
G01*
X71464103Y-116612105D01*
G75*
G02*
X71614103Y-116762105I0J-150000D01*
G01*
G37*
G36*
G01*
X72864103Y-116762105D02*
X72864103Y-118162105D01*
G75*
G02*
X72714103Y-118312105I-150000J0D01*
G01*
X72414103Y-118312105D01*
G75*
G02*
X72264103Y-118162105I0J150000D01*
G01*
X72264103Y-116762105D01*
G75*
G02*
X72414103Y-116612105I150000J0D01*
G01*
X72714103Y-116612105D01*
G75*
G02*
X72864103Y-116762105I0J-150000D01*
G01*
G37*
%TD*%
%TO.C,J3*%
G36*
G01*
X79104103Y-113162105D02*
X79104103Y-115362105D01*
G75*
G02*
X78854103Y-115612105I-250000J0D01*
G01*
X78354103Y-115612105D01*
G75*
G02*
X78104103Y-115362105I0J250000D01*
G01*
X78104103Y-113162105D01*
G75*
G02*
X78354103Y-112912105I250000J0D01*
G01*
X78854103Y-112912105D01*
G75*
G02*
X79104103Y-113162105I0J-250000D01*
G01*
G37*
G36*
G01*
X86554103Y-113162105D02*
X86554103Y-115362105D01*
G75*
G02*
X86304103Y-115612105I-250000J0D01*
G01*
X85804103Y-115612105D01*
G75*
G02*
X85554103Y-115362105I0J250000D01*
G01*
X85554103Y-113162105D01*
G75*
G02*
X85804103Y-112912105I250000J0D01*
G01*
X86304103Y-112912105D01*
G75*
G02*
X86554103Y-113162105I0J-250000D01*
G01*
G37*
G36*
G01*
X80754103Y-116762105D02*
X80754103Y-118162105D01*
G75*
G02*
X80604103Y-118312105I-150000J0D01*
G01*
X80304103Y-118312105D01*
G75*
G02*
X80154103Y-118162105I0J150000D01*
G01*
X80154103Y-116762105D01*
G75*
G02*
X80304103Y-116612105I150000J0D01*
G01*
X80604103Y-116612105D01*
G75*
G02*
X80754103Y-116762105I0J-150000D01*
G01*
G37*
G36*
G01*
X82004103Y-116762105D02*
X82004103Y-118162105D01*
G75*
G02*
X81854103Y-118312105I-150000J0D01*
G01*
X81554103Y-118312105D01*
G75*
G02*
X81404103Y-118162105I0J150000D01*
G01*
X81404103Y-116762105D01*
G75*
G02*
X81554103Y-116612105I150000J0D01*
G01*
X81854103Y-116612105D01*
G75*
G02*
X82004103Y-116762105I0J-150000D01*
G01*
G37*
G36*
G01*
X83254103Y-116762105D02*
X83254103Y-118162105D01*
G75*
G02*
X83104103Y-118312105I-150000J0D01*
G01*
X82804103Y-118312105D01*
G75*
G02*
X82654103Y-118162105I0J150000D01*
G01*
X82654103Y-116762105D01*
G75*
G02*
X82804103Y-116612105I150000J0D01*
G01*
X83104103Y-116612105D01*
G75*
G02*
X83254103Y-116762105I0J-150000D01*
G01*
G37*
G36*
G01*
X84504103Y-116762105D02*
X84504103Y-118162105D01*
G75*
G02*
X84354103Y-118312105I-150000J0D01*
G01*
X84054103Y-118312105D01*
G75*
G02*
X83904103Y-118162105I0J150000D01*
G01*
X83904103Y-116762105D01*
G75*
G02*
X84054103Y-116612105I150000J0D01*
G01*
X84354103Y-116612105D01*
G75*
G02*
X84504103Y-116762105I0J-150000D01*
G01*
G37*
%TD*%
M02*
