%TF.GenerationSoftware,KiCad,Pcbnew,(5.1.8)-1*%
%TF.CreationDate,2021-02-11T10:10:36+01:00*%
%TF.ProjectId,shieldV1,73686965-6c64-4563-912e-6b696361645f,rev?*%
%TF.SameCoordinates,Original*%
%TF.FileFunction,Copper,L1,Top*%
%TF.FilePolarity,Positive*%
%FSLAX46Y46*%
G04 Gerber Fmt 4.6, Leading zero omitted, Abs format (unit mm)*
G04 Created by KiCad (PCBNEW (5.1.8)-1) date 2021-02-11 10:10:36*
%MOMM*%
%LPD*%
G01*
G04 APERTURE LIST*
%TA.AperFunction,SMDPad,CuDef*%
%ADD10R,1.500000X1.000000*%
%TD*%
%TA.AperFunction,SMDPad,CuDef*%
%ADD11C,0.100000*%
%TD*%
%TA.AperFunction,ComponentPad*%
%ADD12O,1.700000X1.700000*%
%TD*%
%TA.AperFunction,ComponentPad*%
%ADD13R,1.700000X1.700000*%
%TD*%
%TA.AperFunction,ViaPad*%
%ADD14C,0.800000*%
%TD*%
%TA.AperFunction,Conductor*%
%ADD15C,0.500000*%
%TD*%
%TA.AperFunction,Conductor*%
%ADD16C,0.250000*%
%TD*%
%TA.AperFunction,Conductor*%
%ADD17C,0.254000*%
%TD*%
%TA.AperFunction,Conductor*%
%ADD18C,0.100000*%
%TD*%
G04 APERTURE END LIST*
%TO.P,C2,2*%
%TO.N,GND*%
%TA.AperFunction,SMDPad,CuDef*%
G36*
G01*
X60679103Y-122237105D02*
X61179103Y-122237105D01*
G75*
G02*
X61404103Y-122462105I0J-225000D01*
G01*
X61404103Y-122912105D01*
G75*
G02*
X61179103Y-123137105I-225000J0D01*
G01*
X60679103Y-123137105D01*
G75*
G02*
X60454103Y-122912105I0J225000D01*
G01*
X60454103Y-122462105D01*
G75*
G02*
X60679103Y-122237105I225000J0D01*
G01*
G37*
%TD.AperFunction*%
%TO.P,C2,1*%
%TO.N,/PC15*%
%TA.AperFunction,SMDPad,CuDef*%
G36*
G01*
X60679103Y-120687105D02*
X61179103Y-120687105D01*
G75*
G02*
X61404103Y-120912105I0J-225000D01*
G01*
X61404103Y-121362105D01*
G75*
G02*
X61179103Y-121587105I-225000J0D01*
G01*
X60679103Y-121587105D01*
G75*
G02*
X60454103Y-121362105I0J225000D01*
G01*
X60454103Y-120912105D01*
G75*
G02*
X60679103Y-120687105I225000J0D01*
G01*
G37*
%TD.AperFunction*%
%TD*%
%TO.P,C1,2*%
%TO.N,GND*%
%TA.AperFunction,SMDPad,CuDef*%
G36*
G01*
X51829103Y-122087105D02*
X52329103Y-122087105D01*
G75*
G02*
X52554103Y-122312105I0J-225000D01*
G01*
X52554103Y-122762105D01*
G75*
G02*
X52329103Y-122987105I-225000J0D01*
G01*
X51829103Y-122987105D01*
G75*
G02*
X51604103Y-122762105I0J225000D01*
G01*
X51604103Y-122312105D01*
G75*
G02*
X51829103Y-122087105I225000J0D01*
G01*
G37*
%TD.AperFunction*%
%TO.P,C1,1*%
%TO.N,/PC14*%
%TA.AperFunction,SMDPad,CuDef*%
G36*
G01*
X51829103Y-120537105D02*
X52329103Y-120537105D01*
G75*
G02*
X52554103Y-120762105I0J-225000D01*
G01*
X52554103Y-121212105D01*
G75*
G02*
X52329103Y-121437105I-225000J0D01*
G01*
X51829103Y-121437105D01*
G75*
G02*
X51604103Y-121212105I0J225000D01*
G01*
X51604103Y-120762105D01*
G75*
G02*
X51829103Y-120537105I225000J0D01*
G01*
G37*
%TD.AperFunction*%
%TD*%
%TO.P,R5,2*%
%TO.N,+3V3*%
%TA.AperFunction,SMDPad,CuDef*%
G36*
G01*
X59004103Y-122337105D02*
X59554103Y-122337105D01*
G75*
G02*
X59754103Y-122537105I0J-200000D01*
G01*
X59754103Y-122937105D01*
G75*
G02*
X59554103Y-123137105I-200000J0D01*
G01*
X59004103Y-123137105D01*
G75*
G02*
X58804103Y-122937105I0J200000D01*
G01*
X58804103Y-122537105D01*
G75*
G02*
X59004103Y-122337105I200000J0D01*
G01*
G37*
%TD.AperFunction*%
%TO.P,R5,1*%
%TO.N,/PC15*%
%TA.AperFunction,SMDPad,CuDef*%
G36*
G01*
X59004103Y-120687105D02*
X59554103Y-120687105D01*
G75*
G02*
X59754103Y-120887105I0J-200000D01*
G01*
X59754103Y-121287105D01*
G75*
G02*
X59554103Y-121487105I-200000J0D01*
G01*
X59004103Y-121487105D01*
G75*
G02*
X58804103Y-121287105I0J200000D01*
G01*
X58804103Y-120887105D01*
G75*
G02*
X59004103Y-120687105I200000J0D01*
G01*
G37*
%TD.AperFunction*%
%TD*%
%TO.P,R4,2*%
%TO.N,+3V3*%
%TA.AperFunction,SMDPad,CuDef*%
G36*
G01*
X50004103Y-122187105D02*
X50554103Y-122187105D01*
G75*
G02*
X50754103Y-122387105I0J-200000D01*
G01*
X50754103Y-122787105D01*
G75*
G02*
X50554103Y-122987105I-200000J0D01*
G01*
X50004103Y-122987105D01*
G75*
G02*
X49804103Y-122787105I0J200000D01*
G01*
X49804103Y-122387105D01*
G75*
G02*
X50004103Y-122187105I200000J0D01*
G01*
G37*
%TD.AperFunction*%
%TO.P,R4,1*%
%TO.N,/PC14*%
%TA.AperFunction,SMDPad,CuDef*%
G36*
G01*
X50004103Y-120537105D02*
X50554103Y-120537105D01*
G75*
G02*
X50754103Y-120737105I0J-200000D01*
G01*
X50754103Y-121137105D01*
G75*
G02*
X50554103Y-121337105I-200000J0D01*
G01*
X50004103Y-121337105D01*
G75*
G02*
X49804103Y-121137105I0J200000D01*
G01*
X49804103Y-120737105D01*
G75*
G02*
X50004103Y-120537105I200000J0D01*
G01*
G37*
%TD.AperFunction*%
%TD*%
%TO.P,R3,2*%
%TO.N,Net-(J9-Pad1)*%
%TA.AperFunction,SMDPad,CuDef*%
G36*
G01*
X63054103Y-119887105D02*
X62504103Y-119887105D01*
G75*
G02*
X62304103Y-119687105I0J200000D01*
G01*
X62304103Y-119287105D01*
G75*
G02*
X62504103Y-119087105I200000J0D01*
G01*
X63054103Y-119087105D01*
G75*
G02*
X63254103Y-119287105I0J-200000D01*
G01*
X63254103Y-119687105D01*
G75*
G02*
X63054103Y-119887105I-200000J0D01*
G01*
G37*
%TD.AperFunction*%
%TO.P,R3,1*%
%TO.N,/PC15*%
%TA.AperFunction,SMDPad,CuDef*%
G36*
G01*
X63054103Y-121537105D02*
X62504103Y-121537105D01*
G75*
G02*
X62304103Y-121337105I0J200000D01*
G01*
X62304103Y-120937105D01*
G75*
G02*
X62504103Y-120737105I200000J0D01*
G01*
X63054103Y-120737105D01*
G75*
G02*
X63254103Y-120937105I0J-200000D01*
G01*
X63254103Y-121337105D01*
G75*
G02*
X63054103Y-121537105I-200000J0D01*
G01*
G37*
%TD.AperFunction*%
%TD*%
%TO.P,R2,2*%
%TO.N,Net-(J8-Pad1)*%
%TA.AperFunction,SMDPad,CuDef*%
G36*
G01*
X54054103Y-119875000D02*
X53504103Y-119875000D01*
G75*
G02*
X53304103Y-119675000I0J200000D01*
G01*
X53304103Y-119275000D01*
G75*
G02*
X53504103Y-119075000I200000J0D01*
G01*
X54054103Y-119075000D01*
G75*
G02*
X54254103Y-119275000I0J-200000D01*
G01*
X54254103Y-119675000D01*
G75*
G02*
X54054103Y-119875000I-200000J0D01*
G01*
G37*
%TD.AperFunction*%
%TO.P,R2,1*%
%TO.N,/PC14*%
%TA.AperFunction,SMDPad,CuDef*%
G36*
G01*
X54054103Y-121525000D02*
X53504103Y-121525000D01*
G75*
G02*
X53304103Y-121325000I0J200000D01*
G01*
X53304103Y-120925000D01*
G75*
G02*
X53504103Y-120725000I200000J0D01*
G01*
X54054103Y-120725000D01*
G75*
G02*
X54254103Y-120925000I0J-200000D01*
G01*
X54254103Y-121325000D01*
G75*
G02*
X54054103Y-121525000I-200000J0D01*
G01*
G37*
%TD.AperFunction*%
%TD*%
D10*
%TO.P,JP4,2*%
%TO.N,Net-(J10-Pad3)*%
X91929103Y-105262105D03*
%TA.AperFunction,SMDPad,CuDef*%
D11*
%TO.P,JP4,3*%
%TO.N,/PB8_I2C1_SCL*%
G36*
X91179705Y-103962105D02*
G01*
X91179705Y-103937571D01*
X91184515Y-103888740D01*
X91194087Y-103840615D01*
X91208331Y-103793660D01*
X91227108Y-103748327D01*
X91250239Y-103705054D01*
X91277499Y-103664255D01*
X91308627Y-103626326D01*
X91343324Y-103591629D01*
X91381253Y-103560501D01*
X91422052Y-103533241D01*
X91465325Y-103510110D01*
X91510658Y-103491333D01*
X91557613Y-103477089D01*
X91605738Y-103467517D01*
X91654569Y-103462707D01*
X91679103Y-103462707D01*
X91679103Y-103462105D01*
X92179103Y-103462105D01*
X92179103Y-103462707D01*
X92203637Y-103462707D01*
X92252468Y-103467517D01*
X92300593Y-103477089D01*
X92347548Y-103491333D01*
X92392881Y-103510110D01*
X92436154Y-103533241D01*
X92476953Y-103560501D01*
X92514882Y-103591629D01*
X92549579Y-103626326D01*
X92580707Y-103664255D01*
X92607967Y-103705054D01*
X92631098Y-103748327D01*
X92649875Y-103793660D01*
X92664119Y-103840615D01*
X92673691Y-103888740D01*
X92678501Y-103937571D01*
X92678501Y-103962105D01*
X92679103Y-103962105D01*
X92679103Y-104512105D01*
X91179103Y-104512105D01*
X91179103Y-103962105D01*
X91179705Y-103962105D01*
G37*
%TD.AperFunction*%
%TA.AperFunction,SMDPad,CuDef*%
%TO.P,JP4,1*%
%TO.N,/PB3_SPI1_SCLK*%
G36*
X92679103Y-106012105D02*
G01*
X92679103Y-106562105D01*
X92678501Y-106562105D01*
X92678501Y-106586639D01*
X92673691Y-106635470D01*
X92664119Y-106683595D01*
X92649875Y-106730550D01*
X92631098Y-106775883D01*
X92607967Y-106819156D01*
X92580707Y-106859955D01*
X92549579Y-106897884D01*
X92514882Y-106932581D01*
X92476953Y-106963709D01*
X92436154Y-106990969D01*
X92392881Y-107014100D01*
X92347548Y-107032877D01*
X92300593Y-107047121D01*
X92252468Y-107056693D01*
X92203637Y-107061503D01*
X92179103Y-107061503D01*
X92179103Y-107062105D01*
X91679103Y-107062105D01*
X91679103Y-107061503D01*
X91654569Y-107061503D01*
X91605738Y-107056693D01*
X91557613Y-107047121D01*
X91510658Y-107032877D01*
X91465325Y-107014100D01*
X91422052Y-106990969D01*
X91381253Y-106963709D01*
X91343324Y-106932581D01*
X91308627Y-106897884D01*
X91277499Y-106859955D01*
X91250239Y-106819156D01*
X91227108Y-106775883D01*
X91208331Y-106730550D01*
X91194087Y-106683595D01*
X91184515Y-106635470D01*
X91179705Y-106586639D01*
X91179705Y-106562105D01*
X91179103Y-106562105D01*
X91179103Y-106012105D01*
X92679103Y-106012105D01*
G37*
%TD.AperFunction*%
%TD*%
D10*
%TO.P,JP3,2*%
%TO.N,Net-(J10-Pad2)*%
X92029103Y-111312105D03*
%TA.AperFunction,SMDPad,CuDef*%
D11*
%TO.P,JP3,3*%
%TO.N,/PB9_I2C1_SDA*%
G36*
X91279705Y-110012105D02*
G01*
X91279705Y-109987571D01*
X91284515Y-109938740D01*
X91294087Y-109890615D01*
X91308331Y-109843660D01*
X91327108Y-109798327D01*
X91350239Y-109755054D01*
X91377499Y-109714255D01*
X91408627Y-109676326D01*
X91443324Y-109641629D01*
X91481253Y-109610501D01*
X91522052Y-109583241D01*
X91565325Y-109560110D01*
X91610658Y-109541333D01*
X91657613Y-109527089D01*
X91705738Y-109517517D01*
X91754569Y-109512707D01*
X91779103Y-109512707D01*
X91779103Y-109512105D01*
X92279103Y-109512105D01*
X92279103Y-109512707D01*
X92303637Y-109512707D01*
X92352468Y-109517517D01*
X92400593Y-109527089D01*
X92447548Y-109541333D01*
X92492881Y-109560110D01*
X92536154Y-109583241D01*
X92576953Y-109610501D01*
X92614882Y-109641629D01*
X92649579Y-109676326D01*
X92680707Y-109714255D01*
X92707967Y-109755054D01*
X92731098Y-109798327D01*
X92749875Y-109843660D01*
X92764119Y-109890615D01*
X92773691Y-109938740D01*
X92778501Y-109987571D01*
X92778501Y-110012105D01*
X92779103Y-110012105D01*
X92779103Y-110562105D01*
X91279103Y-110562105D01*
X91279103Y-110012105D01*
X91279705Y-110012105D01*
G37*
%TD.AperFunction*%
%TA.AperFunction,SMDPad,CuDef*%
%TO.P,JP3,1*%
%TO.N,/PB5_SPI1_MOSI*%
G36*
X92779103Y-112062105D02*
G01*
X92779103Y-112612105D01*
X92778501Y-112612105D01*
X92778501Y-112636639D01*
X92773691Y-112685470D01*
X92764119Y-112733595D01*
X92749875Y-112780550D01*
X92731098Y-112825883D01*
X92707967Y-112869156D01*
X92680707Y-112909955D01*
X92649579Y-112947884D01*
X92614882Y-112982581D01*
X92576953Y-113013709D01*
X92536154Y-113040969D01*
X92492881Y-113064100D01*
X92447548Y-113082877D01*
X92400593Y-113097121D01*
X92352468Y-113106693D01*
X92303637Y-113111503D01*
X92279103Y-113111503D01*
X92279103Y-113112105D01*
X91779103Y-113112105D01*
X91779103Y-113111503D01*
X91754569Y-113111503D01*
X91705738Y-113106693D01*
X91657613Y-113097121D01*
X91610658Y-113082877D01*
X91565325Y-113064100D01*
X91522052Y-113040969D01*
X91481253Y-113013709D01*
X91443324Y-112982581D01*
X91408627Y-112947884D01*
X91377499Y-112909955D01*
X91350239Y-112869156D01*
X91327108Y-112825883D01*
X91308331Y-112780550D01*
X91294087Y-112733595D01*
X91284515Y-112685470D01*
X91279705Y-112636639D01*
X91279705Y-112612105D01*
X91279103Y-112612105D01*
X91279103Y-112062105D01*
X92779103Y-112062105D01*
G37*
%TD.AperFunction*%
%TD*%
D10*
%TO.P,JP2,2*%
%TO.N,Net-(J10-Pad1)*%
X43750000Y-126750000D03*
%TA.AperFunction,SMDPad,CuDef*%
D11*
%TO.P,JP2,3*%
%TO.N,+3V3*%
G36*
X44499398Y-128050000D02*
G01*
X44499398Y-128074534D01*
X44494588Y-128123365D01*
X44485016Y-128171490D01*
X44470772Y-128218445D01*
X44451995Y-128263778D01*
X44428864Y-128307051D01*
X44401604Y-128347850D01*
X44370476Y-128385779D01*
X44335779Y-128420476D01*
X44297850Y-128451604D01*
X44257051Y-128478864D01*
X44213778Y-128501995D01*
X44168445Y-128520772D01*
X44121490Y-128535016D01*
X44073365Y-128544588D01*
X44024534Y-128549398D01*
X44000000Y-128549398D01*
X44000000Y-128550000D01*
X43500000Y-128550000D01*
X43500000Y-128549398D01*
X43475466Y-128549398D01*
X43426635Y-128544588D01*
X43378510Y-128535016D01*
X43331555Y-128520772D01*
X43286222Y-128501995D01*
X43242949Y-128478864D01*
X43202150Y-128451604D01*
X43164221Y-128420476D01*
X43129524Y-128385779D01*
X43098396Y-128347850D01*
X43071136Y-128307051D01*
X43048005Y-128263778D01*
X43029228Y-128218445D01*
X43014984Y-128171490D01*
X43005412Y-128123365D01*
X43000602Y-128074534D01*
X43000602Y-128050000D01*
X43000000Y-128050000D01*
X43000000Y-127500000D01*
X44500000Y-127500000D01*
X44500000Y-128050000D01*
X44499398Y-128050000D01*
G37*
%TD.AperFunction*%
%TA.AperFunction,SMDPad,CuDef*%
%TO.P,JP2,1*%
%TO.N,+5V*%
G36*
X43000000Y-126000000D02*
G01*
X43000000Y-125450000D01*
X43000602Y-125450000D01*
X43000602Y-125425466D01*
X43005412Y-125376635D01*
X43014984Y-125328510D01*
X43029228Y-125281555D01*
X43048005Y-125236222D01*
X43071136Y-125192949D01*
X43098396Y-125152150D01*
X43129524Y-125114221D01*
X43164221Y-125079524D01*
X43202150Y-125048396D01*
X43242949Y-125021136D01*
X43286222Y-124998005D01*
X43331555Y-124979228D01*
X43378510Y-124964984D01*
X43426635Y-124955412D01*
X43475466Y-124950602D01*
X43500000Y-124950602D01*
X43500000Y-124950000D01*
X44000000Y-124950000D01*
X44000000Y-124950602D01*
X44024534Y-124950602D01*
X44073365Y-124955412D01*
X44121490Y-124964984D01*
X44168445Y-124979228D01*
X44213778Y-124998005D01*
X44257051Y-125021136D01*
X44297850Y-125048396D01*
X44335779Y-125079524D01*
X44370476Y-125114221D01*
X44401604Y-125152150D01*
X44428864Y-125192949D01*
X44451995Y-125236222D01*
X44470772Y-125281555D01*
X44485016Y-125328510D01*
X44494588Y-125376635D01*
X44499398Y-125425466D01*
X44499398Y-125450000D01*
X44500000Y-125450000D01*
X44500000Y-126000000D01*
X43000000Y-126000000D01*
G37*
%TD.AperFunction*%
%TD*%
%TO.P,J10,MP*%
%TO.N,N/C*%
%TA.AperFunction,SMDPad,CuDef*%
G36*
G01*
X57429103Y-130552105D02*
X57429103Y-128352105D01*
G75*
G02*
X57679103Y-128102105I250000J0D01*
G01*
X58179103Y-128102105D01*
G75*
G02*
X58429103Y-128352105I0J-250000D01*
G01*
X58429103Y-130552105D01*
G75*
G02*
X58179103Y-130802105I-250000J0D01*
G01*
X57679103Y-130802105D01*
G75*
G02*
X57429103Y-130552105I0J250000D01*
G01*
G37*
%TD.AperFunction*%
%TA.AperFunction,SMDPad,CuDef*%
G36*
G01*
X46229103Y-130552105D02*
X46229103Y-128352105D01*
G75*
G02*
X46479103Y-128102105I250000J0D01*
G01*
X46979103Y-128102105D01*
G75*
G02*
X47229103Y-128352105I0J-250000D01*
G01*
X47229103Y-130552105D01*
G75*
G02*
X46979103Y-130802105I-250000J0D01*
G01*
X46479103Y-130802105D01*
G75*
G02*
X46229103Y-130552105I0J250000D01*
G01*
G37*
%TD.AperFunction*%
%TO.P,J10,7*%
%TO.N,GND*%
%TA.AperFunction,SMDPad,CuDef*%
G36*
G01*
X55779103Y-126952105D02*
X55779103Y-125552105D01*
G75*
G02*
X55929103Y-125402105I150000J0D01*
G01*
X56229103Y-125402105D01*
G75*
G02*
X56379103Y-125552105I0J-150000D01*
G01*
X56379103Y-126952105D01*
G75*
G02*
X56229103Y-127102105I-150000J0D01*
G01*
X55929103Y-127102105D01*
G75*
G02*
X55779103Y-126952105I0J150000D01*
G01*
G37*
%TD.AperFunction*%
%TO.P,J10,6*%
%TO.N,/PB1*%
%TA.AperFunction,SMDPad,CuDef*%
G36*
G01*
X54529103Y-126952105D02*
X54529103Y-125552105D01*
G75*
G02*
X54679103Y-125402105I150000J0D01*
G01*
X54979103Y-125402105D01*
G75*
G02*
X55129103Y-125552105I0J-150000D01*
G01*
X55129103Y-126952105D01*
G75*
G02*
X54979103Y-127102105I-150000J0D01*
G01*
X54679103Y-127102105D01*
G75*
G02*
X54529103Y-126952105I0J150000D01*
G01*
G37*
%TD.AperFunction*%
%TO.P,J10,5*%
%TO.N,/PB2*%
%TA.AperFunction,SMDPad,CuDef*%
G36*
G01*
X53279103Y-126952105D02*
X53279103Y-125552105D01*
G75*
G02*
X53429103Y-125402105I150000J0D01*
G01*
X53729103Y-125402105D01*
G75*
G02*
X53879103Y-125552105I0J-150000D01*
G01*
X53879103Y-126952105D01*
G75*
G02*
X53729103Y-127102105I-150000J0D01*
G01*
X53429103Y-127102105D01*
G75*
G02*
X53279103Y-126952105I0J150000D01*
G01*
G37*
%TD.AperFunction*%
%TO.P,J10,4*%
%TO.N,/PB4_SPI1_MISO*%
%TA.AperFunction,SMDPad,CuDef*%
G36*
G01*
X52029103Y-126952105D02*
X52029103Y-125552105D01*
G75*
G02*
X52179103Y-125402105I150000J0D01*
G01*
X52479103Y-125402105D01*
G75*
G02*
X52629103Y-125552105I0J-150000D01*
G01*
X52629103Y-126952105D01*
G75*
G02*
X52479103Y-127102105I-150000J0D01*
G01*
X52179103Y-127102105D01*
G75*
G02*
X52029103Y-126952105I0J150000D01*
G01*
G37*
%TD.AperFunction*%
%TO.P,J10,3*%
%TO.N,Net-(J10-Pad3)*%
%TA.AperFunction,SMDPad,CuDef*%
G36*
G01*
X50779103Y-126952105D02*
X50779103Y-125552105D01*
G75*
G02*
X50929103Y-125402105I150000J0D01*
G01*
X51229103Y-125402105D01*
G75*
G02*
X51379103Y-125552105I0J-150000D01*
G01*
X51379103Y-126952105D01*
G75*
G02*
X51229103Y-127102105I-150000J0D01*
G01*
X50929103Y-127102105D01*
G75*
G02*
X50779103Y-126952105I0J150000D01*
G01*
G37*
%TD.AperFunction*%
%TO.P,J10,2*%
%TO.N,Net-(J10-Pad2)*%
%TA.AperFunction,SMDPad,CuDef*%
G36*
G01*
X49529103Y-126952105D02*
X49529103Y-125552105D01*
G75*
G02*
X49679103Y-125402105I150000J0D01*
G01*
X49979103Y-125402105D01*
G75*
G02*
X50129103Y-125552105I0J-150000D01*
G01*
X50129103Y-126952105D01*
G75*
G02*
X49979103Y-127102105I-150000J0D01*
G01*
X49679103Y-127102105D01*
G75*
G02*
X49529103Y-126952105I0J150000D01*
G01*
G37*
%TD.AperFunction*%
%TO.P,J10,1*%
%TO.N,Net-(J10-Pad1)*%
%TA.AperFunction,SMDPad,CuDef*%
G36*
G01*
X48279103Y-126952105D02*
X48279103Y-125552105D01*
G75*
G02*
X48429103Y-125402105I150000J0D01*
G01*
X48729103Y-125402105D01*
G75*
G02*
X48879103Y-125552105I0J-150000D01*
G01*
X48879103Y-126952105D01*
G75*
G02*
X48729103Y-127102105I-150000J0D01*
G01*
X48429103Y-127102105D01*
G75*
G02*
X48279103Y-126952105I0J150000D01*
G01*
G37*
%TD.AperFunction*%
%TD*%
%TO.P,J9,MP*%
%TO.N,N/C*%
%TA.AperFunction,SMDPad,CuDef*%
G36*
G01*
X58354103Y-113162105D02*
X58354103Y-115362105D01*
G75*
G02*
X58104103Y-115612105I-250000J0D01*
G01*
X57604103Y-115612105D01*
G75*
G02*
X57354103Y-115362105I0J250000D01*
G01*
X57354103Y-113162105D01*
G75*
G02*
X57604103Y-112912105I250000J0D01*
G01*
X58104103Y-112912105D01*
G75*
G02*
X58354103Y-113162105I0J-250000D01*
G01*
G37*
%TD.AperFunction*%
%TA.AperFunction,SMDPad,CuDef*%
G36*
G01*
X63304103Y-113162105D02*
X63304103Y-115362105D01*
G75*
G02*
X63054103Y-115612105I-250000J0D01*
G01*
X62554103Y-115612105D01*
G75*
G02*
X62304103Y-115362105I0J250000D01*
G01*
X62304103Y-113162105D01*
G75*
G02*
X62554103Y-112912105I250000J0D01*
G01*
X63054103Y-112912105D01*
G75*
G02*
X63304103Y-113162105I0J-250000D01*
G01*
G37*
%TD.AperFunction*%
%TO.P,J9,2*%
%TO.N,GND*%
%TA.AperFunction,SMDPad,CuDef*%
G36*
G01*
X60004103Y-116762105D02*
X60004103Y-118162105D01*
G75*
G02*
X59854103Y-118312105I-150000J0D01*
G01*
X59554103Y-118312105D01*
G75*
G02*
X59404103Y-118162105I0J150000D01*
G01*
X59404103Y-116762105D01*
G75*
G02*
X59554103Y-116612105I150000J0D01*
G01*
X59854103Y-116612105D01*
G75*
G02*
X60004103Y-116762105I0J-150000D01*
G01*
G37*
%TD.AperFunction*%
%TO.P,J9,1*%
%TO.N,Net-(J9-Pad1)*%
%TA.AperFunction,SMDPad,CuDef*%
G36*
G01*
X61254103Y-116762105D02*
X61254103Y-118162105D01*
G75*
G02*
X61104103Y-118312105I-150000J0D01*
G01*
X60804103Y-118312105D01*
G75*
G02*
X60654103Y-118162105I0J150000D01*
G01*
X60654103Y-116762105D01*
G75*
G02*
X60804103Y-116612105I150000J0D01*
G01*
X61104103Y-116612105D01*
G75*
G02*
X61254103Y-116762105I0J-150000D01*
G01*
G37*
%TD.AperFunction*%
%TD*%
%TO.P,J8,MP*%
%TO.N,N/C*%
%TA.AperFunction,SMDPad,CuDef*%
G36*
G01*
X49414103Y-113162105D02*
X49414103Y-115362105D01*
G75*
G02*
X49164103Y-115612105I-250000J0D01*
G01*
X48664103Y-115612105D01*
G75*
G02*
X48414103Y-115362105I0J250000D01*
G01*
X48414103Y-113162105D01*
G75*
G02*
X48664103Y-112912105I250000J0D01*
G01*
X49164103Y-112912105D01*
G75*
G02*
X49414103Y-113162105I0J-250000D01*
G01*
G37*
%TD.AperFunction*%
%TA.AperFunction,SMDPad,CuDef*%
G36*
G01*
X54364103Y-113162105D02*
X54364103Y-115362105D01*
G75*
G02*
X54114103Y-115612105I-250000J0D01*
G01*
X53614103Y-115612105D01*
G75*
G02*
X53364103Y-115362105I0J250000D01*
G01*
X53364103Y-113162105D01*
G75*
G02*
X53614103Y-112912105I250000J0D01*
G01*
X54114103Y-112912105D01*
G75*
G02*
X54364103Y-113162105I0J-250000D01*
G01*
G37*
%TD.AperFunction*%
%TO.P,J8,2*%
%TO.N,GND*%
%TA.AperFunction,SMDPad,CuDef*%
G36*
G01*
X51064103Y-116762105D02*
X51064103Y-118162105D01*
G75*
G02*
X50914103Y-118312105I-150000J0D01*
G01*
X50614103Y-118312105D01*
G75*
G02*
X50464103Y-118162105I0J150000D01*
G01*
X50464103Y-116762105D01*
G75*
G02*
X50614103Y-116612105I150000J0D01*
G01*
X50914103Y-116612105D01*
G75*
G02*
X51064103Y-116762105I0J-150000D01*
G01*
G37*
%TD.AperFunction*%
%TO.P,J8,1*%
%TO.N,Net-(J8-Pad1)*%
%TA.AperFunction,SMDPad,CuDef*%
G36*
G01*
X52314103Y-116762105D02*
X52314103Y-118162105D01*
G75*
G02*
X52164103Y-118312105I-150000J0D01*
G01*
X51864103Y-118312105D01*
G75*
G02*
X51714103Y-118162105I0J150000D01*
G01*
X51714103Y-116762105D01*
G75*
G02*
X51864103Y-116612105I150000J0D01*
G01*
X52164103Y-116612105D01*
G75*
G02*
X52314103Y-116762105I0J-150000D01*
G01*
G37*
%TD.AperFunction*%
%TD*%
%TO.P,J7,MP*%
%TO.N,N/C*%
%TA.AperFunction,SMDPad,CuDef*%
G36*
G01*
X67429103Y-130552105D02*
X67429103Y-128352105D01*
G75*
G02*
X67679103Y-128102105I250000J0D01*
G01*
X68179103Y-128102105D01*
G75*
G02*
X68429103Y-128352105I0J-250000D01*
G01*
X68429103Y-130552105D01*
G75*
G02*
X68179103Y-130802105I-250000J0D01*
G01*
X67679103Y-130802105D01*
G75*
G02*
X67429103Y-130552105I0J250000D01*
G01*
G37*
%TD.AperFunction*%
%TA.AperFunction,SMDPad,CuDef*%
G36*
G01*
X61229103Y-130552105D02*
X61229103Y-128352105D01*
G75*
G02*
X61479103Y-128102105I250000J0D01*
G01*
X61979103Y-128102105D01*
G75*
G02*
X62229103Y-128352105I0J-250000D01*
G01*
X62229103Y-130552105D01*
G75*
G02*
X61979103Y-130802105I-250000J0D01*
G01*
X61479103Y-130802105D01*
G75*
G02*
X61229103Y-130552105I0J250000D01*
G01*
G37*
%TD.AperFunction*%
%TO.P,J7,3*%
%TO.N,GND*%
%TA.AperFunction,SMDPad,CuDef*%
G36*
G01*
X65779103Y-126952105D02*
X65779103Y-125552105D01*
G75*
G02*
X65929103Y-125402105I150000J0D01*
G01*
X66229103Y-125402105D01*
G75*
G02*
X66379103Y-125552105I0J-150000D01*
G01*
X66379103Y-126952105D01*
G75*
G02*
X66229103Y-127102105I-150000J0D01*
G01*
X65929103Y-127102105D01*
G75*
G02*
X65779103Y-126952105I0J150000D01*
G01*
G37*
%TD.AperFunction*%
%TO.P,J7,2*%
%TO.N,/PA_0_ADC1_0*%
%TA.AperFunction,SMDPad,CuDef*%
G36*
G01*
X64529103Y-126952105D02*
X64529103Y-125552105D01*
G75*
G02*
X64679103Y-125402105I150000J0D01*
G01*
X64979103Y-125402105D01*
G75*
G02*
X65129103Y-125552105I0J-150000D01*
G01*
X65129103Y-126952105D01*
G75*
G02*
X64979103Y-127102105I-150000J0D01*
G01*
X64679103Y-127102105D01*
G75*
G02*
X64529103Y-126952105I0J150000D01*
G01*
G37*
%TD.AperFunction*%
%TO.P,J7,1*%
%TO.N,+3V3*%
%TA.AperFunction,SMDPad,CuDef*%
G36*
G01*
X63279103Y-126952105D02*
X63279103Y-125552105D01*
G75*
G02*
X63429103Y-125402105I150000J0D01*
G01*
X63729103Y-125402105D01*
G75*
G02*
X63879103Y-125552105I0J-150000D01*
G01*
X63879103Y-126952105D01*
G75*
G02*
X63729103Y-127102105I-150000J0D01*
G01*
X63429103Y-127102105D01*
G75*
G02*
X63279103Y-126952105I0J150000D01*
G01*
G37*
%TD.AperFunction*%
%TD*%
%TO.P,J6,MP*%
%TO.N,N/C*%
%TA.AperFunction,SMDPad,CuDef*%
G36*
G01*
X77429103Y-130552105D02*
X77429103Y-128352105D01*
G75*
G02*
X77679103Y-128102105I250000J0D01*
G01*
X78179103Y-128102105D01*
G75*
G02*
X78429103Y-128352105I0J-250000D01*
G01*
X78429103Y-130552105D01*
G75*
G02*
X78179103Y-130802105I-250000J0D01*
G01*
X77679103Y-130802105D01*
G75*
G02*
X77429103Y-130552105I0J250000D01*
G01*
G37*
%TD.AperFunction*%
%TA.AperFunction,SMDPad,CuDef*%
G36*
G01*
X71229103Y-130552105D02*
X71229103Y-128352105D01*
G75*
G02*
X71479103Y-128102105I250000J0D01*
G01*
X71979103Y-128102105D01*
G75*
G02*
X72229103Y-128352105I0J-250000D01*
G01*
X72229103Y-130552105D01*
G75*
G02*
X71979103Y-130802105I-250000J0D01*
G01*
X71479103Y-130802105D01*
G75*
G02*
X71229103Y-130552105I0J250000D01*
G01*
G37*
%TD.AperFunction*%
%TO.P,J6,3*%
%TO.N,GND*%
%TA.AperFunction,SMDPad,CuDef*%
G36*
G01*
X75779103Y-126952105D02*
X75779103Y-125552105D01*
G75*
G02*
X75929103Y-125402105I150000J0D01*
G01*
X76229103Y-125402105D01*
G75*
G02*
X76379103Y-125552105I0J-150000D01*
G01*
X76379103Y-126952105D01*
G75*
G02*
X76229103Y-127102105I-150000J0D01*
G01*
X75929103Y-127102105D01*
G75*
G02*
X75779103Y-126952105I0J150000D01*
G01*
G37*
%TD.AperFunction*%
%TO.P,J6,2*%
%TO.N,/PA1_ADC1_1*%
%TA.AperFunction,SMDPad,CuDef*%
G36*
G01*
X74529103Y-126952105D02*
X74529103Y-125552105D01*
G75*
G02*
X74679103Y-125402105I150000J0D01*
G01*
X74979103Y-125402105D01*
G75*
G02*
X75129103Y-125552105I0J-150000D01*
G01*
X75129103Y-126952105D01*
G75*
G02*
X74979103Y-127102105I-150000J0D01*
G01*
X74679103Y-127102105D01*
G75*
G02*
X74529103Y-126952105I0J150000D01*
G01*
G37*
%TD.AperFunction*%
%TO.P,J6,1*%
%TO.N,+3V3*%
%TA.AperFunction,SMDPad,CuDef*%
G36*
G01*
X73279103Y-126952105D02*
X73279103Y-125552105D01*
G75*
G02*
X73429103Y-125402105I150000J0D01*
G01*
X73729103Y-125402105D01*
G75*
G02*
X73879103Y-125552105I0J-150000D01*
G01*
X73879103Y-126952105D01*
G75*
G02*
X73729103Y-127102105I-150000J0D01*
G01*
X73429103Y-127102105D01*
G75*
G02*
X73279103Y-126952105I0J150000D01*
G01*
G37*
%TD.AperFunction*%
%TD*%
%TO.P,R1,2*%
%TO.N,/PC6_CRANK_SIG*%
%TA.AperFunction,SMDPad,CuDef*%
G36*
G01*
X84254103Y-124087105D02*
X84254103Y-123537105D01*
G75*
G02*
X84454103Y-123337105I200000J0D01*
G01*
X84854103Y-123337105D01*
G75*
G02*
X85054103Y-123537105I0J-200000D01*
G01*
X85054103Y-124087105D01*
G75*
G02*
X84854103Y-124287105I-200000J0D01*
G01*
X84454103Y-124287105D01*
G75*
G02*
X84254103Y-124087105I0J200000D01*
G01*
G37*
%TD.AperFunction*%
%TO.P,R1,1*%
%TO.N,+3V3*%
%TA.AperFunction,SMDPad,CuDef*%
G36*
G01*
X82604103Y-124087105D02*
X82604103Y-123537105D01*
G75*
G02*
X82804103Y-123337105I200000J0D01*
G01*
X83204103Y-123337105D01*
G75*
G02*
X83404103Y-123537105I0J-200000D01*
G01*
X83404103Y-124087105D01*
G75*
G02*
X83204103Y-124287105I-200000J0D01*
G01*
X82804103Y-124287105D01*
G75*
G02*
X82604103Y-124087105I0J200000D01*
G01*
G37*
%TD.AperFunction*%
%TD*%
%TO.P,J5,MP*%
%TO.N,N/C*%
%TA.AperFunction,SMDPad,CuDef*%
G36*
G01*
X87429103Y-130552105D02*
X87429103Y-128352105D01*
G75*
G02*
X87679103Y-128102105I250000J0D01*
G01*
X88179103Y-128102105D01*
G75*
G02*
X88429103Y-128352105I0J-250000D01*
G01*
X88429103Y-130552105D01*
G75*
G02*
X88179103Y-130802105I-250000J0D01*
G01*
X87679103Y-130802105D01*
G75*
G02*
X87429103Y-130552105I0J250000D01*
G01*
G37*
%TD.AperFunction*%
%TA.AperFunction,SMDPad,CuDef*%
G36*
G01*
X81229103Y-130552105D02*
X81229103Y-128352105D01*
G75*
G02*
X81479103Y-128102105I250000J0D01*
G01*
X81979103Y-128102105D01*
G75*
G02*
X82229103Y-128352105I0J-250000D01*
G01*
X82229103Y-130552105D01*
G75*
G02*
X81979103Y-130802105I-250000J0D01*
G01*
X81479103Y-130802105D01*
G75*
G02*
X81229103Y-130552105I0J250000D01*
G01*
G37*
%TD.AperFunction*%
%TO.P,J5,3*%
%TO.N,GND*%
%TA.AperFunction,SMDPad,CuDef*%
G36*
G01*
X85779103Y-126952105D02*
X85779103Y-125552105D01*
G75*
G02*
X85929103Y-125402105I150000J0D01*
G01*
X86229103Y-125402105D01*
G75*
G02*
X86379103Y-125552105I0J-150000D01*
G01*
X86379103Y-126952105D01*
G75*
G02*
X86229103Y-127102105I-150000J0D01*
G01*
X85929103Y-127102105D01*
G75*
G02*
X85779103Y-126952105I0J150000D01*
G01*
G37*
%TD.AperFunction*%
%TO.P,J5,2*%
%TO.N,/PC6_CRANK_SIG*%
%TA.AperFunction,SMDPad,CuDef*%
G36*
G01*
X84529103Y-126952105D02*
X84529103Y-125552105D01*
G75*
G02*
X84679103Y-125402105I150000J0D01*
G01*
X84979103Y-125402105D01*
G75*
G02*
X85129103Y-125552105I0J-150000D01*
G01*
X85129103Y-126952105D01*
G75*
G02*
X84979103Y-127102105I-150000J0D01*
G01*
X84679103Y-127102105D01*
G75*
G02*
X84529103Y-126952105I0J150000D01*
G01*
G37*
%TD.AperFunction*%
%TO.P,J5,1*%
%TO.N,+3V3*%
%TA.AperFunction,SMDPad,CuDef*%
G36*
G01*
X83279103Y-126952105D02*
X83279103Y-125552105D01*
G75*
G02*
X83429103Y-125402105I150000J0D01*
G01*
X83729103Y-125402105D01*
G75*
G02*
X83879103Y-125552105I0J-150000D01*
G01*
X83879103Y-126952105D01*
G75*
G02*
X83729103Y-127102105I-150000J0D01*
G01*
X83429103Y-127102105D01*
G75*
G02*
X83279103Y-126952105I0J150000D01*
G01*
G37*
%TD.AperFunction*%
%TD*%
%TO.P,J4,MP*%
%TO.N,N/C*%
%TA.AperFunction,SMDPad,CuDef*%
G36*
G01*
X67464103Y-113162105D02*
X67464103Y-115362105D01*
G75*
G02*
X67214103Y-115612105I-250000J0D01*
G01*
X66714103Y-115612105D01*
G75*
G02*
X66464103Y-115362105I0J250000D01*
G01*
X66464103Y-113162105D01*
G75*
G02*
X66714103Y-112912105I250000J0D01*
G01*
X67214103Y-112912105D01*
G75*
G02*
X67464103Y-113162105I0J-250000D01*
G01*
G37*
%TD.AperFunction*%
%TA.AperFunction,SMDPad,CuDef*%
G36*
G01*
X74914103Y-113162105D02*
X74914103Y-115362105D01*
G75*
G02*
X74664103Y-115612105I-250000J0D01*
G01*
X74164103Y-115612105D01*
G75*
G02*
X73914103Y-115362105I0J250000D01*
G01*
X73914103Y-113162105D01*
G75*
G02*
X74164103Y-112912105I250000J0D01*
G01*
X74664103Y-112912105D01*
G75*
G02*
X74914103Y-113162105I0J-250000D01*
G01*
G37*
%TD.AperFunction*%
%TO.P,J4,4*%
%TO.N,GND*%
%TA.AperFunction,SMDPad,CuDef*%
G36*
G01*
X69114103Y-116762105D02*
X69114103Y-118162105D01*
G75*
G02*
X68964103Y-118312105I-150000J0D01*
G01*
X68664103Y-118312105D01*
G75*
G02*
X68514103Y-118162105I0J150000D01*
G01*
X68514103Y-116762105D01*
G75*
G02*
X68664103Y-116612105I150000J0D01*
G01*
X68964103Y-116612105D01*
G75*
G02*
X69114103Y-116762105I0J-150000D01*
G01*
G37*
%TD.AperFunction*%
%TO.P,J4,3*%
%TO.N,/PA_2_UART2_TX*%
%TA.AperFunction,SMDPad,CuDef*%
G36*
G01*
X70364103Y-116762105D02*
X70364103Y-118162105D01*
G75*
G02*
X70214103Y-118312105I-150000J0D01*
G01*
X69914103Y-118312105D01*
G75*
G02*
X69764103Y-118162105I0J150000D01*
G01*
X69764103Y-116762105D01*
G75*
G02*
X69914103Y-116612105I150000J0D01*
G01*
X70214103Y-116612105D01*
G75*
G02*
X70364103Y-116762105I0J-150000D01*
G01*
G37*
%TD.AperFunction*%
%TO.P,J4,2*%
%TO.N,/PA_3_UART2_RX*%
%TA.AperFunction,SMDPad,CuDef*%
G36*
G01*
X71614103Y-116762105D02*
X71614103Y-118162105D01*
G75*
G02*
X71464103Y-118312105I-150000J0D01*
G01*
X71164103Y-118312105D01*
G75*
G02*
X71014103Y-118162105I0J150000D01*
G01*
X71014103Y-116762105D01*
G75*
G02*
X71164103Y-116612105I150000J0D01*
G01*
X71464103Y-116612105D01*
G75*
G02*
X71614103Y-116762105I0J-150000D01*
G01*
G37*
%TD.AperFunction*%
%TO.P,J4,1*%
%TO.N,Net-(J4-Pad1)*%
%TA.AperFunction,SMDPad,CuDef*%
G36*
G01*
X72864103Y-116762105D02*
X72864103Y-118162105D01*
G75*
G02*
X72714103Y-118312105I-150000J0D01*
G01*
X72414103Y-118312105D01*
G75*
G02*
X72264103Y-118162105I0J150000D01*
G01*
X72264103Y-116762105D01*
G75*
G02*
X72414103Y-116612105I150000J0D01*
G01*
X72714103Y-116612105D01*
G75*
G02*
X72864103Y-116762105I0J-150000D01*
G01*
G37*
%TD.AperFunction*%
%TD*%
%TO.P,J3,MP*%
%TO.N,N/C*%
%TA.AperFunction,SMDPad,CuDef*%
G36*
G01*
X79104103Y-113162105D02*
X79104103Y-115362105D01*
G75*
G02*
X78854103Y-115612105I-250000J0D01*
G01*
X78354103Y-115612105D01*
G75*
G02*
X78104103Y-115362105I0J250000D01*
G01*
X78104103Y-113162105D01*
G75*
G02*
X78354103Y-112912105I250000J0D01*
G01*
X78854103Y-112912105D01*
G75*
G02*
X79104103Y-113162105I0J-250000D01*
G01*
G37*
%TD.AperFunction*%
%TA.AperFunction,SMDPad,CuDef*%
G36*
G01*
X86554103Y-113162105D02*
X86554103Y-115362105D01*
G75*
G02*
X86304103Y-115612105I-250000J0D01*
G01*
X85804103Y-115612105D01*
G75*
G02*
X85554103Y-115362105I0J250000D01*
G01*
X85554103Y-113162105D01*
G75*
G02*
X85804103Y-112912105I250000J0D01*
G01*
X86304103Y-112912105D01*
G75*
G02*
X86554103Y-113162105I0J-250000D01*
G01*
G37*
%TD.AperFunction*%
%TO.P,J3,4*%
%TO.N,GND*%
%TA.AperFunction,SMDPad,CuDef*%
G36*
G01*
X80754103Y-116762105D02*
X80754103Y-118162105D01*
G75*
G02*
X80604103Y-118312105I-150000J0D01*
G01*
X80304103Y-118312105D01*
G75*
G02*
X80154103Y-118162105I0J150000D01*
G01*
X80154103Y-116762105D01*
G75*
G02*
X80304103Y-116612105I150000J0D01*
G01*
X80604103Y-116612105D01*
G75*
G02*
X80754103Y-116762105I0J-150000D01*
G01*
G37*
%TD.AperFunction*%
%TO.P,J3,3*%
%TO.N,/PA_11_UART6_TX*%
%TA.AperFunction,SMDPad,CuDef*%
G36*
G01*
X82004103Y-116762105D02*
X82004103Y-118162105D01*
G75*
G02*
X81854103Y-118312105I-150000J0D01*
G01*
X81554103Y-118312105D01*
G75*
G02*
X81404103Y-118162105I0J150000D01*
G01*
X81404103Y-116762105D01*
G75*
G02*
X81554103Y-116612105I150000J0D01*
G01*
X81854103Y-116612105D01*
G75*
G02*
X82004103Y-116762105I0J-150000D01*
G01*
G37*
%TD.AperFunction*%
%TO.P,J3,2*%
%TO.N,/PA_12_UART6_RX*%
%TA.AperFunction,SMDPad,CuDef*%
G36*
G01*
X83254103Y-116762105D02*
X83254103Y-118162105D01*
G75*
G02*
X83104103Y-118312105I-150000J0D01*
G01*
X82804103Y-118312105D01*
G75*
G02*
X82654103Y-118162105I0J150000D01*
G01*
X82654103Y-116762105D01*
G75*
G02*
X82804103Y-116612105I150000J0D01*
G01*
X83104103Y-116612105D01*
G75*
G02*
X83254103Y-116762105I0J-150000D01*
G01*
G37*
%TD.AperFunction*%
%TO.P,J3,1*%
%TO.N,+5V*%
%TA.AperFunction,SMDPad,CuDef*%
G36*
G01*
X84504103Y-116762105D02*
X84504103Y-118162105D01*
G75*
G02*
X84354103Y-118312105I-150000J0D01*
G01*
X84054103Y-118312105D01*
G75*
G02*
X83904103Y-118162105I0J150000D01*
G01*
X83904103Y-116762105D01*
G75*
G02*
X84054103Y-116612105I150000J0D01*
G01*
X84354103Y-116612105D01*
G75*
G02*
X84504103Y-116762105I0J-150000D01*
G01*
G37*
%TD.AperFunction*%
%TD*%
%TA.AperFunction,SMDPad,CuDef*%
%TO.P,JP1,2*%
%TO.N,+5V*%
G36*
X75679103Y-119350602D02*
G01*
X75703637Y-119350602D01*
X75752468Y-119355412D01*
X75800593Y-119364984D01*
X75847548Y-119379228D01*
X75892881Y-119398005D01*
X75936154Y-119421136D01*
X75976953Y-119448396D01*
X76014882Y-119479524D01*
X76049579Y-119514221D01*
X76080707Y-119552150D01*
X76107967Y-119592949D01*
X76131098Y-119636222D01*
X76149875Y-119681555D01*
X76164119Y-119728510D01*
X76173691Y-119776635D01*
X76178501Y-119825466D01*
X76178501Y-119850000D01*
X76179103Y-119850000D01*
X76179103Y-120350000D01*
X76178501Y-120350000D01*
X76178501Y-120374534D01*
X76173691Y-120423365D01*
X76164119Y-120471490D01*
X76149875Y-120518445D01*
X76131098Y-120563778D01*
X76107967Y-120607051D01*
X76080707Y-120647850D01*
X76049579Y-120685779D01*
X76014882Y-120720476D01*
X75976953Y-120751604D01*
X75936154Y-120778864D01*
X75892881Y-120801995D01*
X75847548Y-120820772D01*
X75800593Y-120835016D01*
X75752468Y-120844588D01*
X75703637Y-120849398D01*
X75679103Y-120849398D01*
X75679103Y-120850000D01*
X75179103Y-120850000D01*
X75179103Y-119350000D01*
X75679103Y-119350000D01*
X75679103Y-119350602D01*
G37*
%TD.AperFunction*%
%TA.AperFunction,SMDPad,CuDef*%
%TO.P,JP1,1*%
%TO.N,Net-(J4-Pad1)*%
G36*
X74879103Y-120850000D02*
G01*
X74379103Y-120850000D01*
X74379103Y-120849398D01*
X74354569Y-120849398D01*
X74305738Y-120844588D01*
X74257613Y-120835016D01*
X74210658Y-120820772D01*
X74165325Y-120801995D01*
X74122052Y-120778864D01*
X74081253Y-120751604D01*
X74043324Y-120720476D01*
X74008627Y-120685779D01*
X73977499Y-120647850D01*
X73950239Y-120607051D01*
X73927108Y-120563778D01*
X73908331Y-120518445D01*
X73894087Y-120471490D01*
X73884515Y-120423365D01*
X73879705Y-120374534D01*
X73879705Y-120350000D01*
X73879103Y-120350000D01*
X73879103Y-119850000D01*
X73879705Y-119850000D01*
X73879705Y-119825466D01*
X73884515Y-119776635D01*
X73894087Y-119728510D01*
X73908331Y-119681555D01*
X73927108Y-119636222D01*
X73950239Y-119592949D01*
X73977499Y-119552150D01*
X74008627Y-119514221D01*
X74043324Y-119479524D01*
X74081253Y-119448396D01*
X74122052Y-119421136D01*
X74165325Y-119398005D01*
X74210658Y-119379228D01*
X74257613Y-119364984D01*
X74305738Y-119355412D01*
X74354569Y-119350602D01*
X74379103Y-119350602D01*
X74379103Y-119350000D01*
X74879103Y-119350000D01*
X74879103Y-120850000D01*
G37*
%TD.AperFunction*%
%TD*%
D12*
%TO.P,J2,38*%
%TO.N,N/C*%
X99279103Y-147272105D03*
%TO.P,J2,37*%
%TO.N,/PA_3_UART2_RX*%
X96739103Y-147272105D03*
%TO.P,J2,36*%
%TO.N,N/C*%
X99279103Y-144732105D03*
%TO.P,J2,35*%
%TO.N,/PA_2_UART2_TX*%
X96739103Y-144732105D03*
%TO.P,J2,34*%
%TO.N,N/C*%
X99279103Y-142192105D03*
%TO.P,J2,33*%
X96739103Y-142192105D03*
%TO.P,J2,32*%
%TO.N,GND*%
X99279103Y-139652105D03*
%TO.P,J2,31*%
%TO.N,/PB3_SPI1_SCLK*%
X96739103Y-139652105D03*
%TO.P,J2,30*%
%TO.N,N/C*%
X99279103Y-137112105D03*
%TO.P,J2,29*%
%TO.N,/PB5_SPI1_MOSI*%
X96739103Y-137112105D03*
%TO.P,J2,28*%
%TO.N,N/C*%
X99279103Y-134572105D03*
%TO.P,J2,27*%
%TO.N,/PB4_SPI1_MISO*%
X96739103Y-134572105D03*
%TO.P,J2,26*%
%TO.N,N/C*%
X99279103Y-132032105D03*
%TO.P,J2,25*%
X96739103Y-132032105D03*
%TO.P,J2,24*%
%TO.N,/PB1*%
X99279103Y-129492105D03*
%TO.P,J2,23*%
%TO.N,N/C*%
X96739103Y-129492105D03*
%TO.P,J2,22*%
%TO.N,/PB2*%
X99279103Y-126952105D03*
%TO.P,J2,21*%
%TO.N,N/C*%
X96739103Y-126952105D03*
%TO.P,J2,20*%
%TO.N,GND*%
X99279103Y-124412105D03*
%TO.P,J2,19*%
%TO.N,N/C*%
X96739103Y-124412105D03*
%TO.P,J2,18*%
X99279103Y-121872105D03*
%TO.P,J2,17*%
X96739103Y-121872105D03*
%TO.P,J2,16*%
X99279103Y-119332105D03*
%TO.P,J2,15*%
X96739103Y-119332105D03*
%TO.P,J2,14*%
%TO.N,/PA_11_UART6_TX*%
X99279103Y-116792105D03*
%TO.P,J2,13*%
%TO.N,N/C*%
X96739103Y-116792105D03*
%TO.P,J2,12*%
%TO.N,/PA_12_UART6_RX*%
X99279103Y-114252105D03*
%TO.P,J2,11*%
%TO.N,N/C*%
X96739103Y-114252105D03*
%TO.P,J2,10*%
X99279103Y-111712105D03*
%TO.P,J2,9*%
%TO.N,GND*%
X96739103Y-111712105D03*
%TO.P,J2,8*%
%TO.N,N/C*%
X99279103Y-109172105D03*
%TO.P,J2,7*%
X96739103Y-109172105D03*
%TO.P,J2,6*%
X99279103Y-106632105D03*
%TO.P,J2,5*%
%TO.N,/PB9_I2C1_SDA*%
X96739103Y-106632105D03*
%TO.P,J2,4*%
%TO.N,/PC6_CRANK_SIG*%
X99279103Y-104092105D03*
%TO.P,J2,3*%
%TO.N,/PB8_I2C1_SCL*%
X96739103Y-104092105D03*
%TO.P,J2,2*%
%TO.N,N/C*%
X99279103Y-101552105D03*
D13*
%TO.P,J2,1*%
X96739103Y-101552105D03*
%TD*%
D12*
%TO.P,J1,38*%
%TO.N,N/C*%
X38319103Y-147272105D03*
%TO.P,J1,37*%
X35779103Y-147272105D03*
%TO.P,J1,36*%
X38319103Y-144732105D03*
%TO.P,J1,35*%
X35779103Y-144732105D03*
%TO.P,J1,34*%
X38319103Y-142192105D03*
%TO.P,J1,33*%
X35779103Y-142192105D03*
%TO.P,J1,32*%
X38319103Y-139652105D03*
%TO.P,J1,31*%
X35779103Y-139652105D03*
%TO.P,J1,30*%
%TO.N,/PA1_ADC1_1*%
X38319103Y-137112105D03*
%TO.P,J1,29*%
%TO.N,N/C*%
X35779103Y-137112105D03*
%TO.P,J1,28*%
%TO.N,/PA_0_ADC1_0*%
X38319103Y-134572105D03*
%TO.P,J1,27*%
%TO.N,/PC15*%
X35779103Y-134572105D03*
%TO.P,J1,26*%
%TO.N,N/C*%
X38319103Y-132032105D03*
%TO.P,J1,25*%
%TO.N,/PC14*%
X35779103Y-132032105D03*
%TO.P,J1,24*%
%TO.N,N/C*%
X38319103Y-129492105D03*
%TO.P,J1,23*%
X35779103Y-129492105D03*
%TO.P,J1,22*%
%TO.N,GND*%
X38319103Y-126952105D03*
%TO.P,J1,21*%
%TO.N,N/C*%
X35779103Y-126952105D03*
%TO.P,J1,20*%
%TO.N,GND*%
X38319103Y-124412105D03*
%TO.P,J1,19*%
X35779103Y-124412105D03*
%TO.P,J1,18*%
%TO.N,N/C*%
X38319103Y-121872105D03*
%TO.P,J1,17*%
X35779103Y-121872105D03*
%TO.P,J1,16*%
%TO.N,+3V3*%
X38319103Y-119332105D03*
%TO.P,J1,15*%
%TO.N,N/C*%
X35779103Y-119332105D03*
%TO.P,J1,14*%
X38319103Y-116792105D03*
%TO.P,J1,13*%
X35779103Y-116792105D03*
%TO.P,J1,12*%
X38319103Y-114252105D03*
%TO.P,J1,11*%
X35779103Y-114252105D03*
%TO.P,J1,10*%
X38319103Y-111712105D03*
%TO.P,J1,9*%
X35779103Y-111712105D03*
%TO.P,J1,8*%
%TO.N,GND*%
X38319103Y-109172105D03*
%TO.P,J1,7*%
%TO.N,N/C*%
X35779103Y-109172105D03*
%TO.P,J1,6*%
%TO.N,+5V*%
X38319103Y-106632105D03*
%TO.P,J1,5*%
%TO.N,N/C*%
X35779103Y-106632105D03*
%TO.P,J1,4*%
X38319103Y-104092105D03*
%TO.P,J1,3*%
X35779103Y-104092105D03*
%TO.P,J1,2*%
X38319103Y-101552105D03*
D13*
%TO.P,J1,1*%
X35779103Y-101552105D03*
%TD*%
D14*
%TO.N,+3V3*%
X43779103Y-129470897D03*
X48750000Y-122500000D03*
X57750000Y-123500000D03*
X62250000Y-127000000D03*
X72002105Y-127000000D03*
X81750000Y-127000000D03*
%TO.N,GND*%
X62750000Y-122750000D03*
X67250000Y-123750000D03*
X55250000Y-122250000D03*
X57500000Y-125500000D03*
X101000000Y-122750000D03*
X88250000Y-123500000D03*
X90500000Y-124750000D03*
X78000000Y-120250000D03*
X88750000Y-114500000D03*
X70000000Y-114250000D03*
X47750000Y-117250000D03*
X42250000Y-139750000D03*
X43500000Y-108000000D03*
%TO.N,+5V*%
X76500000Y-116500000D03*
X83750000Y-115000000D03*
X45250000Y-124537115D03*
%TO.N,/PB3_SPI1_SCLK*%
X93529103Y-107312105D03*
%TO.N,/PB5_SPI1_MOSI*%
X94279103Y-112812105D03*
%TO.N,/PB4_SPI1_MISO*%
X53029103Y-128812105D03*
X91779103Y-131562105D03*
%TO.N,/PB1*%
X92029103Y-129812105D03*
X54779103Y-128537115D03*
%TO.N,/PB2*%
X92279103Y-128312105D03*
X53579103Y-127762105D03*
%TD*%
D15*
%TO.N,Net-(J4-Pad1)*%
X72564103Y-118285000D02*
X74379103Y-120100000D01*
X72564103Y-117462105D02*
X72564103Y-118285000D01*
D16*
%TO.N,/PA_3_UART2_RX*%
X71314103Y-117462105D02*
X71314103Y-121347095D01*
X73029103Y-123062095D02*
X77815503Y-123062095D01*
X71314103Y-121347095D02*
X73029103Y-123062095D01*
X77815503Y-123062095D02*
X80029103Y-125275695D01*
X80029103Y-130112105D02*
X81370285Y-131453287D01*
X92029103Y-141892693D02*
X93636410Y-143500000D01*
X80029103Y-125275695D02*
X80029103Y-130112105D01*
X81370285Y-131453287D02*
X90270285Y-131453287D01*
X97750000Y-143500000D02*
X98000000Y-143750000D01*
X90270285Y-131453287D02*
X92029103Y-133212105D01*
X98000000Y-146011208D02*
X96739103Y-147272105D01*
X92029103Y-133212105D02*
X92029103Y-141892693D01*
X93636410Y-143500000D02*
X97750000Y-143500000D01*
X98000000Y-143750000D02*
X98000000Y-146011208D01*
%TO.N,/PA_2_UART2_TX*%
X94232105Y-144732105D02*
X96739103Y-144732105D01*
X91529103Y-142029103D02*
X94232105Y-144732105D01*
X91529103Y-133412105D02*
X91529103Y-142029103D01*
X81120295Y-131903297D02*
X90020295Y-131903297D01*
X79529103Y-130312105D02*
X81120295Y-131903297D01*
X79529103Y-125412105D02*
X79529103Y-130312105D01*
X77629103Y-123512105D02*
X79529103Y-125412105D01*
X72829103Y-123512105D02*
X77629103Y-123512105D01*
X90020295Y-131903297D02*
X91529103Y-133412105D01*
X70064103Y-120747105D02*
X72829103Y-123512105D01*
X70064103Y-117462105D02*
X70064103Y-120747105D01*
%TO.N,/PA_11_UART6_TX*%
X81704103Y-118737105D02*
X81704103Y-117462105D01*
X82229113Y-119262115D02*
X81704103Y-118737105D01*
X87715503Y-119262115D02*
X82229113Y-119262115D01*
X88820514Y-118157104D02*
X87715503Y-119262115D01*
X97914104Y-118157104D02*
X88820514Y-118157104D01*
X99279103Y-116792105D02*
X97914104Y-118157104D01*
%TO.N,/PC6_CRANK_SIG*%
X84829103Y-123987105D02*
X84654103Y-123812105D01*
X99843104Y-120507106D02*
X101429103Y-118921107D01*
X87959102Y-120507106D02*
X99843104Y-120507106D01*
X84654103Y-123812105D02*
X87959102Y-120507106D01*
X101429103Y-106242105D02*
X99279103Y-104092105D01*
X101429103Y-118921107D02*
X101429103Y-106242105D01*
X84654103Y-123812105D02*
X84654103Y-124337105D01*
X84829103Y-124512105D02*
X84829103Y-126252105D01*
X84654103Y-124337105D02*
X84829103Y-124512105D01*
D15*
%TO.N,+3V3*%
X43779103Y-128112105D02*
X43779103Y-129470897D01*
X48750000Y-122500000D02*
X50166208Y-122500000D01*
X59279103Y-122637105D02*
X58612895Y-122637105D01*
X58612895Y-122637105D02*
X57750000Y-123500000D01*
X83004103Y-123812105D02*
X83004103Y-124754103D01*
X83579103Y-125329103D02*
X83579103Y-126252105D01*
X83004103Y-124754103D02*
X83579103Y-125329103D01*
X63579103Y-126252105D02*
X62997895Y-126252105D01*
X62997895Y-126252105D02*
X62250000Y-127000000D01*
X73579103Y-126252105D02*
X72750000Y-126252105D01*
X72750000Y-126252105D02*
X72002105Y-127000000D01*
X82497895Y-126252105D02*
X81750000Y-127000000D01*
X83579103Y-126252105D02*
X82497895Y-126252105D01*
D16*
%TO.N,/PC14*%
X51929103Y-120737105D02*
X52079103Y-120887105D01*
X50279103Y-120737105D02*
X51929103Y-120737105D01*
X52154103Y-120812105D02*
X52079103Y-120887105D01*
X36954104Y-130857104D02*
X35779103Y-132032105D01*
X41029103Y-128812105D02*
X38984104Y-130857104D01*
X41029103Y-122812105D02*
X41029103Y-128812105D01*
X38984104Y-130857104D02*
X36954104Y-130857104D01*
X43104103Y-120737105D02*
X41029103Y-122812105D01*
X51779103Y-120737105D02*
X43104103Y-120737105D01*
X52079103Y-120887105D02*
X53779103Y-120887105D01*
%TO.N,/PC15*%
X39029103Y-133312105D02*
X37039103Y-133312105D01*
X41529103Y-130812105D02*
X39029103Y-133312105D01*
X41529103Y-124562105D02*
X41529103Y-130812105D01*
X42279103Y-123812105D02*
X41529103Y-124562105D01*
X37039103Y-133312105D02*
X35779103Y-134572105D01*
X58454103Y-121137105D02*
X55779103Y-123812105D01*
X62779103Y-121137105D02*
X58454103Y-121137105D01*
X55779103Y-123812105D02*
X42279103Y-123812105D01*
%TO.N,/PA1_ADC1_1*%
X74829103Y-126252105D02*
X74829103Y-131212105D01*
X74829103Y-131212105D02*
X74329103Y-131712105D01*
X45642749Y-131712105D02*
X42229103Y-135125751D01*
X74329103Y-131712105D02*
X45642749Y-131712105D01*
X40305457Y-135125751D02*
X38319103Y-137112105D01*
X42229103Y-135125751D02*
X40305457Y-135125751D01*
%TO.N,/PA_0_ADC1_0*%
X42146339Y-134572105D02*
X38319103Y-134572105D01*
X45456348Y-131262096D02*
X42146339Y-134572105D01*
X62779112Y-131262096D02*
X45456348Y-131262096D01*
X64829103Y-129212105D02*
X62779112Y-131262096D01*
X64829103Y-126252105D02*
X64829103Y-129212105D01*
D15*
%TO.N,+5V*%
X84204103Y-117462105D02*
X84204103Y-115454103D01*
X84204103Y-115454103D02*
X83750000Y-115000000D01*
X43279103Y-125512105D02*
X44275010Y-125512105D01*
X44275010Y-125512105D02*
X45250000Y-124537115D01*
X76500000Y-119279103D02*
X75679103Y-120100000D01*
X76500000Y-116500000D02*
X76500000Y-119279103D01*
D16*
%TO.N,/PB3_SPI1_SCLK*%
X91929103Y-106562105D02*
X92779103Y-106562105D01*
X92779103Y-106562105D02*
X93529103Y-107312105D01*
%TO.N,/PB5_SPI1_MOSI*%
X92029103Y-112612105D02*
X94079103Y-112612105D01*
X94079103Y-112612105D02*
X94279103Y-112812105D01*
%TO.N,/PB4_SPI1_MISO*%
X52329103Y-128112105D02*
X53029103Y-128812105D01*
X52329103Y-126252105D02*
X52329103Y-128112105D01*
X94789103Y-134572105D02*
X96739103Y-134572105D01*
X91779103Y-131562105D02*
X94789103Y-134572105D01*
%TO.N,/PB1*%
X54829103Y-126252105D02*
X54829103Y-128487115D01*
X54829103Y-128487115D02*
X54779103Y-128537115D01*
X98104102Y-130667106D02*
X99279103Y-129492105D01*
X92884104Y-130667106D02*
X98104102Y-130667106D01*
X92029103Y-129812105D02*
X92884104Y-130667106D01*
%TO.N,/PB2*%
X97919103Y-128312105D02*
X99279103Y-126952105D01*
X92279103Y-128312105D02*
X97919103Y-128312105D01*
X53579103Y-126252105D02*
X53579103Y-127762105D01*
%TO.N,/PA_12_UART6_RX*%
X83279103Y-118812105D02*
X82954103Y-118487105D01*
X82954103Y-118487105D02*
X82954103Y-117462105D01*
X87529103Y-118812105D02*
X83279103Y-118812105D01*
X90724104Y-115617104D02*
X87529103Y-118812105D01*
X97914104Y-115617104D02*
X90724104Y-115617104D01*
X99279103Y-114252105D02*
X97914104Y-115617104D01*
%TO.N,/PB9_I2C1_SDA*%
X93359103Y-110012105D02*
X96739103Y-106632105D01*
X92029103Y-110012105D02*
X93359103Y-110012105D01*
%TO.N,/PB8_I2C1_SCL*%
X96609103Y-103962105D02*
X96739103Y-104092105D01*
X91929103Y-103962105D02*
X96609103Y-103962105D01*
%TO.N,Net-(J8-Pad1)*%
X52737105Y-119237105D02*
X53779103Y-119237105D01*
X52014103Y-118514103D02*
X52737105Y-119237105D01*
X52014103Y-117462105D02*
X52014103Y-118514103D01*
%TO.N,Net-(J9-Pad1)*%
X60954103Y-117462105D02*
X60954103Y-118954103D01*
X61487105Y-119487105D02*
X62779103Y-119487105D01*
X60954103Y-118954103D02*
X61487105Y-119487105D01*
%TO.N,Net-(J10-Pad3)*%
X51079103Y-125402105D02*
X51079103Y-126252105D01*
X51919103Y-124562105D02*
X51079103Y-125402105D01*
X63029103Y-124562105D02*
X51919103Y-124562105D01*
X64779103Y-122812105D02*
X63029103Y-124562105D01*
X65779103Y-111812105D02*
X64779103Y-112812105D01*
X88529103Y-110298457D02*
X87015455Y-111812105D01*
X88529103Y-107312105D02*
X88529103Y-110298457D01*
X87015455Y-111812105D02*
X65779103Y-111812105D01*
X90579103Y-105262105D02*
X88529103Y-107312105D01*
X64779103Y-112812105D02*
X64779103Y-122812105D01*
X91929103Y-105262105D02*
X90579103Y-105262105D01*
%TO.N,Net-(J10-Pad2)*%
X91029103Y-111312105D02*
X92029103Y-111312105D01*
X90029103Y-112312105D02*
X91029103Y-111312105D01*
X63215504Y-125012114D02*
X65279103Y-122948515D01*
X66279103Y-112312105D02*
X90029103Y-112312105D01*
X59579093Y-125012115D02*
X63215504Y-125012114D01*
X65279103Y-113312105D02*
X66279103Y-112312105D01*
X51029103Y-129562105D02*
X55029103Y-129562105D01*
X65279103Y-122948515D02*
X65279103Y-113312105D01*
X55029103Y-129562105D02*
X59579093Y-125012115D01*
X49829103Y-128362105D02*
X51029103Y-129562105D01*
X49829103Y-126252105D02*
X49829103Y-128362105D01*
D15*
%TO.N,Net-(J10-Pad1)*%
X48019103Y-126812105D02*
X48579103Y-126252105D01*
X43279103Y-126812105D02*
X48019103Y-126812105D01*
%TD*%
D17*
%TO.N,GND*%
X101819103Y-148277384D02*
X101791196Y-148562004D01*
X101718620Y-148802387D01*
X101600736Y-149024094D01*
X101442032Y-149218685D01*
X101248558Y-149378740D01*
X101027679Y-149498169D01*
X100787804Y-149572422D01*
X100505394Y-149602105D01*
X91063824Y-149602105D01*
X90973439Y-149593243D01*
X90919889Y-149577075D01*
X90870506Y-149550817D01*
X90827156Y-149515462D01*
X90791504Y-149472366D01*
X90764902Y-149423168D01*
X90748361Y-149369730D01*
X90739103Y-149281650D01*
X90739103Y-133696907D01*
X90769103Y-133726907D01*
X90769104Y-141991771D01*
X90765427Y-142029103D01*
X90780101Y-142178088D01*
X90823557Y-142321349D01*
X90894129Y-142453379D01*
X90965304Y-142540105D01*
X90989103Y-142569104D01*
X91018101Y-142592902D01*
X93668306Y-145243108D01*
X93692104Y-145272106D01*
X93721102Y-145295904D01*
X93807828Y-145367079D01*
X93935864Y-145435516D01*
X93939858Y-145437651D01*
X94083119Y-145481108D01*
X94194772Y-145492105D01*
X94194781Y-145492105D01*
X94232104Y-145495781D01*
X94269427Y-145492105D01*
X95460925Y-145492105D01*
X95585628Y-145678737D01*
X95792471Y-145885580D01*
X95966863Y-146002105D01*
X95792471Y-146118630D01*
X95585628Y-146325473D01*
X95423113Y-146568694D01*
X95311171Y-146838947D01*
X95254103Y-147125845D01*
X95254103Y-147418365D01*
X95311171Y-147705263D01*
X95423113Y-147975516D01*
X95585628Y-148218737D01*
X95792471Y-148425580D01*
X96035692Y-148588095D01*
X96305945Y-148700037D01*
X96592843Y-148757105D01*
X96885363Y-148757105D01*
X97172261Y-148700037D01*
X97442514Y-148588095D01*
X97685735Y-148425580D01*
X97892578Y-148218737D01*
X98009103Y-148044345D01*
X98125628Y-148218737D01*
X98332471Y-148425580D01*
X98575692Y-148588095D01*
X98845945Y-148700037D01*
X99132843Y-148757105D01*
X99425363Y-148757105D01*
X99712261Y-148700037D01*
X99982514Y-148588095D01*
X100225735Y-148425580D01*
X100432578Y-148218737D01*
X100595093Y-147975516D01*
X100707035Y-147705263D01*
X100764103Y-147418365D01*
X100764103Y-147125845D01*
X100707035Y-146838947D01*
X100595093Y-146568694D01*
X100432578Y-146325473D01*
X100225735Y-146118630D01*
X100051343Y-146002105D01*
X100225735Y-145885580D01*
X100432578Y-145678737D01*
X100595093Y-145435516D01*
X100707035Y-145165263D01*
X100764103Y-144878365D01*
X100764103Y-144585845D01*
X100707035Y-144298947D01*
X100595093Y-144028694D01*
X100432578Y-143785473D01*
X100225735Y-143578630D01*
X100051343Y-143462105D01*
X100225735Y-143345580D01*
X100432578Y-143138737D01*
X100595093Y-142895516D01*
X100707035Y-142625263D01*
X100764103Y-142338365D01*
X100764103Y-142045845D01*
X100707035Y-141758947D01*
X100595093Y-141488694D01*
X100432578Y-141245473D01*
X100225735Y-141038630D01*
X100043569Y-140916910D01*
X100160458Y-140847283D01*
X100376691Y-140652374D01*
X100550744Y-140419025D01*
X100675928Y-140156204D01*
X100720579Y-140008995D01*
X100599258Y-139779105D01*
X99406103Y-139779105D01*
X99406103Y-139799105D01*
X99152103Y-139799105D01*
X99152103Y-139779105D01*
X99132103Y-139779105D01*
X99132103Y-139525105D01*
X99152103Y-139525105D01*
X99152103Y-139505105D01*
X99406103Y-139505105D01*
X99406103Y-139525105D01*
X100599258Y-139525105D01*
X100720579Y-139295215D01*
X100675928Y-139148006D01*
X100550744Y-138885185D01*
X100376691Y-138651836D01*
X100160458Y-138456927D01*
X100043569Y-138387300D01*
X100225735Y-138265580D01*
X100432578Y-138058737D01*
X100595093Y-137815516D01*
X100707035Y-137545263D01*
X100764103Y-137258365D01*
X100764103Y-136965845D01*
X100707035Y-136678947D01*
X100595093Y-136408694D01*
X100432578Y-136165473D01*
X100225735Y-135958630D01*
X100051343Y-135842105D01*
X100225735Y-135725580D01*
X100432578Y-135518737D01*
X100595093Y-135275516D01*
X100707035Y-135005263D01*
X100764103Y-134718365D01*
X100764103Y-134425845D01*
X100707035Y-134138947D01*
X100595093Y-133868694D01*
X100432578Y-133625473D01*
X100225735Y-133418630D01*
X100051343Y-133302105D01*
X100225735Y-133185580D01*
X100432578Y-132978737D01*
X100595093Y-132735516D01*
X100707035Y-132465263D01*
X100764103Y-132178365D01*
X100764103Y-131885845D01*
X100707035Y-131598947D01*
X100595093Y-131328694D01*
X100432578Y-131085473D01*
X100225735Y-130878630D01*
X100051343Y-130762105D01*
X100225735Y-130645580D01*
X100432578Y-130438737D01*
X100595093Y-130195516D01*
X100707035Y-129925263D01*
X100764103Y-129638365D01*
X100764103Y-129345845D01*
X100707035Y-129058947D01*
X100595093Y-128788694D01*
X100432578Y-128545473D01*
X100225735Y-128338630D01*
X100051343Y-128222105D01*
X100225735Y-128105580D01*
X100432578Y-127898737D01*
X100595093Y-127655516D01*
X100707035Y-127385263D01*
X100764103Y-127098365D01*
X100764103Y-126805845D01*
X100707035Y-126518947D01*
X100595093Y-126248694D01*
X100432578Y-126005473D01*
X100225735Y-125798630D01*
X100043569Y-125676910D01*
X100160458Y-125607283D01*
X100376691Y-125412374D01*
X100550744Y-125179025D01*
X100675928Y-124916204D01*
X100720579Y-124768995D01*
X100599258Y-124539105D01*
X99406103Y-124539105D01*
X99406103Y-124559105D01*
X99152103Y-124559105D01*
X99152103Y-124539105D01*
X99132103Y-124539105D01*
X99132103Y-124285105D01*
X99152103Y-124285105D01*
X99152103Y-124265105D01*
X99406103Y-124265105D01*
X99406103Y-124285105D01*
X100599258Y-124285105D01*
X100720579Y-124055215D01*
X100675928Y-123908006D01*
X100550744Y-123645185D01*
X100376691Y-123411836D01*
X100160458Y-123216927D01*
X100043569Y-123147300D01*
X100225735Y-123025580D01*
X100432578Y-122818737D01*
X100595093Y-122575516D01*
X100707035Y-122305263D01*
X100764103Y-122018365D01*
X100764103Y-121725845D01*
X100707035Y-121438947D01*
X100595093Y-121168694D01*
X100459398Y-120965613D01*
X101819104Y-119605908D01*
X101819103Y-148277384D01*
%TA.AperFunction,Conductor*%
D18*
G36*
X101819103Y-148277384D02*
G01*
X101791196Y-148562004D01*
X101718620Y-148802387D01*
X101600736Y-149024094D01*
X101442032Y-149218685D01*
X101248558Y-149378740D01*
X101027679Y-149498169D01*
X100787804Y-149572422D01*
X100505394Y-149602105D01*
X91063824Y-149602105D01*
X90973439Y-149593243D01*
X90919889Y-149577075D01*
X90870506Y-149550817D01*
X90827156Y-149515462D01*
X90791504Y-149472366D01*
X90764902Y-149423168D01*
X90748361Y-149369730D01*
X90739103Y-149281650D01*
X90739103Y-133696907D01*
X90769103Y-133726907D01*
X90769104Y-141991771D01*
X90765427Y-142029103D01*
X90780101Y-142178088D01*
X90823557Y-142321349D01*
X90894129Y-142453379D01*
X90965304Y-142540105D01*
X90989103Y-142569104D01*
X91018101Y-142592902D01*
X93668306Y-145243108D01*
X93692104Y-145272106D01*
X93721102Y-145295904D01*
X93807828Y-145367079D01*
X93935864Y-145435516D01*
X93939858Y-145437651D01*
X94083119Y-145481108D01*
X94194772Y-145492105D01*
X94194781Y-145492105D01*
X94232104Y-145495781D01*
X94269427Y-145492105D01*
X95460925Y-145492105D01*
X95585628Y-145678737D01*
X95792471Y-145885580D01*
X95966863Y-146002105D01*
X95792471Y-146118630D01*
X95585628Y-146325473D01*
X95423113Y-146568694D01*
X95311171Y-146838947D01*
X95254103Y-147125845D01*
X95254103Y-147418365D01*
X95311171Y-147705263D01*
X95423113Y-147975516D01*
X95585628Y-148218737D01*
X95792471Y-148425580D01*
X96035692Y-148588095D01*
X96305945Y-148700037D01*
X96592843Y-148757105D01*
X96885363Y-148757105D01*
X97172261Y-148700037D01*
X97442514Y-148588095D01*
X97685735Y-148425580D01*
X97892578Y-148218737D01*
X98009103Y-148044345D01*
X98125628Y-148218737D01*
X98332471Y-148425580D01*
X98575692Y-148588095D01*
X98845945Y-148700037D01*
X99132843Y-148757105D01*
X99425363Y-148757105D01*
X99712261Y-148700037D01*
X99982514Y-148588095D01*
X100225735Y-148425580D01*
X100432578Y-148218737D01*
X100595093Y-147975516D01*
X100707035Y-147705263D01*
X100764103Y-147418365D01*
X100764103Y-147125845D01*
X100707035Y-146838947D01*
X100595093Y-146568694D01*
X100432578Y-146325473D01*
X100225735Y-146118630D01*
X100051343Y-146002105D01*
X100225735Y-145885580D01*
X100432578Y-145678737D01*
X100595093Y-145435516D01*
X100707035Y-145165263D01*
X100764103Y-144878365D01*
X100764103Y-144585845D01*
X100707035Y-144298947D01*
X100595093Y-144028694D01*
X100432578Y-143785473D01*
X100225735Y-143578630D01*
X100051343Y-143462105D01*
X100225735Y-143345580D01*
X100432578Y-143138737D01*
X100595093Y-142895516D01*
X100707035Y-142625263D01*
X100764103Y-142338365D01*
X100764103Y-142045845D01*
X100707035Y-141758947D01*
X100595093Y-141488694D01*
X100432578Y-141245473D01*
X100225735Y-141038630D01*
X100043569Y-140916910D01*
X100160458Y-140847283D01*
X100376691Y-140652374D01*
X100550744Y-140419025D01*
X100675928Y-140156204D01*
X100720579Y-140008995D01*
X100599258Y-139779105D01*
X99406103Y-139779105D01*
X99406103Y-139799105D01*
X99152103Y-139799105D01*
X99152103Y-139779105D01*
X99132103Y-139779105D01*
X99132103Y-139525105D01*
X99152103Y-139525105D01*
X99152103Y-139505105D01*
X99406103Y-139505105D01*
X99406103Y-139525105D01*
X100599258Y-139525105D01*
X100720579Y-139295215D01*
X100675928Y-139148006D01*
X100550744Y-138885185D01*
X100376691Y-138651836D01*
X100160458Y-138456927D01*
X100043569Y-138387300D01*
X100225735Y-138265580D01*
X100432578Y-138058737D01*
X100595093Y-137815516D01*
X100707035Y-137545263D01*
X100764103Y-137258365D01*
X100764103Y-136965845D01*
X100707035Y-136678947D01*
X100595093Y-136408694D01*
X100432578Y-136165473D01*
X100225735Y-135958630D01*
X100051343Y-135842105D01*
X100225735Y-135725580D01*
X100432578Y-135518737D01*
X100595093Y-135275516D01*
X100707035Y-135005263D01*
X100764103Y-134718365D01*
X100764103Y-134425845D01*
X100707035Y-134138947D01*
X100595093Y-133868694D01*
X100432578Y-133625473D01*
X100225735Y-133418630D01*
X100051343Y-133302105D01*
X100225735Y-133185580D01*
X100432578Y-132978737D01*
X100595093Y-132735516D01*
X100707035Y-132465263D01*
X100764103Y-132178365D01*
X100764103Y-131885845D01*
X100707035Y-131598947D01*
X100595093Y-131328694D01*
X100432578Y-131085473D01*
X100225735Y-130878630D01*
X100051343Y-130762105D01*
X100225735Y-130645580D01*
X100432578Y-130438737D01*
X100595093Y-130195516D01*
X100707035Y-129925263D01*
X100764103Y-129638365D01*
X100764103Y-129345845D01*
X100707035Y-129058947D01*
X100595093Y-128788694D01*
X100432578Y-128545473D01*
X100225735Y-128338630D01*
X100051343Y-128222105D01*
X100225735Y-128105580D01*
X100432578Y-127898737D01*
X100595093Y-127655516D01*
X100707035Y-127385263D01*
X100764103Y-127098365D01*
X100764103Y-126805845D01*
X100707035Y-126518947D01*
X100595093Y-126248694D01*
X100432578Y-126005473D01*
X100225735Y-125798630D01*
X100043569Y-125676910D01*
X100160458Y-125607283D01*
X100376691Y-125412374D01*
X100550744Y-125179025D01*
X100675928Y-124916204D01*
X100720579Y-124768995D01*
X100599258Y-124539105D01*
X99406103Y-124539105D01*
X99406103Y-124559105D01*
X99152103Y-124559105D01*
X99152103Y-124539105D01*
X99132103Y-124539105D01*
X99132103Y-124285105D01*
X99152103Y-124285105D01*
X99152103Y-124265105D01*
X99406103Y-124265105D01*
X99406103Y-124285105D01*
X100599258Y-124285105D01*
X100720579Y-124055215D01*
X100675928Y-123908006D01*
X100550744Y-123645185D01*
X100376691Y-123411836D01*
X100160458Y-123216927D01*
X100043569Y-123147300D01*
X100225735Y-123025580D01*
X100432578Y-122818737D01*
X100595093Y-122575516D01*
X100707035Y-122305263D01*
X100764103Y-122018365D01*
X100764103Y-121725845D01*
X100707035Y-121438947D01*
X100595093Y-121168694D01*
X100459398Y-120965613D01*
X101819104Y-119605908D01*
X101819103Y-148277384D01*
G37*
%TD.AperFunction*%
D17*
X46584768Y-94030968D02*
X46638317Y-94047135D01*
X46687700Y-94073393D01*
X46731048Y-94108746D01*
X46766703Y-94151845D01*
X46793304Y-94201042D01*
X46809845Y-94254480D01*
X46819103Y-94342560D01*
X46819104Y-110346982D01*
X46822092Y-110377318D01*
X46822049Y-110383437D01*
X46823017Y-110393303D01*
X46843418Y-110587400D01*
X46856353Y-110650415D01*
X46868415Y-110713645D01*
X46871280Y-110723135D01*
X46928992Y-110909573D01*
X46953932Y-110968902D01*
X46978035Y-111028560D01*
X46982689Y-111037313D01*
X47075514Y-111208990D01*
X47111474Y-111262303D01*
X47146736Y-111316188D01*
X47153001Y-111323870D01*
X47277405Y-111474248D01*
X47323060Y-111519585D01*
X47368090Y-111565568D01*
X47375728Y-111571887D01*
X47526970Y-111695237D01*
X47580590Y-111730862D01*
X47633667Y-111767204D01*
X47642387Y-111771919D01*
X47814709Y-111863544D01*
X47874179Y-111888056D01*
X47933351Y-111913417D01*
X47942821Y-111916348D01*
X48129657Y-111972757D01*
X48192787Y-111985257D01*
X48255726Y-111998635D01*
X48265584Y-111999671D01*
X48459312Y-112018666D01*
X48494226Y-112022105D01*
X64494302Y-112022105D01*
X64268105Y-112248301D01*
X64239102Y-112272104D01*
X64183974Y-112339279D01*
X64144129Y-112387829D01*
X64078716Y-112510207D01*
X64073557Y-112519859D01*
X64030100Y-112663120D01*
X64019103Y-112774773D01*
X64019103Y-112774783D01*
X64015427Y-112812105D01*
X64019103Y-112849427D01*
X64019104Y-122497302D01*
X62714302Y-123802105D01*
X58745140Y-123802105D01*
X58745226Y-123801898D01*
X58756535Y-123745043D01*
X58765336Y-123736242D01*
X58840603Y-123759074D01*
X59004103Y-123775177D01*
X59554103Y-123775177D01*
X59717603Y-123759074D01*
X59874819Y-123711383D01*
X60019711Y-123633936D01*
X60039124Y-123618004D01*
X60099609Y-123667642D01*
X60209923Y-123726607D01*
X60329621Y-123762917D01*
X60454103Y-123775177D01*
X60643353Y-123772105D01*
X60802103Y-123613355D01*
X60802103Y-122814105D01*
X61056103Y-122814105D01*
X61056103Y-123613355D01*
X61214853Y-123772105D01*
X61404103Y-123775177D01*
X61528585Y-123762917D01*
X61648283Y-123726607D01*
X61758597Y-123667642D01*
X61855288Y-123588290D01*
X61934640Y-123491599D01*
X61993605Y-123381285D01*
X62029915Y-123261587D01*
X62042175Y-123137105D01*
X62039103Y-122972855D01*
X61880353Y-122814105D01*
X61056103Y-122814105D01*
X60802103Y-122814105D01*
X60782103Y-122814105D01*
X60782103Y-122560105D01*
X60802103Y-122560105D01*
X60802103Y-122540105D01*
X61056103Y-122540105D01*
X61056103Y-122560105D01*
X61880353Y-122560105D01*
X62039103Y-122401355D01*
X62042175Y-122237105D01*
X62029915Y-122112623D01*
X61995289Y-121998478D01*
X62038495Y-122033936D01*
X62183387Y-122111383D01*
X62340603Y-122159074D01*
X62504103Y-122175177D01*
X63054103Y-122175177D01*
X63217603Y-122159074D01*
X63374819Y-122111383D01*
X63519711Y-122033936D01*
X63646709Y-121929711D01*
X63750934Y-121802713D01*
X63828381Y-121657821D01*
X63876072Y-121500605D01*
X63892175Y-121337105D01*
X63892175Y-120937105D01*
X63876072Y-120773605D01*
X63828381Y-120616389D01*
X63750934Y-120471497D01*
X63646709Y-120344499D01*
X63607237Y-120312105D01*
X63646709Y-120279711D01*
X63750934Y-120152713D01*
X63828381Y-120007821D01*
X63876072Y-119850605D01*
X63892175Y-119687105D01*
X63892175Y-119287105D01*
X63876072Y-119123605D01*
X63828381Y-118966389D01*
X63750934Y-118821497D01*
X63646709Y-118694499D01*
X63519711Y-118590274D01*
X63374819Y-118512827D01*
X63217603Y-118465136D01*
X63054103Y-118449033D01*
X62504103Y-118449033D01*
X62340603Y-118465136D01*
X62183387Y-118512827D01*
X62038495Y-118590274D01*
X61911497Y-118694499D01*
X61884738Y-118727105D01*
X61801907Y-118727105D01*
X61721216Y-118646414D01*
X61759361Y-118599934D01*
X61832187Y-118463687D01*
X61877032Y-118315850D01*
X61892175Y-118162105D01*
X61892175Y-116762105D01*
X61877032Y-116608360D01*
X61832187Y-116460523D01*
X61759361Y-116324276D01*
X61661354Y-116204854D01*
X61541932Y-116106847D01*
X61405685Y-116034021D01*
X61257848Y-115989176D01*
X61104103Y-115974033D01*
X60804103Y-115974033D01*
X60650358Y-115989176D01*
X60502521Y-116034021D01*
X60380278Y-116099361D01*
X60358597Y-116081568D01*
X60248283Y-116022603D01*
X60128585Y-115986293D01*
X60004103Y-115974033D01*
X59989853Y-115977105D01*
X59831103Y-116135855D01*
X59831103Y-117335105D01*
X59851103Y-117335105D01*
X59851103Y-117589105D01*
X59831103Y-117589105D01*
X59831103Y-118788355D01*
X59989853Y-118947105D01*
X60004103Y-118950177D01*
X60128585Y-118937917D01*
X60193975Y-118918081D01*
X60190427Y-118954103D01*
X60194104Y-118991436D01*
X60205101Y-119103089D01*
X60218283Y-119146545D01*
X60248557Y-119246349D01*
X60319129Y-119378379D01*
X60380036Y-119452593D01*
X60414103Y-119494104D01*
X60443101Y-119517902D01*
X60923305Y-119998107D01*
X60947104Y-120027106D01*
X60973822Y-120049033D01*
X60679103Y-120049033D01*
X60510726Y-120065617D01*
X60348820Y-120114730D01*
X60199606Y-120194487D01*
X60112225Y-120266199D01*
X60019711Y-120190274D01*
X59874819Y-120112827D01*
X59717603Y-120065136D01*
X59554103Y-120049033D01*
X59004103Y-120049033D01*
X58840603Y-120065136D01*
X58683387Y-120112827D01*
X58538495Y-120190274D01*
X58411497Y-120294499D01*
X58337278Y-120384934D01*
X58305117Y-120388102D01*
X58161856Y-120431559D01*
X58029827Y-120502131D01*
X57914102Y-120597104D01*
X57890304Y-120626102D01*
X55464302Y-123052105D01*
X53185773Y-123052105D01*
X53192175Y-122987105D01*
X53189103Y-122822855D01*
X53030353Y-122664105D01*
X52206103Y-122664105D01*
X52206103Y-122684105D01*
X51952103Y-122684105D01*
X51952103Y-122664105D01*
X51932103Y-122664105D01*
X51932103Y-122410105D01*
X51952103Y-122410105D01*
X51952103Y-122390105D01*
X52206103Y-122390105D01*
X52206103Y-122410105D01*
X53030353Y-122410105D01*
X53189103Y-122251355D01*
X53191899Y-122101860D01*
X53340603Y-122146969D01*
X53504103Y-122163072D01*
X54054103Y-122163072D01*
X54217603Y-122146969D01*
X54374819Y-122099278D01*
X54519711Y-122021831D01*
X54646709Y-121917606D01*
X54750934Y-121790608D01*
X54828381Y-121645716D01*
X54876072Y-121488500D01*
X54892175Y-121325000D01*
X54892175Y-120925000D01*
X54876072Y-120761500D01*
X54828381Y-120604284D01*
X54750934Y-120459392D01*
X54646709Y-120332394D01*
X54607237Y-120300000D01*
X54646709Y-120267606D01*
X54750934Y-120140608D01*
X54828381Y-119995716D01*
X54876072Y-119838500D01*
X54892175Y-119675000D01*
X54892175Y-119275000D01*
X54876072Y-119111500D01*
X54828381Y-118954284D01*
X54750934Y-118809392D01*
X54646709Y-118682394D01*
X54519711Y-118578169D01*
X54374819Y-118500722D01*
X54217603Y-118453031D01*
X54054103Y-118436928D01*
X53504103Y-118436928D01*
X53340603Y-118453031D01*
X53261242Y-118477105D01*
X53051907Y-118477105D01*
X52926237Y-118351436D01*
X52937032Y-118315850D01*
X52937400Y-118312105D01*
X58766031Y-118312105D01*
X58778291Y-118436587D01*
X58814601Y-118556285D01*
X58873566Y-118666599D01*
X58952918Y-118763290D01*
X59049609Y-118842642D01*
X59159923Y-118901607D01*
X59279621Y-118937917D01*
X59404103Y-118950177D01*
X59418353Y-118947105D01*
X59577103Y-118788355D01*
X59577103Y-117589105D01*
X58927853Y-117589105D01*
X58769103Y-117747855D01*
X58766031Y-118312105D01*
X52937400Y-118312105D01*
X52952175Y-118162105D01*
X52952175Y-116762105D01*
X52937401Y-116612105D01*
X58766031Y-116612105D01*
X58769103Y-117176355D01*
X58927853Y-117335105D01*
X59577103Y-117335105D01*
X59577103Y-116135855D01*
X59418353Y-115977105D01*
X59404103Y-115974033D01*
X59279621Y-115986293D01*
X59159923Y-116022603D01*
X59049609Y-116081568D01*
X58952918Y-116160920D01*
X58873566Y-116257611D01*
X58814601Y-116367925D01*
X58778291Y-116487623D01*
X58766031Y-116612105D01*
X52937401Y-116612105D01*
X52937032Y-116608360D01*
X52892187Y-116460523D01*
X52819361Y-116324276D01*
X52721354Y-116204854D01*
X52601932Y-116106847D01*
X52465685Y-116034021D01*
X52317848Y-115989176D01*
X52164103Y-115974033D01*
X51864103Y-115974033D01*
X51710358Y-115989176D01*
X51562521Y-116034021D01*
X51440278Y-116099361D01*
X51418597Y-116081568D01*
X51308283Y-116022603D01*
X51188585Y-115986293D01*
X51064103Y-115974033D01*
X51049853Y-115977105D01*
X50891103Y-116135855D01*
X50891103Y-117335105D01*
X50911103Y-117335105D01*
X50911103Y-117589105D01*
X50891103Y-117589105D01*
X50891103Y-118788355D01*
X51049853Y-118947105D01*
X51064103Y-118950177D01*
X51188585Y-118937917D01*
X51308283Y-118901607D01*
X51348098Y-118880325D01*
X51379129Y-118938379D01*
X51450304Y-119025105D01*
X51474103Y-119054104D01*
X51503101Y-119077902D01*
X52173306Y-119748107D01*
X52197104Y-119777106D01*
X52312829Y-119872079D01*
X52370970Y-119903157D01*
X52329103Y-119899033D01*
X51829103Y-119899033D01*
X51660726Y-119915617D01*
X51498820Y-119964730D01*
X51475668Y-119977105D01*
X50901531Y-119977105D01*
X50874819Y-119962827D01*
X50717603Y-119915136D01*
X50554103Y-119899033D01*
X50004103Y-119899033D01*
X49840603Y-119915136D01*
X49683387Y-119962827D01*
X49656675Y-119977105D01*
X43141425Y-119977105D01*
X43104102Y-119973429D01*
X43066779Y-119977105D01*
X43066770Y-119977105D01*
X42955117Y-119988102D01*
X42830871Y-120025791D01*
X42811856Y-120031559D01*
X42679826Y-120102131D01*
X42605869Y-120162827D01*
X42564102Y-120197104D01*
X42540304Y-120226102D01*
X40518106Y-122248301D01*
X40489102Y-122272104D01*
X40455464Y-122313093D01*
X40394129Y-122387829D01*
X40373127Y-122427121D01*
X40323557Y-122519859D01*
X40280100Y-122663120D01*
X40269103Y-122774773D01*
X40269103Y-122774783D01*
X40265427Y-122812105D01*
X40269103Y-122849428D01*
X40269104Y-128497302D01*
X39735444Y-129030963D01*
X39635093Y-128788694D01*
X39472578Y-128545473D01*
X39265735Y-128338630D01*
X39083569Y-128216910D01*
X39200458Y-128147283D01*
X39416691Y-127952374D01*
X39590744Y-127719025D01*
X39715928Y-127456204D01*
X39760579Y-127308995D01*
X39639258Y-127079105D01*
X38446103Y-127079105D01*
X38446103Y-127099105D01*
X38192103Y-127099105D01*
X38192103Y-127079105D01*
X38172103Y-127079105D01*
X38172103Y-126825105D01*
X38192103Y-126825105D01*
X38192103Y-124539105D01*
X38446103Y-124539105D01*
X38446103Y-126825105D01*
X39639258Y-126825105D01*
X39760579Y-126595215D01*
X39715928Y-126448006D01*
X39590744Y-126185185D01*
X39416691Y-125951836D01*
X39200458Y-125756927D01*
X39074848Y-125682105D01*
X39200458Y-125607283D01*
X39416691Y-125412374D01*
X39590744Y-125179025D01*
X39715928Y-124916204D01*
X39760579Y-124768995D01*
X39639258Y-124539105D01*
X38446103Y-124539105D01*
X38192103Y-124539105D01*
X35906103Y-124539105D01*
X35906103Y-124559105D01*
X35652103Y-124559105D01*
X35652103Y-124539105D01*
X34458948Y-124539105D01*
X34337627Y-124768995D01*
X34382278Y-124916204D01*
X34507462Y-125179025D01*
X34681515Y-125412374D01*
X34897748Y-125607283D01*
X35014637Y-125676910D01*
X34832471Y-125798630D01*
X34625628Y-126005473D01*
X34463113Y-126248694D01*
X34351171Y-126518947D01*
X34294103Y-126805845D01*
X34294103Y-127098365D01*
X34351171Y-127385263D01*
X34463113Y-127655516D01*
X34625628Y-127898737D01*
X34832471Y-128105580D01*
X35006863Y-128222105D01*
X34832471Y-128338630D01*
X34625628Y-128545473D01*
X34463113Y-128788694D01*
X34351171Y-129058947D01*
X34294103Y-129345845D01*
X34294103Y-129638365D01*
X34351171Y-129925263D01*
X34463113Y-130195516D01*
X34625628Y-130438737D01*
X34832471Y-130645580D01*
X35006863Y-130762105D01*
X34832471Y-130878630D01*
X34625628Y-131085473D01*
X34463113Y-131328694D01*
X34351171Y-131598947D01*
X34294103Y-131885845D01*
X34294103Y-132178365D01*
X34351171Y-132465263D01*
X34463113Y-132735516D01*
X34625628Y-132978737D01*
X34832471Y-133185580D01*
X35006863Y-133302105D01*
X34832471Y-133418630D01*
X34625628Y-133625473D01*
X34463113Y-133868694D01*
X34351171Y-134138947D01*
X34294103Y-134425845D01*
X34294103Y-134718365D01*
X34351171Y-135005263D01*
X34463113Y-135275516D01*
X34625628Y-135518737D01*
X34832471Y-135725580D01*
X35006863Y-135842105D01*
X34832471Y-135958630D01*
X34625628Y-136165473D01*
X34463113Y-136408694D01*
X34351171Y-136678947D01*
X34294103Y-136965845D01*
X34294103Y-137258365D01*
X34351171Y-137545263D01*
X34463113Y-137815516D01*
X34625628Y-138058737D01*
X34832471Y-138265580D01*
X35006863Y-138382105D01*
X34832471Y-138498630D01*
X34625628Y-138705473D01*
X34463113Y-138948694D01*
X34351171Y-139218947D01*
X34294103Y-139505845D01*
X34294103Y-139798365D01*
X34351171Y-140085263D01*
X34463113Y-140355516D01*
X34625628Y-140598737D01*
X34832471Y-140805580D01*
X35006863Y-140922105D01*
X34832471Y-141038630D01*
X34625628Y-141245473D01*
X34463113Y-141488694D01*
X34351171Y-141758947D01*
X34294103Y-142045845D01*
X34294103Y-142338365D01*
X34351171Y-142625263D01*
X34463113Y-142895516D01*
X34625628Y-143138737D01*
X34832471Y-143345580D01*
X35006863Y-143462105D01*
X34832471Y-143578630D01*
X34625628Y-143785473D01*
X34463113Y-144028694D01*
X34351171Y-144298947D01*
X34294103Y-144585845D01*
X34294103Y-144878365D01*
X34351171Y-145165263D01*
X34463113Y-145435516D01*
X34625628Y-145678737D01*
X34832471Y-145885580D01*
X35006863Y-146002105D01*
X34832471Y-146118630D01*
X34625628Y-146325473D01*
X34463113Y-146568694D01*
X34351171Y-146838947D01*
X34294103Y-147125845D01*
X34294103Y-147418365D01*
X34351171Y-147705263D01*
X34463113Y-147975516D01*
X34625628Y-148218737D01*
X34832471Y-148425580D01*
X35075692Y-148588095D01*
X35345945Y-148700037D01*
X35632843Y-148757105D01*
X35925363Y-148757105D01*
X36212261Y-148700037D01*
X36482514Y-148588095D01*
X36725735Y-148425580D01*
X36932578Y-148218737D01*
X37049103Y-148044345D01*
X37165628Y-148218737D01*
X37372471Y-148425580D01*
X37615692Y-148588095D01*
X37885945Y-148700037D01*
X38172843Y-148757105D01*
X38465363Y-148757105D01*
X38752261Y-148700037D01*
X39022514Y-148588095D01*
X39265735Y-148425580D01*
X39472578Y-148218737D01*
X39635093Y-147975516D01*
X39747035Y-147705263D01*
X39804103Y-147418365D01*
X39804103Y-147125845D01*
X39747035Y-146838947D01*
X39635093Y-146568694D01*
X39472578Y-146325473D01*
X39265735Y-146118630D01*
X39091343Y-146002105D01*
X39265735Y-145885580D01*
X39472578Y-145678737D01*
X39635093Y-145435516D01*
X39747035Y-145165263D01*
X39804103Y-144878365D01*
X39804103Y-144585845D01*
X39747035Y-144298947D01*
X39635093Y-144028694D01*
X39472578Y-143785473D01*
X39265735Y-143578630D01*
X39091343Y-143462105D01*
X39265735Y-143345580D01*
X39472578Y-143138737D01*
X39635093Y-142895516D01*
X39747035Y-142625263D01*
X39804103Y-142338365D01*
X39804103Y-142045845D01*
X39747035Y-141758947D01*
X39635093Y-141488694D01*
X39472578Y-141245473D01*
X39265735Y-141038630D01*
X39091343Y-140922105D01*
X39265735Y-140805580D01*
X39472578Y-140598737D01*
X39635093Y-140355516D01*
X39747035Y-140085263D01*
X39804103Y-139798365D01*
X39804103Y-139505845D01*
X39747035Y-139218947D01*
X39635093Y-138948694D01*
X39472578Y-138705473D01*
X39265735Y-138498630D01*
X39091343Y-138382105D01*
X39265735Y-138265580D01*
X39472578Y-138058737D01*
X39635093Y-137815516D01*
X39747035Y-137545263D01*
X39804103Y-137258365D01*
X39804103Y-136965845D01*
X39760312Y-136745697D01*
X40620259Y-135885751D01*
X42191781Y-135885751D01*
X42229103Y-135889427D01*
X42266425Y-135885751D01*
X42266436Y-135885751D01*
X42378089Y-135874754D01*
X42521350Y-135831297D01*
X42653379Y-135760725D01*
X42769104Y-135665752D01*
X42792907Y-135636748D01*
X44319104Y-134110552D01*
X44319103Y-149277384D01*
X44310241Y-149367769D01*
X44294073Y-149421319D01*
X44267815Y-149470702D01*
X44232460Y-149514052D01*
X44189364Y-149549704D01*
X44140166Y-149576306D01*
X44086728Y-149592847D01*
X43998648Y-149602105D01*
X34563824Y-149602105D01*
X34279204Y-149574198D01*
X34038821Y-149501622D01*
X33817114Y-149383738D01*
X33622523Y-149225034D01*
X33462468Y-149031560D01*
X33343039Y-148810681D01*
X33268786Y-148570806D01*
X33239103Y-148288396D01*
X33239103Y-100702105D01*
X34291031Y-100702105D01*
X34291031Y-102402105D01*
X34303291Y-102526587D01*
X34339601Y-102646285D01*
X34398566Y-102756599D01*
X34477918Y-102853290D01*
X34574609Y-102932642D01*
X34684923Y-102991607D01*
X34757483Y-103013618D01*
X34625628Y-103145473D01*
X34463113Y-103388694D01*
X34351171Y-103658947D01*
X34294103Y-103945845D01*
X34294103Y-104238365D01*
X34351171Y-104525263D01*
X34463113Y-104795516D01*
X34625628Y-105038737D01*
X34832471Y-105245580D01*
X35006863Y-105362105D01*
X34832471Y-105478630D01*
X34625628Y-105685473D01*
X34463113Y-105928694D01*
X34351171Y-106198947D01*
X34294103Y-106485845D01*
X34294103Y-106778365D01*
X34351171Y-107065263D01*
X34463113Y-107335516D01*
X34625628Y-107578737D01*
X34832471Y-107785580D01*
X35006863Y-107902105D01*
X34832471Y-108018630D01*
X34625628Y-108225473D01*
X34463113Y-108468694D01*
X34351171Y-108738947D01*
X34294103Y-109025845D01*
X34294103Y-109318365D01*
X34351171Y-109605263D01*
X34463113Y-109875516D01*
X34625628Y-110118737D01*
X34832471Y-110325580D01*
X35006863Y-110442105D01*
X34832471Y-110558630D01*
X34625628Y-110765473D01*
X34463113Y-111008694D01*
X34351171Y-111278947D01*
X34294103Y-111565845D01*
X34294103Y-111858365D01*
X34351171Y-112145263D01*
X34463113Y-112415516D01*
X34625628Y-112658737D01*
X34832471Y-112865580D01*
X35006863Y-112982105D01*
X34832471Y-113098630D01*
X34625628Y-113305473D01*
X34463113Y-113548694D01*
X34351171Y-113818947D01*
X34294103Y-114105845D01*
X34294103Y-114398365D01*
X34351171Y-114685263D01*
X34463113Y-114955516D01*
X34625628Y-115198737D01*
X34832471Y-115405580D01*
X35006863Y-115522105D01*
X34832471Y-115638630D01*
X34625628Y-115845473D01*
X34463113Y-116088694D01*
X34351171Y-116358947D01*
X34294103Y-116645845D01*
X34294103Y-116938365D01*
X34351171Y-117225263D01*
X34463113Y-117495516D01*
X34625628Y-117738737D01*
X34832471Y-117945580D01*
X35006863Y-118062105D01*
X34832471Y-118178630D01*
X34625628Y-118385473D01*
X34463113Y-118628694D01*
X34351171Y-118898947D01*
X34294103Y-119185845D01*
X34294103Y-119478365D01*
X34351171Y-119765263D01*
X34463113Y-120035516D01*
X34625628Y-120278737D01*
X34832471Y-120485580D01*
X35006863Y-120602105D01*
X34832471Y-120718630D01*
X34625628Y-120925473D01*
X34463113Y-121168694D01*
X34351171Y-121438947D01*
X34294103Y-121725845D01*
X34294103Y-122018365D01*
X34351171Y-122305263D01*
X34463113Y-122575516D01*
X34625628Y-122818737D01*
X34832471Y-123025580D01*
X35014637Y-123147300D01*
X34897748Y-123216927D01*
X34681515Y-123411836D01*
X34507462Y-123645185D01*
X34382278Y-123908006D01*
X34337627Y-124055215D01*
X34458948Y-124285105D01*
X35652103Y-124285105D01*
X35652103Y-124265105D01*
X35906103Y-124265105D01*
X35906103Y-124285105D01*
X38192103Y-124285105D01*
X38192103Y-124265105D01*
X38446103Y-124265105D01*
X38446103Y-124285105D01*
X39639258Y-124285105D01*
X39760579Y-124055215D01*
X39715928Y-123908006D01*
X39590744Y-123645185D01*
X39416691Y-123411836D01*
X39200458Y-123216927D01*
X39083569Y-123147300D01*
X39265735Y-123025580D01*
X39472578Y-122818737D01*
X39635093Y-122575516D01*
X39747035Y-122305263D01*
X39804103Y-122018365D01*
X39804103Y-121725845D01*
X39747035Y-121438947D01*
X39635093Y-121168694D01*
X39472578Y-120925473D01*
X39265735Y-120718630D01*
X39091343Y-120602105D01*
X39265735Y-120485580D01*
X39472578Y-120278737D01*
X39635093Y-120035516D01*
X39747035Y-119765263D01*
X39804103Y-119478365D01*
X39804103Y-119185845D01*
X39747035Y-118898947D01*
X39635093Y-118628694D01*
X39472578Y-118385473D01*
X39399210Y-118312105D01*
X49826031Y-118312105D01*
X49838291Y-118436587D01*
X49874601Y-118556285D01*
X49933566Y-118666599D01*
X50012918Y-118763290D01*
X50109609Y-118842642D01*
X50219923Y-118901607D01*
X50339621Y-118937917D01*
X50464103Y-118950177D01*
X50478353Y-118947105D01*
X50637103Y-118788355D01*
X50637103Y-117589105D01*
X49987853Y-117589105D01*
X49829103Y-117747855D01*
X49826031Y-118312105D01*
X39399210Y-118312105D01*
X39265735Y-118178630D01*
X39091343Y-118062105D01*
X39265735Y-117945580D01*
X39472578Y-117738737D01*
X39635093Y-117495516D01*
X39747035Y-117225263D01*
X39804103Y-116938365D01*
X39804103Y-116645845D01*
X39797392Y-116612105D01*
X49826031Y-116612105D01*
X49829103Y-117176355D01*
X49987853Y-117335105D01*
X50637103Y-117335105D01*
X50637103Y-116135855D01*
X50478353Y-115977105D01*
X50464103Y-115974033D01*
X50339621Y-115986293D01*
X50219923Y-116022603D01*
X50109609Y-116081568D01*
X50012918Y-116160920D01*
X49933566Y-116257611D01*
X49874601Y-116367925D01*
X49838291Y-116487623D01*
X49826031Y-116612105D01*
X39797392Y-116612105D01*
X39747035Y-116358947D01*
X39635093Y-116088694D01*
X39472578Y-115845473D01*
X39265735Y-115638630D01*
X39091343Y-115522105D01*
X39265735Y-115405580D01*
X39472578Y-115198737D01*
X39635093Y-114955516D01*
X39747035Y-114685263D01*
X39804103Y-114398365D01*
X39804103Y-114105845D01*
X39747035Y-113818947D01*
X39635093Y-113548694D01*
X39472578Y-113305473D01*
X39329210Y-113162105D01*
X47776031Y-113162105D01*
X47776031Y-115362105D01*
X47793095Y-115535359D01*
X47843631Y-115701955D01*
X47925698Y-115855491D01*
X48036141Y-115990067D01*
X48170717Y-116100510D01*
X48324253Y-116182577D01*
X48490849Y-116233113D01*
X48664103Y-116250177D01*
X49164103Y-116250177D01*
X49337357Y-116233113D01*
X49503953Y-116182577D01*
X49657489Y-116100510D01*
X49792065Y-115990067D01*
X49902508Y-115855491D01*
X49984575Y-115701955D01*
X50035111Y-115535359D01*
X50052175Y-115362105D01*
X50052175Y-113162105D01*
X52726031Y-113162105D01*
X52726031Y-115362105D01*
X52743095Y-115535359D01*
X52793631Y-115701955D01*
X52875698Y-115855491D01*
X52986141Y-115990067D01*
X53120717Y-116100510D01*
X53274253Y-116182577D01*
X53440849Y-116233113D01*
X53614103Y-116250177D01*
X54114103Y-116250177D01*
X54287357Y-116233113D01*
X54453953Y-116182577D01*
X54607489Y-116100510D01*
X54742065Y-115990067D01*
X54852508Y-115855491D01*
X54934575Y-115701955D01*
X54985111Y-115535359D01*
X55002175Y-115362105D01*
X55002175Y-113162105D01*
X56716031Y-113162105D01*
X56716031Y-115362105D01*
X56733095Y-115535359D01*
X56783631Y-115701955D01*
X56865698Y-115855491D01*
X56976141Y-115990067D01*
X57110717Y-116100510D01*
X57264253Y-116182577D01*
X57430849Y-116233113D01*
X57604103Y-116250177D01*
X58104103Y-116250177D01*
X58277357Y-116233113D01*
X58443953Y-116182577D01*
X58597489Y-116100510D01*
X58732065Y-115990067D01*
X58842508Y-115855491D01*
X58924575Y-115701955D01*
X58975111Y-115535359D01*
X58992175Y-115362105D01*
X58992175Y-113162105D01*
X61666031Y-113162105D01*
X61666031Y-115362105D01*
X61683095Y-115535359D01*
X61733631Y-115701955D01*
X61815698Y-115855491D01*
X61926141Y-115990067D01*
X62060717Y-116100510D01*
X62214253Y-116182577D01*
X62380849Y-116233113D01*
X62554103Y-116250177D01*
X63054103Y-116250177D01*
X63227357Y-116233113D01*
X63393953Y-116182577D01*
X63547489Y-116100510D01*
X63682065Y-115990067D01*
X63792508Y-115855491D01*
X63874575Y-115701955D01*
X63925111Y-115535359D01*
X63942175Y-115362105D01*
X63942175Y-113162105D01*
X63925111Y-112988851D01*
X63874575Y-112822255D01*
X63792508Y-112668719D01*
X63682065Y-112534143D01*
X63547489Y-112423700D01*
X63393953Y-112341633D01*
X63227357Y-112291097D01*
X63054103Y-112274033D01*
X62554103Y-112274033D01*
X62380849Y-112291097D01*
X62214253Y-112341633D01*
X62060717Y-112423700D01*
X61926141Y-112534143D01*
X61815698Y-112668719D01*
X61733631Y-112822255D01*
X61683095Y-112988851D01*
X61666031Y-113162105D01*
X58992175Y-113162105D01*
X58975111Y-112988851D01*
X58924575Y-112822255D01*
X58842508Y-112668719D01*
X58732065Y-112534143D01*
X58597489Y-112423700D01*
X58443953Y-112341633D01*
X58277357Y-112291097D01*
X58104103Y-112274033D01*
X57604103Y-112274033D01*
X57430849Y-112291097D01*
X57264253Y-112341633D01*
X57110717Y-112423700D01*
X56976141Y-112534143D01*
X56865698Y-112668719D01*
X56783631Y-112822255D01*
X56733095Y-112988851D01*
X56716031Y-113162105D01*
X55002175Y-113162105D01*
X54985111Y-112988851D01*
X54934575Y-112822255D01*
X54852508Y-112668719D01*
X54742065Y-112534143D01*
X54607489Y-112423700D01*
X54453953Y-112341633D01*
X54287357Y-112291097D01*
X54114103Y-112274033D01*
X53614103Y-112274033D01*
X53440849Y-112291097D01*
X53274253Y-112341633D01*
X53120717Y-112423700D01*
X52986141Y-112534143D01*
X52875698Y-112668719D01*
X52793631Y-112822255D01*
X52743095Y-112988851D01*
X52726031Y-113162105D01*
X50052175Y-113162105D01*
X50035111Y-112988851D01*
X49984575Y-112822255D01*
X49902508Y-112668719D01*
X49792065Y-112534143D01*
X49657489Y-112423700D01*
X49503953Y-112341633D01*
X49337357Y-112291097D01*
X49164103Y-112274033D01*
X48664103Y-112274033D01*
X48490849Y-112291097D01*
X48324253Y-112341633D01*
X48170717Y-112423700D01*
X48036141Y-112534143D01*
X47925698Y-112668719D01*
X47843631Y-112822255D01*
X47793095Y-112988851D01*
X47776031Y-113162105D01*
X39329210Y-113162105D01*
X39265735Y-113098630D01*
X39091343Y-112982105D01*
X39265735Y-112865580D01*
X39472578Y-112658737D01*
X39635093Y-112415516D01*
X39747035Y-112145263D01*
X39804103Y-111858365D01*
X39804103Y-111565845D01*
X39747035Y-111278947D01*
X39635093Y-111008694D01*
X39472578Y-110765473D01*
X39265735Y-110558630D01*
X39083569Y-110436910D01*
X39200458Y-110367283D01*
X39416691Y-110172374D01*
X39590744Y-109939025D01*
X39715928Y-109676204D01*
X39760579Y-109528995D01*
X39639258Y-109299105D01*
X38446103Y-109299105D01*
X38446103Y-109319105D01*
X38192103Y-109319105D01*
X38192103Y-109299105D01*
X38172103Y-109299105D01*
X38172103Y-109045105D01*
X38192103Y-109045105D01*
X38192103Y-109025105D01*
X38446103Y-109025105D01*
X38446103Y-109045105D01*
X39639258Y-109045105D01*
X39760579Y-108815215D01*
X39715928Y-108668006D01*
X39590744Y-108405185D01*
X39416691Y-108171836D01*
X39200458Y-107976927D01*
X39083569Y-107907300D01*
X39265735Y-107785580D01*
X39472578Y-107578737D01*
X39635093Y-107335516D01*
X39747035Y-107065263D01*
X39804103Y-106778365D01*
X39804103Y-106485845D01*
X39747035Y-106198947D01*
X39635093Y-105928694D01*
X39472578Y-105685473D01*
X39265735Y-105478630D01*
X39091343Y-105362105D01*
X39265735Y-105245580D01*
X39472578Y-105038737D01*
X39635093Y-104795516D01*
X39747035Y-104525263D01*
X39804103Y-104238365D01*
X39804103Y-103945845D01*
X39747035Y-103658947D01*
X39635093Y-103388694D01*
X39472578Y-103145473D01*
X39265735Y-102938630D01*
X39091343Y-102822105D01*
X39265735Y-102705580D01*
X39472578Y-102498737D01*
X39635093Y-102255516D01*
X39747035Y-101985263D01*
X39804103Y-101698365D01*
X39804103Y-101405845D01*
X39747035Y-101118947D01*
X39635093Y-100848694D01*
X39472578Y-100605473D01*
X39265735Y-100398630D01*
X39022514Y-100236115D01*
X38752261Y-100124173D01*
X38465363Y-100067105D01*
X38172843Y-100067105D01*
X37885945Y-100124173D01*
X37615692Y-100236115D01*
X37372471Y-100398630D01*
X37240616Y-100530485D01*
X37218605Y-100457925D01*
X37159640Y-100347611D01*
X37080288Y-100250920D01*
X36983597Y-100171568D01*
X36873283Y-100112603D01*
X36753585Y-100076293D01*
X36629103Y-100064033D01*
X34929103Y-100064033D01*
X34804621Y-100076293D01*
X34684923Y-100112603D01*
X34574609Y-100171568D01*
X34477918Y-100250920D01*
X34398566Y-100347611D01*
X34339601Y-100457925D01*
X34303291Y-100577623D01*
X34291031Y-100702105D01*
X33239103Y-100702105D01*
X33239103Y-97501765D01*
X41060419Y-97501765D01*
X41060419Y-97962445D01*
X41150293Y-98414274D01*
X41326588Y-98839887D01*
X41582528Y-99222929D01*
X41908279Y-99548680D01*
X42291321Y-99804620D01*
X42716934Y-99980915D01*
X43168763Y-100070789D01*
X43629443Y-100070789D01*
X44081272Y-99980915D01*
X44506885Y-99804620D01*
X44889927Y-99548680D01*
X45215678Y-99222929D01*
X45471618Y-98839887D01*
X45647913Y-98414274D01*
X45737787Y-97962445D01*
X45737787Y-97501765D01*
X45647913Y-97049936D01*
X45471618Y-96624323D01*
X45215678Y-96241281D01*
X44889927Y-95915530D01*
X44506885Y-95659590D01*
X44081272Y-95483295D01*
X43629443Y-95393421D01*
X43168763Y-95393421D01*
X42716934Y-95483295D01*
X42291321Y-95659590D01*
X41908279Y-95915530D01*
X41582528Y-96241281D01*
X41326588Y-96624323D01*
X41150293Y-97049936D01*
X41060419Y-97501765D01*
X33239103Y-97501765D01*
X33239103Y-94346827D01*
X33247966Y-94256440D01*
X33264133Y-94202891D01*
X33290391Y-94153508D01*
X33325744Y-94110160D01*
X33368843Y-94074505D01*
X33418040Y-94047904D01*
X33471478Y-94031363D01*
X33559558Y-94022105D01*
X46494381Y-94022105D01*
X46584768Y-94030968D01*
%TA.AperFunction,Conductor*%
D18*
G36*
X46584768Y-94030968D02*
G01*
X46638317Y-94047135D01*
X46687700Y-94073393D01*
X46731048Y-94108746D01*
X46766703Y-94151845D01*
X46793304Y-94201042D01*
X46809845Y-94254480D01*
X46819103Y-94342560D01*
X46819104Y-110346982D01*
X46822092Y-110377318D01*
X46822049Y-110383437D01*
X46823017Y-110393303D01*
X46843418Y-110587400D01*
X46856353Y-110650415D01*
X46868415Y-110713645D01*
X46871280Y-110723135D01*
X46928992Y-110909573D01*
X46953932Y-110968902D01*
X46978035Y-111028560D01*
X46982689Y-111037313D01*
X47075514Y-111208990D01*
X47111474Y-111262303D01*
X47146736Y-111316188D01*
X47153001Y-111323870D01*
X47277405Y-111474248D01*
X47323060Y-111519585D01*
X47368090Y-111565568D01*
X47375728Y-111571887D01*
X47526970Y-111695237D01*
X47580590Y-111730862D01*
X47633667Y-111767204D01*
X47642387Y-111771919D01*
X47814709Y-111863544D01*
X47874179Y-111888056D01*
X47933351Y-111913417D01*
X47942821Y-111916348D01*
X48129657Y-111972757D01*
X48192787Y-111985257D01*
X48255726Y-111998635D01*
X48265584Y-111999671D01*
X48459312Y-112018666D01*
X48494226Y-112022105D01*
X64494302Y-112022105D01*
X64268105Y-112248301D01*
X64239102Y-112272104D01*
X64183974Y-112339279D01*
X64144129Y-112387829D01*
X64078716Y-112510207D01*
X64073557Y-112519859D01*
X64030100Y-112663120D01*
X64019103Y-112774773D01*
X64019103Y-112774783D01*
X64015427Y-112812105D01*
X64019103Y-112849427D01*
X64019104Y-122497302D01*
X62714302Y-123802105D01*
X58745140Y-123802105D01*
X58745226Y-123801898D01*
X58756535Y-123745043D01*
X58765336Y-123736242D01*
X58840603Y-123759074D01*
X59004103Y-123775177D01*
X59554103Y-123775177D01*
X59717603Y-123759074D01*
X59874819Y-123711383D01*
X60019711Y-123633936D01*
X60039124Y-123618004D01*
X60099609Y-123667642D01*
X60209923Y-123726607D01*
X60329621Y-123762917D01*
X60454103Y-123775177D01*
X60643353Y-123772105D01*
X60802103Y-123613355D01*
X60802103Y-122814105D01*
X61056103Y-122814105D01*
X61056103Y-123613355D01*
X61214853Y-123772105D01*
X61404103Y-123775177D01*
X61528585Y-123762917D01*
X61648283Y-123726607D01*
X61758597Y-123667642D01*
X61855288Y-123588290D01*
X61934640Y-123491599D01*
X61993605Y-123381285D01*
X62029915Y-123261587D01*
X62042175Y-123137105D01*
X62039103Y-122972855D01*
X61880353Y-122814105D01*
X61056103Y-122814105D01*
X60802103Y-122814105D01*
X60782103Y-122814105D01*
X60782103Y-122560105D01*
X60802103Y-122560105D01*
X60802103Y-122540105D01*
X61056103Y-122540105D01*
X61056103Y-122560105D01*
X61880353Y-122560105D01*
X62039103Y-122401355D01*
X62042175Y-122237105D01*
X62029915Y-122112623D01*
X61995289Y-121998478D01*
X62038495Y-122033936D01*
X62183387Y-122111383D01*
X62340603Y-122159074D01*
X62504103Y-122175177D01*
X63054103Y-122175177D01*
X63217603Y-122159074D01*
X63374819Y-122111383D01*
X63519711Y-122033936D01*
X63646709Y-121929711D01*
X63750934Y-121802713D01*
X63828381Y-121657821D01*
X63876072Y-121500605D01*
X63892175Y-121337105D01*
X63892175Y-120937105D01*
X63876072Y-120773605D01*
X63828381Y-120616389D01*
X63750934Y-120471497D01*
X63646709Y-120344499D01*
X63607237Y-120312105D01*
X63646709Y-120279711D01*
X63750934Y-120152713D01*
X63828381Y-120007821D01*
X63876072Y-119850605D01*
X63892175Y-119687105D01*
X63892175Y-119287105D01*
X63876072Y-119123605D01*
X63828381Y-118966389D01*
X63750934Y-118821497D01*
X63646709Y-118694499D01*
X63519711Y-118590274D01*
X63374819Y-118512827D01*
X63217603Y-118465136D01*
X63054103Y-118449033D01*
X62504103Y-118449033D01*
X62340603Y-118465136D01*
X62183387Y-118512827D01*
X62038495Y-118590274D01*
X61911497Y-118694499D01*
X61884738Y-118727105D01*
X61801907Y-118727105D01*
X61721216Y-118646414D01*
X61759361Y-118599934D01*
X61832187Y-118463687D01*
X61877032Y-118315850D01*
X61892175Y-118162105D01*
X61892175Y-116762105D01*
X61877032Y-116608360D01*
X61832187Y-116460523D01*
X61759361Y-116324276D01*
X61661354Y-116204854D01*
X61541932Y-116106847D01*
X61405685Y-116034021D01*
X61257848Y-115989176D01*
X61104103Y-115974033D01*
X60804103Y-115974033D01*
X60650358Y-115989176D01*
X60502521Y-116034021D01*
X60380278Y-116099361D01*
X60358597Y-116081568D01*
X60248283Y-116022603D01*
X60128585Y-115986293D01*
X60004103Y-115974033D01*
X59989853Y-115977105D01*
X59831103Y-116135855D01*
X59831103Y-117335105D01*
X59851103Y-117335105D01*
X59851103Y-117589105D01*
X59831103Y-117589105D01*
X59831103Y-118788355D01*
X59989853Y-118947105D01*
X60004103Y-118950177D01*
X60128585Y-118937917D01*
X60193975Y-118918081D01*
X60190427Y-118954103D01*
X60194104Y-118991436D01*
X60205101Y-119103089D01*
X60218283Y-119146545D01*
X60248557Y-119246349D01*
X60319129Y-119378379D01*
X60380036Y-119452593D01*
X60414103Y-119494104D01*
X60443101Y-119517902D01*
X60923305Y-119998107D01*
X60947104Y-120027106D01*
X60973822Y-120049033D01*
X60679103Y-120049033D01*
X60510726Y-120065617D01*
X60348820Y-120114730D01*
X60199606Y-120194487D01*
X60112225Y-120266199D01*
X60019711Y-120190274D01*
X59874819Y-120112827D01*
X59717603Y-120065136D01*
X59554103Y-120049033D01*
X59004103Y-120049033D01*
X58840603Y-120065136D01*
X58683387Y-120112827D01*
X58538495Y-120190274D01*
X58411497Y-120294499D01*
X58337278Y-120384934D01*
X58305117Y-120388102D01*
X58161856Y-120431559D01*
X58029827Y-120502131D01*
X57914102Y-120597104D01*
X57890304Y-120626102D01*
X55464302Y-123052105D01*
X53185773Y-123052105D01*
X53192175Y-122987105D01*
X53189103Y-122822855D01*
X53030353Y-122664105D01*
X52206103Y-122664105D01*
X52206103Y-122684105D01*
X51952103Y-122684105D01*
X51952103Y-122664105D01*
X51932103Y-122664105D01*
X51932103Y-122410105D01*
X51952103Y-122410105D01*
X51952103Y-122390105D01*
X52206103Y-122390105D01*
X52206103Y-122410105D01*
X53030353Y-122410105D01*
X53189103Y-122251355D01*
X53191899Y-122101860D01*
X53340603Y-122146969D01*
X53504103Y-122163072D01*
X54054103Y-122163072D01*
X54217603Y-122146969D01*
X54374819Y-122099278D01*
X54519711Y-122021831D01*
X54646709Y-121917606D01*
X54750934Y-121790608D01*
X54828381Y-121645716D01*
X54876072Y-121488500D01*
X54892175Y-121325000D01*
X54892175Y-120925000D01*
X54876072Y-120761500D01*
X54828381Y-120604284D01*
X54750934Y-120459392D01*
X54646709Y-120332394D01*
X54607237Y-120300000D01*
X54646709Y-120267606D01*
X54750934Y-120140608D01*
X54828381Y-119995716D01*
X54876072Y-119838500D01*
X54892175Y-119675000D01*
X54892175Y-119275000D01*
X54876072Y-119111500D01*
X54828381Y-118954284D01*
X54750934Y-118809392D01*
X54646709Y-118682394D01*
X54519711Y-118578169D01*
X54374819Y-118500722D01*
X54217603Y-118453031D01*
X54054103Y-118436928D01*
X53504103Y-118436928D01*
X53340603Y-118453031D01*
X53261242Y-118477105D01*
X53051907Y-118477105D01*
X52926237Y-118351436D01*
X52937032Y-118315850D01*
X52937400Y-118312105D01*
X58766031Y-118312105D01*
X58778291Y-118436587D01*
X58814601Y-118556285D01*
X58873566Y-118666599D01*
X58952918Y-118763290D01*
X59049609Y-118842642D01*
X59159923Y-118901607D01*
X59279621Y-118937917D01*
X59404103Y-118950177D01*
X59418353Y-118947105D01*
X59577103Y-118788355D01*
X59577103Y-117589105D01*
X58927853Y-117589105D01*
X58769103Y-117747855D01*
X58766031Y-118312105D01*
X52937400Y-118312105D01*
X52952175Y-118162105D01*
X52952175Y-116762105D01*
X52937401Y-116612105D01*
X58766031Y-116612105D01*
X58769103Y-117176355D01*
X58927853Y-117335105D01*
X59577103Y-117335105D01*
X59577103Y-116135855D01*
X59418353Y-115977105D01*
X59404103Y-115974033D01*
X59279621Y-115986293D01*
X59159923Y-116022603D01*
X59049609Y-116081568D01*
X58952918Y-116160920D01*
X58873566Y-116257611D01*
X58814601Y-116367925D01*
X58778291Y-116487623D01*
X58766031Y-116612105D01*
X52937401Y-116612105D01*
X52937032Y-116608360D01*
X52892187Y-116460523D01*
X52819361Y-116324276D01*
X52721354Y-116204854D01*
X52601932Y-116106847D01*
X52465685Y-116034021D01*
X52317848Y-115989176D01*
X52164103Y-115974033D01*
X51864103Y-115974033D01*
X51710358Y-115989176D01*
X51562521Y-116034021D01*
X51440278Y-116099361D01*
X51418597Y-116081568D01*
X51308283Y-116022603D01*
X51188585Y-115986293D01*
X51064103Y-115974033D01*
X51049853Y-115977105D01*
X50891103Y-116135855D01*
X50891103Y-117335105D01*
X50911103Y-117335105D01*
X50911103Y-117589105D01*
X50891103Y-117589105D01*
X50891103Y-118788355D01*
X51049853Y-118947105D01*
X51064103Y-118950177D01*
X51188585Y-118937917D01*
X51308283Y-118901607D01*
X51348098Y-118880325D01*
X51379129Y-118938379D01*
X51450304Y-119025105D01*
X51474103Y-119054104D01*
X51503101Y-119077902D01*
X52173306Y-119748107D01*
X52197104Y-119777106D01*
X52312829Y-119872079D01*
X52370970Y-119903157D01*
X52329103Y-119899033D01*
X51829103Y-119899033D01*
X51660726Y-119915617D01*
X51498820Y-119964730D01*
X51475668Y-119977105D01*
X50901531Y-119977105D01*
X50874819Y-119962827D01*
X50717603Y-119915136D01*
X50554103Y-119899033D01*
X50004103Y-119899033D01*
X49840603Y-119915136D01*
X49683387Y-119962827D01*
X49656675Y-119977105D01*
X43141425Y-119977105D01*
X43104102Y-119973429D01*
X43066779Y-119977105D01*
X43066770Y-119977105D01*
X42955117Y-119988102D01*
X42830871Y-120025791D01*
X42811856Y-120031559D01*
X42679826Y-120102131D01*
X42605869Y-120162827D01*
X42564102Y-120197104D01*
X42540304Y-120226102D01*
X40518106Y-122248301D01*
X40489102Y-122272104D01*
X40455464Y-122313093D01*
X40394129Y-122387829D01*
X40373127Y-122427121D01*
X40323557Y-122519859D01*
X40280100Y-122663120D01*
X40269103Y-122774773D01*
X40269103Y-122774783D01*
X40265427Y-122812105D01*
X40269103Y-122849428D01*
X40269104Y-128497302D01*
X39735444Y-129030963D01*
X39635093Y-128788694D01*
X39472578Y-128545473D01*
X39265735Y-128338630D01*
X39083569Y-128216910D01*
X39200458Y-128147283D01*
X39416691Y-127952374D01*
X39590744Y-127719025D01*
X39715928Y-127456204D01*
X39760579Y-127308995D01*
X39639258Y-127079105D01*
X38446103Y-127079105D01*
X38446103Y-127099105D01*
X38192103Y-127099105D01*
X38192103Y-127079105D01*
X38172103Y-127079105D01*
X38172103Y-126825105D01*
X38192103Y-126825105D01*
X38192103Y-124539105D01*
X38446103Y-124539105D01*
X38446103Y-126825105D01*
X39639258Y-126825105D01*
X39760579Y-126595215D01*
X39715928Y-126448006D01*
X39590744Y-126185185D01*
X39416691Y-125951836D01*
X39200458Y-125756927D01*
X39074848Y-125682105D01*
X39200458Y-125607283D01*
X39416691Y-125412374D01*
X39590744Y-125179025D01*
X39715928Y-124916204D01*
X39760579Y-124768995D01*
X39639258Y-124539105D01*
X38446103Y-124539105D01*
X38192103Y-124539105D01*
X35906103Y-124539105D01*
X35906103Y-124559105D01*
X35652103Y-124559105D01*
X35652103Y-124539105D01*
X34458948Y-124539105D01*
X34337627Y-124768995D01*
X34382278Y-124916204D01*
X34507462Y-125179025D01*
X34681515Y-125412374D01*
X34897748Y-125607283D01*
X35014637Y-125676910D01*
X34832471Y-125798630D01*
X34625628Y-126005473D01*
X34463113Y-126248694D01*
X34351171Y-126518947D01*
X34294103Y-126805845D01*
X34294103Y-127098365D01*
X34351171Y-127385263D01*
X34463113Y-127655516D01*
X34625628Y-127898737D01*
X34832471Y-128105580D01*
X35006863Y-128222105D01*
X34832471Y-128338630D01*
X34625628Y-128545473D01*
X34463113Y-128788694D01*
X34351171Y-129058947D01*
X34294103Y-129345845D01*
X34294103Y-129638365D01*
X34351171Y-129925263D01*
X34463113Y-130195516D01*
X34625628Y-130438737D01*
X34832471Y-130645580D01*
X35006863Y-130762105D01*
X34832471Y-130878630D01*
X34625628Y-131085473D01*
X34463113Y-131328694D01*
X34351171Y-131598947D01*
X34294103Y-131885845D01*
X34294103Y-132178365D01*
X34351171Y-132465263D01*
X34463113Y-132735516D01*
X34625628Y-132978737D01*
X34832471Y-133185580D01*
X35006863Y-133302105D01*
X34832471Y-133418630D01*
X34625628Y-133625473D01*
X34463113Y-133868694D01*
X34351171Y-134138947D01*
X34294103Y-134425845D01*
X34294103Y-134718365D01*
X34351171Y-135005263D01*
X34463113Y-135275516D01*
X34625628Y-135518737D01*
X34832471Y-135725580D01*
X35006863Y-135842105D01*
X34832471Y-135958630D01*
X34625628Y-136165473D01*
X34463113Y-136408694D01*
X34351171Y-136678947D01*
X34294103Y-136965845D01*
X34294103Y-137258365D01*
X34351171Y-137545263D01*
X34463113Y-137815516D01*
X34625628Y-138058737D01*
X34832471Y-138265580D01*
X35006863Y-138382105D01*
X34832471Y-138498630D01*
X34625628Y-138705473D01*
X34463113Y-138948694D01*
X34351171Y-139218947D01*
X34294103Y-139505845D01*
X34294103Y-139798365D01*
X34351171Y-140085263D01*
X34463113Y-140355516D01*
X34625628Y-140598737D01*
X34832471Y-140805580D01*
X35006863Y-140922105D01*
X34832471Y-141038630D01*
X34625628Y-141245473D01*
X34463113Y-141488694D01*
X34351171Y-141758947D01*
X34294103Y-142045845D01*
X34294103Y-142338365D01*
X34351171Y-142625263D01*
X34463113Y-142895516D01*
X34625628Y-143138737D01*
X34832471Y-143345580D01*
X35006863Y-143462105D01*
X34832471Y-143578630D01*
X34625628Y-143785473D01*
X34463113Y-144028694D01*
X34351171Y-144298947D01*
X34294103Y-144585845D01*
X34294103Y-144878365D01*
X34351171Y-145165263D01*
X34463113Y-145435516D01*
X34625628Y-145678737D01*
X34832471Y-145885580D01*
X35006863Y-146002105D01*
X34832471Y-146118630D01*
X34625628Y-146325473D01*
X34463113Y-146568694D01*
X34351171Y-146838947D01*
X34294103Y-147125845D01*
X34294103Y-147418365D01*
X34351171Y-147705263D01*
X34463113Y-147975516D01*
X34625628Y-148218737D01*
X34832471Y-148425580D01*
X35075692Y-148588095D01*
X35345945Y-148700037D01*
X35632843Y-148757105D01*
X35925363Y-148757105D01*
X36212261Y-148700037D01*
X36482514Y-148588095D01*
X36725735Y-148425580D01*
X36932578Y-148218737D01*
X37049103Y-148044345D01*
X37165628Y-148218737D01*
X37372471Y-148425580D01*
X37615692Y-148588095D01*
X37885945Y-148700037D01*
X38172843Y-148757105D01*
X38465363Y-148757105D01*
X38752261Y-148700037D01*
X39022514Y-148588095D01*
X39265735Y-148425580D01*
X39472578Y-148218737D01*
X39635093Y-147975516D01*
X39747035Y-147705263D01*
X39804103Y-147418365D01*
X39804103Y-147125845D01*
X39747035Y-146838947D01*
X39635093Y-146568694D01*
X39472578Y-146325473D01*
X39265735Y-146118630D01*
X39091343Y-146002105D01*
X39265735Y-145885580D01*
X39472578Y-145678737D01*
X39635093Y-145435516D01*
X39747035Y-145165263D01*
X39804103Y-144878365D01*
X39804103Y-144585845D01*
X39747035Y-144298947D01*
X39635093Y-144028694D01*
X39472578Y-143785473D01*
X39265735Y-143578630D01*
X39091343Y-143462105D01*
X39265735Y-143345580D01*
X39472578Y-143138737D01*
X39635093Y-142895516D01*
X39747035Y-142625263D01*
X39804103Y-142338365D01*
X39804103Y-142045845D01*
X39747035Y-141758947D01*
X39635093Y-141488694D01*
X39472578Y-141245473D01*
X39265735Y-141038630D01*
X39091343Y-140922105D01*
X39265735Y-140805580D01*
X39472578Y-140598737D01*
X39635093Y-140355516D01*
X39747035Y-140085263D01*
X39804103Y-139798365D01*
X39804103Y-139505845D01*
X39747035Y-139218947D01*
X39635093Y-138948694D01*
X39472578Y-138705473D01*
X39265735Y-138498630D01*
X39091343Y-138382105D01*
X39265735Y-138265580D01*
X39472578Y-138058737D01*
X39635093Y-137815516D01*
X39747035Y-137545263D01*
X39804103Y-137258365D01*
X39804103Y-136965845D01*
X39760312Y-136745697D01*
X40620259Y-135885751D01*
X42191781Y-135885751D01*
X42229103Y-135889427D01*
X42266425Y-135885751D01*
X42266436Y-135885751D01*
X42378089Y-135874754D01*
X42521350Y-135831297D01*
X42653379Y-135760725D01*
X42769104Y-135665752D01*
X42792907Y-135636748D01*
X44319104Y-134110552D01*
X44319103Y-149277384D01*
X44310241Y-149367769D01*
X44294073Y-149421319D01*
X44267815Y-149470702D01*
X44232460Y-149514052D01*
X44189364Y-149549704D01*
X44140166Y-149576306D01*
X44086728Y-149592847D01*
X43998648Y-149602105D01*
X34563824Y-149602105D01*
X34279204Y-149574198D01*
X34038821Y-149501622D01*
X33817114Y-149383738D01*
X33622523Y-149225034D01*
X33462468Y-149031560D01*
X33343039Y-148810681D01*
X33268786Y-148570806D01*
X33239103Y-148288396D01*
X33239103Y-100702105D01*
X34291031Y-100702105D01*
X34291031Y-102402105D01*
X34303291Y-102526587D01*
X34339601Y-102646285D01*
X34398566Y-102756599D01*
X34477918Y-102853290D01*
X34574609Y-102932642D01*
X34684923Y-102991607D01*
X34757483Y-103013618D01*
X34625628Y-103145473D01*
X34463113Y-103388694D01*
X34351171Y-103658947D01*
X34294103Y-103945845D01*
X34294103Y-104238365D01*
X34351171Y-104525263D01*
X34463113Y-104795516D01*
X34625628Y-105038737D01*
X34832471Y-105245580D01*
X35006863Y-105362105D01*
X34832471Y-105478630D01*
X34625628Y-105685473D01*
X34463113Y-105928694D01*
X34351171Y-106198947D01*
X34294103Y-106485845D01*
X34294103Y-106778365D01*
X34351171Y-107065263D01*
X34463113Y-107335516D01*
X34625628Y-107578737D01*
X34832471Y-107785580D01*
X35006863Y-107902105D01*
X34832471Y-108018630D01*
X34625628Y-108225473D01*
X34463113Y-108468694D01*
X34351171Y-108738947D01*
X34294103Y-109025845D01*
X34294103Y-109318365D01*
X34351171Y-109605263D01*
X34463113Y-109875516D01*
X34625628Y-110118737D01*
X34832471Y-110325580D01*
X35006863Y-110442105D01*
X34832471Y-110558630D01*
X34625628Y-110765473D01*
X34463113Y-111008694D01*
X34351171Y-111278947D01*
X34294103Y-111565845D01*
X34294103Y-111858365D01*
X34351171Y-112145263D01*
X34463113Y-112415516D01*
X34625628Y-112658737D01*
X34832471Y-112865580D01*
X35006863Y-112982105D01*
X34832471Y-113098630D01*
X34625628Y-113305473D01*
X34463113Y-113548694D01*
X34351171Y-113818947D01*
X34294103Y-114105845D01*
X34294103Y-114398365D01*
X34351171Y-114685263D01*
X34463113Y-114955516D01*
X34625628Y-115198737D01*
X34832471Y-115405580D01*
X35006863Y-115522105D01*
X34832471Y-115638630D01*
X34625628Y-115845473D01*
X34463113Y-116088694D01*
X34351171Y-116358947D01*
X34294103Y-116645845D01*
X34294103Y-116938365D01*
X34351171Y-117225263D01*
X34463113Y-117495516D01*
X34625628Y-117738737D01*
X34832471Y-117945580D01*
X35006863Y-118062105D01*
X34832471Y-118178630D01*
X34625628Y-118385473D01*
X34463113Y-118628694D01*
X34351171Y-118898947D01*
X34294103Y-119185845D01*
X34294103Y-119478365D01*
X34351171Y-119765263D01*
X34463113Y-120035516D01*
X34625628Y-120278737D01*
X34832471Y-120485580D01*
X35006863Y-120602105D01*
X34832471Y-120718630D01*
X34625628Y-120925473D01*
X34463113Y-121168694D01*
X34351171Y-121438947D01*
X34294103Y-121725845D01*
X34294103Y-122018365D01*
X34351171Y-122305263D01*
X34463113Y-122575516D01*
X34625628Y-122818737D01*
X34832471Y-123025580D01*
X35014637Y-123147300D01*
X34897748Y-123216927D01*
X34681515Y-123411836D01*
X34507462Y-123645185D01*
X34382278Y-123908006D01*
X34337627Y-124055215D01*
X34458948Y-124285105D01*
X35652103Y-124285105D01*
X35652103Y-124265105D01*
X35906103Y-124265105D01*
X35906103Y-124285105D01*
X38192103Y-124285105D01*
X38192103Y-124265105D01*
X38446103Y-124265105D01*
X38446103Y-124285105D01*
X39639258Y-124285105D01*
X39760579Y-124055215D01*
X39715928Y-123908006D01*
X39590744Y-123645185D01*
X39416691Y-123411836D01*
X39200458Y-123216927D01*
X39083569Y-123147300D01*
X39265735Y-123025580D01*
X39472578Y-122818737D01*
X39635093Y-122575516D01*
X39747035Y-122305263D01*
X39804103Y-122018365D01*
X39804103Y-121725845D01*
X39747035Y-121438947D01*
X39635093Y-121168694D01*
X39472578Y-120925473D01*
X39265735Y-120718630D01*
X39091343Y-120602105D01*
X39265735Y-120485580D01*
X39472578Y-120278737D01*
X39635093Y-120035516D01*
X39747035Y-119765263D01*
X39804103Y-119478365D01*
X39804103Y-119185845D01*
X39747035Y-118898947D01*
X39635093Y-118628694D01*
X39472578Y-118385473D01*
X39399210Y-118312105D01*
X49826031Y-118312105D01*
X49838291Y-118436587D01*
X49874601Y-118556285D01*
X49933566Y-118666599D01*
X50012918Y-118763290D01*
X50109609Y-118842642D01*
X50219923Y-118901607D01*
X50339621Y-118937917D01*
X50464103Y-118950177D01*
X50478353Y-118947105D01*
X50637103Y-118788355D01*
X50637103Y-117589105D01*
X49987853Y-117589105D01*
X49829103Y-117747855D01*
X49826031Y-118312105D01*
X39399210Y-118312105D01*
X39265735Y-118178630D01*
X39091343Y-118062105D01*
X39265735Y-117945580D01*
X39472578Y-117738737D01*
X39635093Y-117495516D01*
X39747035Y-117225263D01*
X39804103Y-116938365D01*
X39804103Y-116645845D01*
X39797392Y-116612105D01*
X49826031Y-116612105D01*
X49829103Y-117176355D01*
X49987853Y-117335105D01*
X50637103Y-117335105D01*
X50637103Y-116135855D01*
X50478353Y-115977105D01*
X50464103Y-115974033D01*
X50339621Y-115986293D01*
X50219923Y-116022603D01*
X50109609Y-116081568D01*
X50012918Y-116160920D01*
X49933566Y-116257611D01*
X49874601Y-116367925D01*
X49838291Y-116487623D01*
X49826031Y-116612105D01*
X39797392Y-116612105D01*
X39747035Y-116358947D01*
X39635093Y-116088694D01*
X39472578Y-115845473D01*
X39265735Y-115638630D01*
X39091343Y-115522105D01*
X39265735Y-115405580D01*
X39472578Y-115198737D01*
X39635093Y-114955516D01*
X39747035Y-114685263D01*
X39804103Y-114398365D01*
X39804103Y-114105845D01*
X39747035Y-113818947D01*
X39635093Y-113548694D01*
X39472578Y-113305473D01*
X39329210Y-113162105D01*
X47776031Y-113162105D01*
X47776031Y-115362105D01*
X47793095Y-115535359D01*
X47843631Y-115701955D01*
X47925698Y-115855491D01*
X48036141Y-115990067D01*
X48170717Y-116100510D01*
X48324253Y-116182577D01*
X48490849Y-116233113D01*
X48664103Y-116250177D01*
X49164103Y-116250177D01*
X49337357Y-116233113D01*
X49503953Y-116182577D01*
X49657489Y-116100510D01*
X49792065Y-115990067D01*
X49902508Y-115855491D01*
X49984575Y-115701955D01*
X50035111Y-115535359D01*
X50052175Y-115362105D01*
X50052175Y-113162105D01*
X52726031Y-113162105D01*
X52726031Y-115362105D01*
X52743095Y-115535359D01*
X52793631Y-115701955D01*
X52875698Y-115855491D01*
X52986141Y-115990067D01*
X53120717Y-116100510D01*
X53274253Y-116182577D01*
X53440849Y-116233113D01*
X53614103Y-116250177D01*
X54114103Y-116250177D01*
X54287357Y-116233113D01*
X54453953Y-116182577D01*
X54607489Y-116100510D01*
X54742065Y-115990067D01*
X54852508Y-115855491D01*
X54934575Y-115701955D01*
X54985111Y-115535359D01*
X55002175Y-115362105D01*
X55002175Y-113162105D01*
X56716031Y-113162105D01*
X56716031Y-115362105D01*
X56733095Y-115535359D01*
X56783631Y-115701955D01*
X56865698Y-115855491D01*
X56976141Y-115990067D01*
X57110717Y-116100510D01*
X57264253Y-116182577D01*
X57430849Y-116233113D01*
X57604103Y-116250177D01*
X58104103Y-116250177D01*
X58277357Y-116233113D01*
X58443953Y-116182577D01*
X58597489Y-116100510D01*
X58732065Y-115990067D01*
X58842508Y-115855491D01*
X58924575Y-115701955D01*
X58975111Y-115535359D01*
X58992175Y-115362105D01*
X58992175Y-113162105D01*
X61666031Y-113162105D01*
X61666031Y-115362105D01*
X61683095Y-115535359D01*
X61733631Y-115701955D01*
X61815698Y-115855491D01*
X61926141Y-115990067D01*
X62060717Y-116100510D01*
X62214253Y-116182577D01*
X62380849Y-116233113D01*
X62554103Y-116250177D01*
X63054103Y-116250177D01*
X63227357Y-116233113D01*
X63393953Y-116182577D01*
X63547489Y-116100510D01*
X63682065Y-115990067D01*
X63792508Y-115855491D01*
X63874575Y-115701955D01*
X63925111Y-115535359D01*
X63942175Y-115362105D01*
X63942175Y-113162105D01*
X63925111Y-112988851D01*
X63874575Y-112822255D01*
X63792508Y-112668719D01*
X63682065Y-112534143D01*
X63547489Y-112423700D01*
X63393953Y-112341633D01*
X63227357Y-112291097D01*
X63054103Y-112274033D01*
X62554103Y-112274033D01*
X62380849Y-112291097D01*
X62214253Y-112341633D01*
X62060717Y-112423700D01*
X61926141Y-112534143D01*
X61815698Y-112668719D01*
X61733631Y-112822255D01*
X61683095Y-112988851D01*
X61666031Y-113162105D01*
X58992175Y-113162105D01*
X58975111Y-112988851D01*
X58924575Y-112822255D01*
X58842508Y-112668719D01*
X58732065Y-112534143D01*
X58597489Y-112423700D01*
X58443953Y-112341633D01*
X58277357Y-112291097D01*
X58104103Y-112274033D01*
X57604103Y-112274033D01*
X57430849Y-112291097D01*
X57264253Y-112341633D01*
X57110717Y-112423700D01*
X56976141Y-112534143D01*
X56865698Y-112668719D01*
X56783631Y-112822255D01*
X56733095Y-112988851D01*
X56716031Y-113162105D01*
X55002175Y-113162105D01*
X54985111Y-112988851D01*
X54934575Y-112822255D01*
X54852508Y-112668719D01*
X54742065Y-112534143D01*
X54607489Y-112423700D01*
X54453953Y-112341633D01*
X54287357Y-112291097D01*
X54114103Y-112274033D01*
X53614103Y-112274033D01*
X53440849Y-112291097D01*
X53274253Y-112341633D01*
X53120717Y-112423700D01*
X52986141Y-112534143D01*
X52875698Y-112668719D01*
X52793631Y-112822255D01*
X52743095Y-112988851D01*
X52726031Y-113162105D01*
X50052175Y-113162105D01*
X50035111Y-112988851D01*
X49984575Y-112822255D01*
X49902508Y-112668719D01*
X49792065Y-112534143D01*
X49657489Y-112423700D01*
X49503953Y-112341633D01*
X49337357Y-112291097D01*
X49164103Y-112274033D01*
X48664103Y-112274033D01*
X48490849Y-112291097D01*
X48324253Y-112341633D01*
X48170717Y-112423700D01*
X48036141Y-112534143D01*
X47925698Y-112668719D01*
X47843631Y-112822255D01*
X47793095Y-112988851D01*
X47776031Y-113162105D01*
X39329210Y-113162105D01*
X39265735Y-113098630D01*
X39091343Y-112982105D01*
X39265735Y-112865580D01*
X39472578Y-112658737D01*
X39635093Y-112415516D01*
X39747035Y-112145263D01*
X39804103Y-111858365D01*
X39804103Y-111565845D01*
X39747035Y-111278947D01*
X39635093Y-111008694D01*
X39472578Y-110765473D01*
X39265735Y-110558630D01*
X39083569Y-110436910D01*
X39200458Y-110367283D01*
X39416691Y-110172374D01*
X39590744Y-109939025D01*
X39715928Y-109676204D01*
X39760579Y-109528995D01*
X39639258Y-109299105D01*
X38446103Y-109299105D01*
X38446103Y-109319105D01*
X38192103Y-109319105D01*
X38192103Y-109299105D01*
X38172103Y-109299105D01*
X38172103Y-109045105D01*
X38192103Y-109045105D01*
X38192103Y-109025105D01*
X38446103Y-109025105D01*
X38446103Y-109045105D01*
X39639258Y-109045105D01*
X39760579Y-108815215D01*
X39715928Y-108668006D01*
X39590744Y-108405185D01*
X39416691Y-108171836D01*
X39200458Y-107976927D01*
X39083569Y-107907300D01*
X39265735Y-107785580D01*
X39472578Y-107578737D01*
X39635093Y-107335516D01*
X39747035Y-107065263D01*
X39804103Y-106778365D01*
X39804103Y-106485845D01*
X39747035Y-106198947D01*
X39635093Y-105928694D01*
X39472578Y-105685473D01*
X39265735Y-105478630D01*
X39091343Y-105362105D01*
X39265735Y-105245580D01*
X39472578Y-105038737D01*
X39635093Y-104795516D01*
X39747035Y-104525263D01*
X39804103Y-104238365D01*
X39804103Y-103945845D01*
X39747035Y-103658947D01*
X39635093Y-103388694D01*
X39472578Y-103145473D01*
X39265735Y-102938630D01*
X39091343Y-102822105D01*
X39265735Y-102705580D01*
X39472578Y-102498737D01*
X39635093Y-102255516D01*
X39747035Y-101985263D01*
X39804103Y-101698365D01*
X39804103Y-101405845D01*
X39747035Y-101118947D01*
X39635093Y-100848694D01*
X39472578Y-100605473D01*
X39265735Y-100398630D01*
X39022514Y-100236115D01*
X38752261Y-100124173D01*
X38465363Y-100067105D01*
X38172843Y-100067105D01*
X37885945Y-100124173D01*
X37615692Y-100236115D01*
X37372471Y-100398630D01*
X37240616Y-100530485D01*
X37218605Y-100457925D01*
X37159640Y-100347611D01*
X37080288Y-100250920D01*
X36983597Y-100171568D01*
X36873283Y-100112603D01*
X36753585Y-100076293D01*
X36629103Y-100064033D01*
X34929103Y-100064033D01*
X34804621Y-100076293D01*
X34684923Y-100112603D01*
X34574609Y-100171568D01*
X34477918Y-100250920D01*
X34398566Y-100347611D01*
X34339601Y-100457925D01*
X34303291Y-100577623D01*
X34291031Y-100702105D01*
X33239103Y-100702105D01*
X33239103Y-97501765D01*
X41060419Y-97501765D01*
X41060419Y-97962445D01*
X41150293Y-98414274D01*
X41326588Y-98839887D01*
X41582528Y-99222929D01*
X41908279Y-99548680D01*
X42291321Y-99804620D01*
X42716934Y-99980915D01*
X43168763Y-100070789D01*
X43629443Y-100070789D01*
X44081272Y-99980915D01*
X44506885Y-99804620D01*
X44889927Y-99548680D01*
X45215678Y-99222929D01*
X45471618Y-98839887D01*
X45647913Y-98414274D01*
X45737787Y-97962445D01*
X45737787Y-97501765D01*
X45647913Y-97049936D01*
X45471618Y-96624323D01*
X45215678Y-96241281D01*
X44889927Y-95915530D01*
X44506885Y-95659590D01*
X44081272Y-95483295D01*
X43629443Y-95393421D01*
X43168763Y-95393421D01*
X42716934Y-95483295D01*
X42291321Y-95659590D01*
X41908279Y-95915530D01*
X41582528Y-96241281D01*
X41326588Y-96624323D01*
X41150293Y-97049936D01*
X41060419Y-97501765D01*
X33239103Y-97501765D01*
X33239103Y-94346827D01*
X33247966Y-94256440D01*
X33264133Y-94202891D01*
X33290391Y-94153508D01*
X33325744Y-94110160D01*
X33368843Y-94074505D01*
X33418040Y-94047904D01*
X33471478Y-94031363D01*
X33559558Y-94022105D01*
X46494381Y-94022105D01*
X46584768Y-94030968D01*
G37*
%TD.AperFunction*%
D17*
X73276031Y-113162105D02*
X73276031Y-115362105D01*
X73293095Y-115535359D01*
X73343631Y-115701955D01*
X73425698Y-115855491D01*
X73536141Y-115990067D01*
X73670717Y-116100510D01*
X73824253Y-116182577D01*
X73990849Y-116233113D01*
X74164103Y-116250177D01*
X74664103Y-116250177D01*
X74837357Y-116233113D01*
X75003953Y-116182577D01*
X75157489Y-116100510D01*
X75292065Y-115990067D01*
X75402508Y-115855491D01*
X75484575Y-115701955D01*
X75535111Y-115535359D01*
X75552175Y-115362105D01*
X75552175Y-113162105D01*
X75543311Y-113072105D01*
X77474895Y-113072105D01*
X77466031Y-113162105D01*
X77466031Y-115362105D01*
X77483095Y-115535359D01*
X77533631Y-115701955D01*
X77615698Y-115855491D01*
X77726141Y-115990067D01*
X77860717Y-116100510D01*
X78014253Y-116182577D01*
X78180849Y-116233113D01*
X78354103Y-116250177D01*
X78854103Y-116250177D01*
X79027357Y-116233113D01*
X79193953Y-116182577D01*
X79347489Y-116100510D01*
X79482065Y-115990067D01*
X79592508Y-115855491D01*
X79674575Y-115701955D01*
X79725111Y-115535359D01*
X79742175Y-115362105D01*
X79742175Y-113162105D01*
X79733311Y-113072105D01*
X84924895Y-113072105D01*
X84916031Y-113162105D01*
X84916031Y-114926556D01*
X84832920Y-114825286D01*
X84799147Y-114797569D01*
X84756535Y-114754957D01*
X84745226Y-114698102D01*
X84667205Y-114509744D01*
X84553937Y-114340226D01*
X84409774Y-114196063D01*
X84240256Y-114082795D01*
X84051898Y-114004774D01*
X83851939Y-113965000D01*
X83648061Y-113965000D01*
X83448102Y-114004774D01*
X83259744Y-114082795D01*
X83090226Y-114196063D01*
X82946063Y-114340226D01*
X82832795Y-114509744D01*
X82754774Y-114698102D01*
X82715000Y-114898061D01*
X82715000Y-115101939D01*
X82754774Y-115301898D01*
X82832795Y-115490256D01*
X82946063Y-115659774D01*
X83090226Y-115803937D01*
X83259744Y-115917205D01*
X83319104Y-115941793D01*
X83319104Y-116007757D01*
X83257848Y-115989176D01*
X83104103Y-115974033D01*
X82804103Y-115974033D01*
X82650358Y-115989176D01*
X82502521Y-116034021D01*
X82366274Y-116106847D01*
X82329103Y-116137352D01*
X82291932Y-116106847D01*
X82155685Y-116034021D01*
X82007848Y-115989176D01*
X81854103Y-115974033D01*
X81554103Y-115974033D01*
X81400358Y-115989176D01*
X81252521Y-116034021D01*
X81130278Y-116099361D01*
X81108597Y-116081568D01*
X80998283Y-116022603D01*
X80878585Y-115986293D01*
X80754103Y-115974033D01*
X80739853Y-115977105D01*
X80581103Y-116135855D01*
X80581103Y-117335105D01*
X80601103Y-117335105D01*
X80601103Y-117589105D01*
X80581103Y-117589105D01*
X80581103Y-118788355D01*
X80739853Y-118947105D01*
X80754103Y-118950177D01*
X80878585Y-118937917D01*
X80963049Y-118912295D01*
X80997269Y-119025105D01*
X80998557Y-119029351D01*
X81069129Y-119161381D01*
X81094792Y-119192651D01*
X81164102Y-119277106D01*
X81193105Y-119300908D01*
X81665313Y-119773117D01*
X81689112Y-119802116D01*
X81804837Y-119897089D01*
X81936866Y-119967661D01*
X82080127Y-120011118D01*
X82191780Y-120022115D01*
X82191789Y-120022115D01*
X82229112Y-120025791D01*
X82266435Y-120022115D01*
X87369290Y-120022115D01*
X84692374Y-122699033D01*
X84454103Y-122699033D01*
X84290603Y-122715136D01*
X84133387Y-122762827D01*
X83988495Y-122840274D01*
X83861497Y-122944499D01*
X83829103Y-122983971D01*
X83796709Y-122944499D01*
X83669711Y-122840274D01*
X83524819Y-122762827D01*
X83367603Y-122715136D01*
X83204103Y-122699033D01*
X82804103Y-122699033D01*
X82640603Y-122715136D01*
X82483387Y-122762827D01*
X82338495Y-122840274D01*
X82211497Y-122944499D01*
X82107272Y-123071497D01*
X82029825Y-123216389D01*
X81982134Y-123373605D01*
X81966031Y-123537105D01*
X81966031Y-124087105D01*
X81982134Y-124250605D01*
X82029825Y-124407821D01*
X82107272Y-124552713D01*
X82119104Y-124567130D01*
X82119104Y-124710625D01*
X82114822Y-124754103D01*
X82131908Y-124927593D01*
X82182515Y-125094416D01*
X82264693Y-125248162D01*
X82347571Y-125349149D01*
X82347574Y-125349152D01*
X82369196Y-125375499D01*
X82324405Y-125379910D01*
X82157582Y-125430516D01*
X82003836Y-125512694D01*
X81989849Y-125524173D01*
X81902848Y-125595573D01*
X81902846Y-125595575D01*
X81869078Y-125623288D01*
X81841365Y-125657056D01*
X81504956Y-125993465D01*
X81448102Y-126004774D01*
X81259744Y-126082795D01*
X81090226Y-126196063D01*
X80946063Y-126340226D01*
X80832795Y-126509744D01*
X80789103Y-126615225D01*
X80789103Y-125313017D01*
X80792779Y-125275694D01*
X80789103Y-125238371D01*
X80789103Y-125238362D01*
X80778106Y-125126709D01*
X80734649Y-124983448D01*
X80709490Y-124936380D01*
X80664077Y-124851418D01*
X80592902Y-124764692D01*
X80569104Y-124735694D01*
X80540107Y-124711897D01*
X78379307Y-122551098D01*
X78355504Y-122522094D01*
X78239779Y-122427121D01*
X78107750Y-122356549D01*
X77964489Y-122313092D01*
X77852836Y-122302095D01*
X77852825Y-122302095D01*
X77815503Y-122298419D01*
X77778181Y-122302095D01*
X73343905Y-122302095D01*
X72074103Y-121032294D01*
X72074103Y-119046578D01*
X73241031Y-120213507D01*
X73241031Y-120350000D01*
X73243439Y-120374450D01*
X73243439Y-120399009D01*
X73255699Y-120523490D01*
X73274821Y-120619623D01*
X73311130Y-120739319D01*
X73348639Y-120829875D01*
X73407605Y-120940192D01*
X73462061Y-121021691D01*
X73541413Y-121118382D01*
X73610721Y-121187690D01*
X73707412Y-121267042D01*
X73788911Y-121321498D01*
X73899228Y-121380464D01*
X73989784Y-121417973D01*
X74109480Y-121454282D01*
X74205613Y-121473404D01*
X74330094Y-121485664D01*
X74354653Y-121485664D01*
X74379103Y-121488072D01*
X74879103Y-121488072D01*
X75003585Y-121475812D01*
X75029103Y-121468071D01*
X75054621Y-121475812D01*
X75179103Y-121488072D01*
X75679103Y-121488072D01*
X75703553Y-121485664D01*
X75728112Y-121485664D01*
X75852593Y-121473404D01*
X75948726Y-121454282D01*
X76068422Y-121417973D01*
X76158978Y-121380464D01*
X76269295Y-121321498D01*
X76350794Y-121267042D01*
X76447485Y-121187690D01*
X76516793Y-121118382D01*
X76596145Y-121021691D01*
X76650601Y-120940192D01*
X76709567Y-120829875D01*
X76747076Y-120739319D01*
X76783385Y-120619623D01*
X76802507Y-120523490D01*
X76814767Y-120399009D01*
X76814767Y-120374450D01*
X76817175Y-120350000D01*
X76817175Y-120213507D01*
X77095049Y-119935633D01*
X77128817Y-119907920D01*
X77158232Y-119872079D01*
X77239411Y-119773162D01*
X77321589Y-119619417D01*
X77372195Y-119452593D01*
X77374212Y-119432110D01*
X77385000Y-119322580D01*
X77385000Y-119322572D01*
X77389281Y-119279103D01*
X77385000Y-119235634D01*
X77385000Y-118312105D01*
X79516031Y-118312105D01*
X79528291Y-118436587D01*
X79564601Y-118556285D01*
X79623566Y-118666599D01*
X79702918Y-118763290D01*
X79799609Y-118842642D01*
X79909923Y-118901607D01*
X80029621Y-118937917D01*
X80154103Y-118950177D01*
X80168353Y-118947105D01*
X80327103Y-118788355D01*
X80327103Y-117589105D01*
X79677853Y-117589105D01*
X79519103Y-117747855D01*
X79516031Y-118312105D01*
X77385000Y-118312105D01*
X77385000Y-117038454D01*
X77417205Y-116990256D01*
X77495226Y-116801898D01*
X77532977Y-116612105D01*
X79516031Y-116612105D01*
X79519103Y-117176355D01*
X79677853Y-117335105D01*
X80327103Y-117335105D01*
X80327103Y-116135855D01*
X80168353Y-115977105D01*
X80154103Y-115974033D01*
X80029621Y-115986293D01*
X79909923Y-116022603D01*
X79799609Y-116081568D01*
X79702918Y-116160920D01*
X79623566Y-116257611D01*
X79564601Y-116367925D01*
X79528291Y-116487623D01*
X79516031Y-116612105D01*
X77532977Y-116612105D01*
X77535000Y-116601939D01*
X77535000Y-116398061D01*
X77495226Y-116198102D01*
X77417205Y-116009744D01*
X77303937Y-115840226D01*
X77159774Y-115696063D01*
X76990256Y-115582795D01*
X76801898Y-115504774D01*
X76601939Y-115465000D01*
X76398061Y-115465000D01*
X76198102Y-115504774D01*
X76009744Y-115582795D01*
X75840226Y-115696063D01*
X75696063Y-115840226D01*
X75582795Y-116009744D01*
X75504774Y-116198102D01*
X75465000Y-116398061D01*
X75465000Y-116601939D01*
X75504774Y-116801898D01*
X75582795Y-116990256D01*
X75615000Y-117038455D01*
X75615001Y-118711928D01*
X75179103Y-118711928D01*
X75054621Y-118724188D01*
X75029103Y-118731929D01*
X75003585Y-118724188D01*
X74879103Y-118711928D01*
X74379103Y-118711928D01*
X74354653Y-118714336D01*
X74330094Y-118714336D01*
X74252645Y-118721964D01*
X73502175Y-117971494D01*
X73502175Y-116762105D01*
X73487032Y-116608360D01*
X73442187Y-116460523D01*
X73369361Y-116324276D01*
X73271354Y-116204854D01*
X73151932Y-116106847D01*
X73015685Y-116034021D01*
X72867848Y-115989176D01*
X72714103Y-115974033D01*
X72414103Y-115974033D01*
X72260358Y-115989176D01*
X72112521Y-116034021D01*
X71976274Y-116106847D01*
X71939103Y-116137352D01*
X71901932Y-116106847D01*
X71765685Y-116034021D01*
X71617848Y-115989176D01*
X71464103Y-115974033D01*
X71164103Y-115974033D01*
X71010358Y-115989176D01*
X70862521Y-116034021D01*
X70726274Y-116106847D01*
X70689103Y-116137352D01*
X70651932Y-116106847D01*
X70515685Y-116034021D01*
X70367848Y-115989176D01*
X70214103Y-115974033D01*
X69914103Y-115974033D01*
X69760358Y-115989176D01*
X69612521Y-116034021D01*
X69490278Y-116099361D01*
X69468597Y-116081568D01*
X69358283Y-116022603D01*
X69238585Y-115986293D01*
X69114103Y-115974033D01*
X69099853Y-115977105D01*
X68941103Y-116135855D01*
X68941103Y-117335105D01*
X68961103Y-117335105D01*
X68961103Y-117589105D01*
X68941103Y-117589105D01*
X68941103Y-118788355D01*
X69099853Y-118947105D01*
X69114103Y-118950177D01*
X69238585Y-118937917D01*
X69304103Y-118918042D01*
X69304104Y-120709773D01*
X69300427Y-120747105D01*
X69304104Y-120784438D01*
X69309519Y-120839411D01*
X69315101Y-120896090D01*
X69358557Y-121039351D01*
X69429129Y-121171381D01*
X69498664Y-121256109D01*
X69524103Y-121287106D01*
X69553101Y-121310904D01*
X72265308Y-124023113D01*
X72289102Y-124052106D01*
X72318095Y-124075900D01*
X72318099Y-124075904D01*
X72378272Y-124125286D01*
X72404827Y-124147079D01*
X72536856Y-124217651D01*
X72680117Y-124261108D01*
X72791770Y-124272105D01*
X72791779Y-124272105D01*
X72829102Y-124275781D01*
X72866425Y-124272105D01*
X77314302Y-124272105D01*
X78769103Y-125726907D01*
X78769103Y-127692989D01*
X78672489Y-127613700D01*
X78518953Y-127531633D01*
X78352357Y-127481097D01*
X78179103Y-127464033D01*
X77679103Y-127464033D01*
X77505849Y-127481097D01*
X77339253Y-127531633D01*
X77185717Y-127613700D01*
X77051141Y-127724143D01*
X76940698Y-127858719D01*
X76858631Y-128012255D01*
X76808095Y-128178851D01*
X76791031Y-128352105D01*
X76791031Y-130552105D01*
X76808095Y-130725359D01*
X76858631Y-130891955D01*
X76940698Y-131045491D01*
X77051141Y-131180067D01*
X77185717Y-131290510D01*
X77339253Y-131372577D01*
X77505849Y-131423113D01*
X77679103Y-131440177D01*
X78179103Y-131440177D01*
X78352357Y-131423113D01*
X78518953Y-131372577D01*
X78672489Y-131290510D01*
X78807065Y-131180067D01*
X78917508Y-131045491D01*
X78999575Y-130891955D01*
X79007166Y-130866930D01*
X79018101Y-130875904D01*
X79744302Y-131602105D01*
X75482398Y-131602105D01*
X75534649Y-131504352D01*
X75578106Y-131361091D01*
X75589103Y-131249438D01*
X75589103Y-131249430D01*
X75592779Y-131212105D01*
X75589103Y-131174780D01*
X75589103Y-127708042D01*
X75654621Y-127727917D01*
X75779103Y-127740177D01*
X75793353Y-127737105D01*
X75952103Y-127578355D01*
X75952103Y-126379105D01*
X76206103Y-126379105D01*
X76206103Y-127578355D01*
X76364853Y-127737105D01*
X76379103Y-127740177D01*
X76503585Y-127727917D01*
X76623283Y-127691607D01*
X76733597Y-127632642D01*
X76830288Y-127553290D01*
X76909640Y-127456599D01*
X76968605Y-127346285D01*
X77004915Y-127226587D01*
X77017175Y-127102105D01*
X77014103Y-126537855D01*
X76855353Y-126379105D01*
X76206103Y-126379105D01*
X75952103Y-126379105D01*
X75932103Y-126379105D01*
X75932103Y-126125105D01*
X75952103Y-126125105D01*
X75952103Y-124925855D01*
X76206103Y-124925855D01*
X76206103Y-126125105D01*
X76855353Y-126125105D01*
X77014103Y-125966355D01*
X77017175Y-125402105D01*
X77004915Y-125277623D01*
X76968605Y-125157925D01*
X76909640Y-125047611D01*
X76830288Y-124950920D01*
X76733597Y-124871568D01*
X76623283Y-124812603D01*
X76503585Y-124776293D01*
X76379103Y-124764033D01*
X76364853Y-124767105D01*
X76206103Y-124925855D01*
X75952103Y-124925855D01*
X75793353Y-124767105D01*
X75779103Y-124764033D01*
X75654621Y-124776293D01*
X75534923Y-124812603D01*
X75424609Y-124871568D01*
X75402928Y-124889361D01*
X75280685Y-124824021D01*
X75132848Y-124779176D01*
X74979103Y-124764033D01*
X74679103Y-124764033D01*
X74525358Y-124779176D01*
X74377521Y-124824021D01*
X74241274Y-124896847D01*
X74204103Y-124927352D01*
X74166932Y-124896847D01*
X74030685Y-124824021D01*
X73882848Y-124779176D01*
X73729103Y-124764033D01*
X73429103Y-124764033D01*
X73275358Y-124779176D01*
X73127521Y-124824021D01*
X72991274Y-124896847D01*
X72871852Y-124994854D01*
X72773845Y-125114276D01*
X72701019Y-125250523D01*
X72664396Y-125371254D01*
X72576510Y-125379910D01*
X72409687Y-125430516D01*
X72255941Y-125512694D01*
X72241954Y-125524173D01*
X72154953Y-125595573D01*
X72154951Y-125595575D01*
X72121183Y-125623288D01*
X72093470Y-125657056D01*
X71757061Y-125993465D01*
X71700207Y-126004774D01*
X71511849Y-126082795D01*
X71342331Y-126196063D01*
X71198168Y-126340226D01*
X71084900Y-126509744D01*
X71006879Y-126698102D01*
X70967105Y-126898061D01*
X70967105Y-127101939D01*
X71006879Y-127301898D01*
X71084900Y-127490256D01*
X71119575Y-127542151D01*
X70985717Y-127613700D01*
X70851141Y-127724143D01*
X70740698Y-127858719D01*
X70658631Y-128012255D01*
X70608095Y-128178851D01*
X70591031Y-128352105D01*
X70591031Y-130552105D01*
X70608095Y-130725359D01*
X70658631Y-130891955D01*
X70690782Y-130952105D01*
X68967424Y-130952105D01*
X68999575Y-130891955D01*
X69050111Y-130725359D01*
X69067175Y-130552105D01*
X69067175Y-128352105D01*
X69050111Y-128178851D01*
X68999575Y-128012255D01*
X68917508Y-127858719D01*
X68807065Y-127724143D01*
X68672489Y-127613700D01*
X68518953Y-127531633D01*
X68352357Y-127481097D01*
X68179103Y-127464033D01*
X67679103Y-127464033D01*
X67505849Y-127481097D01*
X67339253Y-127531633D01*
X67185717Y-127613700D01*
X67051141Y-127724143D01*
X66940698Y-127858719D01*
X66858631Y-128012255D01*
X66808095Y-128178851D01*
X66791031Y-128352105D01*
X66791031Y-130552105D01*
X66808095Y-130725359D01*
X66858631Y-130891955D01*
X66890782Y-130952105D01*
X64163904Y-130952105D01*
X65340106Y-129775904D01*
X65369104Y-129752106D01*
X65421855Y-129687829D01*
X65464077Y-129636382D01*
X65534649Y-129504352D01*
X65552022Y-129447079D01*
X65578106Y-129361091D01*
X65589103Y-129249438D01*
X65589103Y-129249429D01*
X65592779Y-129212106D01*
X65589103Y-129174783D01*
X65589103Y-127708042D01*
X65654621Y-127727917D01*
X65779103Y-127740177D01*
X65793353Y-127737105D01*
X65952103Y-127578355D01*
X65952103Y-126379105D01*
X66206103Y-126379105D01*
X66206103Y-127578355D01*
X66364853Y-127737105D01*
X66379103Y-127740177D01*
X66503585Y-127727917D01*
X66623283Y-127691607D01*
X66733597Y-127632642D01*
X66830288Y-127553290D01*
X66909640Y-127456599D01*
X66968605Y-127346285D01*
X67004915Y-127226587D01*
X67017175Y-127102105D01*
X67014103Y-126537855D01*
X66855353Y-126379105D01*
X66206103Y-126379105D01*
X65952103Y-126379105D01*
X65932103Y-126379105D01*
X65932103Y-126125105D01*
X65952103Y-126125105D01*
X65952103Y-124925855D01*
X66206103Y-124925855D01*
X66206103Y-126125105D01*
X66855353Y-126125105D01*
X67014103Y-125966355D01*
X67017175Y-125402105D01*
X67004915Y-125277623D01*
X66968605Y-125157925D01*
X66909640Y-125047611D01*
X66830288Y-124950920D01*
X66733597Y-124871568D01*
X66623283Y-124812603D01*
X66503585Y-124776293D01*
X66379103Y-124764033D01*
X66364853Y-124767105D01*
X66206103Y-124925855D01*
X65952103Y-124925855D01*
X65793353Y-124767105D01*
X65779103Y-124764033D01*
X65654621Y-124776293D01*
X65534923Y-124812603D01*
X65424609Y-124871568D01*
X65402928Y-124889361D01*
X65280685Y-124824021D01*
X65132848Y-124779176D01*
X64979103Y-124764033D01*
X64679103Y-124764033D01*
X64525358Y-124779176D01*
X64522323Y-124780097D01*
X65790107Y-123512313D01*
X65819104Y-123488516D01*
X65914077Y-123372791D01*
X65984649Y-123240762D01*
X66028106Y-123097501D01*
X66039103Y-122985848D01*
X66039103Y-122985840D01*
X66042779Y-122948515D01*
X66039103Y-122911190D01*
X66039103Y-118312105D01*
X67876031Y-118312105D01*
X67888291Y-118436587D01*
X67924601Y-118556285D01*
X67983566Y-118666599D01*
X68062918Y-118763290D01*
X68159609Y-118842642D01*
X68269923Y-118901607D01*
X68389621Y-118937917D01*
X68514103Y-118950177D01*
X68528353Y-118947105D01*
X68687103Y-118788355D01*
X68687103Y-117589105D01*
X68037853Y-117589105D01*
X67879103Y-117747855D01*
X67876031Y-118312105D01*
X66039103Y-118312105D01*
X66039103Y-116612105D01*
X67876031Y-116612105D01*
X67879103Y-117176355D01*
X68037853Y-117335105D01*
X68687103Y-117335105D01*
X68687103Y-116135855D01*
X68528353Y-115977105D01*
X68514103Y-115974033D01*
X68389621Y-115986293D01*
X68269923Y-116022603D01*
X68159609Y-116081568D01*
X68062918Y-116160920D01*
X67983566Y-116257611D01*
X67924601Y-116367925D01*
X67888291Y-116487623D01*
X67876031Y-116612105D01*
X66039103Y-116612105D01*
X66039103Y-115932751D01*
X66086141Y-115990067D01*
X66220717Y-116100510D01*
X66374253Y-116182577D01*
X66540849Y-116233113D01*
X66714103Y-116250177D01*
X67214103Y-116250177D01*
X67387357Y-116233113D01*
X67553953Y-116182577D01*
X67707489Y-116100510D01*
X67842065Y-115990067D01*
X67952508Y-115855491D01*
X68034575Y-115701955D01*
X68085111Y-115535359D01*
X68102175Y-115362105D01*
X68102175Y-113162105D01*
X68093311Y-113072105D01*
X73284895Y-113072105D01*
X73276031Y-113162105D01*
%TA.AperFunction,Conductor*%
D18*
G36*
X73276031Y-113162105D02*
G01*
X73276031Y-115362105D01*
X73293095Y-115535359D01*
X73343631Y-115701955D01*
X73425698Y-115855491D01*
X73536141Y-115990067D01*
X73670717Y-116100510D01*
X73824253Y-116182577D01*
X73990849Y-116233113D01*
X74164103Y-116250177D01*
X74664103Y-116250177D01*
X74837357Y-116233113D01*
X75003953Y-116182577D01*
X75157489Y-116100510D01*
X75292065Y-115990067D01*
X75402508Y-115855491D01*
X75484575Y-115701955D01*
X75535111Y-115535359D01*
X75552175Y-115362105D01*
X75552175Y-113162105D01*
X75543311Y-113072105D01*
X77474895Y-113072105D01*
X77466031Y-113162105D01*
X77466031Y-115362105D01*
X77483095Y-115535359D01*
X77533631Y-115701955D01*
X77615698Y-115855491D01*
X77726141Y-115990067D01*
X77860717Y-116100510D01*
X78014253Y-116182577D01*
X78180849Y-116233113D01*
X78354103Y-116250177D01*
X78854103Y-116250177D01*
X79027357Y-116233113D01*
X79193953Y-116182577D01*
X79347489Y-116100510D01*
X79482065Y-115990067D01*
X79592508Y-115855491D01*
X79674575Y-115701955D01*
X79725111Y-115535359D01*
X79742175Y-115362105D01*
X79742175Y-113162105D01*
X79733311Y-113072105D01*
X84924895Y-113072105D01*
X84916031Y-113162105D01*
X84916031Y-114926556D01*
X84832920Y-114825286D01*
X84799147Y-114797569D01*
X84756535Y-114754957D01*
X84745226Y-114698102D01*
X84667205Y-114509744D01*
X84553937Y-114340226D01*
X84409774Y-114196063D01*
X84240256Y-114082795D01*
X84051898Y-114004774D01*
X83851939Y-113965000D01*
X83648061Y-113965000D01*
X83448102Y-114004774D01*
X83259744Y-114082795D01*
X83090226Y-114196063D01*
X82946063Y-114340226D01*
X82832795Y-114509744D01*
X82754774Y-114698102D01*
X82715000Y-114898061D01*
X82715000Y-115101939D01*
X82754774Y-115301898D01*
X82832795Y-115490256D01*
X82946063Y-115659774D01*
X83090226Y-115803937D01*
X83259744Y-115917205D01*
X83319104Y-115941793D01*
X83319104Y-116007757D01*
X83257848Y-115989176D01*
X83104103Y-115974033D01*
X82804103Y-115974033D01*
X82650358Y-115989176D01*
X82502521Y-116034021D01*
X82366274Y-116106847D01*
X82329103Y-116137352D01*
X82291932Y-116106847D01*
X82155685Y-116034021D01*
X82007848Y-115989176D01*
X81854103Y-115974033D01*
X81554103Y-115974033D01*
X81400358Y-115989176D01*
X81252521Y-116034021D01*
X81130278Y-116099361D01*
X81108597Y-116081568D01*
X80998283Y-116022603D01*
X80878585Y-115986293D01*
X80754103Y-115974033D01*
X80739853Y-115977105D01*
X80581103Y-116135855D01*
X80581103Y-117335105D01*
X80601103Y-117335105D01*
X80601103Y-117589105D01*
X80581103Y-117589105D01*
X80581103Y-118788355D01*
X80739853Y-118947105D01*
X80754103Y-118950177D01*
X80878585Y-118937917D01*
X80963049Y-118912295D01*
X80997269Y-119025105D01*
X80998557Y-119029351D01*
X81069129Y-119161381D01*
X81094792Y-119192651D01*
X81164102Y-119277106D01*
X81193105Y-119300908D01*
X81665313Y-119773117D01*
X81689112Y-119802116D01*
X81804837Y-119897089D01*
X81936866Y-119967661D01*
X82080127Y-120011118D01*
X82191780Y-120022115D01*
X82191789Y-120022115D01*
X82229112Y-120025791D01*
X82266435Y-120022115D01*
X87369290Y-120022115D01*
X84692374Y-122699033D01*
X84454103Y-122699033D01*
X84290603Y-122715136D01*
X84133387Y-122762827D01*
X83988495Y-122840274D01*
X83861497Y-122944499D01*
X83829103Y-122983971D01*
X83796709Y-122944499D01*
X83669711Y-122840274D01*
X83524819Y-122762827D01*
X83367603Y-122715136D01*
X83204103Y-122699033D01*
X82804103Y-122699033D01*
X82640603Y-122715136D01*
X82483387Y-122762827D01*
X82338495Y-122840274D01*
X82211497Y-122944499D01*
X82107272Y-123071497D01*
X82029825Y-123216389D01*
X81982134Y-123373605D01*
X81966031Y-123537105D01*
X81966031Y-124087105D01*
X81982134Y-124250605D01*
X82029825Y-124407821D01*
X82107272Y-124552713D01*
X82119104Y-124567130D01*
X82119104Y-124710625D01*
X82114822Y-124754103D01*
X82131908Y-124927593D01*
X82182515Y-125094416D01*
X82264693Y-125248162D01*
X82347571Y-125349149D01*
X82347574Y-125349152D01*
X82369196Y-125375499D01*
X82324405Y-125379910D01*
X82157582Y-125430516D01*
X82003836Y-125512694D01*
X81989849Y-125524173D01*
X81902848Y-125595573D01*
X81902846Y-125595575D01*
X81869078Y-125623288D01*
X81841365Y-125657056D01*
X81504956Y-125993465D01*
X81448102Y-126004774D01*
X81259744Y-126082795D01*
X81090226Y-126196063D01*
X80946063Y-126340226D01*
X80832795Y-126509744D01*
X80789103Y-126615225D01*
X80789103Y-125313017D01*
X80792779Y-125275694D01*
X80789103Y-125238371D01*
X80789103Y-125238362D01*
X80778106Y-125126709D01*
X80734649Y-124983448D01*
X80709490Y-124936380D01*
X80664077Y-124851418D01*
X80592902Y-124764692D01*
X80569104Y-124735694D01*
X80540107Y-124711897D01*
X78379307Y-122551098D01*
X78355504Y-122522094D01*
X78239779Y-122427121D01*
X78107750Y-122356549D01*
X77964489Y-122313092D01*
X77852836Y-122302095D01*
X77852825Y-122302095D01*
X77815503Y-122298419D01*
X77778181Y-122302095D01*
X73343905Y-122302095D01*
X72074103Y-121032294D01*
X72074103Y-119046578D01*
X73241031Y-120213507D01*
X73241031Y-120350000D01*
X73243439Y-120374450D01*
X73243439Y-120399009D01*
X73255699Y-120523490D01*
X73274821Y-120619623D01*
X73311130Y-120739319D01*
X73348639Y-120829875D01*
X73407605Y-120940192D01*
X73462061Y-121021691D01*
X73541413Y-121118382D01*
X73610721Y-121187690D01*
X73707412Y-121267042D01*
X73788911Y-121321498D01*
X73899228Y-121380464D01*
X73989784Y-121417973D01*
X74109480Y-121454282D01*
X74205613Y-121473404D01*
X74330094Y-121485664D01*
X74354653Y-121485664D01*
X74379103Y-121488072D01*
X74879103Y-121488072D01*
X75003585Y-121475812D01*
X75029103Y-121468071D01*
X75054621Y-121475812D01*
X75179103Y-121488072D01*
X75679103Y-121488072D01*
X75703553Y-121485664D01*
X75728112Y-121485664D01*
X75852593Y-121473404D01*
X75948726Y-121454282D01*
X76068422Y-121417973D01*
X76158978Y-121380464D01*
X76269295Y-121321498D01*
X76350794Y-121267042D01*
X76447485Y-121187690D01*
X76516793Y-121118382D01*
X76596145Y-121021691D01*
X76650601Y-120940192D01*
X76709567Y-120829875D01*
X76747076Y-120739319D01*
X76783385Y-120619623D01*
X76802507Y-120523490D01*
X76814767Y-120399009D01*
X76814767Y-120374450D01*
X76817175Y-120350000D01*
X76817175Y-120213507D01*
X77095049Y-119935633D01*
X77128817Y-119907920D01*
X77158232Y-119872079D01*
X77239411Y-119773162D01*
X77321589Y-119619417D01*
X77372195Y-119452593D01*
X77374212Y-119432110D01*
X77385000Y-119322580D01*
X77385000Y-119322572D01*
X77389281Y-119279103D01*
X77385000Y-119235634D01*
X77385000Y-118312105D01*
X79516031Y-118312105D01*
X79528291Y-118436587D01*
X79564601Y-118556285D01*
X79623566Y-118666599D01*
X79702918Y-118763290D01*
X79799609Y-118842642D01*
X79909923Y-118901607D01*
X80029621Y-118937917D01*
X80154103Y-118950177D01*
X80168353Y-118947105D01*
X80327103Y-118788355D01*
X80327103Y-117589105D01*
X79677853Y-117589105D01*
X79519103Y-117747855D01*
X79516031Y-118312105D01*
X77385000Y-118312105D01*
X77385000Y-117038454D01*
X77417205Y-116990256D01*
X77495226Y-116801898D01*
X77532977Y-116612105D01*
X79516031Y-116612105D01*
X79519103Y-117176355D01*
X79677853Y-117335105D01*
X80327103Y-117335105D01*
X80327103Y-116135855D01*
X80168353Y-115977105D01*
X80154103Y-115974033D01*
X80029621Y-115986293D01*
X79909923Y-116022603D01*
X79799609Y-116081568D01*
X79702918Y-116160920D01*
X79623566Y-116257611D01*
X79564601Y-116367925D01*
X79528291Y-116487623D01*
X79516031Y-116612105D01*
X77532977Y-116612105D01*
X77535000Y-116601939D01*
X77535000Y-116398061D01*
X77495226Y-116198102D01*
X77417205Y-116009744D01*
X77303937Y-115840226D01*
X77159774Y-115696063D01*
X76990256Y-115582795D01*
X76801898Y-115504774D01*
X76601939Y-115465000D01*
X76398061Y-115465000D01*
X76198102Y-115504774D01*
X76009744Y-115582795D01*
X75840226Y-115696063D01*
X75696063Y-115840226D01*
X75582795Y-116009744D01*
X75504774Y-116198102D01*
X75465000Y-116398061D01*
X75465000Y-116601939D01*
X75504774Y-116801898D01*
X75582795Y-116990256D01*
X75615000Y-117038455D01*
X75615001Y-118711928D01*
X75179103Y-118711928D01*
X75054621Y-118724188D01*
X75029103Y-118731929D01*
X75003585Y-118724188D01*
X74879103Y-118711928D01*
X74379103Y-118711928D01*
X74354653Y-118714336D01*
X74330094Y-118714336D01*
X74252645Y-118721964D01*
X73502175Y-117971494D01*
X73502175Y-116762105D01*
X73487032Y-116608360D01*
X73442187Y-116460523D01*
X73369361Y-116324276D01*
X73271354Y-116204854D01*
X73151932Y-116106847D01*
X73015685Y-116034021D01*
X72867848Y-115989176D01*
X72714103Y-115974033D01*
X72414103Y-115974033D01*
X72260358Y-115989176D01*
X72112521Y-116034021D01*
X71976274Y-116106847D01*
X71939103Y-116137352D01*
X71901932Y-116106847D01*
X71765685Y-116034021D01*
X71617848Y-115989176D01*
X71464103Y-115974033D01*
X71164103Y-115974033D01*
X71010358Y-115989176D01*
X70862521Y-116034021D01*
X70726274Y-116106847D01*
X70689103Y-116137352D01*
X70651932Y-116106847D01*
X70515685Y-116034021D01*
X70367848Y-115989176D01*
X70214103Y-115974033D01*
X69914103Y-115974033D01*
X69760358Y-115989176D01*
X69612521Y-116034021D01*
X69490278Y-116099361D01*
X69468597Y-116081568D01*
X69358283Y-116022603D01*
X69238585Y-115986293D01*
X69114103Y-115974033D01*
X69099853Y-115977105D01*
X68941103Y-116135855D01*
X68941103Y-117335105D01*
X68961103Y-117335105D01*
X68961103Y-117589105D01*
X68941103Y-117589105D01*
X68941103Y-118788355D01*
X69099853Y-118947105D01*
X69114103Y-118950177D01*
X69238585Y-118937917D01*
X69304103Y-118918042D01*
X69304104Y-120709773D01*
X69300427Y-120747105D01*
X69304104Y-120784438D01*
X69309519Y-120839411D01*
X69315101Y-120896090D01*
X69358557Y-121039351D01*
X69429129Y-121171381D01*
X69498664Y-121256109D01*
X69524103Y-121287106D01*
X69553101Y-121310904D01*
X72265308Y-124023113D01*
X72289102Y-124052106D01*
X72318095Y-124075900D01*
X72318099Y-124075904D01*
X72378272Y-124125286D01*
X72404827Y-124147079D01*
X72536856Y-124217651D01*
X72680117Y-124261108D01*
X72791770Y-124272105D01*
X72791779Y-124272105D01*
X72829102Y-124275781D01*
X72866425Y-124272105D01*
X77314302Y-124272105D01*
X78769103Y-125726907D01*
X78769103Y-127692989D01*
X78672489Y-127613700D01*
X78518953Y-127531633D01*
X78352357Y-127481097D01*
X78179103Y-127464033D01*
X77679103Y-127464033D01*
X77505849Y-127481097D01*
X77339253Y-127531633D01*
X77185717Y-127613700D01*
X77051141Y-127724143D01*
X76940698Y-127858719D01*
X76858631Y-128012255D01*
X76808095Y-128178851D01*
X76791031Y-128352105D01*
X76791031Y-130552105D01*
X76808095Y-130725359D01*
X76858631Y-130891955D01*
X76940698Y-131045491D01*
X77051141Y-131180067D01*
X77185717Y-131290510D01*
X77339253Y-131372577D01*
X77505849Y-131423113D01*
X77679103Y-131440177D01*
X78179103Y-131440177D01*
X78352357Y-131423113D01*
X78518953Y-131372577D01*
X78672489Y-131290510D01*
X78807065Y-131180067D01*
X78917508Y-131045491D01*
X78999575Y-130891955D01*
X79007166Y-130866930D01*
X79018101Y-130875904D01*
X79744302Y-131602105D01*
X75482398Y-131602105D01*
X75534649Y-131504352D01*
X75578106Y-131361091D01*
X75589103Y-131249438D01*
X75589103Y-131249430D01*
X75592779Y-131212105D01*
X75589103Y-131174780D01*
X75589103Y-127708042D01*
X75654621Y-127727917D01*
X75779103Y-127740177D01*
X75793353Y-127737105D01*
X75952103Y-127578355D01*
X75952103Y-126379105D01*
X76206103Y-126379105D01*
X76206103Y-127578355D01*
X76364853Y-127737105D01*
X76379103Y-127740177D01*
X76503585Y-127727917D01*
X76623283Y-127691607D01*
X76733597Y-127632642D01*
X76830288Y-127553290D01*
X76909640Y-127456599D01*
X76968605Y-127346285D01*
X77004915Y-127226587D01*
X77017175Y-127102105D01*
X77014103Y-126537855D01*
X76855353Y-126379105D01*
X76206103Y-126379105D01*
X75952103Y-126379105D01*
X75932103Y-126379105D01*
X75932103Y-126125105D01*
X75952103Y-126125105D01*
X75952103Y-124925855D01*
X76206103Y-124925855D01*
X76206103Y-126125105D01*
X76855353Y-126125105D01*
X77014103Y-125966355D01*
X77017175Y-125402105D01*
X77004915Y-125277623D01*
X76968605Y-125157925D01*
X76909640Y-125047611D01*
X76830288Y-124950920D01*
X76733597Y-124871568D01*
X76623283Y-124812603D01*
X76503585Y-124776293D01*
X76379103Y-124764033D01*
X76364853Y-124767105D01*
X76206103Y-124925855D01*
X75952103Y-124925855D01*
X75793353Y-124767105D01*
X75779103Y-124764033D01*
X75654621Y-124776293D01*
X75534923Y-124812603D01*
X75424609Y-124871568D01*
X75402928Y-124889361D01*
X75280685Y-124824021D01*
X75132848Y-124779176D01*
X74979103Y-124764033D01*
X74679103Y-124764033D01*
X74525358Y-124779176D01*
X74377521Y-124824021D01*
X74241274Y-124896847D01*
X74204103Y-124927352D01*
X74166932Y-124896847D01*
X74030685Y-124824021D01*
X73882848Y-124779176D01*
X73729103Y-124764033D01*
X73429103Y-124764033D01*
X73275358Y-124779176D01*
X73127521Y-124824021D01*
X72991274Y-124896847D01*
X72871852Y-124994854D01*
X72773845Y-125114276D01*
X72701019Y-125250523D01*
X72664396Y-125371254D01*
X72576510Y-125379910D01*
X72409687Y-125430516D01*
X72255941Y-125512694D01*
X72241954Y-125524173D01*
X72154953Y-125595573D01*
X72154951Y-125595575D01*
X72121183Y-125623288D01*
X72093470Y-125657056D01*
X71757061Y-125993465D01*
X71700207Y-126004774D01*
X71511849Y-126082795D01*
X71342331Y-126196063D01*
X71198168Y-126340226D01*
X71084900Y-126509744D01*
X71006879Y-126698102D01*
X70967105Y-126898061D01*
X70967105Y-127101939D01*
X71006879Y-127301898D01*
X71084900Y-127490256D01*
X71119575Y-127542151D01*
X70985717Y-127613700D01*
X70851141Y-127724143D01*
X70740698Y-127858719D01*
X70658631Y-128012255D01*
X70608095Y-128178851D01*
X70591031Y-128352105D01*
X70591031Y-130552105D01*
X70608095Y-130725359D01*
X70658631Y-130891955D01*
X70690782Y-130952105D01*
X68967424Y-130952105D01*
X68999575Y-130891955D01*
X69050111Y-130725359D01*
X69067175Y-130552105D01*
X69067175Y-128352105D01*
X69050111Y-128178851D01*
X68999575Y-128012255D01*
X68917508Y-127858719D01*
X68807065Y-127724143D01*
X68672489Y-127613700D01*
X68518953Y-127531633D01*
X68352357Y-127481097D01*
X68179103Y-127464033D01*
X67679103Y-127464033D01*
X67505849Y-127481097D01*
X67339253Y-127531633D01*
X67185717Y-127613700D01*
X67051141Y-127724143D01*
X66940698Y-127858719D01*
X66858631Y-128012255D01*
X66808095Y-128178851D01*
X66791031Y-128352105D01*
X66791031Y-130552105D01*
X66808095Y-130725359D01*
X66858631Y-130891955D01*
X66890782Y-130952105D01*
X64163904Y-130952105D01*
X65340106Y-129775904D01*
X65369104Y-129752106D01*
X65421855Y-129687829D01*
X65464077Y-129636382D01*
X65534649Y-129504352D01*
X65552022Y-129447079D01*
X65578106Y-129361091D01*
X65589103Y-129249438D01*
X65589103Y-129249429D01*
X65592779Y-129212106D01*
X65589103Y-129174783D01*
X65589103Y-127708042D01*
X65654621Y-127727917D01*
X65779103Y-127740177D01*
X65793353Y-127737105D01*
X65952103Y-127578355D01*
X65952103Y-126379105D01*
X66206103Y-126379105D01*
X66206103Y-127578355D01*
X66364853Y-127737105D01*
X66379103Y-127740177D01*
X66503585Y-127727917D01*
X66623283Y-127691607D01*
X66733597Y-127632642D01*
X66830288Y-127553290D01*
X66909640Y-127456599D01*
X66968605Y-127346285D01*
X67004915Y-127226587D01*
X67017175Y-127102105D01*
X67014103Y-126537855D01*
X66855353Y-126379105D01*
X66206103Y-126379105D01*
X65952103Y-126379105D01*
X65932103Y-126379105D01*
X65932103Y-126125105D01*
X65952103Y-126125105D01*
X65952103Y-124925855D01*
X66206103Y-124925855D01*
X66206103Y-126125105D01*
X66855353Y-126125105D01*
X67014103Y-125966355D01*
X67017175Y-125402105D01*
X67004915Y-125277623D01*
X66968605Y-125157925D01*
X66909640Y-125047611D01*
X66830288Y-124950920D01*
X66733597Y-124871568D01*
X66623283Y-124812603D01*
X66503585Y-124776293D01*
X66379103Y-124764033D01*
X66364853Y-124767105D01*
X66206103Y-124925855D01*
X65952103Y-124925855D01*
X65793353Y-124767105D01*
X65779103Y-124764033D01*
X65654621Y-124776293D01*
X65534923Y-124812603D01*
X65424609Y-124871568D01*
X65402928Y-124889361D01*
X65280685Y-124824021D01*
X65132848Y-124779176D01*
X64979103Y-124764033D01*
X64679103Y-124764033D01*
X64525358Y-124779176D01*
X64522323Y-124780097D01*
X65790107Y-123512313D01*
X65819104Y-123488516D01*
X65914077Y-123372791D01*
X65984649Y-123240762D01*
X66028106Y-123097501D01*
X66039103Y-122985848D01*
X66039103Y-122985840D01*
X66042779Y-122948515D01*
X66039103Y-122911190D01*
X66039103Y-118312105D01*
X67876031Y-118312105D01*
X67888291Y-118436587D01*
X67924601Y-118556285D01*
X67983566Y-118666599D01*
X68062918Y-118763290D01*
X68159609Y-118842642D01*
X68269923Y-118901607D01*
X68389621Y-118937917D01*
X68514103Y-118950177D01*
X68528353Y-118947105D01*
X68687103Y-118788355D01*
X68687103Y-117589105D01*
X68037853Y-117589105D01*
X67879103Y-117747855D01*
X67876031Y-118312105D01*
X66039103Y-118312105D01*
X66039103Y-116612105D01*
X67876031Y-116612105D01*
X67879103Y-117176355D01*
X68037853Y-117335105D01*
X68687103Y-117335105D01*
X68687103Y-116135855D01*
X68528353Y-115977105D01*
X68514103Y-115974033D01*
X68389621Y-115986293D01*
X68269923Y-116022603D01*
X68159609Y-116081568D01*
X68062918Y-116160920D01*
X67983566Y-116257611D01*
X67924601Y-116367925D01*
X67888291Y-116487623D01*
X67876031Y-116612105D01*
X66039103Y-116612105D01*
X66039103Y-115932751D01*
X66086141Y-115990067D01*
X66220717Y-116100510D01*
X66374253Y-116182577D01*
X66540849Y-116233113D01*
X66714103Y-116250177D01*
X67214103Y-116250177D01*
X67387357Y-116233113D01*
X67553953Y-116182577D01*
X67707489Y-116100510D01*
X67842065Y-115990067D01*
X67952508Y-115855491D01*
X68034575Y-115701955D01*
X68085111Y-115535359D01*
X68102175Y-115362105D01*
X68102175Y-113162105D01*
X68093311Y-113072105D01*
X73284895Y-113072105D01*
X73276031Y-113162105D01*
G37*
%TD.AperFunction*%
D17*
X95311171Y-121438947D02*
X95254103Y-121725845D01*
X95254103Y-122018365D01*
X95311171Y-122305263D01*
X95423113Y-122575516D01*
X95585628Y-122818737D01*
X95792471Y-123025580D01*
X95966863Y-123142105D01*
X95792471Y-123258630D01*
X95585628Y-123465473D01*
X95423113Y-123708694D01*
X95311171Y-123978947D01*
X95254103Y-124265845D01*
X95254103Y-124558365D01*
X95311171Y-124845263D01*
X95423113Y-125115516D01*
X95585628Y-125358737D01*
X95792471Y-125565580D01*
X95966863Y-125682105D01*
X95792471Y-125798630D01*
X95585628Y-126005473D01*
X95423113Y-126248694D01*
X95311171Y-126518947D01*
X95254103Y-126805845D01*
X95254103Y-127098365D01*
X95311171Y-127385263D01*
X95380279Y-127552105D01*
X92982814Y-127552105D01*
X92938877Y-127508168D01*
X92769359Y-127394900D01*
X92581001Y-127316879D01*
X92381042Y-127277105D01*
X92177164Y-127277105D01*
X91977205Y-127316879D01*
X91788847Y-127394900D01*
X91619329Y-127508168D01*
X91475166Y-127652331D01*
X91361898Y-127821849D01*
X91283877Y-128010207D01*
X91244103Y-128210166D01*
X91244103Y-128414044D01*
X91283877Y-128614003D01*
X91361898Y-128802361D01*
X91459262Y-128948077D01*
X91369329Y-129008168D01*
X91225166Y-129152331D01*
X91111898Y-129321849D01*
X91033877Y-129510207D01*
X90994103Y-129710166D01*
X90994103Y-129914044D01*
X91033877Y-130114003D01*
X91111898Y-130302361D01*
X91225166Y-130471879D01*
X91366162Y-130612875D01*
X91288847Y-130644900D01*
X91119329Y-130758168D01*
X90975166Y-130902331D01*
X90902653Y-131010854D01*
X90834089Y-130942290D01*
X90810286Y-130913286D01*
X90694561Y-130818313D01*
X90562532Y-130747741D01*
X90419271Y-130704284D01*
X90307618Y-130693287D01*
X90307607Y-130693287D01*
X90270285Y-130689611D01*
X90232963Y-130693287D01*
X89053270Y-130693287D01*
X89067175Y-130552105D01*
X89067175Y-128352105D01*
X89050111Y-128178851D01*
X88999575Y-128012255D01*
X88917508Y-127858719D01*
X88807065Y-127724143D01*
X88672489Y-127613700D01*
X88518953Y-127531633D01*
X88352357Y-127481097D01*
X88179103Y-127464033D01*
X87679103Y-127464033D01*
X87505849Y-127481097D01*
X87339253Y-127531633D01*
X87185717Y-127613700D01*
X87051141Y-127724143D01*
X86940698Y-127858719D01*
X86858631Y-128012255D01*
X86808095Y-128178851D01*
X86791031Y-128352105D01*
X86791031Y-130552105D01*
X86804936Y-130693287D01*
X82853270Y-130693287D01*
X82867175Y-130552105D01*
X82867175Y-128352105D01*
X82850111Y-128178851D01*
X82799575Y-128012255D01*
X82717508Y-127858719D01*
X82607065Y-127724143D01*
X82542530Y-127671181D01*
X82553937Y-127659774D01*
X82667205Y-127490256D01*
X82737176Y-127321332D01*
X82773845Y-127389934D01*
X82871852Y-127509356D01*
X82991274Y-127607363D01*
X83127521Y-127680189D01*
X83275358Y-127725034D01*
X83429103Y-127740177D01*
X83729103Y-127740177D01*
X83882848Y-127725034D01*
X84030685Y-127680189D01*
X84166932Y-127607363D01*
X84204103Y-127576858D01*
X84241274Y-127607363D01*
X84377521Y-127680189D01*
X84525358Y-127725034D01*
X84679103Y-127740177D01*
X84979103Y-127740177D01*
X85132848Y-127725034D01*
X85280685Y-127680189D01*
X85402928Y-127614849D01*
X85424609Y-127632642D01*
X85534923Y-127691607D01*
X85654621Y-127727917D01*
X85779103Y-127740177D01*
X85793353Y-127737105D01*
X85952103Y-127578355D01*
X85952103Y-126379105D01*
X86206103Y-126379105D01*
X86206103Y-127578355D01*
X86364853Y-127737105D01*
X86379103Y-127740177D01*
X86503585Y-127727917D01*
X86623283Y-127691607D01*
X86733597Y-127632642D01*
X86830288Y-127553290D01*
X86909640Y-127456599D01*
X86968605Y-127346285D01*
X87004915Y-127226587D01*
X87017175Y-127102105D01*
X87014103Y-126537855D01*
X86855353Y-126379105D01*
X86206103Y-126379105D01*
X85952103Y-126379105D01*
X85932103Y-126379105D01*
X85932103Y-126125105D01*
X85952103Y-126125105D01*
X85952103Y-124925855D01*
X86206103Y-124925855D01*
X86206103Y-126125105D01*
X86855353Y-126125105D01*
X87014103Y-125966355D01*
X87017175Y-125402105D01*
X87004915Y-125277623D01*
X86968605Y-125157925D01*
X86909640Y-125047611D01*
X86830288Y-124950920D01*
X86733597Y-124871568D01*
X86623283Y-124812603D01*
X86503585Y-124776293D01*
X86379103Y-124764033D01*
X86364853Y-124767105D01*
X86206103Y-124925855D01*
X85952103Y-124925855D01*
X85793353Y-124767105D01*
X85779103Y-124764033D01*
X85654621Y-124776293D01*
X85589103Y-124796168D01*
X85589103Y-124549427D01*
X85592779Y-124512104D01*
X85589646Y-124480289D01*
X85628381Y-124407821D01*
X85676072Y-124250605D01*
X85692175Y-124087105D01*
X85692175Y-123848834D01*
X88273905Y-121267106D01*
X95382350Y-121267106D01*
X95311171Y-121438947D01*
%TA.AperFunction,Conductor*%
D18*
G36*
X95311171Y-121438947D02*
G01*
X95254103Y-121725845D01*
X95254103Y-122018365D01*
X95311171Y-122305263D01*
X95423113Y-122575516D01*
X95585628Y-122818737D01*
X95792471Y-123025580D01*
X95966863Y-123142105D01*
X95792471Y-123258630D01*
X95585628Y-123465473D01*
X95423113Y-123708694D01*
X95311171Y-123978947D01*
X95254103Y-124265845D01*
X95254103Y-124558365D01*
X95311171Y-124845263D01*
X95423113Y-125115516D01*
X95585628Y-125358737D01*
X95792471Y-125565580D01*
X95966863Y-125682105D01*
X95792471Y-125798630D01*
X95585628Y-126005473D01*
X95423113Y-126248694D01*
X95311171Y-126518947D01*
X95254103Y-126805845D01*
X95254103Y-127098365D01*
X95311171Y-127385263D01*
X95380279Y-127552105D01*
X92982814Y-127552105D01*
X92938877Y-127508168D01*
X92769359Y-127394900D01*
X92581001Y-127316879D01*
X92381042Y-127277105D01*
X92177164Y-127277105D01*
X91977205Y-127316879D01*
X91788847Y-127394900D01*
X91619329Y-127508168D01*
X91475166Y-127652331D01*
X91361898Y-127821849D01*
X91283877Y-128010207D01*
X91244103Y-128210166D01*
X91244103Y-128414044D01*
X91283877Y-128614003D01*
X91361898Y-128802361D01*
X91459262Y-128948077D01*
X91369329Y-129008168D01*
X91225166Y-129152331D01*
X91111898Y-129321849D01*
X91033877Y-129510207D01*
X90994103Y-129710166D01*
X90994103Y-129914044D01*
X91033877Y-130114003D01*
X91111898Y-130302361D01*
X91225166Y-130471879D01*
X91366162Y-130612875D01*
X91288847Y-130644900D01*
X91119329Y-130758168D01*
X90975166Y-130902331D01*
X90902653Y-131010854D01*
X90834089Y-130942290D01*
X90810286Y-130913286D01*
X90694561Y-130818313D01*
X90562532Y-130747741D01*
X90419271Y-130704284D01*
X90307618Y-130693287D01*
X90307607Y-130693287D01*
X90270285Y-130689611D01*
X90232963Y-130693287D01*
X89053270Y-130693287D01*
X89067175Y-130552105D01*
X89067175Y-128352105D01*
X89050111Y-128178851D01*
X88999575Y-128012255D01*
X88917508Y-127858719D01*
X88807065Y-127724143D01*
X88672489Y-127613700D01*
X88518953Y-127531633D01*
X88352357Y-127481097D01*
X88179103Y-127464033D01*
X87679103Y-127464033D01*
X87505849Y-127481097D01*
X87339253Y-127531633D01*
X87185717Y-127613700D01*
X87051141Y-127724143D01*
X86940698Y-127858719D01*
X86858631Y-128012255D01*
X86808095Y-128178851D01*
X86791031Y-128352105D01*
X86791031Y-130552105D01*
X86804936Y-130693287D01*
X82853270Y-130693287D01*
X82867175Y-130552105D01*
X82867175Y-128352105D01*
X82850111Y-128178851D01*
X82799575Y-128012255D01*
X82717508Y-127858719D01*
X82607065Y-127724143D01*
X82542530Y-127671181D01*
X82553937Y-127659774D01*
X82667205Y-127490256D01*
X82737176Y-127321332D01*
X82773845Y-127389934D01*
X82871852Y-127509356D01*
X82991274Y-127607363D01*
X83127521Y-127680189D01*
X83275358Y-127725034D01*
X83429103Y-127740177D01*
X83729103Y-127740177D01*
X83882848Y-127725034D01*
X84030685Y-127680189D01*
X84166932Y-127607363D01*
X84204103Y-127576858D01*
X84241274Y-127607363D01*
X84377521Y-127680189D01*
X84525358Y-127725034D01*
X84679103Y-127740177D01*
X84979103Y-127740177D01*
X85132848Y-127725034D01*
X85280685Y-127680189D01*
X85402928Y-127614849D01*
X85424609Y-127632642D01*
X85534923Y-127691607D01*
X85654621Y-127727917D01*
X85779103Y-127740177D01*
X85793353Y-127737105D01*
X85952103Y-127578355D01*
X85952103Y-126379105D01*
X86206103Y-126379105D01*
X86206103Y-127578355D01*
X86364853Y-127737105D01*
X86379103Y-127740177D01*
X86503585Y-127727917D01*
X86623283Y-127691607D01*
X86733597Y-127632642D01*
X86830288Y-127553290D01*
X86909640Y-127456599D01*
X86968605Y-127346285D01*
X87004915Y-127226587D01*
X87017175Y-127102105D01*
X87014103Y-126537855D01*
X86855353Y-126379105D01*
X86206103Y-126379105D01*
X85952103Y-126379105D01*
X85932103Y-126379105D01*
X85932103Y-126125105D01*
X85952103Y-126125105D01*
X85952103Y-124925855D01*
X86206103Y-124925855D01*
X86206103Y-126125105D01*
X86855353Y-126125105D01*
X87014103Y-125966355D01*
X87017175Y-125402105D01*
X87004915Y-125277623D01*
X86968605Y-125157925D01*
X86909640Y-125047611D01*
X86830288Y-124950920D01*
X86733597Y-124871568D01*
X86623283Y-124812603D01*
X86503585Y-124776293D01*
X86379103Y-124764033D01*
X86364853Y-124767105D01*
X86206103Y-124925855D01*
X85952103Y-124925855D01*
X85793353Y-124767105D01*
X85779103Y-124764033D01*
X85654621Y-124776293D01*
X85589103Y-124796168D01*
X85589103Y-124549427D01*
X85592779Y-124512104D01*
X85589646Y-124480289D01*
X85628381Y-124407821D01*
X85676072Y-124250605D01*
X85692175Y-124087105D01*
X85692175Y-123848834D01*
X88273905Y-121267106D01*
X95382350Y-121267106D01*
X95311171Y-121438947D01*
G37*
%TD.AperFunction*%
D17*
X56996327Y-126520079D02*
X56855353Y-126379105D01*
X56206103Y-126379105D01*
X56206103Y-126399105D01*
X55952103Y-126399105D01*
X55952103Y-126379105D01*
X55932103Y-126379105D01*
X55932103Y-126125105D01*
X55952103Y-126125105D01*
X55952103Y-126105105D01*
X56206103Y-126105105D01*
X56206103Y-126125105D01*
X56855353Y-126125105D01*
X57014103Y-125966355D01*
X57017175Y-125402105D01*
X57009296Y-125322105D01*
X58194301Y-125322105D01*
X56996327Y-126520079D01*
%TA.AperFunction,Conductor*%
D18*
G36*
X56996327Y-126520079D02*
G01*
X56855353Y-126379105D01*
X56206103Y-126379105D01*
X56206103Y-126399105D01*
X55952103Y-126399105D01*
X55952103Y-126379105D01*
X55932103Y-126379105D01*
X55932103Y-126125105D01*
X55952103Y-126125105D01*
X55952103Y-126105105D01*
X56206103Y-126105105D01*
X56206103Y-126125105D01*
X56855353Y-126125105D01*
X57014103Y-125966355D01*
X57017175Y-125402105D01*
X57009296Y-125322105D01*
X58194301Y-125322105D01*
X56996327Y-126520079D01*
G37*
%TD.AperFunction*%
D17*
X95254103Y-109318365D02*
X95311171Y-109605263D01*
X95423113Y-109875516D01*
X95585628Y-110118737D01*
X95792471Y-110325580D01*
X95974637Y-110447300D01*
X95857748Y-110516927D01*
X95641515Y-110711836D01*
X95467462Y-110945185D01*
X95342278Y-111208006D01*
X95297627Y-111355215D01*
X95418948Y-111585105D01*
X96612103Y-111585105D01*
X96612103Y-111565105D01*
X96866103Y-111565105D01*
X96866103Y-111585105D01*
X96886103Y-111585105D01*
X96886103Y-111839105D01*
X96866103Y-111839105D01*
X96866103Y-111859105D01*
X96612103Y-111859105D01*
X96612103Y-111839105D01*
X95418948Y-111839105D01*
X95297627Y-112068995D01*
X95342278Y-112216204D01*
X95467462Y-112479025D01*
X95641515Y-112712374D01*
X95857748Y-112907283D01*
X95974637Y-112976910D01*
X95792471Y-113098630D01*
X95585628Y-113305473D01*
X95423113Y-113548694D01*
X95311171Y-113818947D01*
X95254103Y-114105845D01*
X95254103Y-114398365D01*
X95311171Y-114685263D01*
X95382350Y-114857104D01*
X90761429Y-114857104D01*
X90724104Y-114853428D01*
X90686779Y-114857104D01*
X90686771Y-114857104D01*
X90575118Y-114868101D01*
X90431857Y-114911558D01*
X90299828Y-114982130D01*
X90184103Y-115077103D01*
X90160305Y-115106101D01*
X87214302Y-118052105D01*
X85142175Y-118052105D01*
X85142175Y-116762105D01*
X85127032Y-116608360D01*
X85089103Y-116483322D01*
X85089103Y-115884010D01*
X85176141Y-115990067D01*
X85310717Y-116100510D01*
X85464253Y-116182577D01*
X85630849Y-116233113D01*
X85804103Y-116250177D01*
X86304103Y-116250177D01*
X86477357Y-116233113D01*
X86643953Y-116182577D01*
X86797489Y-116100510D01*
X86932065Y-115990067D01*
X87042508Y-115855491D01*
X87124575Y-115701955D01*
X87175111Y-115535359D01*
X87192175Y-115362105D01*
X87192175Y-113162105D01*
X87183311Y-113072105D01*
X89991781Y-113072105D01*
X90029103Y-113075781D01*
X90066425Y-113072105D01*
X90066436Y-113072105D01*
X90178089Y-113061108D01*
X90321350Y-113017651D01*
X90453379Y-112947079D01*
X90569104Y-112852106D01*
X90592907Y-112823103D01*
X90653432Y-112762577D01*
X90655699Y-112785595D01*
X90674821Y-112881728D01*
X90711130Y-113001424D01*
X90748639Y-113091980D01*
X90807605Y-113202297D01*
X90862061Y-113283796D01*
X90941413Y-113380487D01*
X91010721Y-113449795D01*
X91107412Y-113529147D01*
X91188911Y-113583603D01*
X91299228Y-113642569D01*
X91389784Y-113680078D01*
X91509480Y-113716387D01*
X91605613Y-113735509D01*
X91730094Y-113747769D01*
X91754653Y-113747769D01*
X91779103Y-113750177D01*
X92279103Y-113750177D01*
X92303553Y-113747769D01*
X92328112Y-113747769D01*
X92452593Y-113735509D01*
X92548726Y-113716387D01*
X92668422Y-113680078D01*
X92758978Y-113642569D01*
X92869295Y-113583603D01*
X92950794Y-113529147D01*
X93047485Y-113449795D01*
X93116793Y-113380487D01*
X93123672Y-113372105D01*
X93408499Y-113372105D01*
X93475166Y-113471879D01*
X93619329Y-113616042D01*
X93788847Y-113729310D01*
X93977205Y-113807331D01*
X94177164Y-113847105D01*
X94381042Y-113847105D01*
X94581001Y-113807331D01*
X94769359Y-113729310D01*
X94938877Y-113616042D01*
X95083040Y-113471879D01*
X95196308Y-113302361D01*
X95274329Y-113114003D01*
X95314103Y-112914044D01*
X95314103Y-112710166D01*
X95274329Y-112510207D01*
X95196308Y-112321849D01*
X95083040Y-112152331D01*
X94938877Y-112008168D01*
X94769359Y-111894900D01*
X94581001Y-111816879D01*
X94381042Y-111777105D01*
X94177164Y-111777105D01*
X93977205Y-111816879D01*
X93892163Y-111852105D01*
X93413235Y-111852105D01*
X93417175Y-111812105D01*
X93417175Y-110812105D01*
X93413074Y-110770466D01*
X93508089Y-110761108D01*
X93651350Y-110717651D01*
X93783379Y-110647079D01*
X93899104Y-110552106D01*
X93922907Y-110523102D01*
X95254103Y-109191906D01*
X95254103Y-109318365D01*
%TA.AperFunction,Conductor*%
D18*
G36*
X95254103Y-109318365D02*
G01*
X95311171Y-109605263D01*
X95423113Y-109875516D01*
X95585628Y-110118737D01*
X95792471Y-110325580D01*
X95974637Y-110447300D01*
X95857748Y-110516927D01*
X95641515Y-110711836D01*
X95467462Y-110945185D01*
X95342278Y-111208006D01*
X95297627Y-111355215D01*
X95418948Y-111585105D01*
X96612103Y-111585105D01*
X96612103Y-111565105D01*
X96866103Y-111565105D01*
X96866103Y-111585105D01*
X96886103Y-111585105D01*
X96886103Y-111839105D01*
X96866103Y-111839105D01*
X96866103Y-111859105D01*
X96612103Y-111859105D01*
X96612103Y-111839105D01*
X95418948Y-111839105D01*
X95297627Y-112068995D01*
X95342278Y-112216204D01*
X95467462Y-112479025D01*
X95641515Y-112712374D01*
X95857748Y-112907283D01*
X95974637Y-112976910D01*
X95792471Y-113098630D01*
X95585628Y-113305473D01*
X95423113Y-113548694D01*
X95311171Y-113818947D01*
X95254103Y-114105845D01*
X95254103Y-114398365D01*
X95311171Y-114685263D01*
X95382350Y-114857104D01*
X90761429Y-114857104D01*
X90724104Y-114853428D01*
X90686779Y-114857104D01*
X90686771Y-114857104D01*
X90575118Y-114868101D01*
X90431857Y-114911558D01*
X90299828Y-114982130D01*
X90184103Y-115077103D01*
X90160305Y-115106101D01*
X87214302Y-118052105D01*
X85142175Y-118052105D01*
X85142175Y-116762105D01*
X85127032Y-116608360D01*
X85089103Y-116483322D01*
X85089103Y-115884010D01*
X85176141Y-115990067D01*
X85310717Y-116100510D01*
X85464253Y-116182577D01*
X85630849Y-116233113D01*
X85804103Y-116250177D01*
X86304103Y-116250177D01*
X86477357Y-116233113D01*
X86643953Y-116182577D01*
X86797489Y-116100510D01*
X86932065Y-115990067D01*
X87042508Y-115855491D01*
X87124575Y-115701955D01*
X87175111Y-115535359D01*
X87192175Y-115362105D01*
X87192175Y-113162105D01*
X87183311Y-113072105D01*
X89991781Y-113072105D01*
X90029103Y-113075781D01*
X90066425Y-113072105D01*
X90066436Y-113072105D01*
X90178089Y-113061108D01*
X90321350Y-113017651D01*
X90453379Y-112947079D01*
X90569104Y-112852106D01*
X90592907Y-112823103D01*
X90653432Y-112762577D01*
X90655699Y-112785595D01*
X90674821Y-112881728D01*
X90711130Y-113001424D01*
X90748639Y-113091980D01*
X90807605Y-113202297D01*
X90862061Y-113283796D01*
X90941413Y-113380487D01*
X91010721Y-113449795D01*
X91107412Y-113529147D01*
X91188911Y-113583603D01*
X91299228Y-113642569D01*
X91389784Y-113680078D01*
X91509480Y-113716387D01*
X91605613Y-113735509D01*
X91730094Y-113747769D01*
X91754653Y-113747769D01*
X91779103Y-113750177D01*
X92279103Y-113750177D01*
X92303553Y-113747769D01*
X92328112Y-113747769D01*
X92452593Y-113735509D01*
X92548726Y-113716387D01*
X92668422Y-113680078D01*
X92758978Y-113642569D01*
X92869295Y-113583603D01*
X92950794Y-113529147D01*
X93047485Y-113449795D01*
X93116793Y-113380487D01*
X93123672Y-113372105D01*
X93408499Y-113372105D01*
X93475166Y-113471879D01*
X93619329Y-113616042D01*
X93788847Y-113729310D01*
X93977205Y-113807331D01*
X94177164Y-113847105D01*
X94381042Y-113847105D01*
X94581001Y-113807331D01*
X94769359Y-113729310D01*
X94938877Y-113616042D01*
X95083040Y-113471879D01*
X95196308Y-113302361D01*
X95274329Y-113114003D01*
X95314103Y-112914044D01*
X95314103Y-112710166D01*
X95274329Y-112510207D01*
X95196308Y-112321849D01*
X95083040Y-112152331D01*
X94938877Y-112008168D01*
X94769359Y-111894900D01*
X94581001Y-111816879D01*
X94381042Y-111777105D01*
X94177164Y-111777105D01*
X93977205Y-111816879D01*
X93892163Y-111852105D01*
X93413235Y-111852105D01*
X93417175Y-111812105D01*
X93417175Y-110812105D01*
X93413074Y-110770466D01*
X93508089Y-110761108D01*
X93651350Y-110717651D01*
X93783379Y-110647079D01*
X93899104Y-110552106D01*
X93922907Y-110523102D01*
X95254103Y-109191906D01*
X95254103Y-109318365D01*
G37*
%TD.AperFunction*%
%TD*%
M02*
