M48
METRIC,TZ
T1C0.400
T2C1.000
%
G90
G05
T1
X42250Y-139750
X43500Y-108000
X43779Y-129471
X45250Y-124537
X47750Y-117250
X48750Y-122500
X53029Y-128812
X53579Y-127762
X54779Y-128537
X55250Y-122250
X57500Y-125500
X57750Y-123500
X62250Y-127000
X62750Y-122750
X67250Y-123750
X70000Y-114250
X72002Y-127000
X76500Y-116500
X78000Y-120250
X81750Y-127000
X83750Y-115000
X88250Y-123500
X88750Y-114500
X90500Y-124750
X91779Y-131562
X92029Y-129812
X92279Y-128312
X93529Y-107312
X94279Y-112812
X101000Y-122750
T2
X35779Y-101552
X35779Y-104092
X35779Y-106632
X35779Y-109172
X35779Y-111712
X35779Y-114252
X35779Y-116792
X35779Y-119332
X35779Y-121872
X35779Y-124412
X35779Y-126952
X35779Y-129492
X35779Y-132032
X35779Y-134572
X35779Y-137112
X35779Y-139652
X35779Y-142192
X35779Y-144732
X35779Y-147272
X38319Y-101552
X38319Y-104092
X38319Y-106632
X38319Y-109172
X38319Y-111712
X38319Y-114252
X38319Y-116792
X38319Y-119332
X38319Y-121872
X38319Y-124412
X38319Y-126952
X38319Y-129492
X38319Y-132032
X38319Y-134572
X38319Y-137112
X38319Y-139652
X38319Y-142192
X38319Y-144732
X38319Y-147272
X96739Y-101552
X96739Y-104092
X96739Y-106632
X96739Y-109172
X96739Y-111712
X96739Y-114252
X96739Y-116792
X96739Y-119332
X96739Y-121872
X96739Y-124412
X96739Y-126952
X96739Y-129492
X96739Y-132032
X96739Y-134572
X96739Y-137112
X96739Y-139652
X96739Y-142192
X96739Y-144732
X96739Y-147272
X99279Y-101552
X99279Y-104092
X99279Y-106632
X99279Y-109172
X99279Y-111712
X99279Y-114252
X99279Y-116792
X99279Y-119332
X99279Y-121872
X99279Y-124412
X99279Y-126952
X99279Y-129492
X99279Y-132032
X99279Y-134572
X99279Y-137112
X99279Y-139652
X99279Y-142192
X99279Y-144732
X99279Y-147272
T0
M30
