%TF.GenerationSoftware,KiCad,Pcbnew,(5.1.8)-1*%
%TF.CreationDate,2021-02-11T10:10:36+01:00*%
%TF.ProjectId,shieldV1,73686965-6c64-4563-912e-6b696361645f,rev?*%
%TF.SameCoordinates,Original*%
%TF.FileFunction,Soldermask,Bot*%
%TF.FilePolarity,Negative*%
%FSLAX46Y46*%
G04 Gerber Fmt 4.6, Leading zero omitted, Abs format (unit mm)*
G04 Created by KiCad (PCBNEW (5.1.8)-1) date 2021-02-11 10:10:36*
%MOMM*%
%LPD*%
G01*
G04 APERTURE LIST*
%ADD10O,1.700000X1.700000*%
%ADD11R,1.700000X1.700000*%
G04 APERTURE END LIST*
D10*
%TO.C,J2*%
X99279103Y-147272105D03*
X96739103Y-147272105D03*
X99279103Y-144732105D03*
X96739103Y-144732105D03*
X99279103Y-142192105D03*
X96739103Y-142192105D03*
X99279103Y-139652105D03*
X96739103Y-139652105D03*
X99279103Y-137112105D03*
X96739103Y-137112105D03*
X99279103Y-134572105D03*
X96739103Y-134572105D03*
X99279103Y-132032105D03*
X96739103Y-132032105D03*
X99279103Y-129492105D03*
X96739103Y-129492105D03*
X99279103Y-126952105D03*
X96739103Y-126952105D03*
X99279103Y-124412105D03*
X96739103Y-124412105D03*
X99279103Y-121872105D03*
X96739103Y-121872105D03*
X99279103Y-119332105D03*
X96739103Y-119332105D03*
X99279103Y-116792105D03*
X96739103Y-116792105D03*
X99279103Y-114252105D03*
X96739103Y-114252105D03*
X99279103Y-111712105D03*
X96739103Y-111712105D03*
X99279103Y-109172105D03*
X96739103Y-109172105D03*
X99279103Y-106632105D03*
X96739103Y-106632105D03*
X99279103Y-104092105D03*
X96739103Y-104092105D03*
X99279103Y-101552105D03*
D11*
X96739103Y-101552105D03*
%TD*%
D10*
%TO.C,J1*%
X38319103Y-147272105D03*
X35779103Y-147272105D03*
X38319103Y-144732105D03*
X35779103Y-144732105D03*
X38319103Y-142192105D03*
X35779103Y-142192105D03*
X38319103Y-139652105D03*
X35779103Y-139652105D03*
X38319103Y-137112105D03*
X35779103Y-137112105D03*
X38319103Y-134572105D03*
X35779103Y-134572105D03*
X38319103Y-132032105D03*
X35779103Y-132032105D03*
X38319103Y-129492105D03*
X35779103Y-129492105D03*
X38319103Y-126952105D03*
X35779103Y-126952105D03*
X38319103Y-124412105D03*
X35779103Y-124412105D03*
X38319103Y-121872105D03*
X35779103Y-121872105D03*
X38319103Y-119332105D03*
X35779103Y-119332105D03*
X38319103Y-116792105D03*
X35779103Y-116792105D03*
X38319103Y-114252105D03*
X35779103Y-114252105D03*
X38319103Y-111712105D03*
X35779103Y-111712105D03*
X38319103Y-109172105D03*
X35779103Y-109172105D03*
X38319103Y-106632105D03*
X35779103Y-106632105D03*
X38319103Y-104092105D03*
X35779103Y-104092105D03*
X38319103Y-101552105D03*
D11*
X35779103Y-101552105D03*
%TD*%
M02*
